<?xml version="1.0" encoding="utf-8"?>
<!-- Generator: Adobe Illustrator 18.0.0, SVG Export Plug-In . SVG Version: 6.00 Build 0)  -->
<!DOCTYPE svg PUBLIC "-//W3C//DTD SVG 1.1//EN" "http://www.w3.org/Graphics/SVG/1.1/DTD/svg11.dtd">
<svg version="1.1" id="Capa_1" xmlns="http://www.w3.org/2000/svg" xmlns:xlink="http://www.w3.org/1999/xlink" x="0px" y="0px"
	 width="250px" height="900px" viewBox="0 0 250 900" enable-background="new 0 0 250 900" xml:space="preserve">
<line fill="none" stroke="#0000FE" stroke-width="8" stroke-linecap="round" stroke-miterlimit="10" x1="9" y1="845" x2="241" y2="845"/>
<g>
	
		<line fill="none" stroke="#0000FE" stroke-width="8" stroke-linecap="round" stroke-miterlimit="10" x1="221" y1="800" x2="183.5" y2="893"/>
	
		<line fill="none" stroke="#0000FE" stroke-width="8" stroke-linecap="round" stroke-miterlimit="10" x1="185" y1="800" x2="222.5" y2="893"/>
</g>
<line fill="none" stroke="#0000FE" stroke-width="8" stroke-linecap="round" stroke-miterlimit="10" x1="9" y1="686" x2="241" y2="686"/>
<g>
	
		<line fill="none" stroke="#0000FE" stroke-width="8" stroke-linecap="round" stroke-miterlimit="10" x1="65" y1="641" x2="27.5" y2="734"/>
	
		<line fill="none" stroke="#0000FE" stroke-width="8" stroke-linecap="round" stroke-miterlimit="10" x1="29" y1="641" x2="66.5" y2="734"/>
</g>
<g>
	
		<line fill="none" stroke="#0000FE" stroke-width="8" stroke-linecap="round" stroke-miterlimit="10" x1="221" y1="641" x2="183.5" y2="734"/>
	
		<line fill="none" stroke="#0000FE" stroke-width="8" stroke-linecap="round" stroke-miterlimit="10" x1="185" y1="641" x2="222.5" y2="734"/>
</g>
<g>
	
		<line fill="none" stroke="#0000FE" stroke-width="8" stroke-linecap="round" stroke-miterlimit="10" x1="143" y1="641" x2="105.5" y2="734"/>
	
		<line fill="none" stroke="#0000FE" stroke-width="8" stroke-linecap="round" stroke-miterlimit="10" x1="107" y1="641" x2="144.5" y2="734"/>
</g>
<line fill="none" stroke="#0000FE" stroke-width="8" stroke-linecap="round" stroke-miterlimit="10" x1="9" y1="527" x2="241" y2="527"/>
<g>
	
		<line fill="none" stroke="#0000FE" stroke-width="8" stroke-linecap="round" stroke-miterlimit="10" x1="65" y1="482" x2="27.5" y2="575"/>
</g>
<g>
	
		<line fill="none" stroke="#0000FE" stroke-width="8" stroke-linecap="round" stroke-miterlimit="10" x1="221" y1="482" x2="183.5" y2="575"/>
	
		<line fill="none" stroke="#0000FE" stroke-width="8" stroke-linecap="round" stroke-miterlimit="10" x1="185" y1="482" x2="222.5" y2="575"/>
</g>
<g>
	
		<line fill="none" stroke="#0000FE" stroke-width="8" stroke-linecap="round" stroke-miterlimit="10" x1="143" y1="482" x2="105.5" y2="575"/>
	
		<line fill="none" stroke="#0000FE" stroke-width="8" stroke-linecap="round" stroke-miterlimit="10" x1="107" y1="482" x2="144.5" y2="575"/>
</g>
<line fill="none" stroke="#0000FE" stroke-width="8" stroke-linecap="round" stroke-miterlimit="10" x1="9" y1="368" x2="241" y2="368"/>
<g>
	
		<line fill="none" stroke="#0000FE" stroke-width="8" stroke-linecap="round" stroke-miterlimit="10" x1="221" y1="323" x2="183.5" y2="416"/>
	
		<line fill="none" stroke="#0000FE" stroke-width="8" stroke-linecap="round" stroke-miterlimit="10" x1="185" y1="323" x2="222.5" y2="416"/>
</g>
<g>
	
		<line fill="none" stroke="#0000FE" stroke-width="8" stroke-linecap="round" stroke-miterlimit="10" x1="143" y1="323" x2="105.5" y2="416"/>
	
		<line fill="none" stroke="#0000FE" stroke-width="8" stroke-linecap="round" stroke-miterlimit="10" x1="107" y1="323" x2="144.5" y2="416"/>
</g>
<line fill="none" stroke="#0000FE" stroke-width="8" stroke-linecap="round" stroke-miterlimit="10" x1="9" y1="209" x2="241" y2="209"/>
<g>
	
		<line fill="none" stroke="#0000FE" stroke-width="8" stroke-linecap="round" stroke-miterlimit="10" x1="221" y1="164" x2="183.5" y2="257"/>
	
		<line fill="none" stroke="#0000FE" stroke-width="8" stroke-linecap="round" stroke-miterlimit="10" x1="185" y1="164" x2="222.5" y2="257"/>
</g>
<line fill="none" stroke="#0000FE" stroke-width="8" stroke-linecap="round" stroke-miterlimit="10" x1="9" y1="50" x2="241" y2="50"/>
<g>
	
		<line fill="none" stroke="#0000FE" stroke-width="8" stroke-linecap="round" stroke-miterlimit="10" x1="65" y1="5" x2="27.5" y2="98"/>
	
		<line fill="none" stroke="#0000FE" stroke-width="8" stroke-linecap="round" stroke-miterlimit="10" x1="29" y1="5" x2="66.5" y2="98"/>
</g>
<g>
	
		<line fill="none" stroke="#0000FE" stroke-width="8" stroke-linecap="round" stroke-miterlimit="10" x1="221" y1="5" x2="183.5" y2="98"/>
	
		<line fill="none" stroke="#0000FE" stroke-width="8" stroke-linecap="round" stroke-miterlimit="10" x1="185" y1="5" x2="222.5" y2="98"/>
</g>
<g>
	
		<line fill="none" stroke="#0000FE" stroke-width="8" stroke-linecap="round" stroke-miterlimit="10" x1="143" y1="5" x2="105.5" y2="98"/>
	
		<line fill="none" stroke="#0000FE" stroke-width="8" stroke-linecap="round" stroke-miterlimit="10" x1="107" y1="5" x2="144.5" y2="98"/>
</g>
<line fill="none" stroke="#0000FE" stroke-width="8" stroke-linecap="round" stroke-miterlimit="10" x1="80" y1="319" x2="80" y2="419"/>
<line fill="none" stroke="#0000FE" stroke-width="8" stroke-linecap="round" stroke-miterlimit="10" x1="42" y1="329" x2="42" y2="409"/>
<g>
	
		<line fill="none" stroke="#0000FE" stroke-width="8" stroke-linecap="round" stroke-miterlimit="10" x1="143" y1="164" x2="105.5" y2="257"/>
	
		<line fill="none" stroke="#0000FE" stroke-width="8" stroke-linecap="round" stroke-miterlimit="10" x1="107" y1="164" x2="144.5" y2="257"/>
</g>
<line fill="none" stroke="#0000FE" stroke-width="8" stroke-linecap="round" stroke-miterlimit="10" x1="80" y1="160" x2="80" y2="260"/>
<line fill="none" stroke="#0000FE" stroke-width="8" stroke-linecap="round" stroke-miterlimit="10" x1="42" y1="170" x2="42" y2="250"/>
</svg>
