<?xml version="1.0" encoding="utf-8"?>
<svg
  version="1.1"
  xmlns="http://www.w3.org/2000/svg"
  xmlns:xlink="http://www.w3.org/1999/xlink"
  x="0px"
  y="0px"
  width="80px"
  height="30px"
  viewBox="0 0 80 30"
  style="enable-background: new 0 0 80 30"
  xml:space="preserve"
>
  <path
    d="M64.6,10.1h-2.1V9.7h2.1V10.1z M61.3,22.6h-2.1v-0.5h2.1V22.6z M63.4,24.2c0-0.2-0.1-0.5-0.4-0.5c-0.4,0-0.4,0.4-0.4,1.1
	c0,0.1,0,0.8,0,1.1c0,0.3,0,0.7,0.4,0.7c0.4,0,0.4-0.4,0.4-1.4C63.4,24.8,63.4,24.4,63.4,24.2 M64,26.4c-0.1,0.2-0.2,0.7-1,0.7
	c-0.4,0-0.7-0.1-0.9-0.4c-0.1-0.3-0.2-0.5-0.2-1.4c0-0.5,0-1.1,0.1-1.4c0.1-0.2,0.2-0.7,1-0.7c0.5,0,0.8,0.2,0.9,0.5
	c0.1,0.3,0.1,0.4,0.1,1.5C64,25.4,64,26.1,64,26.4 M61.3,27h-0.6v-2.4c0-0.5,0-0.9-0.4-0.9c-0.5,0-0.5,0.5-0.5,0.9V27h-0.6v-3.7h0.6
	v0.3c0.1-0.1,0.3-0.4,0.8-0.4c0.8,0,0.8,0.7,0.8,1.2V27z M58,24.8v-0.5c0-0.2,0-0.6-0.5-0.6c-0.3,0-0.4,0.2-0.4,0.3
	c0,0.1,0,0.3,0,0.8H58z M58.5,25.8c0,0.3,0,0.4-0.1,0.6c-0.2,0.6-0.8,0.6-1,0.6c-0.2,0-0.7,0-0.9-0.6c-0.1-0.2-0.1-0.3-0.1-1.7
	c0-0.8,0.1-1.5,1-1.5c0.2,0,0.9,0,1,0.8c0,0.2,0,0.3,0,1.2H57c0,0.3,0,0.7,0,0.8c0,0.1,0.1,0.5,0.5,0.5c0.4,0,0.5-0.4,0.5-0.7H58.5z
	 M54.5,25.1c-0.3-0.2-0.5-0.5-0.5-0.9c0-0.8,0.5-0.9,0.9-0.9c0.3,0,0.6,0.1,0.7,0.2c0.2,0.2,0.2,0.6,0.2,0.9h-0.5
	c0-0.3,0-0.4-0.1-0.5c-0.1-0.2-0.3-0.2-0.3-0.2c-0.2,0-0.4,0.1-0.4,0.4c0,0.3,0.2,0.4,0.5,0.6l0.4,0.4c0.2,0.2,0.5,0.4,0.5,1
	c0,0.3-0.1,0.7-0.4,0.8C55.4,27,55.2,27,54.9,27c-0.2,0-0.7,0-0.9-0.5c-0.1-0.2-0.1-0.4-0.1-0.9h0.6c0,0.2,0,0.5,0,0.6
	c0.1,0.1,0.2,0.3,0.4,0.3c0.2,0,0.4-0.2,0.4-0.5c0-0.3-0.1-0.4-0.4-0.6L54.5,25.1z M53.4,27h-0.6v-3.7h0.6V27z M53.4,22.6h-0.6v-0.8
	h0.6V22.6z M51,23.7c-0.4,0-0.5,0.5-0.5,0.7c0,0.4,0,0.4,0,1c0,0.2,0,0.4,0,0.6c0,0.2,0,0.6,0.5,0.6c0.5,0,0.5-0.5,0.5-1.4
	C51.6,24.2,51.6,23.7,51,23.7 M52.1,27h-0.6v-0.4c-0.1,0.1-0.3,0.5-0.8,0.5c-0.1,0-0.2,0-0.2,0c-0.6-0.2-0.6-0.8-0.6-1.9
	c0-0.3,0-1,0.1-1.3c0.1-0.3,0.4-0.6,0.8-0.6c0.4,0,0.6,0.2,0.7,0.4v-1.8h0.6V27z M47.6,24.8v-0.5c0-0.2,0-0.6-0.5-0.6
	c-0.3,0-0.4,0.2-0.4,0.3c0,0.1,0,0.3,0,0.8H47.6z M48.1,25.8c0,0.3,0,0.4-0.1,0.6c-0.2,0.6-0.8,0.6-1,0.6c-0.2,0-0.7,0-0.9-0.6
	c-0.1-0.2-0.1-0.3-0.1-1.7c0-0.8,0.1-1.5,1-1.5c0.2,0,0.9,0,1,0.8c0,0.2,0,0.3,0,1.2h-1.5c0,0.3,0,0.7,0,0.8c0,0.1,0,0.5,0.5,0.5
	c0.4,0,0.5-0.4,0.5-0.7H48.1z M44.3,23.7c-0.4,0-0.5,0.5-0.5,0.7c0,0.4,0,0.4,0,1c0,0.2,0,0.4,0,0.6c0,0.2,0,0.6,0.5,0.6
	c0.5,0,0.5-0.5,0.5-1.4C44.8,24.2,44.8,23.7,44.3,23.7 M45.4,27h-0.6v-0.4C44.7,26.7,44.5,27,44,27c-0.1,0-0.2,0-0.2,0
	c-0.6-0.2-0.6-0.8-0.6-1.9c0-0.3,0-1,0.1-1.3c0.1-0.3,0.4-0.6,0.8-0.6c0.4,0,0.6,0.2,0.7,0.4v-1.8h0.6V27z M70.2,18.8
	c-0.3-0.2-0.5-0.5-0.5-0.9c0-0.8,0.5-0.9,0.9-0.9c0.3,0,0.6,0.1,0.7,0.2c0.2,0.2,0.2,0.6,0.2,0.9H71c0-0.3,0-0.4-0.1-0.5
	c-0.1-0.2-0.3-0.2-0.3-0.2c-0.2,0-0.4,0.1-0.4,0.4c0,0.3,0.2,0.4,0.5,0.6l0.4,0.4c0.2,0.2,0.5,0.4,0.5,1c0,0.3-0.1,0.7-0.4,0.8
	c-0.2,0.1-0.4,0.2-0.7,0.2c-0.2,0-0.7,0-0.9-0.5c-0.1-0.2-0.1-0.4-0.1-0.9h0.6c0,0.2,0,0.5,0,0.6c0.1,0.1,0.2,0.3,0.4,0.3
	c0.2,0,0.4-0.2,0.4-0.5c0-0.3-0.1-0.4-0.4-0.6L70.2,18.8z M68.6,18.5v-0.5c0-0.2,0-0.6-0.5-0.6c-0.3,0-0.4,0.2-0.4,0.3
	c0,0.1,0,0.3,0,0.8H68.6z M69.1,19.6c0,0.3,0,0.4-0.1,0.6c-0.2,0.6-0.8,0.6-1,0.6c-0.2,0-0.7,0-0.9-0.6C67.1,20.1,67,20,67,18.5
	c0-0.8,0.1-1.5,1-1.5c0.2,0,0.9,0,1,0.8c0,0.2,0,0.3,0,1.2h-1.5c0,0.3,0,0.7,0,0.8c0,0.1,0,0.5,0.5,0.5c0.4,0,0.5-0.4,0.5-0.7H69.1z
	 M66.4,20.7h-0.6v-2.4c0-0.5,0-0.9-0.4-0.9c-0.5,0-0.5,0.5-0.5,0.9v2.4h-0.6V17h0.6v0.3c0.1-0.1,0.3-0.4,0.8-0.4
	c0.8,0,0.8,0.7,0.8,1.2V20.7z M63,18c0-0.2-0.1-0.5-0.4-0.5c-0.4,0-0.4,0.4-0.4,1.1c0,0.1,0,0.8,0,1.1c0,0.3,0,0.7,0.4,0.7
	c0.4,0,0.4-0.4,0.4-1.4C63,18.6,63,18.2,63,18 M63.5,20.2c-0.1,0.2-0.2,0.7-1,0.7c-0.4,0-0.7-0.1-0.9-0.4c-0.1-0.3-0.1-0.5-0.1-1.4
	c0-0.5,0-1.1,0.1-1.4c0.1-0.2,0.2-0.7,1-0.7c0.5,0,0.8,0.2,0.9,0.5c0.1,0.3,0.1,0.4,0.1,1.5C63.6,19.2,63.6,19.9,63.5,20.2
	 M60.9,20.7h-0.6V17h0.6V20.7z M60.9,16.4h-0.6v-0.8h0.6V16.4z M59.7,19.4c0,0.7,0,1.4-1.1,1.4c-0.5,0-0.8-0.2-0.9-0.6
	c-0.1-0.2-0.1-0.6-0.1-1.2c0-1.3,0-2,1.1-2c1,0,1,0.7,1,1.4h-0.6c0-0.6,0-1-0.5-1s-0.5,0.3-0.5,1.4c0,0.1,0,0.7,0,1
	c0,0.2,0,0.6,0.5,0.6c0.4,0,0.5-0.4,0.5-1H59.7z M56.3,18.6c-0.2,0.2-0.2,0.2-0.5,0.4c-0.3,0.2-0.5,0.4-0.5,0.8c0,0.2,0,0.5,0.4,0.5
	c0.1,0,0.2,0,0.3-0.1c0.2-0.2,0.2-0.4,0.2-0.7V18.6z M56.9,20c0,0.6,0,0.7,0.2,0.8h-0.7v-0.4c-0.1,0.2-0.3,0.5-0.8,0.5
	c-0.2,0-0.3,0-0.4-0.1c-0.3-0.2-0.4-0.6-0.4-0.8c0-0.6,0.2-0.8,0.6-1.1c0.6-0.4,0.6-0.4,0.9-0.7c0-0.3,0-0.7-0.5-0.7
	c-0.4,0-0.4,0.3-0.4,0.5c0,0.1,0,0.2,0,0.3h-0.5c0-0.2,0-0.6,0.1-0.7c0.2-0.5,0.8-0.5,1-0.5c0.3,0,0.5,0,0.7,0.3
	c0.2,0.2,0.2,0.4,0.2,0.9V20z M54.2,20.7h-0.6V17h0.6V20.7z M54.2,16.4h-0.6v-0.8h0.6V16.4z M53,19.4c0,0.7,0,1.4-1.1,1.4
	c-0.5,0-0.8-0.2-0.9-0.6c-0.1-0.2-0.1-0.6-0.1-1.2c0-1.3,0-2,1.1-2c1,0,1,0.7,1,1.4h-0.6c0-0.6,0-1-0.5-1c-0.5,0-0.5,0.3-0.5,1.4
	c0,0.1,0,0.7,0,1c0,0.2,0,0.6,0.5,0.6s0.5-0.4,0.5-1H53z M49.7,18c0-0.2-0.1-0.5-0.4-0.5c-0.4,0-0.4,0.4-0.4,1.1c0,0.1,0,0.8,0,1.1
	c0,0.3,0,0.7,0.4,0.7c0.4,0,0.4-0.4,0.4-1.4C49.7,18.6,49.7,18.2,49.7,18 M50.3,20.2c-0.1,0.2-0.2,0.7-1,0.7c-0.4,0-0.7-0.1-0.9-0.4
	c-0.1-0.3-0.1-0.5-0.1-1.4c0-0.5,0-1.1,0.1-1.4c0.1-0.2,0.2-0.7,1-0.7c0.5,0,0.8,0.2,0.9,0.5c0.1,0.3,0.1,0.4,0.1,1.5
	C50.3,19.2,50.3,19.9,50.3,20.2 M46.3,18.8c-0.3-0.2-0.5-0.5-0.5-0.9c0-0.8,0.5-0.9,0.9-0.9c0.3,0,0.6,0.1,0.7,0.2
	c0.2,0.2,0.2,0.6,0.2,0.9h-0.5c0-0.3,0-0.4-0.1-0.5c-0.1-0.2-0.3-0.2-0.3-0.2c-0.2,0-0.4,0.1-0.4,0.4c0,0.3,0.2,0.4,0.5,0.6l0.4,0.4
	c0.2,0.2,0.5,0.4,0.5,1c0,0.3-0.1,0.7-0.4,0.8c-0.2,0.1-0.4,0.2-0.7,0.2c-0.2,0-0.7,0-0.9-0.5c-0.1-0.2-0.1-0.4-0.1-0.9h0.6
	c0,0.2,0,0.5,0,0.6c0.1,0.1,0.2,0.3,0.4,0.3c0.2,0,0.4-0.2,0.4-0.5c0-0.3-0.1-0.4-0.4-0.6L46.3,18.8z M44.6,18.6
	c-0.2,0.2-0.2,0.2-0.5,0.4c-0.3,0.2-0.5,0.4-0.5,0.8c0,0.2,0,0.5,0.4,0.5c0.1,0,0.2,0,0.3-0.1c0.2-0.2,0.2-0.4,0.2-0.7V18.6z
	 M45.2,20c0,0.6,0,0.7,0.2,0.8h-0.7v-0.4c-0.1,0.2-0.3,0.5-0.8,0.5c-0.2,0-0.3,0-0.4-0.1c-0.3-0.2-0.4-0.6-0.4-0.8
	c0-0.6,0.2-0.8,0.6-1.1c0.6-0.4,0.6-0.4,0.9-0.7c0-0.3,0-0.7-0.5-0.7c-0.4,0-0.4,0.3-0.4,0.5c0,0.1,0,0.2,0,0.3h-0.5
	c0-0.2,0-0.6,0.1-0.7c0.2-0.5,0.8-0.5,1-0.5c0.3,0,0.5,0,0.7,0.3c0.2,0.2,0.2,0.4,0.2,0.9V20z M77.5,12.3v-0.5c0-0.2,0-0.6-0.5-0.6
	c-0.3,0-0.4,0.2-0.4,0.3c0,0.1,0,0.3,0,0.8H77.5z M78,13.4c0,0.3,0,0.4-0.1,0.6c-0.2,0.6-0.8,0.6-1,0.6c-0.2,0-0.7,0-0.9-0.6
	c-0.1-0.2-0.1-0.3-0.1-1.7c0-0.8,0.1-1.5,1-1.5c0.2,0,0.9,0,1,0.8c0,0.2,0,0.3,0,1.2h-1.5c0,0.3,0,0.7,0,0.8c0,0.1,0,0.5,0.5,0.5
	c0.4,0,0.5-0.4,0.5-0.7H78z M74.2,11.2c-0.4,0-0.5,0.5-0.5,0.7c0,0.4,0,0.4,0,1c0,0.2,0,0.4,0,0.6c0,0.2,0,0.6,0.5,0.6
	c0.5,0,0.5-0.5,0.5-1.4C74.7,11.8,74.7,11.2,74.2,11.2 M75.3,14.5h-0.6v-0.4c-0.1,0.1-0.3,0.5-0.8,0.5c-0.1,0-0.2,0-0.2,0
	c-0.6-0.2-0.6-0.8-0.6-1.9c0-0.3,0-1,0.1-1.3c0.1-0.3,0.4-0.6,0.8-0.6c0.4,0,0.6,0.2,0.7,0.4V9.3h0.6V14.5z M70.6,12.4
	c-0.2,0.2-0.2,0.2-0.5,0.4c-0.3,0.2-0.5,0.4-0.5,0.8c0,0.2,0,0.5,0.4,0.5c0.1,0,0.2,0,0.3-0.1c0.2-0.2,0.2-0.4,0.2-0.7V12.4z
	 M71.2,13.7c0,0.6,0,0.7,0.2,0.8h-0.7v-0.4c-0.1,0.2-0.3,0.5-0.8,0.5c-0.2,0-0.3,0-0.4-0.1c-0.3-0.2-0.4-0.6-0.4-0.8
	c0-0.6,0.2-0.8,0.6-1.1c0.6-0.4,0.6-0.4,0.9-0.7c0-0.3,0-0.7-0.5-0.7c-0.4,0-0.4,0.3-0.4,0.5c0,0.1,0,0.2,0,0.3h-0.5
	c0-0.2,0-0.6,0.1-0.7c0.2-0.5,0.8-0.5,1-0.5c0.3,0,0.5,0,0.7,0.3c0.2,0.2,0.2,0.4,0.2,0.9V13.7z M68.6,14.5H68V9.3h0.6V14.5z
	 M66.7,11.8c0-0.2,0-0.5-0.4-0.5c-0.4,0-0.4,0.4-0.4,1.1c0,0.1,0,0.8,0,1.1c0,0.3,0,0.7,0.4,0.7c0.4,0,0.4-0.4,0.4-1.4
	C66.7,12.4,66.7,12,66.7,11.8 M67.2,13.9c-0.1,0.2-0.2,0.7-1,0.7c-0.4,0-0.7-0.1-0.9-0.4c-0.1-0.3-0.1-0.5-0.1-1.4
	c0-0.5,0-1.1,0.1-1.4c0.1-0.2,0.2-0.7,1-0.7c0.5,0,0.7,0.2,0.9,0.5c0.1,0.3,0.1,0.4,0.1,1.5C67.3,13,67.3,13.7,67.2,13.9 M64.6,14.5
	H64v-2.4c0-0.5,0-0.9-0.4-0.9c-0.5,0-0.5,0.5-0.5,0.9v2.4h-0.6v-3.7H63v0.3c0.1-0.1,0.3-0.4,0.8-0.4c0.8,0,0.8,0.7,0.8,1.2V14.5z
	 M61.2,12.4c-0.2,0.2-0.2,0.2-0.5,0.4c-0.3,0.2-0.5,0.4-0.5,0.8c0,0.2,0,0.5,0.4,0.5c0.1,0,0.2,0,0.3-0.1c0.2-0.2,0.2-0.4,0.2-0.7
	V12.4z M61.7,13.7c0,0.6,0,0.7,0.2,0.8h-0.7v-0.4c-0.1,0.2-0.3,0.5-0.8,0.5c-0.2,0-0.3,0-0.4-0.1c-0.4-0.2-0.4-0.6-0.4-0.8
	c0-0.6,0.2-0.8,0.6-1.1c0.6-0.4,0.6-0.4,0.9-0.7c0-0.3,0-0.7-0.5-0.7c-0.4,0-0.4,0.3-0.4,0.5c0,0.1,0,0.2,0,0.3h-0.5
	c0-0.2,0-0.6,0.1-0.7c0.2-0.5,0.8-0.5,1-0.5c0.3,0,0.5,0,0.7,0.3c0.2,0.2,0.2,0.4,0.2,0.9V13.7z M58.5,11.6c0-0.1-0.1-0.4-0.4-0.4
	c-0.4,0-0.5,0.5-0.5,0.7c0,0.2,0,0.3,0,1c0,0.4,0,0.8,0.1,1c0.1,0.2,0.2,0.3,0.4,0.3c0.4,0,0.4-0.4,0.4-0.5c0-0.3,0-1,0-1
	C58.5,12.2,58.5,11.8,58.5,11.6 M57.6,15.7h-0.6v-4.9h0.6v0.4c0.1-0.2,0.3-0.4,0.7-0.4c0.3,0,0.6,0.1,0.7,0.4
	c0.1,0.2,0.1,0.4,0.1,1.2c0,0.2,0,1,0,1.4c0,0.2-0.1,0.8-0.8,0.8c-0.4,0-0.6-0.2-0.7-0.4V15.7z M55,12.6c-0.3-0.2-0.5-0.5-0.5-0.9
	c0-0.8,0.5-0.9,0.9-0.9c0.3,0,0.6,0.1,0.7,0.2c0.2,0.2,0.2,0.6,0.2,0.9h-0.5c0-0.3,0-0.4-0.1-0.5c-0.1-0.2-0.3-0.2-0.3-0.2
	c-0.2,0-0.4,0.1-0.4,0.4c0,0.3,0.2,0.4,0.5,0.6l0.4,0.4c0.2,0.2,0.5,0.4,0.5,1c0,0.3-0.1,0.7-0.4,0.8c-0.2,0.1-0.4,0.2-0.7,0.2
	c-0.2,0-0.7,0-0.9-0.5c-0.1-0.2-0.1-0.4-0.1-0.9h0.6c0,0.2,0,0.5,0,0.6c0.1,0.1,0.2,0.3,0.4,0.3c0.2,0,0.4-0.2,0.4-0.4
	c0-0.3-0.1-0.4-0.4-0.6L55,12.6z M53.4,12.3v-0.5c0-0.2,0-0.6-0.5-0.6c-0.3,0-0.4,0.2-0.4,0.3c0,0.1,0,0.3,0,0.8H53.4z M53.9,13.4
	c0,0.3,0,0.4-0.1,0.6c-0.2,0.6-0.8,0.6-1,0.6c-0.2,0-0.7,0-0.9-0.6c-0.1-0.2-0.1-0.3-0.1-1.7c0-0.8,0.1-1.5,1-1.5c0.2,0,0.9,0,1,0.8
	c0,0.2,0,0.3,0,1.2h-1.5c0,0.3,0,0.7,0,0.8c0,0.1,0,0.5,0.5,0.5c0.4,0,0.5-0.4,0.5-0.7H53.9z M48.9,11.2c-0.4,0-0.5,0.5-0.5,0.7
	c0,0.4,0,0.4,0,1c0,0.2,0,0.4,0,0.6c0,0.2,0,0.6,0.5,0.6c0.5,0,0.5-0.5,0.5-1.4C49.4,11.8,49.4,11.2,48.9,11.2 M50,14.5h-0.6v-0.4
	c-0.1,0.1-0.3,0.5-0.8,0.5c-0.1,0-0.2,0-0.2,0c-0.6-0.2-0.6-0.8-0.6-1.9c0-0.3,0-1,0.1-1.3c0.1-0.3,0.4-0.6,0.8-0.6
	c0.4,0,0.6,0.2,0.7,0.4V9.3H50V14.5z M46.6,12.3v-0.5c0-0.2,0-0.6-0.5-0.6c-0.3,0-0.4,0.2-0.4,0.3c0,0.1,0,0.3,0,0.8H46.6z
	 M47.2,13.4c0,0.3,0,0.4-0.1,0.6c-0.2,0.6-0.8,0.6-1,0.6c-0.2,0-0.7,0-0.9-0.6c-0.1-0.2-0.1-0.3-0.1-1.7c0-0.8,0.1-1.5,1-1.5
	c0.2,0,0.9,0,1,0.8c0,0.2,0,0.3,0,1.2h-1.5c0,0.3,0,0.7,0,0.8c0,0.1,0,0.5,0.5,0.5c0.4,0,0.5-0.4,0.5-0.7H47.2z M43.9,14.5h-0.6
	v-3.7h0.6v0.7c0.1-0.3,0.4-0.8,1-0.8v0.6c-0.3,0-0.6,0-0.8,0.3c-0.1,0.2-0.2,0.4-0.2,1.1V14.5z"
  />
  <g>
    <path d="M3.7,6.5H1C1.2,4.1,3.1,2.2,5.5,2v2.7C4.6,4.9,3.9,5.6,3.7,6.5" />
    <path d="M7.9,6.5h2.7C10.5,4.1,8.6,2.2,6.2,2v2.7C7.1,4.9,7.8,5.6,7.9,6.5" />
    <rect x="1" y="7.2" width="2.7" height="7.4" />
    <rect x="1" y="15.2" width="2.7" height="4.5" />
    <path
      d="M14.4,6.5h-2.7c0.2-2.4,2.1-4.3,4.5-4.5v2.7C15.3,4.9,14.5,5.6,14.4,6.5"
    />
    <path
      d="M18.6,6.5h2.7c-0.2-2.4-2.1-4.3-4.5-4.5v2.7C17.7,4.9,18.5,5.6,18.6,6.5"
    />
    <path
      d="M16.8,17v2.7c2.4-0.2,4.3-2.1,4.5-4.5h-2.7C18.5,16.1,17.7,16.8,16.8,17"
    />
    <path
      d="M14.4,15.2h-2.7c0.2,2.4,2.1,4.3,4.5,4.5V17C15.3,16.8,14.5,16.1,14.4,15.2"
    />
    <path
      d="M16.4,9.3l-2,1.2h0V7.2h-2.7v7.4h0h2.7h0c0.1-0.6,0.5-1.2,1-1.5l2.3-1.3L16.4,9.3z"
    />
    <path
      d="M18.9,11c1.4-0.8,2.3-2.2,2.4-3.9h-2.7c-0.1,0.6-0.5,1.2-1,1.5L17,9l1.3,2.3L18.9,11"
    />
    <path
      d="M25.6,23.3h2.7c-0.2,2.4-2.1,4.3-4.5,4.5V25C24.7,24.9,25.5,24.2,25.6,23.3"
    />
    <path
      d="M21.4,23.3h-2.7c0.2,2.4,2.1,4.3,4.5,4.5V25C22.3,24.9,21.5,24.2,21.4,23.3"
    />
    <path
      d="M23.2,12.8v-2.7c-2.4,0.2-4.3,2.1-4.5,4.5h2.7C21.5,13.6,22.3,12.9,23.2,12.8"
    />
    <path
      d="M25.6,14.5h2.7c-0.2-2.4-2.1-4.3-4.5-4.5v2.7C24.7,12.9,25.5,13.6,25.6,14.5"
    />
    <path
      d="M23.6,20.4l2-1.2h0v3.4h2.7v-7.4h0h-2.7h0c-0.1,0.6-0.5,1.2-1,1.5l-2.3,1.3L23.6,20.4z"
    />
    <path
      d="M21.1,18.7c-1.4,0.8-2.3,2.2-2.4,3.9h2.7c0.1-0.6,0.5-1.2,1-1.5l0.6-0.3l-1.3-2.3L21.1,18.7"
    />
    <path
      d="M36.3,23.3H39c-0.2,2.4-2.1,4.3-4.5,4.5V25C35.4,24.9,36.1,24.2,36.3,23.3"
    />
    <path
      d="M32.1,23.3h-2.7c0.2,2.4,2.1,4.3,4.5,4.5V25C32.9,24.9,32.2,24.2,32.1,23.3"
    />
    <path
      d="M33.8,12.8v-2.7c-2.4,0.2-4.3,2.1-4.5,4.5h2.7C32.2,13.6,32.9,12.9,33.8,12.8"
    />
    <rect x="36.3" y="15.2" width="2.7" height="7.4" />
    <rect x="36.3" y="2" width="2.7" height="4.5" />
    <path
      d="M39,7.2h-2.7v3.4c-0.5-0.3-1.2-0.4-1.8-0.5v2.7c0.9,0.1,1.6,0.9,1.8,1.8h0H39V7.2z"
    />
    <polygon points="29.4,22.6 32.1,22.6 32.1,15.2 32,15.2 29.4,15.2 	" />
  </g>
</svg>
