<?xml version="1.0" standalone="no"?>
<!DOCTYPE svg PUBLIC "-//W3C//DTD SVG 1.1//EN" "http://www.w3.org/Graphics/SVG/1.1/DTD/svg11.dtd" >
<svg xmlns="http://www.w3.org/2000/svg">
<metadata></metadata>
<defs>
<font id="mais_grotesk_sregular" horiz-adv-x="1243" >
<font-face units-per-em="2048" ascent="1536" descent="-512" />
<missing-glyph horiz-adv-x="460" />
<glyph unicode="&#xfb01;" horiz-adv-x="1163" d="M41 872v166h149v160q0 124 84.5 196t200.5 72q45 0 133 -14v-158q-30 6 -76 6q-58 0 -99.5 -32t-41.5 -94v-136h629v-1038h-201v872h-428v-872h-201v872h-149zM815 1229v190h209v-190h-209z" />
<glyph unicode="&#xfb02;" horiz-adv-x="1185" d="M41 872v166h152v160q0 123 84.5 195.5t197.5 72.5q45 0 133 -14v-158q-24 6 -73 6q-56 0 -99 -33t-43 -93v-136h445v396h200v-1434h-200v872h-445v-872h-200v872h-152z" />
<glyph unicode="&#xfb03;" horiz-adv-x="1841" d="M41 872v166h152v160q0 123 84.5 195.5t197.5 72.5q45 0 133 -14v-158q-24 6 -73 6q-59 0 -100.5 -32t-41.5 -94v-136h475v160q0 121 86 194.5t199 73.5q45 0 133 -14v-158q-30 6 -76 6q-58 0 -99.5 -32t-41.5 -94v-136h629v-1038h-201v872h-428v-872h-201v872h-475v-872 h-200v872h-152zM1493 1229v190h209v-190h-209z" />
<glyph unicode="&#xfb04;" horiz-adv-x="1863" d="M41 872v166h152v160q0 123 84.5 195.5t197.5 72.5q45 0 133 -14v-158q-24 6 -73 6q-56 0 -99 -33t-43 -93v-136h475v160q0 121 86 194.5t199 73.5q45 0 133 -14v-158q-30 6 -76 6q-55 0 -98 -33.5t-43 -92.5v-136h447v396h200v-1434h-200v872h-447v-872h-201v872h-475 v-872h-200v872h-152z" />
<glyph horiz-adv-x="2048" />
<glyph horiz-adv-x="2048" />
<glyph unicode="&#xd;" horiz-adv-x="2048" />
<glyph unicode=" "  horiz-adv-x="460" />
<glyph unicode="&#x09;" horiz-adv-x="460" />
<glyph unicode="&#xa0;" horiz-adv-x="460" />
<glyph unicode="!" horiz-adv-x="845" d="M317 0v221h211v-221h-211zM319 1116v291h205v-291l-24 -743h-154z" />
<glyph unicode="&#x22;" horiz-adv-x="737" d="M117 1407h182l-18 -451h-146zM438 1407h183l-19 -451h-145z" />
<glyph unicode="#" horiz-adv-x="1284" d="M66 311v168h180l106 400h-209v170h254l92 335h201l-90 -335h256l92 335h201l-90 -335h170v-170h-217l-107 -400h246v-168h-291l-86 -311h-199l84 311h-260l-84 -311h-198l84 311h-135zM444 479h261l106 400h-258q-40 -151 -109 -400z" />
<glyph unicode="$" horiz-adv-x="1251" d="M119 416h219q0 -45 9.5 -79t33.5 -66t71 -51.5t117 -26.5v462q-51 11 -88.5 20.5t-84.5 26.5t-80.5 37t-67.5 50t-55 66.5t-34.5 86.5t-13.5 109q0 51 9 94t37 90t73 80.5t123 58t182 31.5v174h148v-174q79 -5 142 -20.5t106 -36.5t74.5 -51t48.5 -59t27.5 -66.5 t14 -66.5t3.5 -65h-220q0 27 -1.5 43t-11.5 43t-29.5 43.5t-58.5 31.5t-95 20v-412l137 -35q311 -80 311 -366q0 -95 -30.5 -167.5t-75 -115t-108.5 -70.5t-118 -38.5t-116 -14.5v-172h-148v172q-110 7 -192.5 35t-131 67t-77.5 93t-39 105.5t-10 113.5zM365 1044 q0 -41 13 -72t39.5 -52t48 -32t54.5 -24l49 -18v373q-54 -6 -96 -21.5t-75 -55t-33 -98.5zM717 193q229 21 229 221q0 38 -11 67.5t-25 47.5t-44 35t-50 25t-62 23l-37 13v-432z" />
<glyph unicode="%" horiz-adv-x="2248" d="M240 977q0 197 101 303t277 106q170 0 274.5 -107t104.5 -302q0 -193 -104.5 -299.5t-274.5 -106.5q-179 0 -278.5 100t-99.5 306zM418 977q0 -254 200 -254q90 0 144.5 59.5t54.5 194.5q0 24 -2 46t-8 54t-20 57t-34.5 49t-55.5 37t-79 13q-200 0 -200 -256zM774 0 l514 1360h197l-516 -1360h-195zM1251 373q0 196 101.5 302.5t277.5 106.5q170 0 274.5 -107t104.5 -302q0 -193 -104 -298.5t-275 -105.5q-180 0 -279.5 99t-99.5 305zM1430 373q0 -252 200 -252q199 0 199 252q0 25 -2 47t-8 54t-20 57.5t-34.5 49.5t-55.5 37t-79 13 q-200 0 -200 -258z" />
<glyph unicode="&#x26;" horiz-adv-x="1363" d="M104 416q0 270 281 395q-62 60 -95.5 140t-33.5 161q0 132 101 227t268 95q71 0 135 -17.5t119 -54.5t87.5 -102.5t32.5 -153.5q0 -271 -311 -365q8 -9 256 -284l78 -86q43 86 43 198h215q-5 -69 -33 -166.5t-90 -183.5l197 -219h-250l-82 90q-145 -117 -377 -117 q-256 0 -398.5 114t-142.5 329zM319 416q0 -125 81 -195.5t245 -70.5q143 0 256 77l-389 437q-193 -78 -193 -248zM471 1092q0 -108 102 -218q20 4 41 11t53.5 24t56.5 40t42 61.5t18 85.5q0 75 -42 118t-111 43q-80 0 -120 -45.5t-40 -119.5z" />
<glyph unicode="'" horiz-adv-x="636" d="M227 1407h183l-19 -451h-145z" />
<glyph unicode="(" horiz-adv-x="677" d="M160 643q0 475 239 875h191q-219 -401 -219 -875q0 -476 219 -874h-191q-239 397 -239 874z" />
<glyph unicode=")" horiz-adv-x="677" d="M88 -231q219 401 219 874q0 477 -219 875h191q237 -399 237 -875q0 -472 -237 -874h-191z" />
<glyph unicode="*" horiz-adv-x="987" d="M209 1153l43 127l194 -82q-12 136 -20 209h135l-20 -209l194 82l43 -129l-207 -45l140 -158l-109 -80l-108 181l-109 -181q-13 9 -49 36.5t-57 41.5q23 26 68.5 81t68.5 81z" />
<glyph unicode="+" horiz-adv-x="1193" d="M127 512v180h379v377h180v-377h381v-180h-381v-383h-180v383h-379z" />
<glyph unicode="," horiz-adv-x="585" d="M123 -246l82 471h246l-164 -471h-164z" />
<glyph unicode="-" horiz-adv-x="780" d="M92 487v189h596v-189h-596z" />
<glyph unicode="." horiz-adv-x="655" d="M205 0v225h246v-225h-246z" />
<glyph unicode="/" horiz-adv-x="784" d="M23 0l538 1421h201l-539 -1421h-200z" />
<glyph unicode="0" d="M94 702q0 79 6 150.5t22.5 146.5t42 137.5t67 118.5t95.5 95t129.5 61.5t166.5 22.5t166.5 -22.5t129 -61.5t95 -95t67 -118.5t42 -137.5t22.5 -146.5t6 -150.5t-6 -150t-22.5 -145.5t-42 -137t-67 -118.5t-95 -94.5t-129 -61t-166.5 -22.5t-166.5 22.5t-129.5 61 t-95.5 94.5t-67 118.5t-42 137t-22.5 145.5t-6 150zM305 702q0 -103 9 -185t31.5 -152.5t58.5 -117.5t91 -73.5t128 -26.5t128 26.5t90.5 73.5t58 118t31.5 152.5t9 184.5t-9 184.5t-31.5 153t-58 119t-90.5 74.5t-128 27q-91 0 -154.5 -40t-98.5 -117t-50 -174t-15 -227z " />
<glyph unicode="1" horiz-adv-x="1206" d="M293 928v252l258 227h205v-1407h-205v1161z" />
<glyph unicode="2" d="M145 0v186q243 197 388.5 329t217 225t91.5 150.5t20 131.5q0 27 -5.5 55.5t-22 62.5t-42.5 59.5t-71 43t-103 17.5q-133 0 -190 -71t-57 -202h-211q0 223 119.5 335t338.5 112q221 0 338 -107.5t117 -304.5q0 -173 -144 -359t-515 -489h682v-174h-951z" />
<glyph unicode="3" d="M145 395h211q5 -59 26 -104.5t49.5 -72t64 -43t66.5 -22.5t61 -6q118 0 192 72.5t74 216.5q0 67 -15 118.5t-39.5 83t-59 52t-68.5 28t-72 7.5q-118 0 -215 -63v172l356 399h-547v174h799v-174l-360 -369q4 0 13 1t13 1q74 0 143.5 -24.5t129.5 -73.5t96.5 -134.5 t36.5 -195.5q0 -148 -67.5 -255.5t-174 -158.5t-235.5 -51q-68 0 -133.5 15.5t-125.5 49.5t-106.5 82.5t-76.5 119t-36 155.5z" />
<glyph unicode="4" d="M94 332v174q294 384 684 901h205v-901h170v-174h-170v-332h-205v332h-684zM332 506h446v586z" />
<glyph unicode="5" d="M147 395h211q4 -117 72 -179t172 -62q131 0 207 74.5t76 213.5q0 132 -71.5 214.5t-195.5 82.5q-54 0 -98.5 -16t-69 -38.5t-41.5 -45.5t-23 -39l-5 -16l-205 75l82 748h764v-174h-592l-57 -457q114 127 276 127q202 0 324.5 -129t122.5 -332q0 -111 -39 -201.5 t-105 -148t-152 -88.5t-182 -31q-203 0 -331 106t-140 316z" />
<glyph unicode="6" d="M104 700q0 158 30 284.5t80 209t118.5 138t142 79t154.5 23.5q106 0 191 -32t138 -85.5t82.5 -118t34.5 -135.5h-203q-30 197 -243 197q-322 0 -322 -533v-33q57 105 145 154t218 49q90 0 168.5 -28.5t140 -83.5t96.5 -145.5t35 -205.5q0 -92 -29.5 -173.5t-87 -146.5 t-151.5 -103t-213 -38q-123 0 -216.5 38.5t-151 103t-93.5 160t-50 197.5t-14 228zM334 446q9 -134 85 -216.5t210 -82.5q131 0 200.5 78t69.5 209q0 140 -71 219.5t-199 79.5q-72 0 -128 -25.5t-86 -61.5t-49.5 -79t-25.5 -72.5t-6 -48.5z" />
<glyph unicode="7" d="M164 1233v174h905v-174l-522 -1233h-207l528 1233h-704z" />
<glyph unicode="8" d="M117 408q0 240 250 342q-83 42 -136 118t-53 181q0 170 116.5 277.5t328.5 107.5q108 0 194 -30.5t140 -83.5t82 -122t28 -149q0 -102 -53.5 -179t-132.5 -120q247 -106 247 -342q0 -204 -137.5 -319.5t-367.5 -115.5q-237 0 -371.5 114.5t-134.5 320.5zM328 408 q0 -63 20 -111t50 -75.5t71 -45t78 -23.5t76 -6t75.5 6t77.5 23.5t71.5 45t50.5 75.5t20 111q0 123 -86.5 189.5t-208.5 66.5q-123 0 -209 -66.5t-86 -189.5zM389 1049q0 -57 20.5 -100t55.5 -66t74.5 -34t83.5 -11q43 0 82.5 11.5t74.5 35t55.5 66t20.5 98.5q0 51 -17 90.5 t-42 61.5t-58.5 36t-61 18.5t-54.5 4.5q-36 0 -71.5 -8.5t-74.5 -29t-63.5 -65.5t-24.5 -108z" />
<glyph unicode="9" d="M135 987q0 88 30.5 167.5t87.5 142.5t147.5 100t201.5 37q128 0 223.5 -39t153.5 -103.5t94 -161t49 -198t13 -227.5q0 -157 -30 -283t-80 -208.5t-119.5 -138t-145 -79t-158.5 -23.5q-103 0 -186.5 31.5t-135.5 85t-81.5 118t-34.5 134.5h205q15 -93 77.5 -142.5 t155.5 -49.5q326 0 326 528v57q-56 -100 -142.5 -146t-212.5 -46q-89 0 -166.5 27t-139 80t-97 139.5t-35.5 197.5zM340 987q0 -131 69.5 -205.5t192.5 -74.5q61 0 111.5 16.5t81.5 43t54 56.5t34 62t15.5 53.5t4.5 36.5q-6 58 -25 106t-53 89t-91 64t-132 23 q-119 0 -190.5 -72t-71.5 -198z" />
<glyph unicode=":" horiz-adv-x="620" d="M201 0v221h219v-221h-219zM201 817v221h219v-221h-219z" />
<glyph unicode=";" horiz-adv-x="602" d="M156 -213l77 465h199q-22 -78 -62.5 -232.5t-62.5 -232.5h-151zM223 817v221h221v-221h-221z" />
<glyph unicode="&#x3c;" d="M162 502v153l909 387v-204q-582 -222 -678 -260q469 -179 678 -261v-202z" />
<glyph unicode="=" d="M217 279v174h811v-174h-811zM217 649v174h811v-174h-811z" />
<glyph unicode="&#x3e;" d="M172 115v204q470 179 678 261q-582 222 -678 260v202l909 -387v-153z" />
<glyph unicode="?" horiz-adv-x="1206" d="M184 1038q0 57 10 107t39 103.5t75.5 91.5t126.5 62.5t186 24.5q434 0 434 -368q0 -56 -19.5 -107t-50.5 -92.5t-69 -82t-75.5 -83t-68.5 -87.5t-50.5 -104.5t-19.5 -125.5h-198q0 77 19.5 144t50.5 115t68.5 90.5t75 80.5t68.5 74.5t50.5 82t19.5 95.5q0 16 -3 35.5 t-17 51.5t-37 56.5t-69.5 43t-108.5 18.5q-63 0 -108.5 -15.5t-70 -38t-38.5 -55.5t-17.5 -59t-3.5 -58h-199zM494 0v221h219v-221h-219z" />
<glyph unicode="@" horiz-adv-x="2009" d="M80 580q0 205 76.5 388.5t210.5 319t329 214.5t420 79q177 0 327.5 -60t253 -163.5t159.5 -245t57 -303.5q0 -292 -140.5 -478t-375.5 -186q-65 0 -111 18.5t-67 48t-29 54t-8 47.5q0 15 2 19q-116 -125 -307 -125q-159 0 -252 93.5t-93 266.5q0 167 63.5 292.5 t168.5 189t235 63.5q191 0 250 -143l15 121h166q-60 -464 -95 -719v-5v-9.5t0.5 -11t2 -13t4 -13t6.5 -13.5t10.5 -12t14.5 -9.5t19.5 -6t24.5 -2.5q45 0 72 27q108 29 187 165t79 345q0 131 -44 245.5t-125.5 200.5t-206.5 135.5t-277 49.5q-329 0 -553 -193.5t-285 -517.5 q-14 -69 -14 -143q0 -184 83 -340t233 -249t333 -93q251 0 397 110l-24 -168q-175 -79 -389 -79q-175 0 -326 63t-255 172t-163 257.5t-59 316.5zM705 571q0 -235 217 -235q54 0 104 22t93 67.5t69 126t26 187.5q0 43 -8.5 80t-30 73.5t-66 57.5t-108.5 21q-249 0 -290 -314 q-6 -47 -6 -86z" />
<glyph unicode="A" horiz-adv-x="1304" d="M18 0q86 235 521 1407h229l520 -1407h-219q-17 49 -51.5 147.5t-50.5 147.5h-645q-39 -115 -103 -295h-201zM389 489h510l-254 725z" />
<glyph unicode="B" horiz-adv-x="1372" d="M195 0v1407h626q75 0 142.5 -22t122.5 -65.5t87.5 -116.5t32.5 -167q0 -229 -231 -317q35 -5 68 -16.5t72 -36.5t67.5 -59.5t47.5 -91.5t19 -128q0 -178 -114 -282.5t-314 -104.5h-626zM399 174h406q107 0 170 59t63 170q0 113 -60.5 173.5t-172.5 60.5h-406v-463z M399 811h394q37 0 71.5 11.5t64.5 34.5t48 64t18 95q0 108 -56 162.5t-146 54.5h-394v-422z" />
<glyph unicode="C" horiz-adv-x="1468" d="M96 702q0 173 49 312.5t136.5 231t208.5 140t266 48.5q137 0 247.5 -38t183.5 -104.5t117 -151.5t58 -184h-209q-25 147 -127 225.5t-270 78.5q-94 0 -170.5 -30.5t-127.5 -83t-85.5 -124.5t-50 -151.5t-15.5 -168.5q0 -272 117 -413.5t332 -141.5q179 0 280.5 93.5 t128.5 244.5h209q-16 -107 -61 -197t-119 -162t-186.5 -112.5t-251.5 -40.5q-145 0 -265.5 48t-208.5 138.5t-137 229.5t-49 313z" />
<glyph unicode="D" horiz-adv-x="1437" d="M184 0v1407h471q58 0 111.5 -5t122.5 -23t126 -47.5t115 -83.5t97.5 -125t64.5 -178t25 -238t-24.5 -238t-64.5 -179t-97.5 -126.5t-115 -85t-126.5 -49t-123 -24t-113 -5.5h-469zM389 174h244q233 0 353 129.5t120 403.5q0 271 -120 398.5t-351 127.5h-246v-1059z" />
<glyph unicode="E" horiz-adv-x="1253" d="M195 0v1407h925v-174h-721v-422h600v-174h-600v-463h721v-174h-925z" />
<glyph unicode="F" horiz-adv-x="1255" d="M195 0v1407h938v-174h-734v-445h654v-174h-654v-614h-204z" />
<glyph unicode="G" horiz-adv-x="1501" d="M92 700q0 174 50.5 313.5t140.5 231.5t213.5 140.5t271.5 48.5q84 0 160.5 -13t155 -47t139.5 -86.5t107.5 -137.5t64.5 -194h-211q-31 149 -129.5 226.5t-286.5 77.5q-221 0 -343 -147.5t-122 -412.5q0 -268 122.5 -410.5t342.5 -142.5q110 0 193 31t133 87t75.5 127.5 t28.5 160.5h-371v174h582v-65q0 -333 -169.5 -511t-471.5 -178q-147 0 -270 47.5t-213.5 137.5t-141.5 229t-51 313z" />
<glyph unicode="H" horiz-adv-x="1474" d="M195 0v1407h204v-600h676v600h205v-1407h-205v633h-676v-633h-204z" />
<glyph unicode="I" horiz-adv-x="636" d="M217 0v1407h205v-1407h-205z" />
<glyph unicode="J" horiz-adv-x="987" d="M92 1221v186h701v-999q0 -435 -478 -435h-196v185h196q136 0 200.5 60t64.5 190v813h-488z" />
<glyph unicode="K" horiz-adv-x="1286" d="M195 0v1407h204v-625h29l559 625h246l-604 -680l647 -727h-262l-586 668h-29v-668h-204z" />
<glyph unicode="L" horiz-adv-x="1142" d="M195 0v1407h204v-1233h682v-174h-886z" />
<glyph unicode="M" horiz-adv-x="1820" d="M195 0v1407h323l400 -1184l399 1184h309v-1407h-205v1151q-173 -514 -391 -1151h-231l-400 1151v-1151h-204z" />
<glyph unicode="N" horiz-adv-x="1544" d="M195 0v1407h266l684 -1077v1077h205v-1407h-232l-719 1118v-1118h-204z" />
<glyph unicode="O" horiz-adv-x="1527" d="M92 700q0 174 49 313.5t138 231.5t212.5 140.5t272.5 48.5t272.5 -48.5t212.5 -140.5t138 -231.5t49 -313.5q0 -175 -49 -313.5t-138 -228.5t-212.5 -137.5t-272.5 -47.5t-272.5 47.5t-212.5 137.5t-138 228.5t-49 313.5zM303 700q0 -277 118 -415t343 -138 q229 0 345 141.5t116 411.5q0 284 -123 422t-338 138q-230 0 -345.5 -146t-115.5 -414z" />
<glyph unicode="P" horiz-adv-x="1263" d="M195 0v1407h587q85 0 158.5 -24.5t133 -74.5t94 -136.5t34.5 -200.5q0 -113 -34 -197.5t-94.5 -132.5t-133 -71t-158.5 -23h-383v-547h-204zM399 721h363q117 0 173 65.5t56 184.5q0 124 -56.5 193t-172.5 69h-363v-512z" />
<glyph unicode="Q" horiz-adv-x="1554" d="M96 698q0 175 49 315t138 232t212.5 140.5t272.5 48.5q306 0 489 -193.5t183 -542.5q0 -347 -197 -544q99 -128 156 -203l-142 -109l-157 211q-147 -80 -332 -80q-150 0 -273 47t-212 137t-138 228t-49 313zM315 698q0 -42 4 -84t16 -97t31.5 -102.5t55 -95t81.5 -81.5 t114 -55t151 -21q125 0 215 51l-168 221l141 107l162 -215q103 140 103 372q0 42 -3.5 84t-16 98t-32 104.5t-54.5 97t-81 83.5t-114.5 56.5t-151.5 21.5t-151 -21.5t-114 -56.5t-81.5 -83.5t-55 -97t-31.5 -104.5t-16 -98t-4 -84z" />
<glyph unicode="R" horiz-adv-x="1361" d="M195 0v1407h610q60 0 115.5 -12t110.5 -42t95.5 -76.5t65.5 -120t25 -167.5q0 -84 -21 -151t-55.5 -110.5t-83.5 -74t-101.5 -45t-113.5 -18.5l397 -590h-240l-370 584h-230v-584h-204zM399 758h385q104 0 163 61t59 170q0 119 -57.5 181.5t-164.5 62.5h-385v-475z" />
<glyph unicode="S" horiz-adv-x="1353" d="M117 416h211q0 -64 16.5 -111t54.5 -84t107.5 -55.5t169.5 -18.5q75 0 133 12t106.5 39.5t74.5 80t26 127.5q0 61 -29.5 104t-79.5 67.5t-115 41.5t-136.5 30.5t-143 29.5t-136.5 43.5t-115 67t-79.5 106t-29.5 155.5q0 52 11.5 100t46.5 101.5t91 92t152.5 64 t222.5 25.5q511 0 516 -394h-211q0 112 -70 166t-235 54q-83 0 -152 -21t-115.5 -70t-46.5 -118q0 -56 30 -96.5t81 -64t116.5 -40.5t138.5 -31.5t145.5 -31.5t138 -46t116.5 -70t81 -108t30 -155q0 -79 -22 -144t-57 -109t-84.5 -78t-99.5 -53t-107.5 -31t-102.5 -16 t-90 -4q-106 0 -192.5 18t-146.5 50t-103.5 73.5t-68.5 92.5t-36.5 102t-11.5 107z" />
<glyph unicode="T" horiz-adv-x="1124" d="M27 1233v174h1069v-174h-432v-1233h-205v1233h-432z" />
<glyph unicode="U" horiz-adv-x="1464" d="M195 469v938h204v-961q0 -135 85 -217t249 -82q171 0 251.5 79t80.5 220v961h205v-938q0 -109 -32.5 -198.5t-97 -156.5t-168.5 -104t-239 -37t-239 37t-169 104t-97.5 156.5t-32.5 198.5z" />
<glyph unicode="V" horiz-adv-x="1259" d="M12 1407h219l408 -1217q228 677 408 1217h200q-84 -234 -499 -1407h-232z" />
<glyph unicode="W" horiz-adv-x="1869" d="M29 1407h211q50 -201 148.5 -606t148.5 -606l301 1212h211l294 -1212l304 1212h194q-254 -938 -383 -1407h-250l-272 1159l-285 -1159h-250z" />
<glyph unicode="X" horiz-adv-x="1247" d="M16 0l508 741l-448 666h243l322 -520l320 520h231l-455 -676l492 -731h-244l-362 582l-375 -582h-232z" />
<glyph unicode="Y" horiz-adv-x="1189" d="M14 1407h234l356 -668l354 668h218l-480 -844v-563h-204v563z" />
<glyph unicode="Z" d="M78 0v174q76 101 421 530t421 529h-820v174h1061v-174q-75 -101 -422 -529.5t-422 -529.5h848v-174h-1087z" />
<glyph unicode="[" horiz-adv-x="749" d="M164 -246v1764h422v-175h-217v-1415h217v-174h-422z" />
<glyph unicode="\" horiz-adv-x="782" d="M23 1421h198l539 -1421h-197z" />
<glyph unicode="]" horiz-adv-x="749" d="M164 -72h217v1415h-217v175h422v-1764h-422v174z" />
<glyph unicode="^" horiz-adv-x="1409" d="M150 614l466 793h177l469 -793h-226l-331 600l-338 -600h-217z" />
<glyph unicode="_" horiz-adv-x="974" d="M0 -147h975v-103h-975v103z" />
<glyph unicode="`" horiz-adv-x="606" d="M41 1407h233l154 -266h-182z" />
<glyph unicode="a" horiz-adv-x="1124" d="M106 287q0 59 15.5 109.5t53.5 95.5t95.5 76.5t147 50t203.5 18.5h182v63q0 94 -50.5 151.5t-162.5 57.5q-113 0 -173.5 -46.5t-60.5 -123.5h-204q0 47 13.5 91.5t46.5 88t82 75.5t125 51.5t171 19.5q100 0 174.5 -21.5t130.5 -70.5t84.5 -133t28.5 -203v-637h-168 l-25 141q-40 -51 -78.5 -84t-108 -58.5t-159.5 -25.5q-68 0 -131 18.5t-116 55t-84.5 98.5t-31.5 142zM313 289q0 -75 54.5 -114.5t138.5 -39.5q136 0 216.5 82.5t80.5 210.5v64h-178q-168 0 -240 -56.5t-72 -146.5z" />
<glyph unicode="b" horiz-adv-x="1196" d="M131 0v1434h205v-533q104 164 313 164q211 0 336 -143t125 -404q0 -275 -123.5 -410t-337.5 -135q-208 0 -321 158q-3 -23 -11.5 -66.5t-11.5 -64.5h-174zM336 518q0 -188 74.5 -279.5t207.5 -91.5q281 0 281 371q0 373 -281 373q-282 0 -282 -373z" />
<glyph unicode="c" horiz-adv-x="1157" d="M88 520q0 254 139 399.5t375 145.5q111 0 199.5 -33.5t144 -91t87 -127t38.5 -147.5h-209q-12 95 -73.5 156t-178.5 61q-137 0 -224 -88.5t-87 -274.5q0 -190 84 -281.5t219 -91.5q70 0 124 19t94.5 68t51.5 126h209q-22 -175 -140 -281t-339 -106q-237 0 -375.5 145.5 t-138.5 401.5z" />
<glyph unicode="d" horiz-adv-x="1144" d="M90 518q0 261 125 404t336 143q206 0 313 -164v533h205v-1434h-174l-25 131q-110 -158 -319 -158q-215 0 -338 134.5t-123 410.5zM301 518q0 -371 281 -371q132 0 207 91.5t75 279.5q0 49 -5 93t-22.5 98t-46.5 92t-82.5 64t-125.5 26q-281 0 -281 -373z" />
<glyph unicode="e" horiz-adv-x="1189" d="M104 518q0 259 139.5 403t366.5 144q215 0 348.5 -141t133.5 -387v-66h-777q4 -164 81 -249t214 -85q110 0 175.5 49t88.5 131h207q-20 -83 -59 -146t-86 -99.5t-106 -59.5t-111 -31t-109 -8q-227 0 -366.5 143.5t-139.5 401.5zM319 618h562q-5 121 -76 203t-195 82 q-133 0 -205 -74.5t-86 -210.5z" />
<glyph unicode="f" horiz-adv-x="684" d="M41 864v174h154v127q0 142 82.5 221.5t211.5 79.5q32 0 65.5 -3.5t51.5 -6.5l17 -4v-166q-29 6 -78 6q-62 0 -104 -32.5t-42 -94.5v-127h199v-174h-199v-864h-204v864h-154z" />
<glyph unicode="g" horiz-adv-x="1175" d="M92 557q0 246 120.5 377t322.5 131q211 0 311 -158l26 131h172v-1020q0 -203 -117 -318.5t-345 -115.5q-45 0 -89 5t-98 17.5t-99 37.5t-84 60.5t-61 91.5t-22 126h211q0 -30 12 -58.5t38.5 -55.5t76 -43.5t115.5 -16.5q115 0 186.5 61t71.5 191v203q-101 -162 -308 -162 q-198 0 -319 135.5t-121 380.5zM303 557q0 -159 69.5 -250.5t198.5 -91.5q137 0 203 89.5t66 252.5q0 50 -4 89t-20 87.5t-43.5 80.5t-79 54.5t-122.5 22.5q-64 0 -113.5 -22.5t-78 -57t-46.5 -81t-24 -88t-6 -85.5z" />
<glyph unicode="h" horiz-adv-x="1204" d="M147 0v1434h205v-557q130 188 361 188q84 0 146.5 -22.5t99.5 -58.5t59.5 -91t30.5 -111.5t8 -128.5v-653h-205v629q0 30 -1.5 51.5t-6.5 56t-18 58t-33.5 47.5t-56 36.5t-81.5 12.5q-67 0 -123 -25.5t-88 -61.5t-54 -72t-30 -62l-8 -25v-645h-205z" />
<glyph unicode="i" horiz-adv-x="505" d="M141 1214v193h226v-193h-226zM152 0v1038h204v-1038h-204z" />
<glyph unicode="j" horiz-adv-x="573" d="M8 -227q42 -6 76 -6q58 0 98.5 31.5t40.5 88.5v1151h205v-1108q0 -160 -76.5 -249t-208.5 -89q-58 0 -135 17v164zM213 1214v193h225v-193h-225z" />
<glyph unicode="k" horiz-adv-x="1122" d="M147 0v1434h205v-842h19l395 446h254l-473 -493l520 -545h-264l-432 487h-19v-487h-205z" />
<glyph unicode="l" horiz-adv-x="499" d="M147 0v1434h205v-1434h-205z" />
<glyph unicode="m" horiz-adv-x="1785" d="M147 0v1038h172l25 -159q62 99 139 142.5t195 43.5q112 0 185.5 -51t103.5 -144q116 195 342 195q77 0 135 -20t94.5 -54.5t59 -86t31.5 -107.5t9 -125v-672h-204v631q0 32 -1.5 55t-6.5 57t-17 57t-31 45.5t-50.5 34t-72.5 11.5q-59 0 -107.5 -25.5t-75.5 -62t-45.5 -73 t-24.5 -62.5l-7 -25v-643h-204v631q0 42 -3 74.5t-14 69.5t-29.5 60.5t-52.5 39.5t-80 16q-56 0 -103.5 -25.5t-75 -62t-47 -73t-26.5 -62.5l-8 -25v-643h-205z" />
<glyph unicode="n" horiz-adv-x="1204" d="M147 0v1038h172l25 -168q128 195 369 195q84 0 146.5 -22.5t99.5 -58.5t59.5 -91t30.5 -111.5t8 -128.5v-653h-205v629q0 31 -0.5 50t-4.5 50t-11 50.5t-21.5 43t-35 36.5t-52.5 22.5t-72 9.5q-67 0 -123 -25.5t-88 -61.5t-54 -72t-30 -62l-8 -25v-645h-205z" />
<glyph unicode="o" horiz-adv-x="1202" d="M80 520q0 258 143 401.5t379 143.5q242 0 381 -142t139 -403q0 -263 -138.5 -405t-381.5 -142q-236 0 -379 143t-143 404zM291 520q0 -373 311 -373q309 0 309 373q0 192 -84.5 281.5t-224.5 89.5q-146 0 -228.5 -91.5t-82.5 -279.5z" />
<glyph unicode="p" horiz-adv-x="1200" d="M131 -399v1437h174l25 -131q110 158 319 158q215 0 338 -134.5t123 -410.5q0 -261 -125 -404t-336 -143q-206 0 -313 164v-536h-205zM336 520q0 -49 5 -93t22.5 -98t46.5 -92t82.5 -64t125.5 -26q281 0 281 373q0 371 -281 371q-132 0 -207 -91.5t-75 -279.5z" />
<glyph unicode="q" horiz-adv-x="1200" d="M90 520q0 276 123 410.5t338 134.5q209 0 319 -158l25 131h174v-1437h-205v536q-107 -164 -313 -164q-211 0 -336 143t-125 404zM301 520q0 -373 281 -373q72 0 125.5 26t82.5 64t46.5 92t22.5 98t5 93q0 188 -75 279.5t-207 91.5q-281 0 -281 -371z" />
<glyph unicode="r" horiz-adv-x="798" d="M147 0v1038h172l25 -192q56 113 142 159t214 46q35 -4 60 -9v-178q-53 15 -107 15q-117 0 -209 -94t-92 -220v-565h-205z" />
<glyph unicode="s" horiz-adv-x="1071" d="M88 319h211q0 -27 3.5 -49t18 -48.5t38 -44.5t66.5 -30t101 -12q114 0 173 34t59 118q0 54 -35.5 86.5t-92.5 47t-126 24.5t-137.5 27.5t-125.5 47t-92.5 92t-35.5 154.5q0 40 11 78.5t40.5 79.5t74.5 71.5t119 50t168 19.5q411 0 416 -334h-211q0 29 -4.5 51.5t-17.5 46 t-35 39t-59.5 25.5t-88.5 10q-37 0 -69.5 -6t-64 -20t-50 -42.5t-18.5 -68.5q0 -45 22 -75.5t59.5 -47t86 -26.5t101.5 -18t106.5 -18.5t102 -31t86 -51.5t59.5 -85t22 -126q0 -65 -21 -117.5t-58 -85.5t-80.5 -56t-96.5 -34.5t-97 -16t-90 -4.5q-104 0 -183.5 22t-126.5 56 t-77 81.5t-40.5 92.5t-10.5 94z" />
<glyph unicode="t" horiz-adv-x="694" d="M41 864v174h166v254l205 62v-316h221v-174h-221v-579q0 -58 41 -91.5t102 -33.5q36 0 78 6v-164q-72 -16 -135 -16q-128 0 -209.5 81t-81.5 228v569h-166z" />
<glyph unicode="u" horiz-adv-x="1202" d="M162 385v653h205v-628q0 -37 1 -59t6 -57.5t17 -57.5t31.5 -44.5t53 -33.5t77.5 -11q63 0 120.5 29t94.5 71t58.5 86t21.5 77v628h205v-1038h-172l-25 168q-128 -195 -360 -195q-82 0 -142.5 22.5t-96.5 58.5t-58 91t-29.5 111.5t-7.5 128.5z" />
<glyph unicode="v" horiz-adv-x="1083" d="M27 1038h219l305 -864l303 864h203l-400 -1038h-231z" />
<glyph unicode="w" horiz-adv-x="1525" d="M33 1038h211l196 -839l197 839h268l197 -839l196 839h197q-184 -692 -274 -1038h-252q-27 109 -205 862q-27 -109 -205 -862h-252q-184 692 -274 1038z" />
<glyph unicode="x" horiz-adv-x="1067" d="M35 0l389 539l-348 499h239l228 -354l227 354h225l-344 -499l381 -539h-241l-259 397q-22 -33 -118.5 -177t-149.5 -220h-229z" />
<glyph unicode="y" horiz-adv-x="1009" d="M20 1038h218q40 -113 132.5 -375t141.5 -403l270 778h197q-178 -479 -530 -1437h-197l166 442z" />
<glyph unicode="z" horiz-adv-x="1046" d="M80 0v174l594 690h-574v174h834v-174l-592 -690h623v-174h-885z" />
<glyph unicode="{" horiz-adv-x="681" d="M78 561v162q49 0 84 10.5t52 23.5t26 34t10.5 33t1.5 30v354q0 170 89.5 240t281.5 70v-164q-48 0 -82.5 -10.5t-51 -24t-26 -34.5t-11 -34t-1.5 -30v-365q0 -86 -21 -134.5t-74 -78.5q95 -55 95 -166v-414q0 -17 1.5 -30t11 -33.5t26 -34t51 -23.5t82.5 -10v-163 q-68 0 -119.5 7t-101 27.5t-81 54.5t-50.5 91t-19 135v354q0 17 -1.5 28.5t-10.5 31t-26 32t-52 22t-84 9.5z" />
<glyph unicode="|" horiz-adv-x="524" d="M164 -231v1749h196v-1749h-196z" />
<glyph unicode="}" horiz-adv-x="681" d="M59 -68q48 0 82.5 10t51 23.5t26 34t11 33.5t1.5 30v365q0 87 21 135t74 80q-95 55 -95 166v414q0 17 -1.5 30t-11 33.5t-26 34t-51 23.5t-82.5 10v164q68 0 120 -7.5t101 -28t80.5 -55.5t50.5 -92t19 -135v-354q0 -16 1.5 -27.5t10.5 -30.5t26 -31.5t52 -22t84 -9.5 v-162q-49 0 -84 -10.5t-52 -24t-26 -34.5t-10.5 -33.5t-1.5 -30.5v-352q0 -169 -90 -239t-281 -70v163z" />
<glyph unicode="~" horiz-adv-x="1024" d="M162 551q0 30 3.5 56.5t16 60t33.5 57.5t60 40.5t92 16.5q43 0 84 -15.5t67.5 -34.5t59.5 -34.5t61 -15.5q49 0 71.5 30t22.5 70h129q0 -44 -9.5 -81.5t-31 -73t-63.5 -56t-101 -20.5q-53 0 -101 24.5t-90.5 49t-80.5 24.5q-50 0 -71 -29.5t-21 -68.5h-131z" />
<glyph unicode="&#xa1;" horiz-adv-x="845" d="M317 817v221h211v-221h-211zM319 -156q0 19 1.5 57.5t1.5 57.5l24 676h154l24 -744v-290h-205v243z" />
<glyph unicode="&#xa2;" d="M125 713q0 242 125 383t334 159v152h100v-152q56 -4 109 -18t107 -44.5t96.5 -74t73.5 -110.5t42 -150h-209q-12 98 -71 156.5t-148 70.5v-747q37 3 70.5 14.5t68.5 34t58.5 65.5t29.5 101h207q-12 -84 -44 -150t-73.5 -108t-96 -70t-108 -41t-112.5 -16v-168h-100v168 q-210 15 -334.5 157t-124.5 388zM328 713q0 -167 67 -262t189 -113v745q-128 -18 -192 -115t-64 -255z" />
<glyph unicode="&#xa3;" d="M72 0v184q49 0 84 11.5t51.5 26t25.5 37.5t10 35.5t1 31.5v217h-170v164h170v335q0 46 10.5 92.5t39.5 96.5t73 88.5t117 63t165 24.5q105 0 183 -26t121 -64t68.5 -92.5t32.5 -100.5t7 -100h-213q0 112 -53 154.5t-146 42.5q-86 0 -139 -43.5t-53 -135.5v-335h358v-164 h-358v-215q0 -106 -82 -144h426q81 3 108 49q58 30 58 138h213q0 -37 -2.5 -68t-12 -70t-25 -70t-43 -62t-65.5 -52t-94 -34.5t-125 -14.5h-741z" />
<glyph unicode="&#xa4;" d="M33 37q85 89 174 174q-101 132 -101 299q0 169 101 301l-174 174l114 115l175 -174q134 98 299 98q166 0 303 -98q86 88 174 174l114 -115q-88 -85 -174 -174q99 -135 99 -301q0 -164 -99 -299l174 -174l-114 -113l-174 172q-134 -96 -303 -96q-168 0 -299 96l-175 -172z M268 510q0 -141 103 -244.5t250 -103.5q148 0 251 104t103 244q0 146 -104 249t-250 103q-145 0 -249 -103.5t-104 -248.5z" />
<glyph unicode="&#xa5;" d="M45 1407h231l357 -674l352 674h219l-405 -721h264v-137h-336v-162h336v-137h-336v-250h-207v250h-346v137h346v162h-346v137h272z" />
<glyph unicode="&#xa6;" horiz-adv-x="532" d="M164 -231v741h205v-741h-205zM164 776v742h205v-742h-205z" />
<glyph unicode="&#xa7;" horiz-adv-x="1198" d="M199 401h202q0 -26 3.5 -47t17.5 -47t38 -43.5t69 -30t106 -12.5q35 0 61 2t58.5 10.5t53 24t34.5 44t14 67.5q0 57 -30.5 92.5t-80 52t-110 27t-124 23.5t-118.5 33.5t-97 65.5t-56 113q-7 24 -7 47q0 87 72 156q-48 14 -66 50t-18 95q0 71 23 126t60.5 89t90.5 56 t108 30.5t118 8.5q86 0 154.5 -14.5t113 -41t75 -58t46 -71.5t22 -75t6.5 -74h-202q0 33 -7 58.5t-27 53.5t-66 44t-115 16q-213 0 -213 -146q0 -61 30.5 -99t80 -54.5t110 -26.5t124 -21.5t118.5 -30.5t97 -63t56 -112q6 -21 6 -47q0 -90 -74 -156q49 -14 73 -45t24 -88 q0 -81 -29.5 -142.5t-72 -95t-102.5 -54t-109.5 -26.5t-104.5 -6q-87 0 -157.5 14.5t-117 41t-79 59t-50 72.5t-25 77t-7.5 78zM399 258v10h140q35 -63 129 -63q29 0 49 2t44.5 9.5t38 26t13.5 46.5q0 22 -16 38t-41.5 27.5t-56.5 25t-62.5 35.5t-57 53.5t-41.5 85.5 t-16 124q0 133 105 133q85 0 121 -34t36 -85q0 -27 -10 -57q-45 -3 -172 -17q-13 39 -61 39q-44 0 -82.5 -22t-38.5 -68q0 -32 16 -55t42.5 -35.5t60 -25t69 -21.5t69 -25t60 -36.5t42.5 -56.5t16 -83q0 -41 -18 -69.5t-47 -42.5t-57.5 -19.5t-58.5 -5.5q-62 0 -106.5 15.5 t-67 41t-32 52.5t-9.5 57z" />
<glyph unicode="&#xa8;" horiz-adv-x="614" d="M29 1214v193h209v-193h-209zM377 1214v193h207v-193h-207z" />
<glyph unicode="&#xa9;" horiz-adv-x="1527" d="M47 702q0 149 58 283t155.5 228.5t228.5 150t273 55.5q145 0 278 -57t229 -153t153 -229t57 -278q0 -149 -58.5 -282.5t-156 -227t-229 -148t-273.5 -54.5q-148 0 -281 57.5t-228 154t-150.5 227.5t-55.5 273zM184 705q0 -119 46 -226.5t124 -185t185 -123t225 -45.5 t225 45.5t184.5 123t123.5 185t46 226.5q0 117 -46 224.5t-123.5 185t-185 123.5t-224.5 46q-157 0 -290.5 -77.5t-211.5 -211t-78 -290.5zM408 702q0 194 100 302t264 108q74 0 134 -20.5t95.5 -50.5t61 -68.5t35.5 -68.5t14 -58h-123q-11 72 -67 115t-150 43 q-116 0 -181 -80t-65 -222q0 -145 65 -223t181 -78q59 0 94 35q116 37 129 146h119q-22 -143 -115 -215t-227 -72q-164 0 -264 106t-100 301z" />
<glyph unicode="&#xaa;" horiz-adv-x="757" d="M45 909q0 254 375 254h123v45q0 56 -32.5 92.5t-111.5 36.5q-76 0 -115.5 -30t-39.5 -76h-166q0 43 17 82.5t52 76t100.5 58.5t151.5 22q155 0 233.5 -71t78.5 -240v-461h-140l-20 99q-42 -55 -97 -86t-147 -31q-67 0 -124 21.5t-97.5 75t-40.5 132.5zM211 911 q0 -50 36.5 -76t92.5 -26q85 0 144 55t59 146v34h-121q-112 0 -161.5 -37.5t-49.5 -95.5z" />
<glyph unicode="&#xab;" horiz-adv-x="1241" d="M164 516l301 449h197q-251 -419 -269 -449q18 -31 269 -455h-197zM582 516l301 449h194q-62 -105 -268 -449q206 -348 268 -455h-194z" />
<glyph unicode="&#xac;" d="M133 545v166h975v-545h-201v379h-774z" />
<glyph unicode="&#xad;" horiz-adv-x="780" d="M92 487v189h596v-189h-596z" />
<glyph unicode="&#xae;" horiz-adv-x="1527" d="M47 702q0 149 58 282.5t155.5 228t228.5 149.5t273 55q149 0 283.5 -58.5t229 -156t149.5 -228.5t55 -272q0 -150 -58.5 -284t-156 -227.5t-229 -148t-273.5 -54.5q-148 0 -281.5 58t-228 154.5t-150 228t-55.5 273.5zM184 702q0 -157 78 -290.5t211.5 -211t290.5 -77.5 q117 0 224.5 46t185 123.5t123.5 185t46 224.5q0 157 -77.5 290.5t-211 211.5t-290.5 78t-290.5 -78t-211.5 -211.5t-78 -290.5zM485 309v787h326q21 0 42 -2t60.5 -15.5t68 -36t51 -69.5t22.5 -111q0 -101 -56 -163t-153 -66l223 -324h-135q-111 168 -207 322h-123v-322 h-119zM604 737h205q32 0 56.5 10t37.5 24t21 32.5t10 32t2 26.5q0 43 -16.5 71.5t-42.5 38.5t-40 12.5t-28 2.5h-205v-250z" />
<glyph unicode="&#xaf;" horiz-adv-x="645" d="M35 1153v174h575v-174h-575z" />
<glyph unicode="&#xb0;" horiz-adv-x="681" d="M98 1364q0 101 71 171.5t171 70.5t171 -70.5t71 -171.5q0 -100 -71 -170t-171 -70t-171 70t-71 170zM213 1364q0 -52 37 -88.5t90 -36.5q52 0 88.5 36.5t36.5 88.5q0 54 -36 90.5t-89 36.5t-90 -36.5t-37 -90.5z" />
<glyph unicode="&#xb1;" d="M152 0v174h940v-174h-940zM152 719v188h374v377h189v-377h377v-188h-377v-379h-189v379h-374z" />
<glyph unicode="&#xb2;" horiz-adv-x="651" d="M66 578v114q140 115 223.5 193t123 133t50 88t10.5 78q0 29 -9.5 55.5t-40.5 49t-79 22.5q-133 0 -133 -150h-137q0 262 270 262q139 0 203.5 -63.5t64.5 -175.5q0 -103 -80 -212t-290 -288h372v-106h-548z" />
<glyph unicode="&#xb3;" horiz-adv-x="628" d="M41 811h139q9 -135 142 -135q67 0 108 36.5t41 110.5q0 85 -43 123.5t-106 38.5q-64 0 -117 -24v112l205 219h-314v115h473v-115l-209 -209q46 0 88.5 -14.5t79 -43.5t58.5 -81t22 -119q0 -127 -82 -195.5t-202 -68.5q-53 0 -98 11.5t-86.5 38t-68 78t-30.5 122.5z" />
<glyph unicode="&#xb4;" horiz-adv-x="587" d="M160 1141l153 266h236l-207 -266h-182z" />
<glyph unicode="&#xb5;" horiz-adv-x="1198" d="M162 -399v1437h198v-641v-10q0 -28 0.5 -43.5t3.5 -44.5t9.5 -46.5t19 -40t31 -35t47 -21.5t64.5 -9q127 0 220 83.5t93 170.5v637h201v-1038h-168l-25 166q-54 -98 -134 -145.5t-175 -47.5q-119 0 -187 82v-454h-198z" />
<glyph unicode="&#xb6;" horiz-adv-x="1439" d="M133 1001q0 172 122 289t294 117h600v-1638h-201v1448h-241v-1448h-199v825q-156 14 -265.5 131t-109.5 276z" />
<glyph unicode="&#xb7;" horiz-adv-x="620" d="M201 414v221h219v-221h-219z" />
<glyph unicode="&#xb8;" horiz-adv-x="526" d="M57 -258q33 -19 78.5 -32t81.5 -13q74 0 74 49q0 64 -105 64q-30 0 -77 -7l92 193h104l-45 -90q91 0 134.5 -44t43.5 -118q0 -66 -48.5 -113t-153.5 -47q-32 0 -59.5 3.5t-47 9t-32.5 10.5t-25 11t-15 7v117z" />
<glyph unicode="&#xb9;" horiz-adv-x="638" d="M150 1124v160l141 123h135v-829h-135v673z" />
<glyph unicode="&#xba;" horiz-adv-x="817" d="M29 1077q0 186 104.5 289.5t274.5 103.5q180 0 279 -102t99 -291q0 -192 -99 -294.5t-279 -102.5q-170 0 -274.5 104t-104.5 293zM197 1077q0 -125 55 -190.5t156 -65.5q104 0 159.5 66.5t55.5 189.5q0 119 -56.5 186.5t-158.5 67.5q-103 0 -157 -68.5t-54 -185.5z" />
<glyph unicode="&#xbb;" horiz-adv-x="1241" d="M164 61q62 105 268 449q-206 348 -268 455h194l301 -455l-301 -449h-194zM580 61q206 344 268 449q-62 107 -268 455h196l301 -455l-301 -449h-196z" />
<glyph unicode="&#xbc;" horiz-adv-x="1546" d="M219 1124v160l141 123h136v-829h-136v673zM250 0l860 1407h145l-862 -1407h-143zM745 190v123l383 516h138v-516h92v-123h-92v-190h-136v190h-385zM903 313h227v312z" />
<glyph unicode="&#xbd;" horiz-adv-x="1560" d="M221 1124v160l141 123h136v-829h-136v673zM250 0l860 1407h145l-862 -1407h-143zM911 0v115q140 116 223.5 193t123 132t50.5 88t11 78q0 29 -9.5 55.5t-40.5 49t-79 22.5q-133 0 -133 -149h-137q0 262 270 262q138 0 203 -64t65 -176q0 -103 -80.5 -212t-290.5 -288h373 v-106h-549z" />
<glyph unicode="&#xbe;" horiz-adv-x="1619" d="M51 811h137q11 -135 144 -135q68 0 107.5 36.5t39.5 110.5q0 85 -43 123.5t-106 38.5q-65 0 -115 -24v112l203 219h-314v115h476v-115l-209 -209q45 0 87 -14.5t78.5 -43.5t59 -81t22.5 -119q0 -85 -41 -146.5t-104 -89.5t-139 -28q-42 0 -79 6.5t-73.5 24t-63.5 45 t-45.5 72t-21.5 102.5zM313 0l861 1407h145l-860 -1407h-146zM813 190v123l383 516h137v-516h92v-123h-92v-190h-137v190h-383zM969 313h227v312z" />
<glyph unicode="&#xbf;" horiz-adv-x="1206" d="M152 147q0 75 36.5 143.5t88 124.5t103 114t88 136.5t36.5 168.5h198q0 -79 -19.5 -146.5t-50.5 -116t-68.5 -91.5t-75 -81t-68.5 -74.5t-50.5 -82t-19.5 -95.5q0 -21 2.5 -40.5t16 -51.5t37 -55t70 -40t110.5 -17q63 0 108.5 15.5t69.5 37t38 54.5t17.5 58.5t3.5 57.5 h199q0 -56 -9.5 -106t-38.5 -103.5t-75.5 -91t-126.5 -62t-186 -24.5q-434 0 -434 368zM492 993v221h221v-221h-221z" />
<glyph unicode="&#xc0;" horiz-adv-x="1304" d="M18 0q86 235 521 1407h229l520 -1407h-219q-17 49 -51.5 147.5t-50.5 147.5h-645q-39 -115 -103 -295h-201zM389 489h510l-254 725zM408 1833h235l154 -266h-183z" />
<glyph unicode="&#xc1;" horiz-adv-x="1304" d="M18 0q86 235 521 1407h229l520 -1407h-219q-17 49 -51.5 147.5t-50.5 147.5h-645q-39 -115 -103 -295h-201zM389 489h510l-254 725zM502 1567l153 266h234l-205 -266h-182z" />
<glyph unicode="&#xc2;" horiz-adv-x="1304" d="M18 0q86 235 521 1407h229l520 -1407h-219q-17 49 -51.5 147.5t-50.5 147.5h-645q-39 -115 -103 -295h-201zM342 1567l209 266h199l208 -266h-167l-140 159l-139 -159h-170zM389 489h510l-254 725z" />
<glyph unicode="&#xc3;" horiz-adv-x="1304" d="M18 0q86 235 521 1407h229l520 -1407h-219q-17 49 -51.5 147.5t-50.5 147.5h-645q-39 -115 -103 -295h-201zM307 1602q0 29 3.5 56t16.5 60.5t34 57.5t60 40.5t91 16.5q43 0 84 -15.5t68 -34.5t59.5 -34.5t60.5 -15.5q95 0 95 100h129q0 -44 -9 -81.5t-30.5 -73t-64 -56 t-101.5 -20.5q-52 0 -101 24.5t-91 49t-79 24.5q-94 0 -94 -98h-131zM389 489h510l-254 725z" />
<glyph unicode="&#xc4;" horiz-adv-x="1304" d="M18 0q86 235 521 1407h229l520 -1407h-219q-17 49 -51.5 147.5t-50.5 147.5h-645q-39 -115 -103 -295h-201zM369 1640v193h209v-193h-209zM389 489h510l-254 725zM717 1640v193h207v-193h-207z" />
<glyph unicode="&#xc5;" horiz-adv-x="1304" d="M18 0l508 1384q-44 32 -70 80t-26 105q0 87 65.5 154t155.5 67q92 0 156.5 -64.5t64.5 -156.5q0 -57 -26 -106t-70 -79q271 -737 512 -1384h-221q-17 49 -51 146.5t-51 146.5h-639l-101 -293h-207zM395 492h500l-252 706q-113 -318 -248 -706zM555 1569q0 -38 29 -66 t67 -28t66 28t28 66q0 39 -27.5 66.5t-66.5 27.5t-67.5 -27.5t-28.5 -66.5z" />
<glyph unicode="&#xc6;" horiz-adv-x="2076" d="M16 0l768 1407h1160v-184h-713v-406h592v-192h-592v-441h713v-184h-928v330h-586l-174 -330h-240zM526 514h490v709h-121z" />
<glyph unicode="&#xc7;" horiz-adv-x="1468" d="M96 702q0 173 49 312.5t136.5 231t208.5 140t266 48.5q137 0 247.5 -38t183.5 -104.5t117 -151.5t58 -184h-209q-25 147 -127 225.5t-270 78.5q-94 0 -170.5 -30.5t-127.5 -83t-85.5 -124.5t-50 -151.5t-15.5 -168.5q0 -272 117 -413.5t332 -141.5q179 0 280.5 93.5 t128.5 244.5h209q-15 -102 -57 -189t-110.5 -157t-171.5 -113.5t-230 -50.5l-35 -69q91 0 134.5 -44t43.5 -118q0 -61 -52 -110.5t-151 -49.5q-32 0 -59.5 3.5t-47 9t-32 10.5t-24.5 11t-15 7v117q33 -19 78.5 -32t81.5 -13q74 0 74 49q0 64 -105 64q-31 0 -78 -7l82 172 q-274 18 -439 207.5t-165 519.5z" />
<glyph unicode="&#xc8;" horiz-adv-x="1261" d="M205 0v1407h925v-174h-720v-422h600v-174h-600v-463h720v-174h-925zM434 1833h234l153 -266h-182z" />
<glyph unicode="&#xc9;" horiz-adv-x="1261" d="M205 0v1407h925v-174h-720v-422h600v-174h-600v-463h720v-174h-925zM528 1567l154 266h236l-207 -266h-183z" />
<glyph unicode="&#xca;" horiz-adv-x="1261" d="M205 0v1407h925v-174h-720v-422h600v-174h-600v-463h720v-174h-925zM362 1567l207 266h201l209 -266h-170l-139 159l-140 -159h-168z" />
<glyph unicode="&#xcb;" horiz-adv-x="1261" d="M205 0v1407h925v-174h-720v-422h600v-174h-600v-463h720v-174h-925zM401 1640v193h209v-193h-209zM750 1640v193h206v-193h-206z" />
<glyph unicode="&#xcc;" horiz-adv-x="573" d="M16 1833h234l153 -266h-182zM180 0v1407h213v-1407h-213z" />
<glyph unicode="&#xcd;" horiz-adv-x="573" d="M150 1567l153 266h234l-205 -266h-182zM180 0v1407h213v-1407h-213z" />
<glyph unicode="&#xce;" horiz-adv-x="573" d="M-20 1567l206 266h201l209 -266h-170l-139 159l-140 -159h-167zM180 0v1407h213v-1407h-213z" />
<glyph unicode="&#xcf;" horiz-adv-x="573" d="M12 1640v193h207v-193h-207zM180 0v1407h213v-1407h-213zM358 1640v193h209v-193h-209z" />
<glyph unicode="&#xd0;" horiz-adv-x="1460" d="M47 610v201h158v596h471q54 0 104 -4.5t119 -22t126.5 -46t116.5 -82t100 -125t67 -179.5t26 -241t-25.5 -241.5t-66 -180.5t-99 -126t-116 -83.5t-126 -47.5t-120 -23t-106.5 -5h-471v610h-158zM420 188h256q75 0 138 16t120 54t96.5 97.5t62.5 150t23 207.5 q0 136 -34 235.5t-96 157t-139 84.5t-171 27h-256v-406h264v-201h-264v-422z" />
<glyph unicode="&#xd1;" horiz-adv-x="1437" d="M168 0v1407h266l684 -1077v1077h205v-1407h-231l-719 1118v-1118h-205zM395 1602q0 30 3.5 56.5t16 60t33.5 57.5t60 40.5t92 16.5q42 0 83 -15.5t68.5 -34.5t60 -34.5t60.5 -15.5q95 0 95 100h129q0 -44 -9.5 -81.5t-31 -73t-63.5 -56t-101 -20.5q-42 0 -82.5 15.5 t-66.5 33.5t-60 33.5t-64 15.5q-92 0 -92 -98h-131z" />
<glyph unicode="&#xd2;" horiz-adv-x="1536" d="M96 700q0 174 49 313.5t138 231.5t212.5 140.5t272.5 48.5t272.5 -48.5t212.5 -140.5t138 -231.5t49 -313.5q0 -175 -49 -313.5t-138 -228.5t-212.5 -137.5t-272.5 -47.5t-272.5 47.5t-212.5 137.5t-138 228.5t-49 313.5zM307 700q0 -277 118 -415t343 -138 q229 0 345 141.5t116 411.5q0 284 -123 422t-338 138q-230 0 -345.5 -146t-115.5 -414zM535 1833h235l154 -266h-183z" />
<glyph unicode="&#xd3;" horiz-adv-x="1536" d="M96 700q0 174 49 313.5t138 231.5t212.5 140.5t272.5 48.5t272.5 -48.5t212.5 -140.5t138 -231.5t49 -313.5q0 -175 -49 -313.5t-138 -228.5t-212.5 -137.5t-272.5 -47.5t-272.5 47.5t-212.5 137.5t-138 228.5t-49 313.5zM307 700q0 -277 118 -415t343 -138 q229 0 345 141.5t116 411.5q0 284 -123 422t-338 138q-230 0 -345.5 -146t-115.5 -414zM600 1567l154 266h235l-207 -266h-182z" />
<glyph unicode="&#xd4;" horiz-adv-x="1536" d="M96 700q0 174 49 313.5t138 231.5t212.5 140.5t272.5 48.5t272.5 -48.5t212.5 -140.5t138 -231.5t49 -313.5q0 -175 -49 -313.5t-138 -228.5t-212.5 -137.5t-272.5 -47.5t-272.5 47.5t-212.5 137.5t-138 228.5t-49 313.5zM307 700q0 -277 118 -415t343 -138 q229 0 345 141.5t116 411.5q0 284 -123 422t-338 138q-230 0 -345.5 -146t-115.5 -414zM463 1567l209 266h198l209 -266h-168l-139 159l-139 -159h-170z" />
<glyph unicode="&#xd5;" horiz-adv-x="1536" d="M96 700q0 174 49 313.5t138 231.5t212.5 140.5t272.5 48.5t272.5 -48.5t212.5 -140.5t138 -231.5t49 -313.5q0 -175 -49 -313.5t-138 -228.5t-212.5 -137.5t-272.5 -47.5t-272.5 47.5t-212.5 137.5t-138 228.5t-49 313.5zM307 700q0 -277 118 -415t343 -138 q229 0 345 141.5t116 411.5q0 284 -123 422t-338 138q-230 0 -345.5 -146t-115.5 -414zM414 1602q0 30 3.5 56t16 60t33 58t59.5 40.5t92 16.5t103.5 -25t93 -50t76.5 -25q94 0 94 100h129q0 -44 -9.5 -81.5t-31 -73t-63.5 -56t-101 -20.5q-42 0 -82 15.5t-66.5 33.5 t-60 33.5t-63.5 15.5q-92 0 -92 -98h-131z" />
<glyph unicode="&#xd6;" horiz-adv-x="1536" d="M96 700q0 174 49 313.5t138 231.5t212.5 140.5t272.5 48.5t272.5 -48.5t212.5 -140.5t138 -231.5t49 -313.5q0 -175 -49 -313.5t-138 -228.5t-212.5 -137.5t-272.5 -47.5t-272.5 47.5t-212.5 137.5t-138 228.5t-49 313.5zM307 700q0 -277 118 -415t343 -138 q229 0 345 141.5t116 411.5q0 284 -123 422t-338 138q-230 0 -345.5 -146t-115.5 -414zM483 1640v193h207v-193h-207zM829 1640v193h209v-193h-209z" />
<glyph unicode="&#xd7;" horiz-adv-x="1208" d="M176 877l135 133l293 -295l295 295l135 -133l-297 -297l295 -293l-133 -133l-295 295l-293 -295l-133 133l295 293z" />
<glyph unicode="&#xd8;" horiz-adv-x="1607" d="M131 698q0 175 49.5 315t138.5 232t212.5 140.5t271.5 48.5q193 0 340 -84q13 19 37 53t44 62.5t38 52.5l155 -109l-123 -176q181 -194 181 -535q0 -175 -48.5 -313t-137 -228t-212 -137t-274.5 -47q-190 0 -342 82q-23 -32 -65.5 -91.5t-55.5 -78.5q-84 61 -154 109 q25 33 69 96t56 80q-180 196 -180 528zM350 698q0 -216 88 -350l596 840q-90 55 -231 55q-82 0 -150.5 -21.5t-114 -56.5t-81 -83.5t-55 -97.5t-32 -104t-16.5 -97.5t-4 -84.5zM569 217q93 -55 234 -55q84 0 152.5 21t114.5 55t81 82t54 95.5t31 102.5t15.5 96.5t3.5 83.5 q0 222 -90 361z" />
<glyph unicode="&#xd9;" horiz-adv-x="1433" d="M178 469v938h205v-961q0 -136 84 -217.5t248 -81.5q172 0 253 79t81 220v961h204v-938q0 -109 -32.5 -198.5t-97.5 -156.5t-169 -104t-239 -37t-239 37t-168.5 104t-97 156.5t-32.5 198.5zM481 1833h234l153 -266h-182z" />
<glyph unicode="&#xda;" horiz-adv-x="1433" d="M178 469v938h205v-961q0 -136 84 -217.5t248 -81.5q172 0 253 79t81 220v961h204v-938q0 -109 -32.5 -198.5t-97.5 -156.5t-169 -104t-239 -37t-239 37t-168.5 104t-97 156.5t-32.5 198.5zM559 1567l154 266h235l-207 -266h-182z" />
<glyph unicode="&#xdb;" horiz-adv-x="1433" d="M178 469v938h205v-961q0 -136 84 -217.5t248 -81.5q172 0 253 79t81 220v961h204v-938q0 -109 -32.5 -198.5t-97.5 -156.5t-169 -104t-239 -37t-239 37t-168.5 104t-97 156.5t-32.5 198.5zM410 1567l206 266h201l209 -266h-170l-139 159l-139 -159h-168z" />
<glyph unicode="&#xdc;" horiz-adv-x="1464" d="M223 469v938h205v-961q0 -135 85 -217t249 -82q171 0 251.5 79t80.5 220v961h204v-938q0 -226 -135 -361t-401 -135q-135 0 -239 37t-169 104t-98 156.5t-33 198.5zM477 1640v193h209v-193h-209zM825 1640v193h207v-193h-207z" />
<glyph unicode="&#xdd;" horiz-adv-x="1187" d="M14 1407h234l354 -674l352 674h220l-478 -852v-555h-204v555q-94 167 -271.5 483.5t-206.5 368.5zM471 1567l154 266h235l-207 -266h-182z" />
<glyph unicode="&#xde;" horiz-adv-x="1280" d="M203 0v1405h215v-268h368q91 0 167 -26t135 -78t91.5 -138t32.5 -199q0 -211 -118 -320.5t-303 -109.5h-373v-266h-215zM418 455h360q114 0 165.5 67t51.5 178q0 110 -51.5 178t-165.5 68h-360v-491z" />
<glyph unicode="&#xdf;" horiz-adv-x="1200" d="M176 0v1061q0 52 12 101.5t43 99.5t77.5 87.5t121 61t168.5 23.5q93 0 166.5 -23t119.5 -60t76 -86t42 -97t12 -97q0 -119 -40 -188.5t-95 -98.5q5 0 14 -1.5t34.5 -10.5t48.5 -22.5t51 -41.5t48.5 -65t34.5 -95.5t14 -129.5q0 -205 -121 -311.5t-333 -106.5h-178v170 h178q12 0 21.5 0.5t38 5t50 13t50 27.5t47 45t32 68t13.5 95q0 73 -20 125t-48 79t-74.5 42.5t-82 18.5t-87.5 3v172q56 0 95.5 14t59.5 32.5t31 49.5t13 52t2 53q0 74 -56.5 135.5t-154.5 61.5q-39 0 -75.5 -9t-71.5 -30t-56.5 -62t-21.5 -98v-1063h-199z" />
<glyph unicode="&#xe0;" horiz-adv-x="1124" d="M106 287q0 59 15.5 109.5t53.5 95.5t95.5 76.5t147 50t203.5 18.5h182v63q0 94 -50.5 151.5t-162.5 57.5q-113 0 -173.5 -46.5t-60.5 -123.5h-204q0 47 13.5 91.5t46.5 88t82 75.5t125 51.5t171 19.5q100 0 174.5 -21.5t130.5 -70.5t84.5 -133t28.5 -203v-637h-168 l-25 141q-40 -51 -78.5 -84t-108 -58.5t-159.5 -25.5q-68 0 -131 18.5t-116 55t-84.5 98.5t-31.5 142zM313 289q0 -75 54.5 -114.5t138.5 -39.5q136 0 216.5 82.5t80.5 210.5v64h-178q-168 0 -240 -56.5t-72 -146.5zM371 1407h233l154 -266h-183z" />
<glyph unicode="&#xe1;" horiz-adv-x="1124" d="M106 287q0 59 15.5 109.5t53.5 95.5t95.5 76.5t147 50t203.5 18.5h182v63q0 94 -50.5 151.5t-162.5 57.5q-113 0 -173.5 -46.5t-60.5 -123.5h-204q0 47 13.5 91.5t46.5 88t82 75.5t125 51.5t171 19.5q100 0 174.5 -21.5t130.5 -70.5t84.5 -133t28.5 -203v-637h-168 l-25 141q-40 -51 -78.5 -84t-108 -58.5t-159.5 -25.5q-68 0 -131 18.5t-116 55t-84.5 98.5t-31.5 142zM313 289q0 -75 54.5 -114.5t138.5 -39.5q136 0 216.5 82.5t80.5 210.5v64h-178q-168 0 -240 -56.5t-72 -146.5zM449 1141l153 266h236l-207 -266h-182z" />
<glyph unicode="&#xe2;" horiz-adv-x="1124" d="M106 287q0 59 15.5 109.5t53.5 95.5t95.5 76.5t147 50t203.5 18.5h182v63q0 94 -50.5 151.5t-162.5 57.5q-113 0 -173.5 -46.5t-60.5 -123.5h-204q0 47 13.5 91.5t46.5 88t82 75.5t125 51.5t171 19.5q100 0 174.5 -21.5t130.5 -70.5t84.5 -133t28.5 -203v-637h-168 l-25 141q-40 -51 -78.5 -84t-108 -58.5t-159.5 -25.5q-68 0 -131 18.5t-116 55t-84.5 98.5t-31.5 142zM276 1141l207 266h201l209 -266h-170l-139 159l-140 -159h-168zM313 289q0 -75 54.5 -114.5t138.5 -39.5q136 0 216.5 82.5t80.5 210.5v64h-178q-168 0 -240 -56.5 t-72 -146.5z" />
<glyph unicode="&#xe3;" horiz-adv-x="1124" d="M106 287q0 59 15.5 109.5t53.5 95.5t95.5 76.5t147 50t203.5 18.5h182v63q0 94 -50.5 151.5t-162.5 57.5q-113 0 -173.5 -46.5t-60.5 -123.5h-204q0 47 13.5 91.5t46.5 88t82 75.5t125 51.5t171 19.5q100 0 174.5 -21.5t130.5 -70.5t84.5 -133t28.5 -203v-637h-168 l-25 141q-40 -51 -78.5 -84t-108 -58.5t-159.5 -25.5q-68 0 -131 18.5t-116 55t-84.5 98.5t-31.5 142zM240 1176q0 30 3.5 56t16 60t33 58t59.5 40.5t92 16.5q54 0 104 -25t92 -50t77 -25q49 0 71.5 30t22.5 70h129q0 -44 -9.5 -81.5t-31 -73t-63.5 -56t-101 -20.5 q-53 0 -101 24.5t-90.5 49t-80.5 24.5q-50 0 -71 -29.5t-21 -68.5h-131zM313 289q0 -75 54.5 -114.5t138.5 -39.5q136 0 216.5 82.5t80.5 210.5v64h-178q-168 0 -240 -56.5t-72 -146.5z" />
<glyph unicode="&#xe4;" horiz-adv-x="1124" d="M106 287q0 59 15.5 109.5t53.5 95.5t95.5 76.5t147 50t203.5 18.5h182v63q0 94 -50.5 151.5t-162.5 57.5q-113 0 -173.5 -46.5t-60.5 -123.5h-204q0 47 13.5 91.5t46.5 88t82 75.5t125 51.5t171 19.5q100 0 174.5 -21.5t130.5 -70.5t84.5 -133t28.5 -203v-637h-168 l-25 141q-40 -51 -78.5 -84t-108 -58.5t-159.5 -25.5q-68 0 -131 18.5t-116 55t-84.5 98.5t-31.5 142zM313 289q0 -75 54.5 -114.5t138.5 -39.5q136 0 216.5 82.5t80.5 210.5v64h-178q-168 0 -240 -56.5t-72 -146.5zM332 1214v193h207v-193h-207zM678 1214v193h209v-193 h-209z" />
<glyph unicode="&#xe5;" horiz-adv-x="1124" d="M106 287q0 59 15.5 109.5t53.5 95.5t95.5 76.5t147 50t203.5 18.5h182v63q0 94 -50.5 151.5t-162.5 57.5q-113 0 -173.5 -46.5t-60.5 -123.5h-204q0 47 13.5 91.5t46.5 88t82 75.5t125 51.5t171 19.5q100 0 174.5 -21.5t130.5 -70.5t84.5 -133t28.5 -203v-637h-168 l-25 141q-40 -51 -78.5 -84t-108 -58.5t-159.5 -25.5q-68 0 -131 18.5t-116 55t-84.5 98.5t-31.5 142zM313 289q0 -75 54.5 -114.5t138.5 -39.5q136 0 216.5 82.5t80.5 210.5v64h-178q-168 0 -240 -56.5t-72 -146.5zM369 1374q0 93 65 158t156 65q93 0 158 -65t65 -158 q0 -91 -65.5 -156t-157.5 -65q-91 0 -156 65t-65 156zM496 1374q0 -38 28 -66t66 -28q40 0 68 28t28 66q0 40 -28 68t-68 28q-38 0 -66 -28t-28 -68z" />
<glyph unicode="&#xe6;" horiz-adv-x="1861" d="M70 287q0 72 26 129.5t83.5 105t160 73.5t244.5 26h184v79q0 94 -51 148.5t-164 54.5q-111 0 -173.5 -46.5t-62.5 -117.5h-202q0 47 13.5 91.5t46.5 88t82 75.5t125 51.5t171 19.5q249 0 342 -203q59 100 161 151.5t218 51.5q215 0 348 -141t133 -387v-68h-776 q1 -167 80.5 -252.5t214.5 -85.5q105 0 175 47t93 139h203q-19 -83 -58 -146t-85.5 -99.5t-106 -59.5t-112 -31t-109.5 -8q-156 0 -258 65.5t-152 178.5q-38 -74 -87 -124t-107 -75t-113.5 -35t-124.5 -10q-68 0 -131 18.5t-115.5 55t-84 98.5t-31.5 142zM272 289 q0 -156 220 -156q125 6 200.5 87t75.5 200v51h-180q-170 0 -243 -50.5t-73 -131.5zM985 623h561q-3 73 -27.5 128t-56 83.5t-71.5 46t-66.5 22t-50.5 4.5q-260 0 -289 -284z" />
<glyph unicode="&#xe7;" horiz-adv-x="1157" d="M88 520q0 258 141 401.5t371 143.5h25q60 -2 116.5 -15.5t113 -43.5t101 -74.5t76.5 -112.5t43 -153h-209q-13 113 -87 171t-179 58q-153 0 -231 -100.5t-78 -274.5q0 -185 81.5 -281t227.5 -96h29q54 0 103 18t91.5 69t50.5 130h207q-12 -82 -42.5 -147t-70.5 -107 t-93 -70.5t-105 -42.5t-111 -18l-36 -69q92 0 136 -44t44 -118q0 -66 -49.5 -113t-155.5 -47q-31 0 -58.5 3.5t-47 9t-32.5 10.5t-25.5 11t-14.5 7v117q81 -45 162 -45q71 0 71 49q0 64 -102 64q-33 0 -80 -7l82 172q-211 14 -338 156t-127 389z" />
<glyph unicode="&#xe8;" horiz-adv-x="1189" d="M104 518q0 259 139.5 403t366.5 144q215 0 348.5 -141t133.5 -387v-66h-777q4 -164 81 -249t214 -85q110 0 175.5 49t88.5 131h207q-20 -83 -59 -146t-86 -99.5t-106 -59.5t-111 -31t-109 -8q-227 0 -366.5 143.5t-139.5 401.5zM319 618h562q-5 121 -76 203t-195 82 q-133 0 -205 -74.5t-86 -210.5zM365 1407h235l154 -266h-183z" />
<glyph unicode="&#xe9;" horiz-adv-x="1189" d="M104 518q0 259 139.5 403t366.5 144q215 0 348.5 -141t133.5 -387v-66h-777q4 -164 81 -249t214 -85q110 0 175.5 49t88.5 131h207q-20 -83 -59 -146t-86 -99.5t-106 -59.5t-111 -31t-109 -8q-227 0 -366.5 143.5t-139.5 401.5zM319 618h562q-5 121 -76 203t-195 82 q-133 0 -205 -74.5t-86 -210.5zM438 1141l154 266h233l-204 -266h-183z" />
<glyph unicode="&#xea;" horiz-adv-x="1189" d="M104 518q0 259 139.5 403t366.5 144q215 0 348.5 -141t133.5 -387v-66h-777q4 -164 81 -249t214 -85q110 0 175.5 49t88.5 131h207q-20 -83 -59 -146t-86 -99.5t-106 -59.5t-111 -31t-109 -8q-227 0 -366.5 143.5t-139.5 401.5zM297 1141l207 266h201l208 -266h-170 l-139 159l-139 -159h-168zM319 618h562q-5 121 -76 203t-195 82q-133 0 -205 -74.5t-86 -210.5z" />
<glyph unicode="&#xeb;" horiz-adv-x="1189" d="M104 518q0 259 139.5 403t366.5 144q215 0 348.5 -141t133.5 -387v-66h-777q4 -164 81 -249t214 -85q110 0 175.5 49t88.5 131h207q-20 -83 -59 -146t-86 -99.5t-106 -59.5t-111 -31t-109 -8q-227 0 -366.5 143.5t-139.5 401.5zM319 618h562q-5 121 -76 203t-195 82 q-133 0 -205 -74.5t-86 -210.5zM319 1214v193h209v-193h-209zM668 1214v193h206v-193h-206z" />
<glyph unicode="&#xec;" horiz-adv-x="501" d="M-6 1407h233l154 -266h-182zM152 0v1038h198v-1038h-198z" />
<glyph unicode="&#xed;" horiz-adv-x="501" d="M123 1141l153 266h234l-205 -266h-182zM152 0v1038h198v-1038h-198z" />
<glyph unicode="&#xee;" horiz-adv-x="501" d="M-51 1141l207 266h198l209 -266h-168l-139 159l-139 -159h-168zM152 0v1038h198v-1038h-198z" />
<glyph unicode="&#xef;" horiz-adv-x="501" d="M-20 1214v191h206v-191h-206zM152 0v1038h198v-1038h-198zM326 1214v191h206v-191h-206z" />
<glyph unicode="&#xf0;" horiz-adv-x="1204" d="M84 510q0 251 134.5 386.5t346.5 135.5q58 0 117.5 -12.5t126 -52.5t102.5 -103q-26 143 -112.5 259t-227.5 175l-86 -180l-129 62l74 157q-75 17 -172 17q3 26 23 176q111 0 225 -29q54 114 72 156l131 -62q-11 -22 -32 -67t-32 -68q222 -86 347.5 -285t125.5 -501 q0 -701 -528 -701q-228 0 -367 141t-139 396zM287 510q0 -184 80 -279.5t223 -95.5q76 0 134.5 28t92.5 70.5t55.5 100t29 110t7.5 107.5q0 77 -23 137.5t-57.5 95t-79 57t-82.5 30.5t-73 8q-153 0 -230 -97.5t-77 -271.5z" />
<glyph unicode="&#xf1;" horiz-adv-x="1204" d="M147 0v1038h172l25 -168q128 195 369 195q84 0 146.5 -22.5t99.5 -58.5t59.5 -91t30.5 -111.5t8 -128.5v-653h-205v629q0 31 -0.5 50t-4.5 50t-11 50.5t-21.5 43t-35 36.5t-52.5 22.5t-72 9.5q-67 0 -123 -25.5t-88 -61.5t-54 -72t-30 -62l-8 -25v-645h-205zM256 1176 q0 29 3.5 56t16.5 60.5t34 57.5t60 40.5t91 16.5q55 0 105 -25t91.5 -50t75.5 -25q49 0 71.5 29.5t22.5 70.5h129q0 -34 -5 -65t-19 -62t-36 -53.5t-59 -36.5t-85 -14q-42 0 -82 15.5t-66 33.5t-59.5 33.5t-63.5 15.5q-49 0 -71.5 -29.5t-22.5 -68.5h-131z" />
<glyph unicode="&#xf2;" horiz-adv-x="1202" d="M80 520q0 258 143 401.5t379 143.5q242 0 381 -142t139 -403q0 -263 -138.5 -405t-381.5 -142q-236 0 -379 143t-143 404zM291 520q0 -373 311 -373q309 0 309 373q0 192 -84.5 281.5t-224.5 89.5q-146 0 -228.5 -91.5t-82.5 -279.5zM371 1407h233l154 -266h-183z" />
<glyph unicode="&#xf3;" horiz-adv-x="1202" d="M80 520q0 258 143 401.5t379 143.5q242 0 381 -142t139 -403q0 -263 -138.5 -405t-381.5 -142q-236 0 -379 143t-143 404zM291 520q0 -373 311 -373q309 0 309 373q0 192 -84.5 281.5t-224.5 89.5q-146 0 -228.5 -91.5t-82.5 -279.5zM442 1141l154 266h235l-206 -266 h-183z" />
<glyph unicode="&#xf4;" horiz-adv-x="1202" d="M80 520q0 258 143 401.5t379 143.5q242 0 381 -142t139 -403q0 -263 -138.5 -405t-381.5 -142q-236 0 -379 143t-143 404zM291 520q0 -373 311 -373q309 0 309 373q0 192 -84.5 281.5t-224.5 89.5q-146 0 -228.5 -91.5t-82.5 -279.5zM301 1141l207 266h201l209 -266h-170 l-140 159l-139 -159h-168z" />
<glyph unicode="&#xf5;" horiz-adv-x="1202" d="M80 520q0 258 143 401.5t379 143.5q242 0 381 -142t139 -403q0 -263 -138.5 -405t-381.5 -142q-236 0 -379 143t-143 404zM258 1176q0 30 3.5 56.5t16 60t33.5 57.5t60 40.5t92 16.5q43 0 84 -15.5t67.5 -34.5t59.5 -34.5t61 -15.5q49 0 71.5 30t22.5 70h129 q0 -44 -9.5 -81.5t-30.5 -73t-63 -56t-101 -20.5q-42 0 -82 15.5t-66 33.5t-60 33.5t-65 15.5q-50 0 -71 -29.5t-21 -68.5h-131zM291 520q0 -373 311 -373q309 0 309 373q0 192 -84.5 281.5t-224.5 89.5q-146 0 -228.5 -91.5t-82.5 -279.5z" />
<glyph unicode="&#xf6;" horiz-adv-x="1202" d="M80 520q0 258 143 401.5t379 143.5q242 0 381 -142t139 -403q0 -263 -138.5 -405t-381.5 -142q-236 0 -379 143t-143 404zM291 520q0 -373 311 -373q309 0 309 373q0 192 -84.5 281.5t-224.5 89.5q-146 0 -228.5 -91.5t-82.5 -279.5zM328 1214v193h209v-193h-209z M676 1214v193h207v-193h-207z" />
<glyph unicode="&#xf7;" d="M199 487v189h843v-189h-843zM512 139v221h219v-221h-219zM512 801v221h221v-221h-221z" />
<glyph unicode="&#xf8;" horiz-adv-x="1196" d="M90 510q0 259 135.5 400t372.5 141q132 0 236 -52q68 91 98 138l143 -103l-98 -137q129 -145 129 -387q0 -259 -135.5 -398t-372.5 -139q-133 0 -240 52q-38 -52 -96 -136l-143 101l98 135q-127 139 -127 385zM289 510q0 -133 49 -213l397 561q-58 27 -141 27 q-79 0 -138 -28t-90 -67.5t-49.5 -95.5t-23 -97t-4.5 -87zM459 166q54 -31 139 -31q79 0 137.5 27t90 66t50.5 92.5t24 95t5 86.5q0 135 -49 223z" />
<glyph unicode="&#xf9;" horiz-adv-x="1202" d="M162 385v653h205v-628q0 -31 0.5 -50t4 -50t10.5 -50.5t21 -43t33.5 -37t49.5 -23t69 -9.5q63 0 120.5 29t93.5 71t57.5 86t21.5 77v628h205v-1038h-172l-25 168q-128 -195 -358 -195q-82 0 -142.5 22t-97 58.5t-59 91.5t-30 111.5t-7.5 128.5zM383 1407h235l154 -266 h-182z" />
<glyph unicode="&#xfa;" horiz-adv-x="1202" d="M162 385v653h205v-628q0 -31 0.5 -50t4 -50t10.5 -50.5t21 -43t33.5 -37t49.5 -23t69 -9.5q63 0 120.5 29t93.5 71t57.5 86t21.5 77v628h205v-1038h-172l-25 168q-128 -195 -358 -195q-82 0 -142.5 22t-97 58.5t-59 91.5t-30 111.5t-7.5 128.5zM469 1141l154 266h233 l-205 -266h-182z" />
<glyph unicode="&#xfb;" horiz-adv-x="1202" d="M162 385v653h205v-628q0 -31 0.5 -50t4 -50t10.5 -50.5t21 -43t33.5 -37t49.5 -23t69 -9.5q63 0 120.5 29t93.5 71t57.5 86t21.5 77v628h205v-1038h-172l-25 168q-128 -195 -358 -195q-82 0 -142.5 22t-97 58.5t-59 91.5t-30 111.5t-7.5 128.5zM305 1141l209 266h199 l209 -266h-168l-140 159l-139 -159h-170z" />
<glyph unicode="&#xfc;" horiz-adv-x="1202" d="M162 385v653h205v-628q0 -31 0.5 -50t4 -50t10.5 -50.5t21 -43t33.5 -37t49.5 -23t69 -9.5q63 0 120.5 29t93.5 71t57.5 86t21.5 77v628h205v-1038h-172l-25 168q-128 -195 -358 -195q-82 0 -142.5 22t-97 58.5t-59 91.5t-30 111.5t-7.5 128.5zM334 1214v193h209v-193 h-209zM682 1214v193h207v-193h-207z" />
<glyph unicode="&#xfd;" horiz-adv-x="1009" d="M20 1038h218q40 -113 132.5 -375t141.5 -403l270 778h197q-178 -479 -530 -1437h-197l166 442zM397 1141l154 266h233l-204 -266h-183z" />
<glyph unicode="&#xfe;" horiz-adv-x="1196" d="M131 -399v1833h199v-533q108 164 319 164q213 0 335 -143t122 -404q0 -269 -120.5 -407t-336.5 -138q-207 0 -319 156v-528h-199zM330 518q0 -174 70.5 -276.5t217.5 -102.5q148 0 215.5 101t67.5 278q0 381 -283 381q-55 0 -99.5 -15t-74 -38t-51.5 -57.5t-33.5 -67 t-18.5 -72.5t-9 -69.5t-2 -61.5z" />
<glyph unicode="&#xff;" horiz-adv-x="1009" d="M20 1038h218q40 -113 132.5 -375t141.5 -403l270 778h197q-178 -479 -530 -1437h-197l166 442zM238 1214v193h208v-193h-208zM586 1214v193h207v-193h-207z" />
<glyph unicode="&#x152;" horiz-adv-x="2271" d="M131 700q0 347 177 540.5t468 193.5q138 0 254.5 -56.5t183.5 -165.5v195h926v-193h-710v-395h589v-192h-589v-434h710v-193h-926v188q-137 -215 -438 -215q-143 0 -261 47.5t-203.5 137.5t-133 228.5t-47.5 313.5zM350 700q0 -257 113 -395.5t319 -138.5 q208 0 318.5 135.5t113.5 384.5v14q0 264 -115 402.5t-317 138.5q-207 0 -319.5 -143.5t-112.5 -397.5z" />
<glyph unicode="&#x153;" horiz-adv-x="1984" d="M82 518q0 260 141 403.5t373 143.5q283 0 414 -234q62 116 164 175t231 59q216 0 349.5 -141t133.5 -387v-70h-778q4 -168 81 -254t214 -86q35 0 65 12q163 19 203 178h203q-19 -83 -58 -146t-85.5 -99.5t-106 -59.5t-112 -31t-109.5 -8q-130 0 -232.5 58.5t-162.5 173.5 q-128 -232 -414 -232q-232 0 -373 143t-141 402zM287 518q0 -188 81 -284.5t228 -96.5q152 0 231.5 98.5t79.5 282.5q0 183 -80.5 283t-230.5 100q-154 0 -231.5 -102t-77.5 -281zM1116 623h563q-3 122 -76 205t-198 83q-131 0 -203 -75t-86 -213z" />
<glyph unicode="&#x178;" horiz-adv-x="1187" d="M14 1407h234l356 -668l352 668h218l-478 -844v-563h-204v563zM317 1640v193h207v-193h-207zM664 1640v193h208v-193h-208z" />
<glyph unicode="&#x2c6;" horiz-adv-x="626" d="M4 1153l207 266h201l209 -266h-170l-140 160l-139 -160h-168z" />
<glyph unicode="&#x2dc;" horiz-adv-x="706" d="M4 1176q0 30 3.5 56.5t16 60t33.5 57.5t60 40.5t92 16.5q43 0 84 -15.5t67.5 -34.5t59.5 -34.5t61 -15.5q49 0 71.5 30t22.5 70h130q0 -44 -9.5 -81.5t-31 -73t-63.5 -56t-101 -20.5q-42 0 -82 15.5t-66 33.5t-60 33.5t-65 15.5q-50 0 -71 -29.5t-21 -68.5h-131z" />
<glyph unicode="&#x2000;" horiz-adv-x="916" />
<glyph unicode="&#x2001;" horiz-adv-x="1833" />
<glyph unicode="&#x2002;" horiz-adv-x="916" />
<glyph unicode="&#x2003;" horiz-adv-x="1833" />
<glyph unicode="&#x2004;" horiz-adv-x="611" />
<glyph unicode="&#x2005;" horiz-adv-x="458" />
<glyph unicode="&#x2006;" horiz-adv-x="305" />
<glyph unicode="&#x2007;" horiz-adv-x="305" />
<glyph unicode="&#x2008;" horiz-adv-x="229" />
<glyph unicode="&#x2009;" horiz-adv-x="366" />
<glyph unicode="&#x200a;" horiz-adv-x="101" />
<glyph unicode="&#x2010;" horiz-adv-x="780" d="M92 487v189h596v-189h-596z" />
<glyph unicode="&#x2011;" horiz-adv-x="780" d="M92 487v189h596v-189h-596z" />
<glyph unicode="&#x2012;" horiz-adv-x="780" d="M92 487v189h596v-189h-596z" />
<glyph unicode="&#x2013;" horiz-adv-x="974" d="M0 451v198h975v-198h-975z" />
<glyph unicode="&#x2014;" horiz-adv-x="1980" d="M0 451v198h1980v-198h-1980z" />
<glyph unicode="&#x2018;" horiz-adv-x="585" d="M147 942l123 463h152l-76 -463h-199z" />
<glyph unicode="&#x2019;" horiz-adv-x="585" d="M164 942l76 463h198l-123 -463h-151z" />
<glyph unicode="&#x201a;" horiz-adv-x="585" d="M164 -213l76 465h198l-123 -465h-151z" />
<glyph unicode="&#x201c;" horiz-adv-x="1099" d="M258 942l123 465h151l-75 -465h-199zM580 942l125 465h151l-78 -465h-198z" />
<glyph unicode="&#x201d;" horiz-adv-x="1099" d="M260 942l78 465h199l-125 -465h-152zM584 942l75 465h199l-123 -465h-151z" />
<glyph unicode="&#x201e;" horiz-adv-x="1099" d="M258 -213l76 465h198l-122 -465h-152zM580 -213l77 465h199q-22 -78 -63 -232.5t-62 -232.5h-151z" />
<glyph unicode="&#x2022;" horiz-adv-x="823" d="M141 698q0 112 79.5 191.5t191.5 79.5t191 -79t79 -192q0 -112 -79 -191t-191 -79q-113 0 -192 79t-79 191z" />
<glyph unicode="&#x2026;" horiz-adv-x="1761" d="M258 0v221h219v-221h-219zM770 0v221h219v-221h-219zM1282 0v221h221v-221h-221z" />
<glyph unicode="&#x202f;" horiz-adv-x="366" />
<glyph unicode="&#x2039;" horiz-adv-x="743" d="M117 516l301 449h196q-206 -344 -268 -449q62 -107 268 -455h-196z" />
<glyph unicode="&#x203a;" horiz-adv-x="743" d="M129 61q62 105 268 449q-206 348 -268 455h195l301 -455l-301 -449h-195z" />
<glyph unicode="&#x205f;" horiz-adv-x="458" />
<glyph unicode="&#x20ac;" d="M20 477v135h148q-2 27 -2 80q0 55 2 84h-148v135h164q47 251 198.5 387t381.5 136q295 0 450 -220l-153 -139q-95 166 -297 166q-82 0 -146.5 -27.5t-107 -76t-68.5 -104t-41 -122.5h537l-76 -135h-479q-2 -31 -2 -84t2 -80h387l-74 -135h-293q34 -153 125.5 -232 t235.5 -79q200 0 299 162l151 -144q-80 -105 -189 -158t-261 -53q-220 0 -374 130t-204 374h-166z" />
<glyph unicode="&#x2122;" horiz-adv-x="1691" d="M59 1300v107h598v-107h-239v-682h-119v682h-240zM731 618v789h178l228 -659l99 291.5t124 367.5h172v-789h-113v652l-221 -652h-127l-225 652v-652h-115z" />
<glyph unicode="&#xe000;" horiz-adv-x="1034" d="M0 0v1034h1034v-1034h-1034z" />
</font>
</defs>
</svg>
