<?xml version="1.0" standalone="no"?>
<!DOCTYPE svg PUBLIC "-//W3C//DTD SVG 1.1//EN" "http://www.w3.org/Graphics/SVG/1.1/DTD/svg11.dtd" >
<svg xmlns="http://www.w3.org/2000/svg">
<metadata></metadata>
<defs>
<font id="mais_grotesk_s_italicregular" horiz-adv-x="1243" >
<font-face units-per-em="2048" ascent="1536" descent="-512" />
<missing-glyph horiz-adv-x="460" />
<glyph unicode="&#xfb01;" horiz-adv-x="1179" d="M102 0l154 872h-150l31 166h150l28 160q22 124 119 196t213 72q49 0 129 -14l-26 -158q-30 6 -76 6q-58 0 -105.5 -32t-58.5 -94l-23 -136h629l-184 -1038h-201l154 872h-428l-154 -872h-201zM944 1229l35 190h209l-35 -190h-209z" />
<glyph unicode="&#xfb02;" horiz-adv-x="1284" d="M106 0l154 872h-151l28 166h152l28 160q15 82 67.5 144.5t121.5 93t141 30.5q43 0 131 -14l-28 -158q-18 6 -72 6q-57 0 -105.5 -33t-58.5 -93l-25 -136h445l70 396h200l-205 -1162q-10 -58 25.5 -89t95.5 -31h39l-26 -156q-58 -10 -101 -10q-129 0 -191.5 83.5 t-35.5 235.5l100 567h-444l-154 -872h-201z" />
<glyph unicode="&#xfb03;" horiz-adv-x="1851" d="M104 0l154 872h-152l31 166h152l28 160q21 122 119 195t211 73q49 0 129 -14l-26 -158q-24 6 -74 6q-59 0 -106 -32t-58 -94l-23 -136h476l28 160q21 121 120 194.5t212 73.5q49 0 129 -14l-27 -158q-30 6 -75 6q-58 0 -105.5 -32t-58.5 -94l-23 -136h629l-184 -1038 h-201l154 872h-428l-154 -872h-201l154 872h-475l-154 -872h-201zM1622 1229l35 190h209l-35 -190h-209z" />
<glyph unicode="&#xfb04;" horiz-adv-x="1959" d="M106 0l154 872h-151l28 166h152l28 160q15 82 67.5 144.5t121.5 93t141 30.5q43 0 131 -14l-28 -158q-18 6 -72 6q-57 0 -105.5 -33t-58.5 -93l-25 -136h476l28 160q22 121 120.5 194.5t211.5 73.5q43 0 131 -14l-29 -158q-24 6 -73 6q-55 0 -104.5 -33.5t-59.5 -92.5 l-25 -136h447l69 396h201l-205 -1162q-10 -58 25.5 -89t93.5 -31h41l-27 -156q-58 -10 -102 -10q-129 0 -190.5 83.5t-34.5 235.5l100 567h-446l-154 -872h-201l154 872h-475l-154 -872h-201z" />
<glyph horiz-adv-x="2048" />
<glyph horiz-adv-x="2048" />
<glyph unicode="&#xd;" horiz-adv-x="2048" />
<glyph unicode=" "  horiz-adv-x="460" />
<glyph unicode="&#x09;" horiz-adv-x="460" />
<glyph unicode="&#xa0;" horiz-adv-x="460" />
<glyph unicode="!" horiz-adv-x="845" d="M233 0l39 221h211l-39 -221h-211zM328 373l104 743l51 291h205l-51 -291l-156 -743h-153z" />
<glyph unicode="&#x22;" horiz-adv-x="737" d="M135 956l62 451h182l-98 -451h-146zM457 956l61 451h182l-98 -451h-145z" />
<glyph unicode="#" horiz-adv-x="1284" d="M37 0l137 311h-133l27 168h180l178 400h-209l29 170h254l151 335h201l-150 -335h256l152 335h201l-150 -335h170l-28 -170h-218l-178 -400h246l-29 -168h-290l-142 -311h-198l139 311h-260l-140 -311h-196zM446 479h261l178 400h-258q-73 -163 -181 -400z" />
<glyph unicode="$" horiz-adv-x="1251" d="M99 321.5q1 43.5 10 94.5h219q-10 -41 -5 -78.5t22 -67t61 -50t112 -27.5l82 462q-33 7 -59 14t-57.5 16.5t-56 20.5t-51 25t-46 31.5t-37.5 38.5t-29.5 47t-18.5 56.5t-6.5 67.5t7.5 79q10 51 26.5 94t52.5 90t87 80.5t133.5 58t187.5 31.5l31 174h147l-30 -174 q108 -7 182.5 -34t110.5 -62t52 -85.5t15 -91t-10 -92.5h-219q5 26 6.5 43t-4.5 43.5t-22.5 43t-53 31.5t-90.5 20l-74 -412l131 -35q299 -80 248 -366q-16 -95 -59.5 -167.5t-95.5 -115t-121 -70.5t-125.5 -38.5t-118.5 -14.5l-31 -172h-147l30 172q-91 6 -160.5 26 t-112.5 51t-69.5 68.5t-35.5 84t-8 90zM465 1044q-7 -41 1 -72t30.5 -52t41.5 -32t50 -24l47 -18l65 373q-207 -22 -235 -175zM666 193q233 21 268 221q4 21 4 40t-2 33.5t-10 28t-14 22.5t-20.5 19.5t-23.5 16t-28.5 14t-29 12t-32.5 12.5l-35 13z" />
<glyph unicode="%" horiz-adv-x="2248" d="M332 977q35 196 155.5 302.5t296.5 106.5q170 0 255 -107t51 -302q-34 -193 -157.5 -299.5t-293.5 -106.5q-179 0 -261 100t-46 306zM510 977q-43 -254 156 -254q90 0 155 59.5t88 194.5q4 24 6 46t2 53.5t-9.5 57t-26 49.5t-49 37t-76.5 13q-201 0 -246 -256zM694 0 l754 1360h197l-756 -1360h-195zM1237 373q35 197 155 303t296 106q171 0 256 -107t51 -302q-34 -193 -157 -298.5t-294 -105.5q-180 0 -261.5 99t-45.5 305zM1415 373q-43 -252 158 -252q199 0 242 252q4 20 6 39t2 46t-4 49.5t-15 46t-28.5 40t-47 27t-67.5 10.5 q-53 0 -96 -19.5t-68 -47t-43.5 -66t-26 -66.5t-12.5 -59z" />
<glyph unicode="&#x26;" horiz-adv-x="1284" d="M88 387q27 148 117 230.5t209 105.5q-101 39 -148.5 125.5t-29.5 187.5q32 184 170 277.5t331 93.5h240l-33 -186h-223q-74 0 -115 -29q-20 -9 -32.5 -15t-35.5 -21.5t-38 -32t-29.5 -45t-21.5 -62.5q-3 -30 -4.5 -58.5t13 -54.5t40 -45.5t77 -31t123.5 -11.5h238l37 205 h215l-37 -205h166l-33 -184h-166l-110 -631h-455q-277 0 -388 95t-77 292zM307 403q-19 -98 34.5 -158.5t197.5 -60.5h286l78 447h-237q-56 0 -98.5 -4t-89 -18t-78.5 -38t-57.5 -66.5t-35.5 -101.5z" />
<glyph unicode="'" horiz-adv-x="636" d="M246 956l61 451h182l-98 -451h-145z" />
<glyph unicode="(" horiz-adv-x="677" d="M201 643q82 472 393 875h190q-289 -398 -372 -875q-85 -472 63 -874h-190q-169 397 -84 874z" />
<glyph unicode=")" horiz-adv-x="677" d="M-25 -231q287 400 373 874q83 475 -65 875h190q166 -400 84 -875q-85 -470 -393 -874h-189z" />
<glyph unicode="*" horiz-adv-x="987" d="M252 1153l65 127l181 -82q12 142 16 209h135l-57 -209l209 82l20 -129l-215 -45l111 -158l-123 -80l-76 181l-141 -181q-13 10 -43.5 37t-48.5 41q29 27 83 81t83 81z" />
<glyph unicode="+" horiz-adv-x="1193" d="M152 512l32 180h379l66 377h180l-66 -377h381l-32 -180h-381l-68 -383h-180l67 383h-378z" />
<glyph unicode="," horiz-adv-x="585" d="M117 -213l162 465h198q-36 -78 -104.5 -232.5t-104.5 -232.5h-151z" />
<glyph unicode="-" horiz-adv-x="780" d="M115 487l35 189h595l-34 -189h-596z" />
<glyph unicode="." horiz-adv-x="620" d="M221 0l39 221h219l-39 -221h-219z" />
<glyph unicode="/" horiz-adv-x="784" d="M-61 0l788 1421h201l-791 -1421h-198z" />
<glyph unicode="0" d="M111 406.5q-3 75.5 3 146t19 149.5q20 113 50 210.5t83 196.5t122.5 168.5t173 113t229.5 43.5q91 0 162.5 -22.5t118.5 -61.5t78 -95t46 -118.5t18 -137.5t-3.5 -146.5t-20.5 -150.5q-19 -113 -48.5 -210t-82.5 -195.5t-122 -167.5t-172.5 -112.5t-229.5 -43.5 q-91 0 -162.5 22.5t-118.5 61t-78.5 94.5t-46.5 118t-18 137.5zM321 517.5q-5 -81.5 5 -152.5t37.5 -118t78 -73.5t123.5 -26.5q91 0 161 39.5t118.5 115.5t80.5 173t54 227q23 129 25 226.5t-19.5 174.5t-77.5 117t-147 40t-161.5 -40t-119 -117.5t-80.5 -174t-55 -226.5 q-18 -103 -23 -184.5z" />
<glyph unicode="1" horiz-adv-x="1206" d="M373 928l43 252l299 227h205l-248 -1407h-205l205 1161z" />
<glyph unicode="2" d="M59 0l33 186q224 158 376 275.5t244 198t143.5 147.5t71 111.5t29.5 103.5q2 25 4 55.5t-10.5 63t-32.5 59t-62.5 43.5t-100.5 17q-133 0 -202.5 -71t-92.5 -202h-211q39 223 178 335t358 112q221 0 319 -107.5t64 -304.5q-31 -173 -208 -359t-601 -489h682l-30 -174 h-951z" />
<glyph unicode="3" d="M133 395h211q-5 -59 8 -104.5t36.5 -72t56.5 -43t62.5 -22.5t59.5 -6q117 0 204.5 72.5t113.5 216.5q14 69 5.5 119t-26 82.5t-49 52t-64.5 27.5t-71 8q-114 0 -225 -63l30 172l426 399h-546l30 174h799l-31 -174l-426 -369q4 0 14.5 1t14.5 1q74 0 139 -24.5t116 -73.5 t72.5 -134.5t2.5 -195.5q-26 -148 -113 -255.5t-202 -158.5t-244 -51q-86 0 -162 25.5t-135 75.5t-88.5 133t-18.5 188z" />
<glyph unicode="4" d="M68 332l30 174q210 222 844 901h205l-160 -901h170l-31 -174h-170l-57 -332h-205l58 332h-684zM336 506h446l105 586z" />
<glyph unicode="5" d="M135 395h211q-17 -117 40 -179t161 -62q131 0 220.5 74.5t113.5 213.5q24 132 -32.5 214.5t-180.5 82.5q-54 0 -101.5 -16t-76.5 -38.5t-50 -45.5t-30 -39l-9 -16l-190 75l213 748h764l-31 -174h-592l-137 -457q135 127 299 127q202 0 301.5 -129t63.5 -332 q-26 -147 -112 -255.5t-202 -161t-246 -52.5q-203 0 -312.5 106t-84.5 316z" />
<glyph unicode="6" d="M116.5 472q4.5 102 26.5 228q28 158 80 284.5t116.5 209t142.5 138t156 79t159 23.5q106 0 185.5 -32t123 -85.5t62 -118t10.5 -135.5h-203q6 197 -209 197q-80 0 -145 -33t-107.5 -83.5t-76.5 -124.5t-52.5 -142t-32.5 -150q-1 -5 -3 -16.5t-3 -16.5q75 105 171 154 t226 49q90 0 163.5 -28t126 -85t70.5 -144t-1 -206q-16 -92 -59.5 -173.5t-112.5 -146.5t-169.5 -103t-219.5 -38q-123 0 -209.5 38.5t-133.5 103t-66.5 160t-15 197.5zM328 446q-13 -134 48 -216.5t195 -82.5q132 0 215 78t105 209q25 140 -32 219.5t-185 79.5 q-72 0 -132.5 -25.5t-97 -61.5t-64 -79t-38.5 -72.5t-14 -48.5z" />
<glyph unicode="7" d="M256 0l745 1233h-704l31 174h905l-31 -174l-739 -1233h-207z" />
<glyph unicode="8" d="M104 408q43 239 310 342q-75 42 -114.5 118t-20.5 181q31 170 165.5 277.5t346.5 107.5q213 0 309 -109t67 -276q-17 -102 -84 -179t-155 -120q231 -107 188 -342q-36 -204 -193.5 -319.5t-387.5 -115.5q-238 0 -353 114.5t-78 320.5zM312 312.5q4 -40.5 24.5 -69.5 t45 -47.5t58 -29.5t63.5 -15t62 -4q39 0 76.5 6t81.5 23.5t79 45t63.5 75.5t39.5 111q22 123 -53 189.5t-197 66.5q-123 0 -220.5 -66.5t-119.5 -189.5q-7 -55 -3 -95.5zM489 1049q-10 -57 3 -100t43.5 -66t68.5 -34t82 -11q59 0 112.5 19t99 68.5t58.5 123.5q9 51 -1 90.5 t-31 61.5t-52 36t-58 18.5t-54 4.5q-36 0 -72.5 -8.5t-79.5 -29t-75 -65.5t-44 -108z" />
<glyph unicode="9" d="M139 342h205q-1 -93 53.5 -142.5t147.5 -49.5q326 0 418 528q8 41 10 57q-73 -100 -167 -146t-220 -46q-89 0 -161.5 27t-125 80t-73 139.5t-1.5 197.5q16 88 60 167.5t112 142.5t165 100t208 37q128 0 216.5 -39t135.5 -103.5t66 -161t14.5 -197.5t-26.5 -228 q-28 -157 -80 -283t-117 -208.5t-144 -138t-158.5 -79t-162.5 -23.5t-150 21t-110.5 56.5t-72 83t-38.5 100t-4 108.5zM430 987q-23 -131 33.5 -205.5t179.5 -74.5q73 0 134 23.5t98 56.5t64 73.5t38 68.5t14 46q3 58 -7 106t-37 89t-80 64t-128 23q-118 0 -202 -72 t-107 -198z" />
<glyph unicode=":" horiz-adv-x="620" d="M150 0l38 221h220l-39 -221h-219zM293 817l39 221h219l-39 -221h-219z" />
<glyph unicode=";" horiz-adv-x="602" d="M86 -213l160 465h198q-41 -88 -110.5 -248t-95.5 -217h-152zM334 817l39 221h221l-39 -221h-221z" />
<glyph unicode="&#x3c;" d="M188 502l27 153l977 387l-35 -204q-440 -156 -725 -260q410 -167 633 -261l-35 -202z" />
<glyph unicode="=" d="M209 279l31 174h811l-31 -174h-811zM274 649l31 174h811l-31 -174h-811z" />
<glyph unicode="&#x3e;" d="M131 115l35 204q319 113 725 261q-485 197 -633 260l35 202l842 -387l-27 -153z" />
<glyph unicode="?" horiz-adv-x="1206" d="M281 1038q10 57 28.5 107t57 103.5t91.5 91.5t137.5 62.5t190.5 24.5q97 0 169 -18.5t114.5 -51.5t67 -79t26 -101t-7.5 -118q-10 -56 -38.5 -107t-66.5 -92.5t-83 -82t-90 -83t-84 -87.5t-69 -104.5t-42 -125.5h-199q14 77 45.5 144t71 115t84.5 90.5t89.5 80.5t82 74.5 t64.5 82t36 95.5q2 13 2.5 28t-2 40.5t-15 47.5t-33 43t-59.5 33.5t-91 12.5q-63 0 -111.5 -15.5t-77 -38t-48.5 -55.5t-28 -59t-14 -58h-198zM408 0l38 221h220l-39 -221h-219z" />
<glyph unicode="@" horiz-adv-x="2009" d="M91 363.5q-10 103.5 11 216.5q36 205 145 388.5t267 319t367 214.5t434 79q119 0 222 -27t181 -76.5t137 -119.5t90.5 -156t41.5 -185t-11 -208q-52 -292 -225 -478t-408 -186q-44 0 -78.5 9t-54 23.5t-33.5 33t-17 37t-5 36t2 29.5q3 14 6 19q-137 -125 -329 -125 q-159 0 -235 93t-46 267q30 167 115 292.5t201.5 189t246.5 63.5q190 0 225 -143l35 121h166q-15 -49 -95.5 -313.5t-125.5 -405.5l-1 -6q-2 -6 -2.5 -11t-1 -13t0.5 -14.5t3.5 -14.5t7.5 -14t12.5 -11.5t19 -8t26.5 -2.5q46 0 76 27q113 29 217 165t140 345 q23 131 -1 245.5t-90 200.5t-182 135.5t-268 49.5q-329 0 -588 -193.5t-377 -517.5q-27 -74 -39 -143q-33 -184 23 -340t189.5 -249t316.5 -93q253 0 418 110l-56 -168q-187 -79 -401 -79q-117 0 -220 28.5t-181 81t-138 126t-92 163.5t-42 193.5zM727 571 q-43 -235 174 -235q54 0 108 22t105.5 67.5t92 126.5t59.5 187q10 38 6 79t-17.5 75t-55 56t-105.5 22q-50 0 -94 -13t-75.5 -32.5t-59.5 -49.5t-45 -56t-33 -61t-23.5 -55t-15.5 -47q-15 -47 -21 -86z" />
<glyph unicode="A" horiz-adv-x="1304" d="M-63 0q189 352 765 1407h230l272 -1407h-219q-8 49 -25.5 147.5t-25.5 147.5h-645q-29 -58 -87.5 -168.5t-66.5 -126.5h-198zM391 489h510l-127 725z" />
<glyph unicode="B" horiz-adv-x="1402" d="M119 0l248 1407h626q76 0 139.5 -22t111.5 -65q46 -44 66 -117q10 -39 11 -84q0 -39 -8 -83q-40 -227 -287 -317q28 -4 53.5 -12.5t56 -25.5t51.5 -41t40 -60t21 -84v-15q0 -42 -7 -94q-31 -178 -163.5 -282.5t-332.5 -104.5h-626zM354 174h406q107 0 180.5 59t93.5 170 q6 32 6 60q0 69 -36 113q-50 61 -162 61h-406zM467 811h393q81 0 151 51t87 154q6 31 6 58q0 65 -34 104q-46 55 -136 55h-393z" />
<glyph unicode="C" horiz-adv-x="1468" d="M130 388q-11 61 -12 131q0 85 17 183q31 173 104.5 312.5t177.5 231t233 140t274 48.5q137 0 241 -38t165 -104.5t90 -151.5q26 -77 26 -166v-18h-209v6q0 142 -87 220q-89 78 -257 78q-117 0 -214 -46t-162.5 -126t-108 -177t-62.5 -209q-16 -92 -16 -169 q0 -151 61 -245q92 -142 307 -141q179 0 297 93.5t172 244.5h209q-28 -85 -71.5 -159.5t-106.5 -140t-140.5 -112t-177.5 -73.5t-212 -27q-145 0 -257.5 47.5t-184.5 139.5t-96 228z" />
<glyph unicode="D" horiz-adv-x="1437" d="M100 0l248 1407h471q44 0 84.5 -3t91 -12.5t94 -25t88.5 -43t79.5 -64t63 -90t42.5 -119t14 -153t-18 -190.5q-23 -131 -67 -238t-96.5 -179t-119.5 -126.5t-130 -85t-135 -49t-127 -24t-114 -5.5h-469zM336 174h244q473 0 567 533q16 87 16 160q0 366 -395 366h-246z " />
<glyph unicode="E" horiz-adv-x="1261" d="M121 0l248 1407h925l-30 -174h-721l-74 -422h600l-31 -174h-600l-82 -463h721l-30 -174h-926z" />
<glyph unicode="F" horiz-adv-x="1247" d="M129 0l248 1407h938l-31 -174h-733l-78 -445h653l-30 -174h-654l-108 -614h-205z" />
<glyph unicode="G" horiz-adv-x="1572" d="M170 386q-13 63 -13 134q0 84 17 180q62 347 282.5 540.5t522.5 193.5q84 0 158 -13t147 -47t124.5 -86.5t83.5 -137.5q30 -82 30 -187v-7h-211q-3 149 -89 226.5t-274 77.5q-220 0 -368 -147.5t-195 -412.5q-15 -87 -15 -161q0 -153 66 -249q98 -143 318 -143 q215 0 338 110.5t163 295.5h-370l30 174h582l-12 -65q-59 -333 -260 -511t-502 -178q-147 0 -262 47t-190 138.5t-101 227.5z" />
<glyph unicode="H" horiz-adv-x="1486" d="M117 0l248 1407h204l-106 -600h676l106 600h205l-248 -1407h-205l111 633h-676l-110 -633h-205z" />
<glyph unicode="I" horiz-adv-x="636" d="M133 0l248 1407h205l-248 -1407h-205z" />
<glyph unicode="J" horiz-adv-x="976" d="M41 -27l31 185h196q136 0 210 60t97 190l144 813h-488l33 186h701q-138 -778 -177 -999q-77 -435 -552 -435h-195z" />
<glyph unicode="K" horiz-adv-x="1363" d="M131 0l248 1407h205l-117 -662q78 74 218.5 208.5t256 245t217.5 208.5h254l-534 -504l391 -903h-240l-313 756l-297 -283l-84 -473h-205z" />
<glyph unicode="L" horiz-adv-x="1146" d="M119 0l248 1407h204l-217 -1233h682l-30 -174h-887z" />
<glyph unicode="M" horiz-adv-x="1824" d="M113 0l247 1407h324l190 -1184l609 1184h309l-248 -1407h-205l203 1151q-398 -774 -594 -1151h-231l-197 1151l-203 -1151h-204z" />
<glyph unicode="N" horiz-adv-x="1525" d="M102 0l248 1407h266l494 -1077l190 1077h205l-248 -1407h-231l-522 1118l-197 -1118h-205z" />
<glyph unicode="O" horiz-adv-x="1536" d="M129 386q-11 61 -11 130q0 86 17 184q62 348 279.5 541t521.5 193q149 0 264 -48t188 -142q74 -93 98 -230q11 -60 11 -129q0 -86 -18 -185q-62 -348 -278 -537.5t-521 -189.5q-149 0 -264 47t-188.5 138.5t-98.5 227.5zM346 700q-17 -95 -17 -173q0 -149 62 -241 q94 -138 320 -139q230 0 370.5 141.5t186.5 411.5q16 95 16 173q0 42 -5 80q-13 106 -63.5 174.5t-128 100.5t-182.5 32q-230 0 -371 -146t-188 -414z" />
<glyph unicode="P" horiz-adv-x="1282" d="M119 0l248 1407h587q68 0 125.5 -15t106 -47.5t78.5 -84.5q28 -51 40 -123q4 -28 5 -59q0 -49 -11 -107q-20 -113 -69 -197.5t-117.5 -132.5t-145.5 -71t-163 -23h-383l-96 -547h-205zM451 721h362q227 0 274 250q7 40 7 74q0 73 -30 119q-44 68 -161 69h-362z" />
<glyph unicode="Q" horiz-adv-x="1554" d="M140 384q-10 60 -10 128q0 87 17 186q62 349 279.5 542.5t521.5 193.5q150 0 265 -48t187.5 -141.5t97.5 -230.5q10 -61 10 -130q0 -87 -17 -186q-61 -345 -293 -544q53 -88 119 -203l-160 -109l-121 211q-160 -80 -346 -80q-150 0 -264.5 46.5t-187.5 138t-98 226.5z M354 517q3 -55 14.5 -102.5t38 -95t66.5 -81.5t104.5 -55t147.5 -21q123 0 223 51l-129 221l160 107l125 -215q124 137 168 372q7 42 10 84q3 27 3 59q0 19 -1 39q-2 56 -13 104.5t-37.5 97.5t-66 83.5t-104.5 56t-148 21.5t-155 -21.5t-124 -56.5t-95.5 -83.5t-72 -97 t-50.5 -104t-33 -98t-18 -84.5q-8 -42 -11 -84q-3 -24 -3 -53q0 -21 1 -44z" />
<glyph unicode="R" horiz-adv-x="1380" d="M123 0l248 1407h610q49 0 94 -8.5t89.5 -28t77 -51t56.5 -77.5q25 -48 29 -110q1 -16 1 -32q0 -50 -9 -111q-18 -104 -62.5 -181.5t-107 -122t-130 -67t-145.5 -28.5l293 -590h-239l-269 584h-229l-102 -584h-205zM461 758h385q104 0 173.5 61t88.5 170q7 38 7 71 q1 68 -31 110q-46 62 -154 63h-385z" />
<glyph unicode="S" horiz-adv-x="1353" d="M98 324q2 46 8 92h211q-6 -35 -7 -66q0 -84 48 -134q66 -68 260 -69q75 0 135 12t113.5 39.5t89 80t48.5 127.5q4 20 4 39q0 37 -15 65q-22 43 -67.5 67.5t-107.5 41.5t-131.5 30.5t-138 29.5t-129 43.5t-103.5 67.5t-61 106q-10 36 -10 79q0 36 7 76q10 52 30 100 t64.5 101.5t107 92t163.5 64t227 25.5q96 0 171 -14.5t123.5 -37t82 -56.5t49.5 -68q18 -32 24 -74q6 -36 6 -66q0 -4 -1 -8q-1 -32 -7 -70h-211q5 27 5 50q0 75 -46 116q-60 54 -227 54q-83 0 -155 -21t-127 -70t-68 -118q-3 -17 -3 -33q0 -36 16 -64q23 -40 70 -63.5 t109.5 -40.5t132.5 -31.5t139.5 -31.5t130.5 -46t104.5 -70t61.5 -108q10 -37 10 -79q0 -36 -7 -76q-19 -109 -75.5 -191t-124.5 -127t-154.5 -73t-152.5 -36t-132 -8q-91 0 -166 13.5t-127 37t-92 56.5t-61 72t-34 83q-11 37 -11 75q1 7 1 14z" />
<glyph unicode="T" horiz-adv-x="1124" d="M160 1233l30 174h1070l-31 -174h-432l-217 -1233h-205l217 1233h-432z" />
<glyph unicode="U" horiz-adv-x="1433" d="M176 270q-9 44 -9 92q0 51 11 107l166 938h205l-168 -961q-6 -34 -6 -65q1 -91 53 -152q70 -82 234 -82q330 0 385 299l167 961h205l-166 -938q-38 -225 -196.5 -360.5t-425.5 -135.5q-135 0 -233 37t-150 103t-72 157z" />
<glyph unicode="V" horiz-adv-x="1259" d="M176 1407h219l193 -1217q158 307 622 1217h201q-375 -703 -747 -1407h-232z" />
<glyph unicode="W" horiz-adv-x="1869" d="M193 1407h210q11 -154 39 -570t45 -642l514 1212h211l82 -1212l516 1212h195q-209 -469 -631 -1407h-250l-67 1159l-490 -1159h-250z" />
<glyph unicode="X" horiz-adv-x="1247" d="M-66 0l637 741l-331 666h243l230 -520l411 520h232l-574 -676l363 -731h-244l-260 582l-477 -582h-230z" />
<glyph unicode="Y" horiz-adv-x="1189" d="M178 1407h234l239 -668l471 668h217l-628 -844l-99 -563h-204l98 563z" />
<glyph unicode="Z" d="M-4 0l31 174q96 104 516.5 533.5t509.5 525.5h-820l31 174h1061l-31 -174q-92 -100 -515 -529.5t-515 -529.5h848l-31 -174h-1085z" />
<glyph unicode="[" horiz-adv-x="704" d="M55 -246l310 1764h421l-30 -175h-217l-248 -1415h217l-31 -174h-422z" />
<glyph unicode="\" horiz-adv-x="782" d="M188 1421h199l287 -1421h-197z" />
<glyph unicode="]" horiz-adv-x="704" d="M0 -246l31 174h215l248 1415h-218l31 175h422l-309 -1764h-420z" />
<glyph unicode="^" horiz-adv-x="1409" d="M119 614l608 793h176l328 -793h-225l-226 600l-444 -600h-217z" />
<glyph unicode="_" horiz-adv-x="974" d="M33 -250l16 103h975l-18 -103h-973z" />
<glyph unicode="`" horiz-adv-x="606" d="M104 1407h234l106 -266h-182z" />
<glyph unicode="a" horiz-adv-x="1150" d="M68 518q47 261 194 404t356 143q219 0 297 -168l50 141h180l-182 -1038h-181v139q-134 -166 -354 -166q-210 -1 -308 141q-67 97 -66 251q0 70 14 153zM268 371q5 -68 26.5 -117.5t70.5 -78t122 -28.5q157 0 244.5 101.5t116.5 269.5q13 57 13 109q1 17 -1 34 q-6 68 -28.5 119t-76.5 81t-134 30q-77 0 -138 -31.5t-101 -86t-65 -118t-38 -137.5q-12 -60 -12 -114q0 -17 1 -33z" />
<glyph unicode="b" horiz-adv-x="1196" d="M88 0l252 1434h205l-92 -533q132 164 342 164q211 0 310 -143q68 -98 69 -252q0 -70 -15 -152q-49 -275 -196.5 -410t-360.5 -135q-210 0 -295 158q-8 -24 -23.5 -68t-21.5 -63h-174zM385 518q-12 -69 -12 -125q0 -97 37 -155q59 -92 192 -91q280 0 346 371q13 71 13 128 q0 245 -228 245q-281 0 -348 -373z" />
<glyph unicode="c" horiz-adv-x="1157" d="M129 520q44 254 208 399.5t400 145.5q111 0 193.5 -33.5t127.5 -91.5q46 -56 66 -126q15 -53 14 -112q0 -18 -1 -36h-209v17q0 84 -46 139q-51 61 -167 61q-138 0 -240.5 -88.5t-134.5 -274.5q-10 -64 -10 -116q0 -29 3 -55q9 -71 44 -116t84.5 -65.5t113.5 -20.5 q108 0 191 50.5t119 162.5h209q-53 -175 -189.5 -281t-357.5 -106q-237 -1 -350 145q-81 104 -81 265q0 64 13 137z" />
<glyph unicode="d" horiz-adv-x="1144" d="M88 272q-5 38 -4 82q0 74 14 164q45 261 195.5 404t361.5 143q208 0 285 -164l92 533h205l-252 -1434h-174l-2 131q-135 -158 -346 -158q-105 0 -182 31.5t-128 98t-65 169.5zM309 518q-13 -71 -12 -128q0 -243 227 -243q132 0 223 91.5t125 279.5q9 49 12 93q1 11 1 24 q-1 33 -7 73q-8 54 -30.5 92.5t-71.5 64.5t-121 26q-280 0 -346 -373z" />
<glyph unicode="e" horiz-adv-x="1189" d="M123 518q46 259 210.5 403t391.5 144q215 0 323 -141q78 -101 79 -256q0 -61 -13 -131l-12 -66h-776q-7 -46 -7 -85q0 -102 45 -164q62 -85 199 -85q110 0 183.5 49t111.5 131h207q-34 -83 -84.5 -146t-103.5 -99.5t-116 -59.5t-116 -31t-110 -8q-227 -1 -342 143 q-83 103 -83 266q0 63 13 136zM356 618h562q4 27 4 52q0 88 -44 152q-56 82 -180 81q-133 0 -218.5 -74.5t-123.5 -210.5z" />
<glyph unicode="f" horiz-adv-x="688" d="M106 0l154 864h-154l31 174h154l22 127q24 142 121.5 221.5t227.5 79.5q32 0 64 -3.5t48 -6.5l17 -4l-29 -166q-27 6 -76 6q-62 0 -110 -32.5t-58 -94.5l-22 -127h198l-30 -174h-199l-154 -864h-205z" />
<glyph unicode="g" horiz-adv-x="1175" d="M78 -78h211q-5 -30 2 -58.5t28.5 -55.5t68 -43.5t112.5 -16.5q115 0 197.5 61t105.5 191l35 203q-130 -162 -336 -162q-198 0 -294 135q-67 94 -67 240q0 65 13 141q43 247 186 377.5t344 130.5q212 0 285 -158l49 131h172l-180 -1020q-36 -203 -173.5 -318.5 t-365.5 -115.5q-55 0 -107.5 7t-113 29t-102.5 57t-64 99q-12 37 -12 81q0 31 6 65zM365 557q-10 -55 -10 -102q0 -89 35 -149q52 -91 181 -91q137 0 219 90t111 252q9 49 12 89q1 11 1 22q0 31 -6 66q-8 48 -30 80.5t-69.5 54.5t-118.5 22q-64 0 -117.5 -22.5t-87.5 -56.5 t-60 -81t-39 -88.5t-21 -85.5z" />
<glyph unicode="h" horiz-adv-x="1204" d="M61 0l252 1434h205l-98 -557q165 188 393 188q84 0 142.5 -22t89.5 -58.5t44 -91.5q11 -48 11 -96v-15q-2 -56 -15 -129l-114 -653h-205l111 629q4 25 6.5 43.5t3.5 47.5t-2.5 50.5t-14 45.5t-28 39.5t-47.5 25.5t-70 10q-67 0 -127.5 -25.5t-98.5 -61.5t-66.5 -72 t-40.5 -62l-13 -25l-113 -645h-205z" />
<glyph unicode="i" horiz-adv-x="505" d="M68 0l182 1038h205l-183 -1038h-204zM270 1214l35 193h225l-34 -193h-226z" />
<glyph unicode="j" horiz-adv-x="573" d="M-106 -391l28 164q42 -6 74 -6q57 0 103.5 31.5t56.5 88.5l202 1151h205l-196 -1108q-27 -159 -119 -248.5t-223 -89.5q-63 0 -131 17zM379 1214l35 193h225l-35 -193h-225z" />
<glyph unicode="k" horiz-adv-x="1146" d="M88 0l252 1434h205l-154 -875l492 479h252l-424 -403l321 -635h-248l-225 487l-217 -200l-49 -287h-205z" />
<glyph unicode="l" horiz-adv-x="528" d="M78 0l252 1434h200l-251 -1434h-201z" />
<glyph unicode="m" horiz-adv-x="1785" d="M94 0l182 1038h173l-5 -159q80 99 165 142.5t202 43.5q112 0 177 -51t79 -144q147 195 375 195q77 0 131.5 -20t84.5 -55q30 -34 44 -86q13 -48 13 -99v-8q-1 -56 -13 -125l-117 -672h-205l111 631q6 32 8.5 55t3.5 57t-7 57t-23 45.5t-44.5 34t-70.5 11.5 q-59 0 -112 -25.5t-86.5 -62t-58.5 -73t-35 -62.5l-11 -25l-113 -643h-205l111 631q8 42 10 75q1 12 1 24q-1 22 -3 45q-4 36 -18.5 60t-45.5 40t-77 16q-56 0 -108 -25.5t-86 -62t-60 -73t-37 -62.5l-12 -25l-113 -643h-205z" />
<glyph unicode="n" horiz-adv-x="1204" d="M94 0l182 1038h173l-5 -168q162 195 402 195q84 0 142.5 -22t89.5 -58.5t44 -91.5q11 -48 11 -96v-15q-2 -56 -15 -129l-114 -653h-205l110 629q4 26 6 38.5t4.5 39t1.5 40.5t-3.5 36.5t-10 35.5t-20 28.5t-30 23.5t-42.5 14t-57 6q-67 0 -127.5 -25.5t-98.5 -61.5 t-66.5 -72t-41.5 -62l-12 -25l-113 -645h-205z" />
<glyph unicode="o" horiz-adv-x="1202" d="M121 520q45 258 212.5 401.5t403.5 143.5q243 0 357 -142q82 -102 82 -265q0 -64 -13 -138q-47 -263 -210 -405t-406 -142q-236 0 -354 143q-85 103 -85 267q0 64 13 137zM332 520q-11 -65 -11 -119q0 -254 254 -254q309 0 377 373q11 63 11 115q0 107 -46 167 q-68 90 -208 89q-146 0 -245 -91.5t-132 -279.5z" />
<glyph unicode="p" horiz-adv-x="1200" d="M41 -399l254 1437h174l2 -131q135 158 348 158q105 0 182 -31.5t128 -98t65 -169.5q4 -38 4 -82q0 -74 -14 -164q-46 -261 -196 -404t-361 -143q-208 0 -285 164l-96 -536h-205zM398 427q-1 -11 -1 -24q0 -34 7 -73q8 -54 30.5 -92.5t71.5 -64.5t121 -26q73 0 131 26.5 t93 63.5t61.5 92t38.5 97t22 94q12 69 12 124q0 247 -227 247q-132 0 -223.5 -91.5t-124.5 -279.5q-9 -49 -12 -93z" />
<glyph unicode="q" horiz-adv-x="1200" d="M164 520q48 275 195 410t362 135q209 0 291 -158l47 131h174l-254 -1437h-205l96 536q-135 -164 -342 -164q-211 0 -310 143q-69 98 -69 251q0 70 15 153zM362 426q-1 -13 -1 -26q0 -33 5 -72q8 -53 30.5 -91t71.5 -64t122 -26q72 0 130.5 26.5t94 64t62.5 92t39.5 97.5 t21.5 93q12 67 12 122q0 99 -38 158q-59 91 -191 91q-135 0 -224 -90t-122 -281q-10 -50 -13 -94z" />
<glyph unicode="r" horiz-adv-x="798" d="M94 0l185 1038h172l-11 -192q76 113 170.5 159t223.5 46q30 -3 57 -9l-31 -178q-50 15 -104 15q-117 0 -225.5 -94t-131.5 -220l-100 -565h-205z" />
<glyph unicode="s" horiz-adv-x="1071" d="M92 319h211q-2 -23 -4 -48t9 -49.5t30 -43.5t60.5 -31t99.5 -12q114 0 179 34t79 118q3 14 3 26q0 27 -12 47q-17 30 -51 44t-80.5 25.5t-98.5 18.5t-103.5 20t-96 32t-76.5 54q-33 35 -45 85q-6 25 -6 56q0 32 7 71q6 40 24 78.5t54.5 79.5t87 71.5t128 50t171.5 19.5 q77 0 137.5 -12t99.5 -31.5t66 -48t39.5 -57t17.5 -64.5q4 -30 4 -53v-9q-1 -28 -6 -59h-211q8 32 3.5 63t-19 55t-55 39t-103.5 15q-51 0 -95 -9.5t-84 -42t-48 -85.5q-3 -15 -3 -28q-1 -27 11 -48q16 -31 51 -46.5t81.5 -27t98 -17.5t103.5 -19t96.5 -30.5t76.5 -51.5 q33 -34 45 -84q6 -24 6 -56t-7 -71q-13 -78 -54.5 -137t-92.5 -91.5t-117.5 -53t-120.5 -26.5t-111 -6q-75 0 -135.5 11.5t-102 31t-71.5 47t-46 57.5t-24 65q-7 33 -7 63q0 34 7 71z" />
<glyph unicode="t" horiz-adv-x="704" d="M119 864l31 174h165l45 254l215 62l-55 -316h221l-30 -174h-222l-102 -579q-2 -13 -2 -24q0 -41 28 -67q36 -34 97 -34q36 0 78 6l-29 -164q-72 -16 -137 -16q-128 0 -196 81q-49 59 -49 153q0 35 7 75l101 569h-166z" />
<glyph unicode="u" horiz-adv-x="1202" d="M165 256q2 56 15 129l115 653h205l-111 -628q-5 -29 -7 -44t-4.5 -43.5t-0.5 -45t6.5 -40t16 -37t28 -27.5t42.5 -20t60 -6q63 0 125.5 29t106.5 71t73.5 86t34.5 77l111 628h205l-182 -1038h-173l5 168q-162 -195 -394 -195q-82 0 -138.5 22.5t-86.5 58.5t-42 91 q-10 47 -10 95v16z" />
<glyph unicode="v" horiz-adv-x="1083" d="M158 1038h219l153 -864l455 864h203l-582 -1038h-231z" />
<glyph unicode="w" horiz-adv-x="1525" d="M164 1038h211l49 -839l344 839h268l49 -839l345 839h196q-77 -173 -457 -1038h-251q-30 426 -54 862q-139 -330 -356 -862h-252q-77 865 -92 1038z" />
<glyph unicode="x" horiz-adv-x="1067" d="M-14 0l481 539l-260 499h239l166 -354l289 354h225l-432 -499l287 -539h-242l-188 397q-292 -343 -338 -397h-227z" />
<glyph unicode="y" horiz-adv-x="1009" d="M162 -399l244 442l-224 995h217q15 -85 64 -357t74 -421l407 778h197q-393 -718 -783 -1437h-196z" />
<glyph unicode="z" horiz-adv-x="1046" d="M31 0l28 174l715 690h-573l30 174h834l-31 -174l-712 -690h622l-31 -174h-882z" />
<glyph unicode="{" horiz-adv-x="681" d="M102 561l29 162q49 0 86 10.5t56.5 23.5t32.5 34t17 33t7 30l61 354q30 170 132 240t294 70l-29 -164q-48 0 -84 -10.5t-55.5 -24t-32.5 -34.5t-17 -33.5t-7 -30.5l-64 -365q-15 -86 -44 -134.5t-87 -78.5q84 -53 64 -166l-72 -414q-3 -17 -4 -30t4.5 -33.5t20 -34 t47 -23.5t80.5 -10l-29 -163q-41 0 -75 2.5t-69 9t-60 18t-49.5 28.5t-37.5 40.5t-24 55t-9 71.5t9 90l63 354q3 17 3.5 28.5t-6 31t-21 32t-48 22t-82.5 9.5z" />
<glyph unicode="|" horiz-adv-x="524" d="M49 -231l309 1749h197l-309 -1749h-197z" />
<glyph unicode="}" horiz-adv-x="681" d="M-53 -231l28 163q47 0 83 10.5t55 23.5t32.5 34t17.5 33.5t7 29.5l63 365q15 87 44.5 135t89.5 80q-86 53 -66 166l72 414q3 17 4 30t-4.5 33.5t-20 34t-47 23.5t-80.5 10l29 164q42 0 76.5 -3t68 -9.5t59.5 -18t49 -28.5t37.5 -41.5t23 -55.5t8.5 -72t-9 -90l-61 -354 q-3 -17 -3.5 -27.5t5.5 -30.5t21 -32t48 -21.5t82 -9.5l-28 -162q-49 0 -86 -10.5t-56.5 -24t-32.5 -35t-16.5 -33.5t-7.5 -30l-61 -352q-30 -169 -132 -239t-292 -70z" />
<glyph unicode="~" horiz-adv-x="1024" d="M182 551q5 30 13 56t26 60t43 58t67 40.5t95 16.5q43 0 81.5 -15.5t62 -34.5t54 -34.5t58.5 -15.5q49 0 77.5 30.5t33.5 69.5h129q-7 -44 -23 -81.5t-43.5 -73t-73 -56t-104.5 -20.5q-42 0 -79.5 15.5t-60.5 33.5t-54 33.5t-62 15.5q-50 0 -76.5 -30t-32.5 -68h-131z" />
<glyph unicode="&#xa1;" horiz-adv-x="845" d="M233 -399l43 243q3 19 10.5 57.5t10.5 57.5l145 676h154l-107 -744l-51 -290h-205zM444 817l39 221h211l-39 -221h-211z" />
<glyph unicode="&#xa2;" d="M166 713q43 242 193 383t362 159l27 152h100l-27 -152q70 -5 132 -27.5t116.5 -67t84.5 -122t26 -180.5h-209q4 99 -44.5 157t-135.5 70l-132 -747q38 3 73.5 14.5t74.5 34t70.5 65.5t48.5 101h207q-34 -104 -91 -180t-127 -118t-140 -62.5t-146 -24.5l-29 -168h-100 l28 168q-206 15 -305.5 157t-56.5 388zM369 713q-29 -168 21 -262.5t169 -112.5l131 745q-130 -18 -211 -115t-110 -255z" />
<glyph unicode="&#xa3;" d="M-10 0l33 184q48 0 84.5 12t55 25.5t31.5 37.5t16 35.5t7 31.5l39 217h-170l29 164h170l59 335q8 46 27 92.5t56.5 96.5t88 88.5t128 63t169.5 24.5q411 0 344 -383h-213q20 112 -25.5 154.5t-138.5 42.5q-86 0 -146.5 -43.5t-76.5 -135.5l-59 -335h358l-29 -164h-358 l-39 -215q-11 -62 -38 -94.5t-68 -49.5h426q82 3 116 49q63 30 82 138h213q-7 -37 -15 -68t-24 -70t-37 -70t-54.5 -62t-74.5 -52t-99.5 -34.5t-127.5 -14.5h-739z" />
<glyph unicode="&#xa4;" d="M-8 37q109 98 203 174q-78 131 -50 299q30 168 154 301l-143 174l135 115l143 -174q152 98 318 98t284 -98q133 115 205 174l94 -115q-72 -59 -205 -174q76 -134 46 -301q-27 -163 -150 -299l143 -174l-135 -113l-143 172q-152 -96 -322 -96q-167 0 -280 96l-205 -172z M307 510q-25 -141 59.5 -244.5t231.5 -103.5q148 0 269.5 104t146.5 244q26 146 -59.5 249t-231.5 103q-145 0 -267.5 -103.5t-148.5 -248.5z" />
<glyph unicode="&#xa5;" d="M133 250l25 137h346l28 162h-346l25 137h272l-274 721h231l238 -674l471 674h219l-532 -721h264l-25 -137h-336l-28 -162h336l-25 -137h-336l-43 -250h-207l43 250h-346z" />
<glyph unicode="&#xa6;" horiz-adv-x="532" d="M49 -231l131 741h205l-131 -741h-205zM227 776l131 742h205l-131 -742h-205z" />
<glyph unicode="&#xa7;" horiz-adv-x="1198" d="M171 335q1 32 7 66h203q-4 -21 -4 -38.5t3.5 -40t17 -39t35 -31.5t60 -23t89.5 -8q45 0 78 4.5t71.5 18t63.5 45t34 80.5q8 45 -5.5 76.5t-42.5 49t-69 29.5t-86.5 20t-93.5 16.5t-90.5 23.5t-78 37.5t-55.5 62t-23 92.5q-2 14 2 47q14 86 100 156q-46 14 -57.5 49.5 t-1.5 95.5q15 88 60 151t109.5 96t134.5 48t150 15q86 0 152 -14.5t106 -41t65 -58t33.5 -71.5t9 -75t-6.5 -74h-203q2 22 4.5 45.5t-7.5 46t-28.5 40.5t-57.5 29t-95 11q-214 0 -240 -146q-11 -61 12.5 -99t70.5 -54.5t106 -26.5t120.5 -21.5t113.5 -30.5t86 -63t36 -112 q2 -14 -2 -47q-14 -89 -101 -156q46 -14 64 -45t8 -88q-14 -81 -54 -142.5t-88.5 -95t-112.5 -54t-114.5 -26.5t-105.5 -6q-75 0 -136 11t-101.5 30t-70 46.5t-45.5 57t-23 64.5t-6 67zM350 213q0 23 2 45q2 4 2 10h140q25 -63 118 -63q29 0 49 2t46.5 9.5t43 26t21.5 46.5 q5 25 -13.5 43t-48.5 30t-64 33.5t-60.5 53t-38 88.5t3.5 141q22 133 127 133q85 0 115.5 -34t21.5 -85q-4 -22 -20 -57q-46 -3 -177 -17q-4 39 -53 39q-44 0 -86.5 -22t-50.5 -68q-6 -36 10.5 -60.5t47 -38.5t68.5 -25.5t75 -26t66.5 -35.5t43.5 -59.5t4 -92.5 q-9 -53 -47 -86t-76.5 -42t-80.5 -9q-50 0 -87.5 10.5t-57 27.5t-32 38.5t-12.5 44.5z" />
<glyph unicode="&#xa8;" horiz-adv-x="614" d="M51 1214l35 193h209l-35 -193h-209zM399 1214l35 193h207l-35 -193h-207z" />
<glyph unicode="&#xa9;" horiz-adv-x="1527" d="M86 702q35 198 163 364t308.5 259.5t370.5 93.5q145 0 268 -57t202 -153t112.5 -229t7.5 -278q-26 -149 -108 -282.5t-196 -227t-255 -148t-283 -54.5q-148 0 -271 57.5t-200.5 154t-110 227.5t-8.5 273zM225 705q-21 -119 6 -226.5t91 -185t163 -123t217 -45.5 q157 0 304 77t248.5 211t129.5 292q20 117 -7.5 224.5t-91.5 185t-163.5 123.5t-216.5 46q-157 0 -304 -77.5t-248 -211t-128 -290.5zM446 702q34 194 154.5 302t284.5 108q74 0 130 -20.5t86.5 -50t49 -68.5t23.5 -69t4 -58h-123q2 71 -47.5 114.5t-143.5 43.5 q-116 0 -194.5 -80t-104.5 -222q-25 -145 26 -223t167 -78q60 0 100 35q123 36 156 146h119q-47 -143 -153 -215t-241 -72q-164 0 -245.5 106.5t-47.5 300.5z" />
<glyph unicode="&#xaa;" horiz-adv-x="757" d="M55 909q46 254 420 254h123l8 45q20 129 -121 129q-76 0 -121 -30t-53 -76h-166q7 42 31.5 82.5t66.5 76.5t111.5 58t155.5 22q154 0 219.5 -70.5t36.5 -240.5l-82 -461h-139l-2 99q-53 -55 -114 -86t-153 -31q-49 0 -91.5 13t-76 39t-48.5 71.5t-5 105.5zM221 911 q-9 -50 24 -76t89 -26q85 0 152.5 55t84.5 146l7 34h-121q-113 0 -169.5 -37.5t-66.5 -95.5z" />
<glyph unicode="&#xab;" horiz-adv-x="1355" d="M246 516l379 449h196q-58 -75 -173.5 -224.5t-172.5 -224.5q36 -90 108 -261.5t81 -193.5h-197zM664 516l378 449h195q-119 -158 -346 -449q170 -410 188 -455h-194z" />
<glyph unicode="&#xac;" d="M193 545l28 166h975l-96 -545h-201l68 379h-774z" />
<glyph unicode="&#xad;" horiz-adv-x="780" d="M115 487l35 189h595l-34 -189h-596z" />
<glyph unicode="&#xae;" horiz-adv-x="1527" d="M88 702q26 149 107.5 282.5t195 228t254.5 149.5t283 55q149 0 273 -58.5t201.5 -156t109.5 -228.5t8 -272q-36 -200 -164.5 -365t-309 -257t-370.5 -92q-148 0 -271 58t-200.5 154.5t-109.5 228t-7 273.5zM225 702q-21 -117 6 -224.5t91 -185t163 -123.5t217 -46 q157 0 304 77.5t248.5 211t129.5 290.5q27 157 -27.5 290.5t-174.5 211.5t-277 78t-304 -78t-248 -211.5t-128 -290.5zM457 309l137 787h326q21 0 42 -2t58 -15.5t61.5 -36t38.5 -69.5t2 -111q-17 -101 -84 -162.5t-164 -66.5l166 -324h-135q-95 198 -151 322h-123l-56 -322 h-118zM649 737h205q40 0 70 14t46 36t23.5 40t10.5 35q6 35 -1.5 60.5t-20.5 37.5t-33 18.5t-30 7.5t-20 1h-205z" />
<glyph unicode="&#xaf;" horiz-adv-x="645" d="M59 1153l31 174h576l-31 -174h-576z" />
<glyph unicode="&#xb0;" horiz-adv-x="681" d="M137 1364q19 101 102 171.5t183 70.5t159 -70.5t40 -171.5q-17 -100 -100 -170t-183 -70t-159 70t-42 170zM252 1364q-9 -52 22 -88.5t84 -36.5q52 0 94.5 36t51.5 89q10 54 -20 90.5t-83 36.5t-96 -36.5t-53 -90.5z" />
<glyph unicode="&#xb1;" d="M78 0l31 174h940l-31 -174h-940zM205 719l33 188h374l68 377h188l-67 -377h377l-33 -188h-377l-68 -379h-188l68 379h-375z" />
<glyph unicode="&#xb2;" horiz-adv-x="651" d="M33 578l18 114q129 93 216.5 162t139.5 116t81.5 86.5t40 65.5t16.5 62q6 18 2 40.5t-13 41.5t-34 32t-62 13q-71 0 -108.5 -39t-50.5 -111h-138q49 262 318 262q138 0 191.5 -63.5t33.5 -175.5q-19 -104 -118.5 -212.5t-340.5 -287.5h373l-18 -106h-547z" />
<glyph unicode="&#xb3;" horiz-adv-x="628" d="M51 811h139q-5 -43 4.5 -72.5t30.5 -42t39.5 -16.5t42.5 -4q67 0 115 36.5t61 110.5q14 85 -22 123.5t-99 38.5q-62 0 -122 -24l20 112l244 219h-314l21 115h473l-20 -115l-246 -209q46 0 86 -14.5t71.5 -43.5t44.5 -81t1 -119q-24 -127 -118 -195.5t-214 -68.5 q-53 0 -95.5 11.5t-79.5 38t-54 78t-9 122.5z" />
<glyph unicode="&#xb4;" horiz-adv-x="587" d="M176 1141l201 266h235l-254 -266h-182z" />
<glyph unicode="&#xb5;" horiz-adv-x="1198" d="M76 -399l252 1437h198l-112 -641q-17 -102 -12 -144q15 -106 143 -106q127 0 234.5 83.5t123.5 170.5l111 637h200l-182 -1038h-168l4 166q-69 -98 -158 -145.5t-184 -47.5q-118 0 -172 82l-80 -454h-198z" />
<glyph unicode="&#xb6;" horiz-adv-x="1439" d="M246 1001q20 113 93 206.5t177.5 146.5t216.5 53h600l-289 -1638h-200l256 1448h-242l-256 -1448h-199l146 825q-153 14 -241.5 131t-61.5 276z" />
<glyph unicode="&#xb7;" horiz-adv-x="620" d="M221 414l39 221h219l-39 -221h-219z" />
<glyph unicode="&#xb8;" horiz-adv-x="526" d="M68 -375l20 117q30 -19 73 -32t79 -13q76 0 84 49q6 35 -20.5 49.5t-74.5 14.5q-30 0 -77 -7l124 193h105l-62 -90q91 0 127 -44t25 -118q-12 -66 -69 -113t-162 -47q-39 0 -72 5.5t-48.5 11.5t-32.5 14.5z" />
<glyph unicode="&#xb9;" horiz-adv-x="638" d="M213 1124l29 160l161 123h136l-146 -829h-135l119 673z" />
<glyph unicode="&#xba;" horiz-adv-x="817" d="M70 1077q33 186 155.5 289.5t292.5 103.5q180 0 261.5 -102t47.5 -291q-35 -192 -152.5 -294.5t-297.5 -102.5q-170 0 -255 104t-52 293zM238 1077q-23 -125 20.5 -190.5t144.5 -65.5q104 0 171.5 66.5t89.5 189.5q20 119 -24 186.5t-146 67.5q-103 0 -169 -68.5 t-87 -185.5z" />
<glyph unicode="&#xbb;" horiz-adv-x="1355" d="M199 61q119 158 346 449q-9 22 -81 193.5t-108 261.5h195l221 -455l-379 -449h-194zM614 61q58 75 173.5 224.5t173.5 224.5q-36 90 -108 261.5t-81 193.5h197l221 -455l-379 -449h-197z" />
<glyph unicode="&#xbc;" horiz-adv-x="1546" d="M166 0l1108 1407h145l-1110 -1407h-143zM334 1124l26 160l164 123h135l-145 -829h-135l119 673zM694 190l23 123l473 516h137l-90 -516h92l-22 -123h-93l-32 -190h-135l32 190h-385zM874 313h228l55 312z" />
<glyph unicode="&#xbd;" horiz-adv-x="1560" d="M166 0l1108 1407h145l-1110 -1407h-143zM336 1124l26 160l164 123h136l-146 -829h-135l119 673zM827 0l21 115q160 115 257 192.5t146 132.5t65.5 88t24.5 78q8 48 -14.5 87.5t-91.5 39.5q-134 0 -160 -149h-137q46 262 317 262q139 0 192.5 -64t33.5 -176 q-19 -104 -118.5 -212.5t-340.5 -287.5h373l-19 -106h-549z" />
<glyph unicode="&#xbe;" horiz-adv-x="1619" d="M111 811h137q-4 -44 5.5 -73t30.5 -41.5t40 -16.5t43 -4q68 0 114.5 36.5t59.5 110.5q14 85 -22 123.5t-99 38.5q-66 0 -119 -24l18 112l242 219h-313l20 115h475l-20 -115l-246 -209q45 0 84.5 -14.5t71.5 -43.5t45.5 -81t1.5 -119q-22 -126 -117.5 -195t-214.5 -69 q-53 0 -96 11.5t-79.5 38t-53 78t-8.5 122.5zM229 0l1108 1407h146l-1108 -1407h-146zM762 190l22 123l473 516h138l-90 -516h92l-23 -123h-92l-33 -190h-137l33 190h-383zM940 313h227l56 312z" />
<glyph unicode="&#xbf;" horiz-adv-x="1206" d="M122.5 29q-2.5 55 6.5 118q10 55 38.5 106.5t67 93t83.5 82.5t90 84.5t84.5 89.5t69.5 105.5t42 125.5h199q-14 -79 -45.5 -146.5t-71.5 -116t-85 -91.5t-89.5 -81t-82 -74.5t-65 -82t-36.5 -95.5q-2 -14 -3.5 -27t0 -34.5t7.5 -39.5t20.5 -38t36 -33.5t57.5 -22.5t82 -9 q63 0 111.5 15.5t76.5 37t47.5 54.5t27.5 58.5t14 57.5h199q-10 -57 -28.5 -106.5t-57 -103t-91.5 -91t-137 -62t-190 -24.5q-97 0 -169 18.5t-114.5 51.5t-67 79t-27 101zM618 993l39 221h222l-39 -221h-222z" />
<glyph unicode="&#xc0;" horiz-adv-x="1304" d="M-63 0q378 704 765 1407h230l272 -1407h-219q-8 49 -25.5 147.5t-25.5 147.5h-645q-29 -58 -87.5 -168.5t-66.5 -126.5h-198zM391 489h510l-127 725zM645 1833h236l106 -266h-182z" />
<glyph unicode="&#xc1;" horiz-adv-x="1304" d="M-63 0q378 704 765 1407h230l272 -1407h-219q-8 49 -25.5 147.5t-25.5 147.5h-645q-29 -58 -87.5 -168.5t-66.5 -126.5h-198zM391 489h510l-127 725zM692 1567l201 266h233l-252 -266h-182z" />
<glyph unicode="&#xc2;" horiz-adv-x="1304" d="M-63 0q378 704 765 1407h230l272 -1407h-219q-8 49 -25.5 147.5t-25.5 147.5h-645q-29 -58 -87.5 -168.5t-66.5 -126.5h-198zM391 489h510l-127 725zM532 1567l256 266h199l162 -266h-168l-111 159l-168 -159h-170z" />
<glyph unicode="&#xc3;" horiz-adv-x="1345" d="M-63 0q378 704 765 1407h230l272 -1407h-219q-8 49 -25.5 147.5t-25.5 147.5h-645q-29 -58 -87.5 -168.5t-66.5 -126.5h-198zM391 489h510l-127 725zM504 1602q45 231 246 231q43 0 81.5 -15.5t62.5 -34.5t54 -34.5t58 -15.5q97 0 110 100h129q-7 -44 -23 -81.5t-44 -73 t-74 -56t-105 -20.5q-41 0 -78 15.5t-60 33.5t-53 33.5t-60 15.5q-95 0 -113 -98h-131z" />
<glyph unicode="&#xc4;" horiz-adv-x="1304" d="M-63 0q378 704 765 1407h230l272 -1407h-219q-8 49 -25.5 147.5t-25.5 147.5h-645q-29 -58 -87.5 -168.5t-66.5 -126.5h-198zM391 489h510l-127 725zM573 1640l33 193h209l-33 -193h-209zM922 1640l32 193h207l-33 -193h-206z" />
<glyph unicode="&#xc5;" horiz-adv-x="1304" d="M-63 0l751 1384q-84 68 -63 185q14 87 92 154t168 67q92 0 144.5 -64t37.5 -157q-10 -57 -45 -106t-84 -79q154 -813 266 -1384h-221q-7 49 -24.5 146.5t-24.5 146.5h-639l-154 -293h-204zM399 492h500l-127 706q-160 -298 -373 -706zM750 1569q-7 -38 16 -66t61 -28 t72 28t41 66q6 40 -17 67t-61 27q-39 0 -72.5 -27.5t-39.5 -66.5z" />
<glyph unicode="&#xc6;" horiz-adv-x="2076" d="M-66 0l1014 1407h1159l-32 -184h-713l-72 -406h592l-33 -192h-592l-77 -441h712l-32 -184h-928l57 330h-586l-231 -330h-238zM532 514h490l125 709h-121z" />
<glyph unicode="&#xc7;" horiz-adv-x="1468" d="M126.5 401.5q-20.5 131.5 8.5 300.5q31 173 104.5 312.5t177.5 231t233 140t274 48.5q137 0 241 -38t165 -104.5t90 -151.5t26 -184h-209q2 147 -87 225.5t-257 78.5q-117 0 -214 -46t-162.5 -126t-108 -177t-62.5 -209q-47 -273 44.5 -414t305.5 -141q179 0 297 93.5 t172 244.5h209q-32 -101 -89 -188.5t-138 -157.5t-191.5 -113.5t-238.5 -50.5l-47 -69q91 0 126.5 -44t22.5 -118q-10 -61 -71 -110.5t-160 -49.5q-39 0 -72 5.5t-48.5 11.5t-32.5 14.5l-19 9.5l20 117q30 -19 74 -32t80 -13q74 0 82 49q6 36 -20 50t-74 14q-31 0 -78 -7 l112 172q-133 9 -234.5 60t-166 143t-85 223.5z" />
<glyph unicode="&#xc8;" horiz-adv-x="1261" d="M121 0l248 1407h925l-30 -174h-721l-76 -422h600l-31 -174h-600l-80 -463h721l-30 -174h-926zM672 1833h233l107 -266h-183z" />
<glyph unicode="&#xc9;" horiz-adv-x="1261" d="M121 0l248 1407h925l-30 -174h-721l-76 -422h600l-31 -174h-600l-80 -463h721l-30 -174h-926zM719 1567l201 266h235l-254 -266h-182z" />
<glyph unicode="&#xca;" horiz-adv-x="1261" d="M121 0l248 1407h925l-30 -174h-721l-76 -422h600l-31 -174h-600l-80 -463h721l-30 -174h-926zM553 1567l254 266h201l161 -266h-170l-110 159l-168 -159h-168z" />
<glyph unicode="&#xcb;" horiz-adv-x="1261" d="M121 0l248 1407h925l-30 -174h-721l-76 -422h600l-31 -174h-600l-80 -463h721l-30 -174h-926zM606 1640l33 193h209l-33 -193h-209zM954 1640l33 193h207l-33 -193h-207z" />
<glyph unicode="&#xcc;" horiz-adv-x="573" d="M59 0l248 1407h213l-248 -1407h-213zM217 1833h234l106 -266h-182z" />
<glyph unicode="&#xcd;" horiz-adv-x="573" d="M59 0l248 1407h213l-248 -1407h-213zM303 1567l201 266h233l-252 -266h-182z" />
<glyph unicode="&#xce;" horiz-adv-x="573" d="M59 0l248 1407h213l-248 -1407h-213zM133 1567l254 266h201l162 -266h-170l-111 159l-168 -159h-168z" />
<glyph unicode="&#xcf;" horiz-adv-x="573" d="M59 0l248 1407h213l-248 -1407h-213zM180 1640l33 193h207l-33 -193h-207zM526 1640l33 193h209l-33 -193h-209z" />
<glyph unicode="&#xd0;" horiz-adv-x="1460" d="M70 610l36 201h158l105 596h471q41 0 78.5 -2.5t87.5 -11.5t93 -24t89 -42t81.5 -63t65 -90t44.5 -119.5t15 -154.5t-18 -193q-24 -133 -68.5 -241.5t-98 -180.5t-121.5 -126t-130.5 -83.5t-134 -47.5t-124 -23t-107.5 -5h-471l106 610h-157zM369 188h256 q95 0 175.5 26.5t153 85.5t125.5 163.5t78 249.5q21 111 12 195.5t-37 143t-78.5 95.5t-111 53.5t-135.5 16.5h-256l-72 -406h264l-36 -201h-265z" />
<glyph unicode="&#xd1;" horiz-adv-x="1437" d="M47 0l248 1407h266l494 -1077l190 1077h205l-248 -1407h-231l-522 1118l-197 -1118h-205zM555 1602q45 231 246 231q42 0 80.5 -15.5t63 -34.5t54.5 -34.5t58 -15.5q97 0 110 100h129q-7 -43 -23 -81t-44 -73.5t-73.5 -56t-104.5 -20.5q-42 0 -79.5 15.5t-60 33.5 t-53.5 33.5t-61 15.5q-93 0 -111 -98h-131z" />
<glyph unicode="&#xd2;" horiz-adv-x="1536" d="M135 700q62 348 279.5 541t521.5 193q149 0 264 -48t188 -141.5t97.5 -230.5t-6.5 -314q-62 -348 -278.5 -537.5t-522.5 -189.5q-305 0 -454 189t-89 538zM346 700q-49 -277 44.5 -415t318.5 -138q230 0 370.5 141.5t188.5 411.5q24 147 11 253t-63.5 174.5t-128 100.5 t-182.5 32q-230 0 -371 -146t-188 -414zM774 1833h236l106 -266h-182z" />
<glyph unicode="&#xd3;" horiz-adv-x="1536" d="M135 700q62 348 279.5 541t521.5 193q149 0 264 -48t188 -141.5t97.5 -230.5t-6.5 -314q-62 -348 -278.5 -537.5t-522.5 -189.5q-305 0 -454 189t-89 538zM346 700q-49 -277 44.5 -415t318.5 -138q230 0 370.5 141.5t188.5 411.5q24 147 11 253t-63.5 174.5t-128 100.5 t-182.5 32q-230 0 -371 -146t-188 -414zM793 1567l200 266h236l-254 -266h-182z" />
<glyph unicode="&#xd4;" horiz-adv-x="1536" d="M135 700q62 348 279.5 541t521.5 193q149 0 264 -48t188 -141.5t97.5 -230.5t-6.5 -314q-62 -348 -278.5 -537.5t-522.5 -189.5q-305 0 -454 189t-89 538zM346 700q-49 -277 44.5 -415t318.5 -138q230 0 370.5 141.5t188.5 411.5q24 147 11 253t-63.5 174.5t-128 100.5 t-182.5 32q-230 0 -371 -146t-188 -414zM655 1567l256 266h199l162 -266h-168l-113 159l-166 -159h-170z" />
<glyph unicode="&#xd5;" horiz-adv-x="1536" d="M135 700q62 348 279.5 541t521.5 193q149 0 264 -48t188 -141.5t97.5 -230.5t-6.5 -314q-62 -348 -278.5 -537.5t-522.5 -189.5q-305 0 -454 189t-89 538zM346 700q-49 -277 44.5 -415t318.5 -138q230 0 370.5 141.5t188.5 411.5q24 147 11 253t-63.5 174.5t-128 100.5 t-182.5 32q-230 0 -371 -146t-188 -414zM612 1602q5 29 13 56t26.5 60.5t44 57.5t67.5 40.5t95 16.5q42 0 80.5 -15.5t62 -34.5t53.5 -34.5t58 -15.5q95 0 113 100h129q-8 -44 -24.5 -81.5t-44 -73t-73 -56t-104.5 -20.5q-42 0 -79.5 15.5t-61 33.5t-54.5 33.5t-61 15.5 q-95 0 -109 -98h-131z" />
<glyph unicode="&#xd6;" horiz-adv-x="1536" d="M135 700q62 348 279.5 541t521.5 193q149 0 264 -48t188 -141.5t97.5 -230.5t-6.5 -314q-62 -348 -278.5 -537.5t-522.5 -189.5q-305 0 -454 189t-89 538zM346 700q-49 -277 44.5 -415t318.5 -138q230 0 370.5 141.5t188.5 411.5q24 147 11 253t-63.5 174.5t-128 100.5 t-182.5 32q-230 0 -371 -146t-188 -414zM688 1640l35 193h207l-35 -193h-207zM1034 1640l35 193h209l-35 -193h-209z" />
<glyph unicode="&#xd7;" horiz-adv-x="1208" d="M166 287l346 293l-244 297l158 133l242 -295l346 295l112 -133l-350 -297l244 -293q-16 -14 -156 -133l-243 295l-345 -295q-7 9 -48 58t-62 75z" />
<glyph unicode="&#xd8;" horiz-adv-x="1607" d="M102 -6q31 33 86 96.5t70 79.5q-147 197 -88 528q62 349 281 542.5t522 193.5q192 0 323 -84q142 159 150 168l135 -109l-154 -176q147 -192 86 -535q-62 -349 -276 -537t-522 -188q-192 0 -328 82q-30 -32 -83.5 -93t-67.5 -77q-108 88 -134 109zM389 698 q-35 -218 27 -350l743 840q-80 55 -221 55q-114 0 -207 -41.5t-150 -100.5t-100 -139t-62 -141t-30 -123zM524 217q83 -55 224 -55q84 0 156.5 21t124.5 55t95 82t71 95.5t49 102.5t32 96.5t18 83.5q40 220 -26 361z" />
<glyph unicode="&#xd9;" horiz-adv-x="1435" d="M177 270q-19 91 3 199l166 938h205l-170 -961q-24 -136 45 -217.5t233 -81.5q172 0 268 79t120 220l170 961h204l-166 -938q-40 -225 -199.5 -360.5t-426.5 -135.5q-135 0 -233 37t-149 103t-70 157zM725 1833h233l107 -266h-182z" />
<glyph unicode="&#xda;" horiz-adv-x="1435" d="M177 270q-19 91 3 199l166 938h205l-170 -961q-24 -136 45 -217.5t233 -81.5q172 0 268 79t120 220l170 961h204l-166 -938q-40 -225 -199.5 -360.5t-426.5 -135.5q-135 0 -233 37t-149 103t-70 157zM756 1567l200 266h236l-254 -266h-182z" />
<glyph unicode="&#xdb;" horiz-adv-x="1435" d="M177 270q-19 91 3 199l166 938h205l-170 -961q-24 -136 45 -217.5t233 -81.5q172 0 268 79t120 220l170 961h204l-166 -938q-40 -225 -199.5 -360.5t-426.5 -135.5q-135 0 -233 37t-149 103t-70 157zM606 1567l254 266h201l162 -266h-170l-113 159l-166 -159h-168z" />
<glyph unicode="&#xdc;" horiz-adv-x="1464" d="M183 270q-19 91 3 199l166 938h205l-170 -961q-24 -135 46.5 -217t234.5 -82q171 0 266 79t119 220l170 961h204l-165 -938q-40 -226 -199.5 -361t-425.5 -135q-135 0 -233 37t-150 103t-71 157zM647 1640l35 193h209l-35 -193h-209zM995 1640l35 193h207l-35 -193h-207z " />
<glyph unicode="&#xdd;" horiz-adv-x="1187" d="M178 1407h234l235 -674l471 674h219l-628 -852l-97 -555h-204l96 555q-21 55 -326 852zM662 1567l200 266h236l-254 -266h-182z" />
<glyph unicode="&#xde;" horiz-adv-x="1280" d="M119 0l248 1405h215l-47 -268h368q190 0 288.5 -110t59.5 -331q-37 -211 -174 -320.5t-323 -109.5h-373l-47 -266h-215zM414 455h360q114 0 177.5 67t82.5 178q21 109 -19.5 177.5t-154.5 68.5h-360z" />
<glyph unicode="&#xdf;" horiz-adv-x="1200" d="M90 0l186 1061q9 52 30 101.5t60.5 99.5t92.5 87.5t132 61t173 23.5q67 0 122.5 -12t93 -33t66.5 -49.5t44 -61t24.5 -68t7.5 -71t-6 -68.5q-21 -119 -73 -188.5t-113 -98.5q3 0 8.5 -1t21.5 -5.5t31 -11t35 -20.5t35.5 -32t30 -46.5t22 -63t8 -82.5t-9.5 -104 q-36 -205 -176 -311.5t-352 -106.5h-178l28 170h178q12 0 22 0.5t39 5t52 13t55 27.5t55 45t44 68t30 95q7 41 7 76t-5.5 60.5t-18.5 46t-27.5 34t-36.5 23.5t-41.5 15t-46.5 8t-47.5 4t-47.5 1l31 172q56 0 98 14t65 32.5t39 49.5t22 52t11 53q13 74 -32.5 135.5 t-143.5 61.5q-39 0 -77 -9t-77 -30t-67.5 -62t-38.5 -98l-186 -1063h-199z" />
<glyph unicode="&#xe0;" horiz-adv-x="1148" d="M68 518q45 261 193 404t357 143q220 0 295 -168l50 141h180l-182 -1038h-181v139q-132 -166 -354 -166q-209 0 -306 141.5t-52 403.5zM268 371q5 -68 26.5 -117.5t70.5 -78t122 -28.5q81 0 144.5 28.5t106 80.5t69 116.5t41.5 145.5q16 75 10 143t-29 119t-77 81t-134 30 q-77 0 -137.5 -31.5t-100 -86.5t-64 -117.5t-37.5 -137.5q-16 -79 -11 -147zM547 1407h235l107 -266h-182z" />
<glyph unicode="&#xe1;" horiz-adv-x="1148" d="M68 518q45 261 193 404t357 143q220 0 295 -168l50 141h180l-182 -1038h-181v139q-132 -166 -354 -166q-209 0 -306 141.5t-52 403.5zM268 371q5 -68 26.5 -117.5t70.5 -78t122 -28.5q81 0 144.5 28.5t106 80.5t69 116.5t41.5 145.5q16 75 10 143t-29 119t-77 81t-134 30 q-77 0 -137.5 -31.5t-100 -86.5t-64 -117.5t-37.5 -137.5q-16 -79 -11 -147zM561 1141l201 266h233l-252 -266h-182z" />
<glyph unicode="&#xe2;" horiz-adv-x="1148" d="M68 518q45 261 193 404t357 143q220 0 295 -168l50 141h180l-182 -1038h-181v139q-132 -166 -354 -166q-209 0 -306 141.5t-52 403.5zM268 371q5 -68 26.5 -117.5t70.5 -78t122 -28.5q81 0 144.5 28.5t106 80.5t69 116.5t41.5 145.5q16 75 10 143t-29 119t-77 81t-134 30 q-77 0 -137.5 -31.5t-100 -86.5t-64 -117.5t-37.5 -137.5q-16 -79 -11 -147zM383 1141l256 266h199l161 -266h-168l-110 159l-168 -159h-170z" />
<glyph unicode="&#xe3;" horiz-adv-x="1148" d="M68 518q45 261 193 404t357 143q220 0 295 -168l50 141h180l-182 -1038h-181v139q-132 -166 -354 -166q-209 0 -306 141.5t-52 403.5zM268 371q5 -68 26.5 -117.5t70.5 -78t122 -28.5q81 0 144.5 28.5t106 80.5t69 116.5t41.5 145.5q16 75 10 143t-29 119t-77 81t-134 30 q-77 0 -137.5 -31.5t-100 -86.5t-64 -117.5t-37.5 -137.5q-16 -79 -11 -147zM348 1176q5 29 13.5 56t27 60.5t44 57.5t67.5 40.5t94 16.5q43 0 82 -15.5t63 -34.5t53.5 -34.5t57.5 -15.5q49 0 76.5 29.5t34.5 70.5h129q-7 -44 -23 -81.5t-44 -73t-74 -56t-105 -20.5 q-42 0 -79 15.5t-59.5 33.5t-53 33.5t-60.5 15.5q-49 0 -77.5 -29.5t-35.5 -68.5h-131z" />
<glyph unicode="&#xe4;" horiz-adv-x="1148" d="M68 518q45 261 193 404t357 143q220 0 295 -168l50 141h180l-182 -1038h-181v139q-132 -166 -354 -166q-209 0 -306 141.5t-52 403.5zM268 371q5 -68 26.5 -117.5t70.5 -78t122 -28.5q81 0 144.5 28.5t106 80.5t69 116.5t41.5 145.5q16 75 10 143t-29 119t-77 81t-134 30 q-77 0 -137.5 -31.5t-100 -86.5t-64 -117.5t-37.5 -137.5q-16 -79 -11 -147zM444 1214l33 193h207l-33 -193h-207zM791 1214l32 193h209l-33 -193h-208z" />
<glyph unicode="&#xe5;" horiz-adv-x="1150" d="M68 518q47 261 194 404t356 143q219 0 297 -168l50 141h180l-182 -1038h-181v139q-134 -166 -356 -166q-209 0 -306 141.5t-52 403.5zM268 371q5 -68 26.5 -117.5t70.5 -78t122 -28.5q157 0 244.5 101.5t116.5 269.5q16 75 10 143t-29 119t-77 81t-134 30 q-77 0 -137.5 -31.5t-100 -86.5t-64 -117.5t-37.5 -137.5q-16 -79 -11 -147zM508 1407q15 92 91 156.5t169 64.5q92 0 144.5 -64t37.5 -157q-17 -93 -93.5 -158t-168.5 -65t-144.5 65.5t-35.5 157.5zM633 1407q-7 -38 17 -66t63 -28q38 0 70 28t40 66q6 40 -17 67t-61 27 q-39 0 -72.5 -27.5t-39.5 -66.5z" />
<glyph unicode="&#xe6;" horiz-adv-x="1861" d="M68 287q10 57 34.5 105t69.5 91t108 73t155 47.5t206 17.5h184l15 79q35 203 -178 203q-111 0 -182.5 -47t-84.5 -117h-202q11 60 44 115t90 104t150.5 78t210.5 29q250 0 307 -203q76 100 187 151.5t227 51.5q215 0 323.5 -141t65.5 -387l-12 -68h-776 q-28 -167 36 -252.5t199 -85.5q105 0 183.5 47t117.5 139h203q-34 -83 -84 -146t-102.5 -99.5t-115.5 -59.5t-117 -31t-111 -8q-156 0 -247 65.5t-122 178.5q-51 -74 -108.5 -124t-119.5 -75t-119 -35t-126 -10q-68 0 -128 18.5t-106 55t-67 98.5t-8 142zM272 289 q-16 -83 38 -119.5t153 -36.5q127 6 217 87t111 200l8 51h-181q-116 0 -193.5 -26.5t-110.5 -65t-42 -90.5zM1042 623h562q10 73 -4.5 128t-41 83.5t-63.5 46t-63 22t-50 4.5q-259 0 -340 -284z" />
<glyph unicode="&#xe7;" horiz-adv-x="1163" d="M129 520q46 258 212 401.5t396 143.5h25q76 -2 142.5 -24.5t124 -67t88.5 -123.5t26 -184h-209q6 113 -57.5 171t-167.5 58q-153 0 -249 -100.5t-128 -274.5q-32 -186 33 -281.5t210 -95.5h29q39 0 78.5 11t80.5 34t75 67.5t51 104.5h207q-27 -82 -69 -147t-89.5 -107 t-105.5 -70.5t-113 -42.5t-115 -18l-49 -69q92 0 128.5 -44t25.5 -118q-12 -66 -70 -113t-164 -47q-38 0 -71 5.5t-48.5 11.5t-33.5 15t-19 9l21 117q74 -45 153 -45q74 0 82 49q6 36 -19 50t-73 14q-33 0 -80 -7l111 172q-208 14 -310 156t-59 389z" />
<glyph unicode="&#xe8;" horiz-adv-x="1189" d="M125 518q45 259 210 403t392 144q215 0 322.5 -141t64.5 -387l-10 -66h-776q-24 -164 37 -249t198 -85q110 0 184.5 49t110.5 131h207q-34 -83 -84 -146t-103 -99.5t-116 -59.5t-116.5 -31t-110.5 -8q-227 0 -341.5 143.5t-68.5 401.5zM356 618h562q16 122 -40 203.5 t-180 81.5q-133 0 -218.5 -74.5t-123.5 -210.5zM541 1407h235l107 -266h-183z" />
<glyph unicode="&#xe9;" horiz-adv-x="1189" d="M125 518q45 259 210 403t392 144q215 0 322.5 -141t64.5 -387l-10 -66h-776q-24 -164 37 -249t198 -85q110 0 184.5 49t110.5 131h207q-34 -83 -84 -146t-103 -99.5t-116 -59.5t-116.5 -31t-110.5 -8q-227 0 -341.5 143.5t-68.5 401.5zM356 618h562q16 122 -40 203.5 t-180 81.5q-133 0 -218.5 -74.5t-123.5 -210.5zM567 1141l201 266h233l-251 -266h-183z" />
<glyph unicode="&#xea;" horiz-adv-x="1189" d="M125 518q45 259 210 403t392 144q215 0 322.5 -141t64.5 -387l-10 -66h-776q-24 -164 37 -249t198 -85q110 0 184.5 49t110.5 131h207q-34 -83 -84 -146t-103 -99.5t-116 -59.5t-116.5 -31t-110.5 -8q-227 0 -341.5 143.5t-68.5 401.5zM356 618h562q16 122 -40 203.5 t-180 81.5q-133 0 -218.5 -74.5t-123.5 -210.5zM426 1141l254 266h201l161 -266h-170l-110 159l-168 -159h-168z" />
<glyph unicode="&#xeb;" horiz-adv-x="1189" d="M125 518q45 259 210 403t392 144q215 0 322.5 -141t64.5 -387l-10 -66h-776q-24 -164 37 -249t198 -85q110 0 184.5 49t110.5 131h207q-34 -83 -84 -146t-103 -99.5t-116 -59.5t-116.5 -31t-110.5 -8q-227 0 -341.5 143.5t-68.5 401.5zM356 618h562q16 122 -40 203.5 t-180 81.5q-133 0 -218.5 -74.5t-123.5 -210.5zM463 1214l33 193h209l-33 -193h-209zM811 1214l33 193h207l-33 -193h-207z" />
<glyph unicode="&#xec;" horiz-adv-x="501" d="M68 0l182 1038h199l-183 -1038h-198zM158 1407h233l107 -266h-183z" />
<glyph unicode="&#xed;" horiz-adv-x="501" d="M68 0l182 1038h199l-183 -1038h-198zM240 1141l200 266h234l-252 -266h-182z" />
<glyph unicode="&#xee;" horiz-adv-x="501" d="M66 1141l253 266h199l162 -266h-168l-111 159l-168 -159h-167zM68 0l182 1038h199l-183 -1038h-198z" />
<glyph unicode="&#xef;" horiz-adv-x="501" d="M68 0l182 1038h199l-183 -1038h-198zM111 1214l32 191h207l-33 -191h-206zM457 1214l32 191h207l-32 -191h-207z" />
<glyph unicode="&#xf0;" horiz-adv-x="1204" d="M70 510q44 251 202.5 386.5t370.5 135.5q42 0 85 -7.5t90 -25t85 -52.5t58 -83q-2 143 -68 259t-197 175l-116 -180l-119 62l100 157q-69 17 -168 17q6 21 53 176q113 0 222 -29q16 27 48.5 78t49.5 78l121 -62q-15 -22 -44 -67t-44 -68q207 -86 297.5 -284.5 t36.5 -501.5q-13 -75 -31 -143t-46.5 -140t-64.5 -131.5t-87 -114t-111.5 -91.5t-140 -59t-171.5 -22q-228 0 -341 140.5t-70 396.5zM272 510q-32 -184 32 -279.5t206 -95.5q76 0 139 28t104.5 70t73.5 100t49 110t27 108q11 58 5.5 103.5t-18 79.5t-36.5 59t-49 41.5 t-55 26.5t-55.5 14t-49.5 4q-153 0 -247 -97.5t-126 -271.5z" />
<glyph unicode="&#xf1;" horiz-adv-x="1220" d="M94 0l182 1038h173l-5 -168q162 195 404 195q84 0 142.5 -22.5t89 -58.5t43 -91t10.5 -111.5t-15 -128.5l-114 -653h-205l110 629q5 28 7.5 44t5 43.5t0.5 44.5t-7 40t-17 37t-29.5 27.5t-45 19.5t-63.5 6q-67 0 -127.5 -25.5t-99 -61.5t-67.5 -72t-42 -62l-12 -25 l-113 -645h-205zM410 1176q5 29 13 56t27 60.5t44 57.5t67 40.5t94 16.5q43 0 82 -15.5t62 -34.5t52.5 -34.5t57.5 -15.5q50 0 78 29.5t35 70.5h129q-7 -44 -23 -81.5t-44 -73t-74 -56t-105 -20.5q-42 0 -79 15.5t-59.5 33.5t-53 33.5t-60.5 15.5q-49 0 -77 -29.5t-35 -68.5 h-131z" />
<glyph unicode="&#xf2;" horiz-adv-x="1200" d="M119 520q45 258 213.5 401.5t404.5 143.5q242 0 355.5 -142t68.5 -403q-47 -263 -210 -405t-406 -142q-236 0 -353.5 143t-72.5 404zM330 520q-65 -373 245 -373t375 373q33 192 -35 281.5t-208 89.5q-146 0 -245 -91.5t-132 -279.5zM565 1407h234l106 -266h-182z" />
<glyph unicode="&#xf3;" horiz-adv-x="1200" d="M119 520q45 258 213.5 401.5t404.5 143.5q242 0 355.5 -142t68.5 -403q-47 -263 -210 -405t-406 -142q-236 0 -353.5 143t-72.5 404zM330 520q-65 -373 245 -373t375 373q33 192 -35 281.5t-208 89.5q-146 0 -245 -91.5t-132 -279.5zM590 1141l201 266h235l-254 -266 h-182z" />
<glyph unicode="&#xf4;" horiz-adv-x="1200" d="M119 520q45 258 213.5 401.5t404.5 143.5q242 0 355.5 -142t68.5 -403q-47 -263 -210 -405t-406 -142q-236 0 -353.5 143t-72.5 404zM330 520q-65 -373 245 -373t375 373q33 192 -35 281.5t-208 89.5q-146 0 -245 -91.5t-132 -279.5zM449 1141l253 266h201l162 -266h-170 l-111 159l-168 -159h-167z" />
<glyph unicode="&#xf5;" horiz-adv-x="1200" d="M119 520q45 258 213.5 401.5t404.5 143.5q242 0 355.5 -142t68.5 -403q-47 -263 -210 -405t-406 -142q-236 0 -353.5 143t-72.5 404zM330 520q-65 -373 245 -373t375 373q33 192 -35 281.5t-208 89.5q-146 0 -245 -91.5t-132 -279.5zM412 1176q7 38 19.5 72t38.5 73 t74 62.5t113 23.5q43 0 81.5 -15.5t62 -34.5t54 -34.5t58.5 -15.5q49 0 76.5 30t34.5 70h129q-7 -43 -23.5 -81t-44.5 -73.5t-73.5 -56t-104.5 -20.5q-42 0 -79 15.5t-59.5 33.5t-53.5 33.5t-62 15.5q-50 0 -76 -29.5t-34 -68.5h-131z" />
<glyph unicode="&#xf6;" horiz-adv-x="1200" d="M119 520q45 258 213.5 401.5t404.5 143.5q242 0 355.5 -142t68.5 -403q-47 -263 -210 -405t-406 -142q-236 0 -353.5 143t-72.5 404zM330 520q-65 -373 245 -373t375 373q33 192 -35 281.5t-208 89.5q-146 0 -245 -91.5t-132 -279.5zM489 1214l33 193h209l-33 -193h-209z M838 1214l32 193h207l-33 -193h-206z" />
<glyph unicode="&#xf7;" d="M221 487l35 189h844l-35 -189h-844zM475 139l39 221h219l-39 -221h-219zM590 801l39 221h221l-39 -221h-221z" />
<glyph unicode="&#xf8;" horiz-adv-x="1196" d="M66 -10l122 135q-102 139 -59 385q45 259 206 400t398 141q132 0 225 -52q86 92 123 138l125 -103l-121 -137q105 -146 60 -387q-45 -259 -205 -398t-397 -139q-133 0 -232 52q-20 -23 -59.5 -68.5t-58.5 -67.5zM328 510q-23 -133 12 -213l496 561q-53 27 -136 27 q-79 0 -143 -28t-102 -67.5t-66.5 -95.5t-40 -97t-20.5 -87zM438 166q48 -31 133 -31q79 0 142.5 27t101.5 65.5t67 93t41.5 95.5t20.5 86q22 135 -10 223z" />
<glyph unicode="&#xf9;" horiz-adv-x="1202" d="M165 256.5q2 56.5 15 128.5l115 653h205l-111 -628q-5 -33 -7.5 -50.5t-4.5 -49.5t2 -50.5t13.5 -43t26.5 -37.5t45.5 -22.5t67.5 -9.5q63 0 125.5 29t106 71t72.5 86t34 77l111 628h205l-182 -1038h-173l7 168q-165 -195 -394 -195q-82 0 -139 22t-87 58.5t-42.5 91.5 t-10.5 111.5zM582 1407h235l107 -266h-183z" />
<glyph unicode="&#xfa;" horiz-adv-x="1202" d="M165 256.5q2 56.5 15 128.5l115 653h205l-111 -628q-5 -33 -7.5 -50.5t-4.5 -49.5t2 -50.5t13.5 -43t26.5 -37.5t45.5 -22.5t67.5 -9.5q63 0 125.5 29t106 71t72.5 86t34 77l111 628h205l-182 -1038h-173l7 168q-165 -195 -394 -195q-82 0 -139 22t-87 58.5t-42.5 91.5 t-10.5 111.5zM621 1141l200 266h234l-252 -266h-182z" />
<glyph unicode="&#xfb;" horiz-adv-x="1202" d="M165 256.5q2 56.5 15 128.5l115 653h205l-111 -628q-5 -33 -7.5 -50.5t-4.5 -49.5t2 -50.5t13.5 -43t26.5 -37.5t45.5 -22.5t67.5 -9.5q63 0 125.5 29t106 71t72.5 86t34 77l111 628h205l-182 -1038h-173l7 168q-165 -195 -394 -195q-82 0 -139 22t-87 58.5t-42.5 91.5 t-10.5 111.5zM457 1141l256 266h198l162 -266h-168l-110 159l-168 -159h-170z" />
<glyph unicode="&#xfc;" horiz-adv-x="1202" d="M165 256.5q2 56.5 15 128.5l115 653h205l-111 -628q-5 -33 -7.5 -50.5t-4.5 -49.5t2 -50.5t13.5 -43t26.5 -37.5t45.5 -22.5t67.5 -9.5q63 0 125.5 29t106 71t72.5 86t34 77l111 628h205l-182 -1038h-173l7 168q-165 -195 -394 -195q-82 0 -139 22t-87 58.5t-42.5 91.5 t-10.5 111.5zM500 1214l32 193h209l-32 -193h-209zM848 1214l33 193h206l-32 -193h-207z" />
<glyph unicode="&#xfd;" horiz-adv-x="1009" d="M162 -399l244 442l-224 995h217q15 -85 64 -357t74 -421l407 778h197q-393 -718 -783 -1437h-196zM584 1141l200 266h234l-252 -266h-182z" />
<glyph unicode="&#xfe;" horiz-adv-x="1196" d="M12 -399l320 1833h198l-92 -533q134 164 348 164q213 0 309.5 -143t51.5 -404q-49 -270 -193 -407.5t-360 -137.5q-209 0 -293 156l-92 -528h-197zM371 518q-31 -174 21.5 -276.5t199.5 -102.5q148 0 233.5 101t116.5 278q68 381 -217 381t-354 -381z" />
<glyph unicode="&#xff;" horiz-adv-x="1009" d="M162 -399l244 442l-224 995h217q15 -85 64 -357t74 -421l407 778h197q-393 -718 -783 -1437h-196zM436 1214l35 193h209l-35 -193h-209zM784 1214l35 193h207l-35 -193h-207z" />
<glyph unicode="&#x152;" horiz-adv-x="2271" d="M170 700q41 232 153 399t271 251t350 84q138 0 244.5 -56.5t154.5 -165.5l35 195h926l-35 -193h-710l-70 -395h590l-33 -192h-590l-76 -434h711l-35 -193h-926l33 188q-175 -215 -475 -215q-292 0 -435.5 189.5t-82.5 537.5zM389 700q-44 -257 44 -395.5t294 -138.5 q209 0 343.5 135.5t180.5 384.5l2 14q46 264 -43.5 402.5t-291.5 138.5q-208 0 -346 -143.5t-183 -397.5z" />
<glyph unicode="&#x153;" horiz-adv-x="1984" d="M121 518q46 260 212.5 403.5t397.5 143.5q139 0 234.5 -59.5t138.5 -174.5q170 234 436 234q217 0 325.5 -141t65.5 -387l-12 -70h-778q-26 -168 36 -254t199 -86q34 0 68 12q167 20 233 178h203q-34 -83 -84 -146t-102.5 -99.5t-115.5 -59.5t-117 -31t-111 -8 q-130 0 -223.5 58.5t-133.5 173.5q-168 -232 -452 -232q-232 0 -348.5 143t-71.5 402zM326 518q-32 -188 32 -284.5t211 -96.5q151 0 248 98.5t129 282.5q32 182 -31 282.5t-213 100.5q-154 0 -249 -102t-127 -281zM1174 623h563q20 121 -39 204.5t-185 83.5 q-256 0 -339 -288z" />
<glyph unicode="&#x178;" horiz-adv-x="1187" d="M178 1407h234l237 -668l471 668h217l-626 -844l-99 -563h-204l98 563zM522 1640l33 193h207l-33 -193h-207zM868 1640l33 193h209l-33 -193h-209z" />
<glyph unicode="&#x2c6;" horiz-adv-x="626" d="M23 1153l251 266h201l162 -266h-170l-111 160l-168 -160h-165z" />
<glyph unicode="&#x2dc;" horiz-adv-x="706" d="M27 1176q39 231 241 231q43 0 81.5 -15.5t62 -34.5t54 -34.5t58.5 -15.5q49 0 77.5 30.5t33.5 69.5h129q-7 -44 -23 -81.5t-43.5 -73t-73 -56t-104.5 -20.5q-42 0 -79.5 15.5t-60.5 33.5t-54 33.5t-62 15.5q-50 0 -76 -30t-32 -68h-129z" />
<glyph unicode="&#x2000;" horiz-adv-x="916" />
<glyph unicode="&#x2001;" horiz-adv-x="1833" />
<glyph unicode="&#x2002;" horiz-adv-x="916" />
<glyph unicode="&#x2003;" horiz-adv-x="1833" />
<glyph unicode="&#x2004;" horiz-adv-x="611" />
<glyph unicode="&#x2005;" horiz-adv-x="458" />
<glyph unicode="&#x2006;" horiz-adv-x="305" />
<glyph unicode="&#x2007;" horiz-adv-x="305" />
<glyph unicode="&#x2008;" horiz-adv-x="229" />
<glyph unicode="&#x2009;" horiz-adv-x="366" />
<glyph unicode="&#x200a;" horiz-adv-x="101" />
<glyph unicode="&#x2010;" horiz-adv-x="780" d="M115 487l35 189h595l-34 -189h-596z" />
<glyph unicode="&#x2011;" horiz-adv-x="780" d="M115 487l35 189h595l-34 -189h-596z" />
<glyph unicode="&#x2012;" horiz-adv-x="780" d="M115 487l35 189h595l-34 -189h-596z" />
<glyph unicode="&#x2013;" horiz-adv-x="974" d="M25 451l32 198h975l-35 -198h-972z" />
<glyph unicode="&#x2014;" horiz-adv-x="1980" d="M25 451l32 198h1981l-35 -198h-1978z" />
<glyph unicode="&#x2018;" horiz-adv-x="585" d="M147 942l203 463h152l-156 -463h-199z" />
<glyph unicode="&#x2019;" horiz-adv-x="585" d="M164 942l155 463h199l-203 -463h-151z" />
<glyph unicode="&#x201a;" horiz-adv-x="585" d="M162 -213l160 465h198l-207 -465h-151z" />
<glyph unicode="&#x201c;" horiz-adv-x="1099" d="M256 942l207 465h151l-159 -465h-199zM578 942l208 465h152l-162 -465h-198z" />
<glyph unicode="&#x201d;" horiz-adv-x="1099" d="M258 942l162 465h198l-208 -465h-152zM582 942l159 465h199l-207 -465h-151z" />
<glyph unicode="&#x201e;" horiz-adv-x="1099" d="M256 -213l160 465h198l-206 -465h-152zM578 -213l161 465h199q-36 -78 -104.5 -232.5t-104.5 -232.5h-151z" />
<glyph unicode="&#x2022;" horiz-adv-x="823" d="M182 698q19 112 112 191.5t206 79.5q112 0 177 -79t46 -192q-20 -112 -113.5 -191t-206.5 -79q-112 0 -176.5 78.5t-44.5 191.5z" />
<glyph unicode="&#x2026;" horiz-adv-x="1761" d="M279 0l38 221h220l-39 -221h-219zM791 0l38 221h220l-39 -221h-219zM1303 0l38 221h222l-39 -221h-221z" />
<glyph unicode="&#x202f;" horiz-adv-x="366" />
<glyph unicode="&#x2039;" horiz-adv-x="743" d="M158 516l379 449h196q-58 -75 -173 -224.5t-173 -224.5q18 -44 188 -455h-196z" />
<glyph unicode="&#x203a;" horiz-adv-x="743" d="M90 61q119 158 346 449q-170 411 -188 455h194l222 -455l-379 -449h-195z" />
<glyph unicode="&#x205f;" horiz-adv-x="458" />
<glyph unicode="&#x20ac;" d="M23 477l22 135h148q3 34 12 80q7 52 16 84h-147l22 135h164q92 251 267.5 387t404.5 136q296 0 411 -220l-176 -139q-67 166 -268 166q-82 0 -151.5 -27.5t-120 -76t-87 -104t-63.5 -122.5h537l-99 -135h-479q-7 -26 -16 -84q-9 -41 -12 -80h387l-99 -135h-293 q8 -153 85 -232t221 -79q201 0 327 162l127 -144q-99 -106 -217 -158.5t-270 -52.5q-220 0 -352 130t-138 374h-163z" />
<glyph unicode="&#x2122;" horiz-adv-x="1691" d="M150 1300l18 107h598l-18 -107h-240l-119 -682h-119l119 682h-239zM702 618l138 789h178l112 -659q115 224 338 659h172l-137 -789h-112l114 652l-336 -652h-127l-110 652l-115 -652h-115z" />
<glyph unicode="&#xe000;" horiz-adv-x="1034" d="M0 0v1034h1034v-1034h-1034z" />
</font>
</defs>
</svg>
