<?xml version="1.0" encoding="utf-8"?>
<svg version="1.1" id="Capa_1" xmlns="http://www.w3.org/2000/svg"  x="0px" y="0px" width="401px" height="272.667px" viewBox="0 0 401 272.667">
<g>
	<path fill="#FFFFFF" d="M10.729,223.672l15.781-9.109l-1.943,13.336L9.98,236.32l-0.874-1.513L10.729,223.672z M0,225.903
		l8.724,15.105l28.936-16.704v-20.144L1.486,225.043L0,225.903z"/>
	<path fill="#FFFFFF" d="M381.322,21.927l-15.783,9.112l1.944-13.338l15.781-9.11L381.322,21.927z M351.592,39.091l-15.783,9.113
		l1.944-13.338l15.782-9.111L351.592,39.091z M321.864,56.255l-15.783,9.112l1.943-13.337l15.783-9.111L321.864,56.255z
		 M292.133,73.42l-15.782,9.111l1.943-13.337l15.782-9.111L292.133,73.42z M262.403,90.583l-15.781,9.112l1.943-13.337l15.781-9.111
		L262.403,90.583z M232.675,107.748l-15.782,9.112l1.943-13.338l15.782-9.111L232.675,107.748z M202.944,124.914l-15.782,9.11
		l1.943-13.336l15.782-9.111L202.944,124.914z M173.215,142.077l-15.783,9.111l1.943-13.336l15.781-9.111L173.215,142.077z
		 M143.485,159.242l-15.783,9.112l1.944-13.338l15.782-9.111L143.485,159.242z M113.756,176.406l-15.783,9.112l1.944-13.338
		l15.782-9.11L113.756,176.406z M391.278,0L88.615,174.741v20.143L398.515,15.966L400,15.107L391.278,0z"/>
	<path fill="#FFFFFF" d="M62.464,205.456c-2.997,0-5.424-2.429-5.424-5.424c0-2.996,2.427-5.425,5.424-5.425
		c2.996,0,5.424,2.429,5.424,5.425C67.889,203.027,65.46,205.456,62.464,205.456 M77.752,162.388h-29.23
		c-3.679,0-6.66,2.981-6.66,6.66v103.417h42.55V169.048C84.412,165.37,81.431,162.388,77.752,162.388"/>
</g>
</svg>
