<?xml version="1.0" encoding="UTF-8"?>
<!-- Generator: Adobe Illustrator 16.0.0, SVG Export Plug-In . SVG Version: 6.00 Build 0)  -->
<!DOCTYPE svg PUBLIC "-//W3C//DTD SVG 1.1//EN" "http://www.w3.org/Graphics/SVG/1.1/DTD/svg11.dtd">
<svg version="1.1" id="Layer_1" xmlns="http://www.w3.org/2000/svg" xmlns:xlink="http://www.w3.org/1999/xlink" x="0px" y="0px" width="275px" height="55px" viewBox="0 0 275 55" enable-background="new 0 0 275 55" xml:space="preserve">
<g>
	<defs>
		<rect id="SVGID_1_" x="-0.057" y="-0.182" width="268.789" height="55"/>
	</defs>
	<clipPath id="SVGID_2_">
		<use xlink:href="#SVGID_1_" overflow="visible"/>
	</clipPath>
	<rect x="54.938" y="-0.182" clip-path="url(#SVGID_2_)" fill="#FFFFFF" width="213.794" height="55"/>
	<g clip-path="url(#SVGID_2_)">
		<defs>
			<rect id="SVGID_3_" x="-0.057" y="-0.182" width="268.789" height="55"/>
		</defs>
		<clipPath id="SVGID_4_">
			<use xlink:href="#SVGID_3_" overflow="visible"/>
		</clipPath>
		<g opacity="0.4" clip-path="url(#SVGID_4_)">
			<g>
				<defs>
					<rect id="SVGID_5_" x="-4.949" y="-4.53" width="64.781" height="59.892"/>
				</defs>
				<clipPath id="SVGID_6_">
					<use xlink:href="#SVGID_5_" overflow="visible"/>
				</clipPath>
				<rect x="-0.057" y="-0.182" clip-path="url(#SVGID_6_)" fill="#FFFFFF" width="54.996" height="55"/>
			</g>
		</g>
		<path clip-path="url(#SVGID_4_)" fill="#FFFFFF" d="M32.422,25.477l1.961-1.861l1.991,1.861    C34.979,28.464,32.735,26.954,32.422,25.477 M34.958,31.352h1.016v0.923L34.958,31.352z M32.827,32.282l0.001-0.922h1.019    L32.827,32.282z M32.422,33.395l1.961-1.86l1.991,1.86C34.979,36.393,32.735,34.881,32.422,33.395 M33.87,40.022H21.014v-1.005    H33.87V40.022z M31.216,43.539l-0.376-0.342l-1.785,0.576l0.136-0.713l1.45-0.438l0.066-0.51l0.604,0.065l-0.066,0.676L31.55,43.1    L31.216,43.539z M31.179,45.85l-0.608,0.068l-0.067-0.446l-1.654-0.509l0.071-0.644l1.786,0.578l0.374-0.343l0.336,0.446    l-0.306,0.231L31.179,45.85z M27.79,44.209v0.378h-0.762v-0.381c-0.67-0.182-1.164-0.797-1.164-1.524    c0-0.871,0.694-1.574,1.563-1.574c0.859,0,1.562,0.703,1.562,1.574C28.99,43.422,28.478,44.044,27.79,44.209 M27.428,45.459    c-0.579,0-1.044-0.439-1.044-0.978l0.033-0.239l0.3,0.16v0.465h1.413v-0.451l0.305-0.162l0.03,0.228    C28.465,45.02,27.999,45.459,27.428,45.459 M24.241,45.488l-0.089,0.437l-0.604-0.104l0.101-0.606l-0.291-0.254l0.361-0.424    l0.351,0.361l1.818-0.472l0.034,0.646L24.241,45.488z M23.618,42.151l0.611-0.032l0.038,0.513l1.423,0.521l0.093,0.724    l-1.747-0.681l-0.393,0.316l-0.311-0.458l0.317-0.221L23.618,42.151z M18.504,33.395l1.958-1.86l1.999,1.86    C21.056,36.393,18.822,34.881,18.504,33.395 M19.927,31.352l-1.018,0.931l0.003-0.931H19.927z M22.056,31.352v0.923l-1.02-0.923    H22.056z M20.463,23.615l1.999,1.861c-1.405,2.987-3.64,1.478-3.957,0L20.463,23.615z M18.912,23.432l1.015,0.009l-1.018,0.913    L18.912,23.432z M22.056,23.424v0.925l-1.02-0.925H22.056z M24.877,37.525l5.124-2.051v3.067h-1.238V37.24h-0.569v1.302h-1.452    V37.24h-0.569v1.302h-1.296V37.525z M24.877,34.892l5.124-2.058v2.047l-5.124,2.049V34.892z M24.877,32.254l5.124-2.058v2.048    l-5.124,2.048V32.254z M24.877,29.614l5.124-2.054v2.041l-5.124,2.06V29.614z M24.877,26.691h5.124v0.271l-5.124,2.052V26.691z     M25.443,25.872h4.064l0.23,0.341h-4.595L25.443,25.872z M25.692,23.459h3.499v1.948h-1.467v-0.876h-0.666v0.876h-1.365V23.459z     M28.255,22.689h-1.629v-1.107h1.629V22.689z M27.439,20.135c0.456,0,0.827,0.368,0.827,0.827h-1.652    C26.614,20.503,26.988,20.135,27.439,20.135 M32.828,23.432l1.019,0.009l-1.021,0.913L32.828,23.432z M35.975,23.424v0.925    l-1.016-0.925H35.975z M38.495,35.862V18.701H16.383v17.162l-0.013,0.505c0,6.154,4.957,11.142,11.069,11.142    c6.115,0,11.072-4.987,11.072-11.142L38.495,35.862z"/>
	</g>
	<rect x="21.247" y="16.693" clip-path="url(#SVGID_2_)" fill="#FFFFFF" width="12.388" height="1.198"/>
	<g clip-path="url(#SVGID_2_)">
		<defs>
			<rect id="SVGID_7_" x="-0.057" y="-0.182" width="268.789" height="55"/>
		</defs>
		<clipPath id="SVGID_8_">
			<use xlink:href="#SVGID_7_" overflow="visible"/>
		</clipPath>
		<path clip-path="url(#SVGID_8_)" fill="#FFFFFF" d="M21.104,15.914l1.577-0.002l-0.706-1.034c-0.757-1.193-1-1.656-1-1.656    c-0.56-0.923-0.142-1.796,0.716-1.924c0.787-0.111,1.121,0.311,1.121,0.311c-0.644,0.951,0.077,2.61,0.077,2.61l0.716,1.702h1.489    l-0.32-0.629c-1.068-2.057-1.238-3.741,0.129-4.02c1.126-0.23,1.745,0.654,1.745,0.654v3.987h0.249h1.093h0.246v-3.987    c0,0,0.621-0.884,1.743-0.654c1.373,0.279,1.197,1.963,0.135,4.02l-0.324,0.629h1.488l0.718-1.702c0,0,0.724-1.659,0.074-2.61    c0,0,0.334-0.422,1.123-0.311c0.857,0.127,1.276,1.001,0.717,1.924c0,0-0.245,0.462-1.003,1.656l-0.707,1.034l1.577,0.002    l1.333-1.973c0,0,1.112-1.686-0.209-3.028c0,0-0.828-0.954-2.426-0.649c0,0-0.766,0.129-1.064,0.484c0,0-0.558-0.597-1.823-0.519    c0,0-1.301,0.04-2.143,0.879c-0.839-0.866-2.145-0.879-2.145-0.879c-1.263-0.078-1.82,0.519-1.82,0.519    c-0.301-0.355-1.065-0.484-1.065-0.484c-1.599-0.305-2.428,0.649-2.428,0.649c-1.318,1.342-0.207,3.028-0.207,3.028L21.104,15.914    z"/>
	</g>
	<polygon clip-path="url(#SVGID_2_)" fill="#FFFFFF" points="26.998,10.217 27.862,10.217 27.862,9.108 28.976,9.108 28.976,8.241    27.862,8.241 27.862,7.124 26.998,7.124 26.998,8.241 25.885,8.241 25.885,9.108 26.998,9.108  "/>
	<rect x="26.174" y="31.842" clip-path="url(#SVGID_2_)" fill="#FFFFFF" width="0.568" height="0.871"/>
	<rect x="28.207" y="31.76" clip-path="url(#SVGID_2_)" fill="#FFFFFF" width="0.567" height="0.87"/>
	<rect x="26.174" y="34.477" clip-path="url(#SVGID_2_)" fill="#FFFFFF" width="0.568" height="0.874"/>
	<rect x="28.226" y="34.395" clip-path="url(#SVGID_2_)" fill="#FFFFFF" width="0.567" height="0.881"/>
	<rect x="26.174" y="29.192" clip-path="url(#SVGID_2_)" fill="#FFFFFF" width="0.568" height="0.87"/>
	<rect x="28.207" y="29.125" clip-path="url(#SVGID_2_)" fill="#FFFFFF" width="0.567" height="0.871"/>
	<g clip-path="url(#SVGID_2_)">
		<defs>
			<rect id="SVGID_9_" x="-0.057" y="-0.182" width="268.789" height="55"/>
		</defs>
		<clipPath id="SVGID_10_">
			<use xlink:href="#SVGID_9_" overflow="visible"/>
		</clipPath>
		<path clip-path="url(#SVGID_10_)" fill="#FFFFFF" d="M28.115,42.636c-0.255,0-0.459,0.198-0.459,0.457    c0,0.255,0.204,0.458,0.459,0.458c0.245,0,0.452-0.203,0.452-0.458C28.567,42.834,28.36,42.636,28.115,42.636"/>
		<path clip-path="url(#SVGID_10_)" fill="#FFFFFF" d="M26.735,42.622c-0.249,0-0.45,0.21-0.45,0.463s0.202,0.457,0.45,0.457    c0.255,0,0.457-0.204,0.457-0.457S26.99,42.622,26.735,42.622"/>
	</g>
	<polygon clip-path="url(#SVGID_2_)" fill="#FFFFFF" points="27.291,43.771 27.157,44 27.428,44 27.69,44 27.556,43.771    27.428,43.539  "/>
	<g clip-path="url(#SVGID_2_)">
		<defs>
			<rect id="SVGID_11_" x="-0.057" y="-0.182" width="268.789" height="55"/>
		</defs>
		<clipPath id="SVGID_12_">
			<use xlink:href="#SVGID_11_" overflow="visible"/>
		</clipPath>
		<path clip-path="url(#SVGID_12_)" fill="#87DADF" d="M157.046,35.853c0-0.789,0.883-0.889,1.479-0.889h0.575    c0,0.401-0.055,0.773-0.273,1.062c-0.207,0.278-0.528,0.459-0.934,0.459C157.413,36.484,157.046,36.293,157.046,35.853     M155.772,35.932c0,0.981,0.884,1.529,1.79,1.529c0.602,0,1.273-0.314,1.586-0.889h0.016c0.016,0.164,0.016,0.504,0.062,0.771    h1.169c-0.031-0.399-0.05-0.757-0.06-1.147c-0.012-0.38-0.021-0.772-0.021-1.297v-0.653c0-1.523-0.644-2.175-2.201-2.175    c-0.568,0-1.261,0.151-1.781,0.394l0.044,1.146c0.443-0.336,1.01-0.555,1.575-0.555c0.783,0,1.151,0.273,1.151,1.105h-0.734    c-0.552,0-1.213,0.048-1.712,0.303C156.147,34.715,155.772,35.162,155.772,35.932 M128.028,33.972c0,2.36,1.556,3.489,3.801,3.489    c0.532,0,1.077-0.1,1.58-0.218l-0.056-1.169c-0.326,0.171-0.978,0.29-1.524,0.29c-1.474,0-2.356-1.073-2.356-2.491    c0-1.433,0.9-2.531,2.329-2.531c0.497,0,0.976,0.069,1.506,0.37l0.096-1.177c-0.508-0.201-1.114-0.293-1.575-0.293    C129.473,30.242,128.028,31.584,128.028,33.972 M103.999,29.841h-1.328v7.502h1.328V29.841z M101.3,29.841h-1.334v7.502h1.334    V29.841z M79.154,34.641c0-0.768,0.417-1.528,1.278-1.528c0.875,0,1.292,0.738,1.292,1.528c0,0.86-0.27,1.782-1.292,1.782    C79.422,36.423,79.154,35.491,79.154,34.641 M77.762,34.801c0,1.482,0.982,2.66,2.669,2.66c1.703,0,2.687-1.178,2.687-2.66    c0-1.697-1.167-2.73-2.687-2.73C78.923,32.07,77.762,33.104,77.762,34.801 M71.855,33.972c0,2.36,1.562,3.489,3.807,3.489    c0.53,0,1.069-0.1,1.579-0.218l-0.061-1.169c-0.326,0.171-0.972,0.29-1.518,0.29c-1.48,0-2.355-1.073-2.355-2.491    c0-1.433,0.897-2.531,2.328-2.531c0.492,0,0.972,0.069,1.498,0.37l0.098-1.177c-0.508-0.201-1.114-0.293-1.569-0.293    C73.307,30.242,71.855,31.584,71.855,33.972 M75.521,23.451h-2.025l1.001-2.879h0.024L75.521,23.451z M78.044,26.152l-2.721-6.982    h-1.568l-2.704,6.982h1.443l0.602-1.6h2.811l0.597,1.6H78.044z M81.399,26.112l1.918-5.113h-1.354l-1.23,3.765h-0.015    l-1.236-3.765h-1.47l1.954,5.409c0,0.555-0.325,0.923-0.862,0.923c-0.327,0-0.515-0.033-0.682-0.086l-0.092,0.988    c0.312,0.092,0.626,0.141,0.945,0.141C80.668,28.374,80.972,27.251,81.399,26.112 M87.492,26.152h1.265v-5.153h-1.33v2.523    c0,0.656-0.208,1.711-1.176,1.711c-0.854,0-0.864-0.852-0.864-1.48v-2.754h-1.327v3.251c0,1.165,0.524,2.021,1.737,2.021    c0.695,0,1.268-0.323,1.678-0.817h0.016V26.152z M87.471,37.343H88.8v-3.251c0-1.158-0.525-2.021-1.739-2.021    c-0.694,0-1.263,0.233-1.677,0.818h-0.018v-0.696H84.1v5.15h1.332v-2.521c0-0.661,0.207-1.71,1.175-1.71    c0.855,0,0.864,0.852,0.864,1.48V37.343z M89.787,34.739c0,1.569,0.842,2.722,2.525,2.722c0.544,0,0.945-0.049,1.327-0.17    l-0.056-1.107c-0.229,0.1-0.651,0.239-1.025,0.239c-0.938,0-1.384-0.731-1.384-1.684c0-0.965,0.53-1.627,1.356-1.627    c0.401,0,0.66,0.081,0.899,0.187l0.122-1.055c-0.367-0.114-0.756-0.174-1.294-0.174C90.659,32.07,89.787,33.253,89.787,34.739     M93.436,26.152h1.336V22.9c0-1.159-0.53-2.018-1.74-2.018c-0.699,0-1.26,0.23-1.677,0.821h-0.021v-0.705h-1.267v5.153H91.4    v-2.518c0-0.662,0.206-1.712,1.175-1.712c0.85,0,0.86,0.847,0.86,1.479V26.152z M96.593,33.056c0.747,0,1.047,0.555,1.084,1.204    h-2.266C95.471,33.572,95.848,33.056,96.593,33.056 M96.51,32.07c-1.587,0-2.366,1.229-2.366,2.72    c0,1.694,0.981,2.671,2.669,2.671c0.718,0,1.267-0.137,1.757-0.409v-1.086c-0.494,0.279-1.053,0.519-1.702,0.519    c-0.821,0-1.397-0.471-1.457-1.3h3.538C98.95,33.382,98.409,32.07,96.51,32.07 M98.142,26.271c0.393,0,0.703-0.038,0.983-0.119    l-0.044-1.06c-0.136,0.091-0.367,0.141-0.605,0.141c-0.503,0-0.624-0.41-0.624-0.852v-2.4h1.182v-0.982h-1.182v-1.458    l-1.334,0.433v1.025h-0.982v0.982h0.982v2.622C96.517,25.623,97.097,26.271,98.142,26.271 M102.888,23.771    c0,0.405-0.058,0.768-0.279,1.062c-0.206,0.28-0.53,0.461-0.933,0.461c-0.474,0-0.839-0.188-0.839-0.633    c0-0.787,0.88-0.89,1.473-0.89H102.888z M103.01,26.152h1.167c-0.028-0.401-0.049-0.76-0.054-1.146    c-0.014-0.384-0.022-0.77-0.022-1.295v-0.657c0-1.523-0.641-2.171-2.205-2.171c-0.57,0-1.264,0.148-1.779,0.389l0.04,1.152    c0.451-0.343,1.01-0.561,1.58-0.561c0.785,0,1.15,0.279,1.15,1.109h-0.739c-0.548,0-1.206,0.048-1.713,0.301    c-0.507,0.249-0.874,0.697-0.874,1.47c0,0.978,0.882,1.528,1.788,1.528c0.608,0,1.273-0.323,1.58-0.893h0.019    C102.959,25.547,102.959,25.885,103.01,26.152 M106.404,34.641c0-0.768,0.417-1.528,1.282-1.528c0.872,0,1.289,0.738,1.289,1.528    c0,0.86-0.269,1.782-1.289,1.782C106.67,36.423,106.404,35.491,106.404,34.641 M105.014,34.801c0,1.482,0.982,2.66,2.672,2.66    c1.701,0,2.683-1.178,2.683-2.66c0-1.697-1.165-2.73-2.683-2.73C106.171,32.07,105.014,33.104,105.014,34.801 M111.516,26.152    h1.33V22.9c0-1.146-0.355-2.018-1.621-2.018c-0.622,0-1.288,0.288-1.595,0.908c-0.286-0.641-0.797-0.908-1.513-0.908    c-0.497,0-1.104,0.207-1.516,0.837h-0.027v-0.721h-1.237v5.153h1.325v-2.5c0-0.67,0.117-1.729,1.001-1.729    c0.761,0,0.761,0.681,0.761,1.157v3.072h1.331v-2.5c0-0.67,0.113-1.729,0.997-1.729c0.764,0,0.764,0.681,0.764,1.157V26.152z     M114.166,20.064h1.334v-1.282h-1.334V20.064z M114.166,26.152h1.334v-5.153h-1.334V26.152z M117.417,34.753    c0,0.729-0.288,1.67-1.174,1.67c-0.872,0-1.122-0.959-1.122-1.67c0-0.69,0.238-1.641,1.099-1.641    C117.079,33.112,117.417,34.033,117.417,34.753 M117.407,32.79c-0.398-0.486-0.87-0.72-1.531-0.72    c-1.573,0-2.147,1.259-2.147,2.683c0,1.408,0.575,2.708,2.147,2.708c0.625,0,1.17-0.201,1.568-0.699h0.021v0.581h1.291v-7.502    h-1.333v2.949H117.407z M117.784,23.068c0.061-0.685,0.437-1.205,1.18-1.205c0.747,0,1.042,0.561,1.081,1.205H117.784z     M117.784,23.992h3.534c0-1.797-0.535-3.109-2.437-3.109c-1.585,0-2.371,1.23-2.371,2.721c0,1.689,0.982,2.668,2.671,2.668    c0.718,0,1.272-0.141,1.758-0.408v-1.091c-0.497,0.282-1.054,0.521-1.696,0.521C118.417,25.293,117.845,24.823,117.784,23.992     M122.996,34.964c0,0.401-0.06,0.773-0.277,1.062c-0.21,0.278-0.526,0.459-0.935,0.459c-0.475,0-0.845-0.191-0.845-0.632    c0-0.789,0.879-0.889,1.483-0.889H122.996z M122,32.07c-0.56,0-1.258,0.151-1.773,0.394l0.036,1.146    c0.45-0.336,1.011-0.555,1.581-0.555c0.778,0,1.152,0.273,1.152,1.105h-0.732c-0.56,0-1.218,0.048-1.721,0.303    c-0.503,0.251-0.874,0.698-0.874,1.468c0,0.981,0.884,1.529,1.786,1.529c0.607,0,1.274-0.314,1.58-0.889h0.021    c0.011,0.164,0.011,0.504,0.06,0.771h1.171c-0.029-0.399-0.05-0.757-0.06-1.147c-0.009-0.38-0.018-0.772-0.018-1.297v-0.653    C124.208,32.722,123.559,32.07,122,32.07 M125.671,26.152h1.333V22.9c0-1.159-0.531-2.018-1.735-2.018    c-0.7,0-1.268,0.23-1.683,0.821h-0.018v-0.705h-1.264v5.153h1.33v-2.518c0-0.662,0.215-1.712,1.174-1.712    c0.852,0,0.862,0.847,0.862,1.479V26.152z M130.374,26.271c0.398,0,0.706-0.038,0.987-0.119l-0.043-1.06    c-0.136,0.091-0.366,0.141-0.606,0.141c-0.502,0-0.624-0.41-0.624-0.852v-2.4h1.18v-0.982h-1.18v-1.458l-1.335,0.433v1.025h-0.982    v0.982h0.982v2.622C128.752,25.623,129.326,26.271,130.374,26.271 M135.759,23.451c0,0.86-0.271,1.782-1.289,1.782    c-1.011,0-1.284-0.933-1.284-1.782c0-0.769,0.419-1.528,1.284-1.528C135.345,21.923,135.759,22.658,135.759,23.451     M137.153,23.612c0-1.701-1.165-2.729-2.683-2.729c-1.509,0-2.672,1.028-2.672,2.729c0,1.48,0.981,2.659,2.672,2.659    C136.17,26.271,137.153,25.093,137.153,23.612 M137.895,34.641c0,0.86-0.27,1.782-1.295,1.782c-1.014,0-1.278-0.932-1.278-1.782    c0-0.768,0.414-1.528,1.278-1.528C137.474,33.112,137.895,33.851,137.895,34.641 M139.291,34.801c0-1.697-1.165-2.73-2.69-2.73    c-1.506,0-2.673,1.033-2.673,2.73c0,1.482,0.985,2.66,2.673,2.66C138.3,37.461,139.291,36.283,139.291,34.801 M141.484,32.192    h-1.186v5.15h1.333v-1.888c0-0.74,0-2.103,1.088-2.103c0.235,0,0.475,0.039,0.591,0.111v-1.349    c-0.137-0.045-0.281-0.045-0.404-0.045c-0.796,0-1.347,0.812-1.399,1.295h-0.022V32.192z M144.195,23.562    c0,0.731-0.286,1.672-1.168,1.672c-0.876,0-1.127-0.962-1.127-1.672c0-0.688,0.243-1.639,1.103-1.639    S144.195,22.841,144.195,23.562 M144.242,26.152h1.298v-7.498h-1.328v2.947h-0.022c-0.397-0.488-0.864-0.719-1.533-0.719    c-1.569,0-2.143,1.26-2.143,2.679c0,1.409,0.573,2.71,2.143,2.71c0.626,0,1.176-0.201,1.571-0.696h0.015V26.152z M146.278,36.423    c-0.858,0-0.871-0.852-0.871-1.481v-2.749h-1.326v3.249c0,1.163,0.522,2.02,1.738,2.02c0.692,0,1.266-0.314,1.677-0.819h0.015    v0.697h1.261v-5.146h-1.324v2.522C147.447,35.374,147.238,36.423,146.278,36.423 M147.795,23.068    c0.062-0.685,0.438-1.205,1.187-1.205c0.736,0,1.035,0.561,1.078,1.205H147.795z M147.795,23.992h3.535    c0-1.797-0.535-3.109-2.431-3.109c-1.589,0-2.377,1.23-2.377,2.721c0,1.689,0.981,2.668,2.67,2.668    c0.717,0,1.274-0.141,1.761-0.408v-1.091c-0.5,0.282-1.053,0.521-1.699,0.521C148.429,25.293,147.858,24.823,147.795,23.992     M154.206,30.031h-0.537c0,0.267-0.143,0.493-0.443,0.493c-0.263,0-0.466-0.123-0.723-0.227c-0.261-0.097-0.517-0.195-0.803-0.195    c-0.586,0-1.016,0.609-1.016,1.209h0.538c0-0.188,0.135-0.44,0.485-0.44c0.189,0,0.426,0.093,0.679,0.191    c0.253,0.1,0.486,0.181,0.856,0.181C153.857,31.243,154.206,30.705,154.206,30.031 M154.79,34.092c0-1.158-0.53-2.021-1.743-2.021    c-0.689,0-1.264,0.233-1.673,0.818h-0.022v-0.696h-1.261v5.15h1.334v-2.521c0-0.661,0.206-1.71,1.168-1.71    c0.851,0,0.862,0.852,0.862,1.48v2.75h1.335V34.092z M158.869,23.475h-2.025l1.007-2.88h0.017L158.869,23.475z M159.852,26.182    h1.539l-2.723-6.986h-1.567l-2.698,6.986h1.435l0.605-1.605h2.818L159.852,26.182z M165.311,22.709    c0-1.433,0.891-2.531,2.324-2.531c0.495,0,0.976,0.066,1.5,0.366l0.101-1.178c-0.509-0.196-1.116-0.292-1.576-0.292    c-2.349,0-3.794,1.341-3.794,3.733c0,2.36,1.548,3.486,3.794,3.486c0.532,0,1.077-0.099,1.588-0.217l-0.06-1.17    c-0.331,0.171-0.974,0.288-1.528,0.288C166.185,25.195,165.311,24.129,165.311,22.709 M173.728,23.475    c0,0.864-0.271,1.784-1.297,1.784c-1.011,0-1.276-0.933-1.276-1.784c0-0.766,0.419-1.528,1.276-1.528    C173.308,21.946,173.728,22.687,173.728,23.475 M175.119,23.636c0-1.695-1.163-2.729-2.688-2.729c-1.508,0-2.67,1.034-2.67,2.729    c0,1.484,0.982,2.658,2.67,2.658C174.135,26.294,175.119,25.12,175.119,23.636 M178.548,22.187c0.236,0,0.473,0.04,0.596,0.108    v-1.35c-0.139-0.039-0.276-0.039-0.408-0.039c-0.799,0-1.336,0.813-1.404,1.291h-0.015v-1.168h-1.181v5.152h1.327v-1.893    C177.463,23.546,177.463,22.187,178.548,22.187 M183.35,26.182h1.262v-5.152h-1.333v2.517c0,0.663-0.211,1.713-1.177,1.713    c-0.854,0-0.862-0.849-0.862-1.486v-2.743h-1.334v3.249c0,1.162,0.53,2.016,1.739,2.016c0.696,0,1.275-0.317,1.681-0.817h0.024    V26.182z M190.038,18.87h-0.543c0,0.265-0.137,0.49-0.43,0.49c-0.275,0-0.472-0.126-0.729-0.225c-0.262-0.099-0.513-0.2-0.807-0.2    c-0.584,0-1.011,0.609-1.011,1.214h0.536c0-0.193,0.141-0.445,0.489-0.445c0.188,0,0.426,0.092,0.674,0.194    c0.257,0.099,0.485,0.182,0.85,0.182C189.686,20.08,190.038,19.537,190.038,18.87 M189.289,26.182h1.332V22.93    c0-1.162-0.524-2.023-1.739-2.023c-0.697,0-1.261,0.229-1.682,0.82h-0.015v-0.697h-1.265v5.152h1.329v-2.522    c0-0.658,0.215-1.713,1.176-1.713c0.856,0,0.863,0.848,0.863,1.478V26.182z M194.936,23.801c0,0.395-0.064,0.767-0.277,1.056    c-0.216,0.281-0.53,0.46-0.936,0.46c-0.475,0-0.845-0.189-0.845-0.629c0-0.79,0.882-0.887,1.48-0.887H194.936z M195.049,26.182    h1.176c-0.026-0.408-0.047-0.767-0.06-1.152c-0.011-0.384-0.015-0.771-0.015-1.294v-0.656c0-1.521-0.649-2.173-2.214-2.173    c-0.562,0-1.262,0.146-1.778,0.39l0.041,1.151c0.45-0.342,1.016-0.563,1.581-0.563c0.784,0,1.155,0.284,1.155,1.117H194.2    c-0.561,0-1.212,0.047-1.72,0.299c-0.511,0.246-0.869,0.696-0.869,1.47c0,0.979,0.879,1.524,1.785,1.524    c0.605,0,1.267-0.317,1.576-0.887h0.022C195.003,25.571,195.003,25.908,195.049,26.182 M247.168,12.255    c1.101-1.481,1.847-3.189,2.238-5.131h-2.47c-0.381,0.956-0.732,1.615-1.062,1.972c-0.499,0.56-1.195,0.855-2.076,0.855    c-0.364,0-0.722-0.061-1.087-0.175c-0.363-0.121-0.771-0.272-1.227-0.483l-2.387-1.082c-0.609-0.283-1.291-0.54-2.044-0.752    c-0.752-0.221-1.45-0.335-2.082-0.335c-2.339,0-4.159,1.032-5.432,3.073c-0.677,1.076-1.197,2.498-1.58,4.275h2.438    c0.224-0.792,0.482-1.38,0.785-1.77c0.521-0.72,1.252-1.075,2.214-1.075c0.353,0,0.675,0.052,0.993,0.174    c0.31,0.114,1.223,0.487,2.74,1.136l1.718,0.736c0.565,0.242,1.156,0.44,1.742,0.583c0.592,0.141,1.189,0.216,1.771,0.216    C244.465,14.472,246.074,13.729,247.168,12.255 M246.133,28.582l5.896-4.566c-2.502-3.466-6.215-5.889-11.995-5.889    c-8.562,0-14.898,6.449-14.898,14.689v0.081c0,8.434,6.503,14.611,14.577,14.611c6.267,0,9.853-2.713,12.514-6.38l-5.89-4.188    c-1.699,2.052-3.441,3.436-6.384,3.436c-3.954,0-6.743-3.318-6.743-7.56v-0.075c0-4.118,2.789-7.475,6.743-7.475    C242.664,25.267,244.516,26.562,246.133,28.582"/>
	</g>
</g>
</svg>