<?xml version="1.0" encoding="UTF-8"?>
<!-- Generator: Adobe Illustrator 16.0.0, SVG Export Plug-In . SVG Version: 6.00 Build 0)  -->
<!DOCTYPE svg PUBLIC "-//W3C//DTD SVG 1.1//EN" "http://www.w3.org/Graphics/SVG/1.1/DTD/svg11.dtd">
<svg version="1.1" id="Layer_1" xmlns="http://www.w3.org/2000/svg" xmlns:xlink="http://www.w3.org/1999/xlink" x="0px" y="0px" width="275px" height="55px" viewBox="0 0 275 55" enable-background="new 0 0 275 55" xml:space="preserve">
<g>
	<path fill="#FFFFFF" d="M76.149,41.231h-8.795V30.609c0-0.319,0.238-0.479,0.742-0.479v-0.481H63.54v0.481   c0.557,0,0.795,0.159,0.795,0.479v12.117c0,0.32-0.238,0.479-0.795,0.479v0.48h12.61c0.529,0,0.901,0.055,0.901,0.589h0.476v-3.737   H77.05C77.05,40.965,76.679,41.231,76.149,41.231z"/>
	<path fill="#FFFFFF" d="M91.168,30.13c0.557,0,0.794,0.161,0.794,0.479v8.009c0,2.241-1.509,2.934-4.211,2.934   c-2.703,0-4.211-0.692-4.211-2.934v-8.009c0-0.318,0.238-0.479,0.582-0.479V29.65h-4.344v0.479c0.503,0,0.742,0.161,0.742,0.479   v7.875c0,4.19,2.437,5.363,7.125,5.363c4.689,0,7.126-1.173,7.126-5.363v-7.875c0-0.318,0.238-0.479,0.636-0.479V29.65h-4.238   V30.13z"/>
	<path fill="#FFFFFF" d="M99.354,30.13c0.45,0,0.689,0.161,0.689,0.479v12.116c0,0.321-0.239,0.481-0.689,0.481v0.48h4.398v-0.48   c-0.451,0-0.689-0.16-0.689-0.481V30.609c0-0.318,0.239-0.479,0.689-0.479V29.65h-4.398V30.13z"/>
	<path fill="#FFFFFF" d="M111.002,33.414c0-1.176,1.934-1.629,3.498-1.629c2.039,0,4.264,0.881,4.822,1.707   c0.105,0.161,0.185,0.375,0.211,0.614l0.266,0.106l1.827-3.334l-0.317-0.214c-0.106,0.107-0.265,0.158-0.532,0.158   c-0.9,0-2.675-1.333-6.356-1.333c-4.398,0-6.437,2.214-6.437,4.43c0,6.538,10.754,2.455,10.754,5.71   c0,1.629-3.099,1.922-4.265,1.922c-1.668,0-4.29-0.825-4.82-1.708c-0.08-0.132-0.107-0.266-0.107-0.426l-0.264-0.134l-1.457,3.228   l0.372,0.214c0.077-0.106,0.211-0.214,0.344-0.214c0.793,0,1.907,1.336,5.985,1.336c2.861,0,7.232-0.907,7.232-4.59   C121.757,32.853,111.002,36.803,111.002,33.414z"/>
	<path fill="#FFFFFF" d="M136.753,33.414c0-1.176,1.935-1.629,3.498-1.629c2.039,0,4.265,0.881,4.819,1.707   c0.107,0.161,0.187,0.375,0.212,0.614l0.267,0.106l1.826-3.334l-0.317-0.214c-0.106,0.107-0.264,0.158-0.531,0.158   c-0.899,0-2.674-1.333-6.355-1.333c-4.396,0-6.437,2.214-6.437,4.43c0,6.538,10.754,2.455,10.754,5.71   c0,1.629-3.098,1.922-4.266,1.922c-1.669,0-4.291-0.825-4.82-1.708c-0.08-0.132-0.104-0.266-0.104-0.426l-0.267-0.134l-1.457,3.228   l0.371,0.214c0.08-0.106,0.212-0.214,0.345-0.214c0.796,0,1.908,1.336,5.988,1.336c2.858,0,7.229-0.907,7.229-4.59   C147.508,32.853,136.753,36.803,136.753,33.414z"/>
	<path fill="#FFFFFF" d="M164.016,41.231h-8.848v-3.683h5.191c0.688,0,1.112,0.159,1.112,0.962h0.478v-4.164h-0.478   c0,0.801-0.425,0.907-1.112,0.907h-5.191v-3.309h8.582c0.742,0,1.006,0.214,1.006,0.588h0.479V29.01h-0.479   c0,0.373-0.264,0.64-1.006,0.64h-12.078v0.481c0.236,0,0.477,0.159,0.477,0.479v12.117c0,0.32-0.24,0.479-0.477,0.479v0.48h12.344   c0.53,0,0.9,0.055,0.9,0.589h0.478v-3.737h-0.478C164.917,40.965,164.546,41.231,164.016,41.231z"/>
	<path fill="#FFFFFF" d="M177.371,29.49c-3.867,0-8.556,2.295-8.556,7.18c0,4.882,4.688,7.178,8.556,7.178   c3.869,0,8.557-2.296,8.557-7.178C185.927,31.785,181.24,29.49,177.371,29.49z M177.371,41.393c-2.702,0-5.642-1.708-5.642-4.723   c0-3.017,2.939-4.725,5.642-4.725s5.644,1.708,5.644,4.725C183.014,39.685,180.073,41.393,177.371,41.393z"/>
	<path fill="#FFFFFF" d="M203.755,42.512l-5.51-10.859c-0.237-0.454-0.371-0.722-0.371-0.987c0-0.375,0.319-0.481,0.557-0.534   v-0.481h-4.477v0.481c0.266,0.053,0.582,0.186,0.582,0.534c0,0.266-0.236,0.693-0.477,1.146l-4.9,10.383   c-0.238,0.506-0.477,0.961-0.927,1.013v0.48h3.762v-0.48c-0.265,0-0.504-0.131-0.504-0.293c0-0.159,0.106-0.452,0.267-0.801   l0.954-1.896h6.461l1.008,1.977c0.159,0.293,0.213,0.533,0.213,0.692c0,0.214-0.294,0.32-0.425,0.32v0.48h4.662v-0.48   C204.232,43.047,203.94,42.886,203.755,42.512z M193.503,38.242l2.49-4.962l2.226,4.962H193.503z"/>
	<path fill="#FFFFFF" d="M219.521,30.13c0.45,0,0.689,0.161,0.689,0.479v8.489l-7.603-7.954c-0.373-0.372-0.531-0.586-0.531-0.748   c0-0.187,0.106-0.267,0.214-0.267V29.65h-4.532v0.479c0.266,0,0.505,0.161,0.505,0.479v12.116c0,0.321-0.239,0.481-0.505,0.481   v0.48h3.921v-0.48c-0.369,0-0.608-0.16-0.608-0.481v-8.858l8.081,8.486c0.289,0.293,0.421,0.479,0.421,0.614   c0,0.159-0.156,0.239-0.344,0.239v0.48h4.292v-0.48c-0.266,0-0.502-0.16-0.502-0.481V30.609c0-0.318,0.236-0.479,0.502-0.479V29.65   h-4V30.13z"/>
	<path fill="#FFFFFF" d="M241.483,40.538c0,0.427-0.372,0.693-0.9,0.693h-8.849v-3.683h5.193c0.688,0,1.112,0.159,1.112,0.962h0.477   v-4.164h-0.477c0,0.801-0.424,0.907-1.112,0.907h-5.193v-3.309h8.583c0.741,0,1.006,0.214,1.006,0.588h0.477V29.01h-0.477   c0,0.373-0.265,0.64-1.006,0.64h-12.079v0.481c0.237,0,0.476,0.16,0.476,0.479v12.117c0,0.32-0.238,0.479-0.476,0.479v0.48h12.345   c0.528,0,0.9,0.055,0.9,0.589h0.476v-3.737H241.483z"/>
	<path fill="#FFFFFF" d="M65.881,25.582c-0.291,0-0.513-0.104-0.513-0.31v-3.345h3.354c0.445,0,0.718,0.104,0.718,0.621h0.308   v-2.482H69.44c0,0.311-0.273,0.379-0.718,0.379h-3.354v-2.137h5.543c0.479,0,0.649,0.139,0.649,0.379h0.309v-2.274h-0.309   c0,0.241-0.17,0.414-0.649,0.414h-7.938v0.31c0.292,0,0.445,0.103,0.445,0.309v7.826c0,0.205-0.154,0.31-0.445,0.31v0.31h2.908   V25.582z"/>
	<path fill="#FFFFFF" d="M83.109,22.531v-5.084c0-0.207,0.154-0.309,0.411-0.309v-0.311h-2.737v0.311   c0.36,0,0.513,0.103,0.513,0.309v5.17c0,1.448-0.976,1.896-2.721,1.896c-1.744,0-2.719-0.447-2.719-1.896v-5.17   c0-0.207,0.153-0.309,0.375-0.309v-0.311h-2.805v0.311c0.325,0,0.479,0.103,0.479,0.309v5.084c0,2.706,1.573,3.464,4.602,3.464   S83.109,25.237,83.109,22.531z"/>
	<path fill="#FFFFFF" d="M93.803,17.137c0.292,0,0.445,0.103,0.445,0.31v5.481l-4.91-5.135c-0.24-0.244-0.342-0.38-0.342-0.483   c0-0.121,0.068-0.172,0.136-0.172v-0.311h-2.925v0.311c0.171,0,0.325,0.103,0.325,0.31v7.826c0,0.206-0.154,0.31-0.325,0.31v0.31   h2.532v-0.31c-0.239,0-0.394-0.104-0.394-0.31V19.55l5.218,5.479c0.188,0.191,0.273,0.311,0.273,0.397   c0,0.104-0.103,0.155-0.222,0.155v0.31h2.771v-0.31c-0.171,0-0.326-0.104-0.326-0.31v-7.826c0-0.207,0.154-0.31,0.326-0.31v-0.311   h-2.584V17.137z"/>
	<path fill="#FFFFFF" d="M109.355,21.359c0-3.085-1.949-4.533-4.447-4.533H99.23v0.311c0.239,0,0.392,0.103,0.392,0.309v7.826   c0,0.205-0.153,0.31-0.392,0.31v0.31h5.678C107.407,25.892,109.355,24.445,109.355,21.359z M104.225,24.408h-2.652v-6.099h2.652   c2.154,0,3.182,0.654,3.182,3.05C107.407,23.755,106.379,24.408,104.225,24.408z"/>
	<path fill="#FFFFFF" d="M113.105,25.582c-0.172,0-0.325-0.087-0.325-0.189c0-0.104,0.068-0.292,0.17-0.517l0.616-1.225h4.175   l0.649,1.276c0.103,0.188,0.138,0.345,0.138,0.446c0,0.139-0.188,0.208-0.274,0.208v0.31h3.012v-0.31   c-0.256-0.104-0.445-0.208-0.565-0.448l-3.558-7.015c-0.155-0.292-0.24-0.464-0.24-0.637c0-0.242,0.206-0.311,0.358-0.345v-0.31   h-2.89v0.31c0.172,0.034,0.376,0.121,0.376,0.345c0,0.172-0.154,0.447-0.309,0.74l-3.165,6.705   c-0.152,0.326-0.307,0.619-0.599,0.654v0.31h2.431V25.582z M115.688,19.171l1.437,3.206h-3.047L115.688,19.171z"/>
	<path fill="#FFFFFF" d="M131.466,22.824c0.034,0.051,0.067,0.139,0.067,0.207c0,0.638-1.966,1.377-3.403,1.377   c-1.935,0-3.593-1.118-3.593-3.1c0-1.983,1.658-3.104,3.593-3.104c1.129,0,2.89,0.586,2.994,1.104   c0.016,0.086,0.033,0.154,0.033,0.224l0.171,0.121l1.335-2.085l-0.257-0.208c-0.051,0.069-0.136,0.224-0.239,0.224   c-0.085,0-0.513-0.224-1.215-0.43c-0.702-0.207-1.676-0.431-2.822-0.431c-2.893,0-5.474,1.585-5.474,4.636   c0,3.049,2.582,4.636,5.474,4.636c2.206,0,4.123-1.361,4.379-1.361c0.068,0,0.119,0.019,0.188,0.019l0.137-0.14l-1.129-1.827   L131.466,22.824z"/>
	<path fill="#FFFFFF" d="M138.346,25.582c-0.292,0-0.446-0.104-0.446-0.31v-7.826c0-0.206,0.154-0.309,0.446-0.309v-0.31h-2.842   v0.31c0.292,0,0.445,0.103,0.445,0.309v7.826c0,0.205-0.153,0.31-0.445,0.31v0.31h2.842V25.582z"/>
	<polygon fill="#FFFFFF" points="149.016,13.776 146.706,13.776 145.151,16.258 146.587,16.258  "/>
	<path fill="#FFFFFF" d="M146.433,16.724c-2.497,0-5.524,1.481-5.524,4.636c0,3.153,3.027,4.636,5.524,4.636   c2.498,0,5.525-1.482,5.525-4.636C151.958,18.205,148.931,16.724,146.433,16.724z M146.433,24.409c-1.745,0-3.644-1.103-3.644-3.05   s1.898-3.05,3.644-3.05s3.644,1.103,3.644,3.05S148.178,24.409,146.433,24.409z"/>
	<path fill="#FFFFFF" d="M157.178,25.582c-0.239,0-0.393-0.104-0.393-0.31V19.55l5.218,5.479c0.188,0.191,0.272,0.311,0.272,0.397   c0,0.104-0.102,0.155-0.222,0.155v0.31h2.771v-0.31c-0.171,0-0.325-0.104-0.325-0.31v-7.826c0-0.206,0.154-0.309,0.325-0.309v-0.31   h-2.583v0.31c0.29,0,0.445,0.103,0.445,0.309v5.481l-4.909-5.135c-0.24-0.243-0.342-0.38-0.342-0.483   c0-0.121,0.067-0.172,0.138-0.172v-0.31h-2.927v0.31c0.172,0,0.323,0.103,0.323,0.309v7.826c0,0.205-0.151,0.31-0.323,0.31v0.31   h2.531V25.582z"/>
	<circle fill="#FFFFFF" cx="9.818" cy="27.554" r="2.854"/>
	<path fill="#FFFFFF" d="M27.5,0C12.312,0,0,12.312,0,27.502C0,42.689,12.312,55,27.5,55C42.688,55,55,42.689,55,27.502   C55,12.312,42.688,0,27.5,0z M48.505,21.608l-6.324,5.866l6.389,5.799l-0.004,0.771l-8.639-5.415H28.896   c-0.028,3.531-0.139,7.093-0.327,10.913l8.814,7.549l0.004,0.693l-8.964-5.479c-0.165,2.913-0.366,5.992-0.607,9.353l-0.765,0.012   c-0.257-3.339-0.47-6.394-0.641-9.284l-8.832,5.432l-0.013-0.726l8.694-7.439c-0.199-3.867-0.312-7.464-0.337-11.022H14.238   c-0.486,1.997-2.273,3.486-4.42,3.486c-2.519,0-4.561-2.043-4.561-4.562c0-2.518,2.042-4.56,4.561-4.56   c2.139,0,3.921,1.479,4.414,3.466h11.686c0.006-1.923,0.039-3.858,0.098-5.834c-4.526-0.245-9.56-2.359-15.186-7.226v-0.811   c5.872,3.905,10.797,5.607,15.267,5.684c0.086-2.167,0.203-4.412,0.352-6.772c-1.406-0.355-2.968-1.332-4.765-3.174l-0.015-0.729   c1.822,1.458,3.421,2.144,4.88,2.317c0.141-2.082,0.304-4.257,0.493-6.567h0.764c0.188,2.295,0.349,4.458,0.488,6.53   c2.622-0.43,4.824-2.454,7.145-4.386l0.009,0.67c-2.306,2.531-4.429,5.047-7.047,5.441c0.14,2.268,0.25,4.432,0.33,6.521   c5.501-0.705,10.416-3.873,15.754-8.312l-0.001,0.81c-4.377,5.049-9.526,9.193-15.673,9.915c0.057,2.009,0.086,3.975,0.091,5.925   h10.771l8.821-5.626L48.505,21.608z"/>
</g>
</svg>