<?xml version="1.0" encoding="UTF-8"?>
<!-- Generator: Adobe Illustrator 16.0.0, SVG Export Plug-In . SVG Version: 6.00 Build 0)  -->
<!DOCTYPE svg PUBLIC "-//W3C//DTD SVG 1.1//EN" "http://www.w3.org/Graphics/SVG/1.1/DTD/svg11.dtd">
<svg version="1.1" id="Layer_1" xmlns="http://www.w3.org/2000/svg" xmlns:xlink="http://www.w3.org/1999/xlink" x="0px" y="0px" width="180px" height="50px" viewBox="0 0 180 50" enable-background="new 0 0 180 50" xml:space="preserve">
<g>
	<g>
		<defs>
			<rect id="SVGID_1_" x="1" width="164.98" height="50"/>
		</defs>
		<clipPath id="SVGID_2_">
			<use xlink:href="#SVGID_1_" overflow="visible"/>
		</clipPath>
		<path clip-path="url(#SVGID_2_)" fill="#FFFFFF" d="M30.295,16.054H27.66c-0.357,0-0.648,0.268-0.648,0.596v2.892    c0,0.326,0.291,0.596,0.648,0.596h2.635c0.358,0,0.649-0.27,0.649-0.596V16.65C30.944,16.322,30.653,16.054,30.295,16.054"/>
	</g>
	<g>
		<defs>
			<rect id="SVGID_3_" x="1" width="164.98" height="50"/>
		</defs>
		<clipPath id="SVGID_4_">
			<use xlink:href="#SVGID_3_" overflow="visible"/>
		</clipPath>
		<path clip-path="url(#SVGID_4_)" fill="#FFFFFF" d="M38.504,43.286c-0.066,0-0.133,0.003-0.202,0.011v2.998    c0.073,0.003,0.137,0.008,0.197,0.008c0.349,0.006,0.589-0.113,0.721-0.355c0.127-0.239,0.189-0.625,0.186-1.159    C39.431,43.77,39.13,43.268,38.504,43.286"/>
	</g>
	<g>
		<defs>
			<rect id="SVGID_5_" x="1" width="164.98" height="50"/>
		</defs>
		<clipPath id="SVGID_6_">
			<use xlink:href="#SVGID_5_" overflow="visible"/>
		</clipPath>
		<path clip-path="url(#SVGID_6_)" fill="#FFFFFF" d="M44.225,43.311h-0.311v1.342h0.311c0.481,0,0.72-0.223,0.72-0.668    C44.945,43.535,44.706,43.311,44.225,43.311"/>
	</g>
	<g>
		<defs>
			<rect id="SVGID_7_" x="1" width="164.98" height="50"/>
		</defs>
		<clipPath id="SVGID_8_">
			<use xlink:href="#SVGID_7_" overflow="visible"/>
		</clipPath>
		<path clip-path="url(#SVGID_8_)" fill="#FFFFFF" d="M24.948,43.896c0-0.231-0.059-0.391-0.178-0.478    c-0.12-0.085-0.31-0.127-0.565-0.123h-0.288v1.269h0.337C24.714,44.566,24.943,44.344,24.948,43.896"/>
	</g>
</g>
<polygon fill="#FFFFFF" points="45.953,45.216 46.694,45.216 46.321,43.297 "/>
<g>
	<g>
		<defs>
			<rect id="SVGID_9_" width="164.98" height="50"/>
		</defs>
		<clipPath id="SVGID_10_">
			<use xlink:href="#SVGID_9_" overflow="visible"/>
		</clipPath>
		<path clip-path="url(#SVGID_10_)" fill="#FFFFFF" d="M23.255,44.884h-0.337v1.419h0.367c0.492,0.008,0.736-0.227,0.732-0.699    C24.016,45.119,23.762,44.88,23.255,44.884"/>
	</g>
	<g>
		<defs>
			<rect id="SVGID_11_" width="164.98" height="50"/>
		</defs>
		<clipPath id="SVGID_12_">
			<use xlink:href="#SVGID_11_" overflow="visible"/>
		</clipPath>
		<path clip-path="url(#SVGID_12_)" fill="#FFFFFF" d="M31.701,43.242c-0.402-0.004-0.6,0.488-0.595,1.477    c-0.01,1.102,0.188,1.65,0.595,1.646c0.402,0.003,0.602-0.516,0.596-1.561C32.302,43.764,32.103,43.242,31.701,43.242"/>
	</g>
	<g>
		<defs>
			<rect id="SVGID_13_" width="164.98" height="50"/>
		</defs>
		<clipPath id="SVGID_14_">
			<use xlink:href="#SVGID_13_" overflow="visible"/>
		</clipPath>
		<path clip-path="url(#SVGID_14_)" fill="#FFFFFF" d="M19.8,43.297h-0.308v1.28H19.8c0.488,0,0.73-0.214,0.73-0.642    C20.531,43.508,20.288,43.297,19.8,43.297"/>
	</g>
	<g>
		<defs>
			<rect id="SVGID_15_" width="164.98" height="50"/>
		</defs>
		<clipPath id="SVGID_16_">
			<use xlink:href="#SVGID_15_" overflow="visible"/>
		</clipPath>
		<path clip-path="url(#SVGID_16_)" fill="#FFFFFF" d="M12.07,43.286c-0.064,0-0.131,0.003-0.199,0.011v2.998    c0.071,0.003,0.137,0.008,0.194,0.008c0.351,0.006,0.591-0.113,0.724-0.355c0.126-0.239,0.188-0.625,0.185-1.159    C12.997,43.77,12.697,43.268,12.07,43.286"/>
	</g>
	<g>
		<defs>
			<rect id="SVGID_17_" width="164.98" height="50"/>
		</defs>
		<clipPath id="SVGID_18_">
			<use xlink:href="#SVGID_17_" overflow="visible"/>
		</clipPath>
		<path clip-path="url(#SVGID_18_)" fill="#FFFFFF" d="M47.466,43.311h-0.309v1.342h0.309c0.48,0,0.721-0.223,0.721-0.668    C48.187,43.535,47.946,43.311,47.466,43.311"/>
	</g>
	<g>
		<defs>
			<rect id="SVGID_19_" width="164.98" height="50"/>
		</defs>
		<clipPath id="SVGID_20_">
			<use xlink:href="#SVGID_19_" overflow="visible"/>
		</clipPath>
		<path clip-path="url(#SVGID_20_)" fill="#FFFFFF" d="M52.188,36.857c-3.992,2.484-10.759,3.729-20.32,3.729H13.899v-0.578    c-0.01,0.139-0.044,0.266-0.117,0.375c-0.083,0.124-0.179,0.186-0.291,0.186h-1.776c-0.111,0-0.208-0.062-0.292-0.186    c-0.083-0.126-0.126-0.273-0.126-0.439V23.772c0-0.166,0.043-0.327,0.126-0.485c0.083-0.155,0.181-0.234,0.292-0.234h1.776    c0.111,0,0.208,0.079,0.291,0.234c0.067,0.126,0.1,0.256,0.112,0.388v16.132c0,0.196,0.042,0.368,0.127,0.516    c0.087,0.148,0.186,0.223,0.299,0.223h1.796c0.134,0,0.238-0.072,0.313-0.223c0.077-0.147,0.114-0.319,0.114-0.516v-5.639    l2.137-3.021l4.703,9.104c0.037,0.048,0.094,0.104,0.169,0.167c0.077,0.062,0.134,0.089,0.172,0.089h2.393    c0.192,0,0.325-0.134,0.399-0.404c0.076-0.27,0.048-0.539-0.084-0.812l-5.586-10.726l4.931-7.223    c0.095-0.099,0.156-0.221,0.185-0.369c0.029-0.146,0.034-0.294,0.015-0.441c-0.02-0.146-0.066-0.276-0.143-0.389    c-0.077-0.11-0.17-0.166-0.285-0.166h-2.223l-6.782,10.138l0.029-20.383c0-0.197-0.042-0.388-0.128-0.571    c-0.047-0.103-0.101-0.171-0.157-0.216H38.52c6.479,0,11.374,1.324,14.692,3.955c3.314,2.632,4.972,6.49,4.972,11.608    C58.182,30.24,56.179,34.355,52.188,36.857 M52.652,46.633h-1.479v-3.658h0.366v3.312h1.114L52.652,46.633L52.652,46.633z     M50.677,46.633h-1.636v-3.658h1.593v0.336h-1.232v1.267h0.901v0.331h-0.901v1.389h1.275V46.633z M47.387,44.959h-0.229v1.674    h-0.362v-3.658h0.591c0.761,0,1.141,0.332,1.141,0.99C48.528,44.631,48.147,44.962,47.387,44.959 M45.973,46.633l-0.206-1.076    h-0.892l-0.207,1.076h-0.355l0.766-3.658h0.501l0.774,3.658H45.973z M43.144,44.959h-0.229v1.674h-0.36v-3.658h0.592    c0.76,0,1.141,0.332,1.141,0.99C44.287,44.631,43.906,44.962,43.144,44.959 M41.005,46.633H39.37v-3.658h1.593v0.336h-1.231v1.267    h0.901v0.331h-0.901v1.389h1.273V46.633z M37.593,46.633h-0.656v-3.658h0.656c0.797-0.011,1.188,0.596,1.175,1.821    C38.782,46.034,38.391,46.645,37.593,46.633 M35.12,46.633h-0.354l-0.895-2.531c-0.109-0.305-0.198-0.584-0.269-0.847v3.377    h-0.318v-3.659h0.53l0.73,2.077c0.104,0.296,0.202,0.601,0.289,0.912c-0.021-0.313-0.032-0.584-0.028-0.802v-2.188h0.314    L35.12,46.633L35.12,46.633z M31.396,42.629l0.498-0.859h0.425l-0.67,0.859H31.396z M31.701,46.706    c-0.646-0.002-0.972-0.64-0.975-1.903c0.002-1.264,0.329-1.895,0.975-1.898c0.651,0.005,0.977,0.636,0.981,1.898    C32.678,46.066,32.352,46.704,31.701,46.706 M30.159,46.633h-0.362v-3.658h0.362V46.633z M29.249,45.516    c-0.008,0.787-0.319,1.186-0.926,1.19c-0.667,0-1.002-0.618-1.002-1.854c-0.007-1.303,0.333-1.955,1.016-1.951    c0.572,0.008,0.864,0.392,0.876,1.147h-0.351c-0.031-0.545-0.209-0.819-0.53-0.821c-0.438-0.004-0.649,0.526-0.635,1.59    c-0.015,1.039,0.215,1.561,0.692,1.557c0.345-0.004,0.524-0.293,0.535-0.863v-0.074h0.325V45.516z M26.728,45.354    c0,0.235-0.009,0.439-0.024,0.613c-0.022,0.172-0.076,0.314-0.159,0.432c-0.156,0.203-0.389,0.305-0.703,0.308    c-0.317-0.002-0.552-0.104-0.705-0.308c-0.084-0.117-0.136-0.26-0.158-0.432c-0.021-0.174-0.032-0.378-0.029-0.611v-2.381h0.361    v2.348c-0.003,0.353,0.025,0.615,0.086,0.789c0.063,0.177,0.211,0.264,0.443,0.264c0.234,0,0.382-0.087,0.447-0.264    c0.057-0.174,0.083-0.438,0.08-0.789v-2.348h0.36L26.728,45.354L26.728,45.354z M23.251,46.633h-0.695v-3.656l0.646-0.002    c0.19-0.004,0.355,0.01,0.495,0.039c0.14,0.026,0.27,0.104,0.387,0.229c0.137,0.144,0.207,0.353,0.212,0.629    c0,0.414-0.169,0.688-0.505,0.831c0.388,0.145,0.583,0.447,0.583,0.912C24.373,46.296,23.998,46.639,23.251,46.633 M21.869,46.633    h-0.361v-3.658h0.361V46.633z M20.545,46.633l-0.534-1.738c-0.125,0.006-0.25,0.01-0.379,0.01h-0.14v1.729h-0.363v-3.658h0.645    c0.763,0,1.143,0.318,1.143,0.961c-0.003,0.453-0.19,0.744-0.558,0.877l0.58,1.82H20.545z M18.708,43.287h-0.717v3.347h-0.357    v-3.347h-0.708v-0.312h1.782V43.287z M15.749,46.706c-0.571-0.005-0.872-0.354-0.896-1.038h0.34    c0.02,0.473,0.209,0.707,0.569,0.702c0.161,0,0.287-0.056,0.382-0.167c0.094-0.107,0.139-0.254,0.139-0.439    c0-0.193-0.06-0.361-0.181-0.508c-0.119-0.143-0.288-0.291-0.506-0.449c-0.217-0.164-0.385-0.326-0.506-0.484    c-0.122-0.153-0.183-0.35-0.183-0.59s0.074-0.44,0.225-0.594c0.145-0.152,0.332-0.229,0.56-0.234    c0.543,0.007,0.832,0.337,0.867,0.988h-0.336c-0.028-0.451-0.2-0.677-0.517-0.677c-0.31,0.007-0.469,0.179-0.477,0.513    c0,0.162,0.057,0.303,0.174,0.432c0.093,0.094,0.2,0.188,0.317,0.27c0.116,0.092,0.23,0.186,0.346,0.28    c0.372,0.288,0.559,0.631,0.559,1.033C16.608,46.37,16.317,46.689,15.749,46.706 M14.309,46.633h-0.361v-3.658h0.361V46.633z     M12.161,46.633h-0.659v-3.658h0.659c0.796-0.011,1.187,0.596,1.173,1.821C13.347,46.034,12.957,46.645,12.161,46.633     M10.389,26.572c0,0.328-0.293,0.597-0.651,0.597H7.104c-0.357,0-0.65-0.269-0.65-0.597v-2.893c0-0.327,0.293-0.594,0.65-0.594    h2.634c0.357,0,0.651,0.268,0.651,0.594V26.572z M13.899,8.945h0.28c-0.056,0.045-0.109,0.113-0.158,0.216    c-0.079,0.168-0.116,0.345-0.122,0.524V8.945z M63.696,6.426C57.798,2.148,49.373,0,38.421,0H0v50h34.855    c6.015,0,10.969-0.307,14.825-0.921c3.855-0.612,7.096-1.599,9.678-2.953c4.184-2.146,7.423-5.086,9.717-8.832    c2.294-3.729,3.451-7.927,3.451-12.608C72.527,16.806,69.577,10.72,63.696,6.426"/>
	</g>
	<g>
		<defs>
			<rect id="SVGID_21_" width="164.98" height="50"/>
		</defs>
		<clipPath id="SVGID_22_">
			<use xlink:href="#SVGID_21_" overflow="visible"/>
		</clipPath>
		<path clip-path="url(#SVGID_22_)" fill="#FFFFFF" d="M82.348,32.04v-2.052l-0.976,0.533l0.188-0.072    c0.164-0.061,0.26-0.047,0.26,0.307v1.25c0,0.418-0.066,0.444-0.444,0.444v0.087h1.41V32.45    C82.379,32.447,82.348,32.387,82.348,32.04"/>
	</g>
	<g>
		<defs>
			<rect id="SVGID_23_" width="164.98" height="50"/>
		</defs>
		<clipPath id="SVGID_24_">
			<use xlink:href="#SVGID_23_" overflow="visible"/>
		</clipPath>
		<path clip-path="url(#SVGID_24_)" fill="#FFFFFF" d="M83.388,32.477c-0.255,0-0.298-0.342-0.298-0.561    c0-0.18,0.032-0.333,0.111-0.492c0.116,0.088,0.237,0.176,0.322,0.276c0.092,0.104,0.158,0.231,0.158,0.399    C83.681,32.312,83.604,32.477,83.388,32.477 M83.372,30.123c0.249,0,0.279,0.299,0.279,0.514c0,0.137-0.021,0.258-0.09,0.373    c-0.095-0.074-0.219-0.16-0.293-0.244c-0.084-0.092-0.147-0.207-0.147-0.356C83.12,30.238,83.22,30.123,83.372,30.123     M83.645,31.066c0.214-0.071,0.415-0.217,0.415-0.491c0-0.425-0.335-0.558-0.659-0.558c-0.398,0-0.688,0.229-0.688,0.707    c0,0.278,0.199,0.5,0.407,0.631c-0.271,0.084-0.46,0.263-0.46,0.595c0,0.128,0.029,0.286,0.146,0.415    c0.166,0.182,0.332,0.214,0.556,0.214c0.499,0,0.748-0.308,0.748-0.781C84.109,31.458,83.901,31.23,83.645,31.066"/>
	</g>
	<g>
		<defs>
			<rect id="SVGID_25_" width="164.98" height="50"/>
		</defs>
		<clipPath id="SVGID_26_">
			<use xlink:href="#SVGID_25_" overflow="visible"/>
		</clipPath>
		<path clip-path="url(#SVGID_26_)" fill="#FFFFFF" d="M84.92,32.477c-0.257,0-0.298-0.342-0.298-0.561    c0-0.18,0.032-0.333,0.111-0.492c0.115,0.088,0.234,0.176,0.32,0.276c0.091,0.104,0.158,0.231,0.158,0.399    C85.211,32.312,85.136,32.477,84.92,32.477 M84.904,30.123c0.247,0,0.278,0.299,0.278,0.514c0,0.137-0.021,0.258-0.088,0.373    c-0.097-0.074-0.222-0.16-0.295-0.244c-0.085-0.092-0.147-0.207-0.147-0.356C84.652,30.238,84.75,30.123,84.904,30.123     M85.177,31.066c0.213-0.071,0.412-0.217,0.412-0.491c0-0.425-0.332-0.558-0.655-0.558c-0.401,0-0.691,0.229-0.691,0.707    c0,0.278,0.2,0.5,0.409,0.631c-0.272,0.084-0.46,0.263-0.46,0.595c0,0.128,0.029,0.286,0.144,0.415    c0.165,0.182,0.332,0.214,0.555,0.214c0.5,0,0.752-0.308,0.752-0.781C85.642,31.458,85.431,31.23,85.177,31.066"/>
	</g>
	<g>
		<defs>
			<rect id="SVGID_27_" width="164.98" height="50"/>
		</defs>
		<clipPath id="SVGID_28_">
			<use xlink:href="#SVGID_27_" overflow="visible"/>
		</clipPath>
		<path clip-path="url(#SVGID_28_)" fill="#FFFFFF" d="M86.452,32.477c-0.258,0-0.298-0.342-0.298-0.561    c0-0.18,0.031-0.333,0.108-0.492c0.116,0.088,0.237,0.176,0.322,0.276c0.092,0.104,0.158,0.231,0.158,0.399    C86.743,32.312,86.668,32.477,86.452,32.477 M86.437,30.123c0.248,0,0.279,0.299,0.279,0.514c0,0.137-0.022,0.258-0.092,0.373    c-0.095-0.074-0.22-0.16-0.294-0.244c-0.084-0.092-0.147-0.207-0.147-0.356C86.182,30.238,86.282,30.123,86.437,30.123     M86.709,31.066c0.212-0.071,0.413-0.217,0.413-0.491c0-0.425-0.333-0.558-0.659-0.558c-0.398,0-0.688,0.229-0.688,0.707    c0,0.278,0.202,0.5,0.407,0.631c-0.271,0.084-0.458,0.263-0.458,0.595c0,0.128,0.029,0.286,0.143,0.415    c0.166,0.182,0.332,0.214,0.556,0.214c0.499,0,0.75-0.308,0.75-0.781C87.172,31.458,86.963,31.23,86.709,31.066"/>
	</g>
	<g>
		<defs>
			<rect id="SVGID_29_" width="164.98" height="50"/>
		</defs>
		<clipPath id="SVGID_30_">
			<use xlink:href="#SVGID_29_" overflow="visible"/>
		</clipPath>
		<path clip-path="url(#SVGID_30_)" fill="#FFFFFF" d="M82.03,26.938h4.505l0.204,0.963h-4.92L82.03,26.938z M82.415,25.017h3.733    l0.19,1.038h-4.113L82.415,25.017z M82.782,23.305l2.995-0.007l0.183,0.889h-3.354L82.782,23.305z M81.649,28.826h5.266    l0.232,1.061h0.944l-1.786-8.604h-0.958l0.232,1.175h-2.586c0,0,0.17-0.795,0.203-1.175H82.26l-1.804,8.604h0.948L81.649,28.826z"/>
	</g>
	<g>
		<defs>
			<rect id="SVGID_31_" width="164.98" height="50"/>
		</defs>
		<clipPath id="SVGID_32_">
			<use xlink:href="#SVGID_31_" overflow="visible"/>
		</clipPath>
		<path clip-path="url(#SVGID_32_)" fill="#FFFFFF" d="M89.589,28.531c-0.203,2.867-2.911,5.019-5.333,6.037    c-0.972-0.299-1.797-0.922-2.64-1.494c-1.574-1.262-2.661-2.885-2.682-4.875v-7.63h10.655V28.531z M90.114,19.543H89.91h-0.082    h-0.412H79.13h-0.414H78.53h-0.098c-0.29,0-0.523,0.234-0.523,0.523v0.222v0.474v0.361v7.424c0.21,3.428,3.368,6.042,6.313,7.12    c2.977-1.159,6.105-3.646,6.411-7.087v-7.818v-0.45v-0.246C90.634,19.778,90.401,19.543,90.114,19.543"/>
	</g>
	<g>
		<defs>
			<rect id="SVGID_33_" width="164.98" height="50"/>
		</defs>
		<clipPath id="SVGID_34_">
			<use xlink:href="#SVGID_33_" overflow="visible"/>
		</clipPath>
		<path clip-path="url(#SVGID_34_)" fill="#FFFFFF" d="M126.434,22.481c0-1.638-1.113-2.973-2.967-2.973h-3.533h-0.351h-0.272    c-0.259,0-0.465,0.209-0.465,0.466v0.233v0.391v9.981h0.87h0.583h0.04c0.259,0,0.468-0.208,0.468-0.466v-0.262v-9.427l1.502,0.005    c1.957,0,2.242,1,2.242,2.237c0,1.239-1.158,2.156-3.169,2.242l3.278,5.669h2.042l-3.242-5.125    C125.018,25.256,126.434,24.117,126.434,22.481"/>
	</g>
	<g>
		<defs>
			<rect id="SVGID_35_" width="164.98" height="50"/>
		</defs>
		<clipPath id="SVGID_36_">
			<use xlink:href="#SVGID_35_" overflow="visible"/>
		</clipPath>
		<path clip-path="url(#SVGID_36_)" fill="#FFFFFF" d="M149.659,26.746c-0.187,0.939-0.486,1.828-1.19,2.557    c-0.755,0.773-1.957,0.877-2.929,0.5c-1.616-0.791-1.967-2.596-2.114-4.234c-0.083-2.096,0.114-4.452,2.217-5.354    c0.812-0.314,1.84-0.176,2.526,0.334C149.936,21.983,149.936,24.537,149.659,26.746 M145.611,19.297    c-2.061,0.453-3.805,2.351-4.201,4.396c-0.48,2.511,0.457,5.036,2.453,6.384c1.353,0.962,3.635,1.114,5.104,0.257    c1.036-0.559,1.938-1.572,2.403-2.629c0.898-1.932,0.66-4.638-0.639-6.302C149.482,19.844,147.661,18.849,145.611,19.297"/>
	</g>
	<g>
		<defs>
			<rect id="SVGID_37_" width="164.98" height="50"/>
		</defs>
		<clipPath id="SVGID_38_">
			<use xlink:href="#SVGID_37_" overflow="visible"/>
		</clipPath>
		<path clip-path="url(#SVGID_38_)" fill="#FFFFFF" d="M111.305,29.703h-0.445v-9.278h0.445c3.625,0,4.606,2.08,4.606,4.638    S114.93,29.703,111.305,29.703 M112.423,19.508h-2.428h-0.622c-0.26,0-0.469,0.209-0.469,0.466v0.623l0,0v9.981l3.52-0.003    c3.488,0,5.535-2.479,5.535-5.531C117.958,21.994,115.911,19.508,112.423,19.508"/>
	</g>
	<g>
		<defs>
			<rect id="SVGID_39_" width="164.98" height="50"/>
		</defs>
		<clipPath id="SVGID_40_">
			<use xlink:href="#SVGID_39_" overflow="visible"/>
		</clipPath>
		<path clip-path="url(#SVGID_40_)" fill="#FFFFFF" d="M128.257,19.508h-0.175c-0.258,0-0.467,0.209-0.467,0.466v0.333h-0.002    v10.271h0.873h0.537h0.086c0.258,0,0.466-0.208,0.466-0.467v-0.623v-0.002v-9.979h-0.871H128.257z"/>
	</g>
	<g>
		<defs>
			<rect id="SVGID_41_" width="164.98" height="50"/>
		</defs>
		<clipPath id="SVGID_42_">
			<use xlink:href="#SVGID_41_" overflow="visible"/>
		</clipPath>
		<path clip-path="url(#SVGID_42_)" fill="#FFFFFF" d="M164.109,19.508h-0.445h-0.176c-0.258,0-0.467,0.209-0.467,0.466v0.333v0.29    v9.981h0.871h0.537h0.086c0.254,0,0.465-0.208,0.465-0.467v-0.153v-0.47v-9.981L164.109,19.508L164.109,19.508z"/>
	</g>
	<g>
		<defs>
			<rect id="SVGID_43_" width="164.98" height="50"/>
		</defs>
		<clipPath id="SVGID_44_">
			<use xlink:href="#SVGID_43_" overflow="visible"/>
		</clipPath>
		<path clip-path="url(#SVGID_44_)" fill="#FFFFFF" d="M107.809,30.579v-0.876h-4.396v-4.388h2.955h0.006h0.623    c0.257,0,0.467-0.208,0.467-0.465v-0.063v-0.392h-4.051v-3.97h4.396v-0.917h-5.267h-0.414h-0.21c-0.259,0-0.466,0.209-0.466,0.466    v0.233v0.39v9.981h0.69L107.809,30.579L107.809,30.579z"/>
	</g>
	<g>
		<defs>
			<rect id="SVGID_45_" width="164.98" height="50"/>
		</defs>
		<clipPath id="SVGID_46_">
			<use xlink:href="#SVGID_45_" overflow="visible"/>
		</clipPath>
		<path clip-path="url(#SVGID_46_)" fill="#FFFFFF" d="M139.333,25.011h-0.194c-0.257,0-0.468,0.208-0.468,0.465v0.532l-0.001,3.141    c-0.359,0.26-0.738,0.477-1.156,0.605c-1.283,0.357-2.697,0.059-3.607-0.879c-1.444-1.494-1.605-3.923-1.04-5.891    c0.36-1.204,1.468-2.485,2.75-2.715c1.62-0.416,3.134,0.378,4.026,1.664l0.703-0.497c-0.287-0.531-0.715-0.946-1.177-1.315    c-1.399-1.134-3.784-1.124-5.392-0.35c-2.01,1.02-3.307,3.099-3.28,5.343c-0.084,2.283,1.315,4.457,3.329,5.291    c2.232,0.982,4.939,0.302,6.685-1.217v-4.174h-0.747h-0.431V25.011z"/>
	</g>
	<g>
		<defs>
			<rect id="SVGID_47_" width="164.98" height="50"/>
		</defs>
		<clipPath id="SVGID_48_">
			<use xlink:href="#SVGID_47_" overflow="visible"/>
		</clipPath>
		<path clip-path="url(#SVGID_48_)" fill="#FFFFFF" d="M160.383,27.055l-5.768-7.547h-0.656h-0.443h-0.181    c-0.257,0-0.467,0.209-0.467,0.466v0.131v10.473h1.174v-8.724l6.341,8.724h0.43h0.242h0.047c0.26,0,0.467-0.208,0.467-0.467    v-0.271V29.49v-9.981h-1.186V27.055z"/>
	</g>
	<g>
		<defs>
			<rect id="SVGID_49_" width="164.98" height="50"/>
		</defs>
		<clipPath id="SVGID_50_">
			<use xlink:href="#SVGID_49_" overflow="visible"/>
		</clipPath>
		<path clip-path="url(#SVGID_50_)" fill="#FFFFFF" d="M96.155,20.446l0.024-0.021h4.396v-0.917h-5.267H95h-0.315    c-0.257,0-0.467,0.209-0.467,0.466v0.129v0.494v9.981h0.612h0.075h0.768c0.258,0,0.466-0.208,0.466-0.467V29.67v-0.182v-4.173    h3.334h0.291c0.254,0,0.459-0.203,0.464-0.456l0.002-0.001v-0.463h-4.075V20.446z"/>
	</g>
</g>
<polygon fill="#FFFFFF" points="95.655,36.846 97.448,36.846 97.448,36.283 95.655,36.283 95.655,34.949 97.511,34.949   97.511,34.391 95.027,34.391 95.027,38.766 97.571,38.766 97.571,38.207 95.655,38.207 "/>
<g>
	<g>
		<defs>
			<rect id="SVGID_51_" x="1" width="164.98" height="50"/>
		</defs>
		<clipPath id="SVGID_52_">
			<use xlink:href="#SVGID_51_" overflow="visible"/>
		</clipPath>
		<path clip-path="url(#SVGID_52_)" fill="#FFFFFF" d="M99.752,36.417l-0.479-0.284c-0.215-0.125-0.37-0.246-0.468-0.359    c-0.096-0.115-0.144-0.238-0.144-0.369c0-0.147,0.065-0.27,0.195-0.364c0.134-0.095,0.304-0.142,0.506-0.142    c0.363,0,0.704,0.149,1.02,0.455v-0.713c-0.305-0.205-0.641-0.308-1.007-0.308c-0.382,0-0.692,0.106-0.933,0.323    c-0.239,0.215-0.359,0.496-0.359,0.841c0,0.229,0.063,0.435,0.19,0.61c0.126,0.174,0.339,0.355,0.636,0.539l0.477,0.289    c0.387,0.239,0.578,0.492,0.578,0.76c0,0.164-0.065,0.302-0.195,0.412c-0.131,0.107-0.295,0.164-0.49,0.164    c-0.447,0-0.836-0.215-1.176-0.645v0.797c0.354,0.268,0.75,0.398,1.182,0.398c0.377,0,0.682-0.108,0.917-0.327    c0.236-0.22,0.354-0.507,0.354-0.858C100.555,37.143,100.287,36.736,99.752,36.417"/>
	</g>
	<g>
		<defs>
			<rect id="SVGID_53_" x="1" width="164.98" height="50"/>
		</defs>
		<clipPath id="SVGID_54_">
			<use xlink:href="#SVGID_53_" overflow="visible"/>
		</clipPath>
		<path clip-path="url(#SVGID_54_)" fill="#FFFFFF" d="M103.182,36.131c-0.139,0.121-0.336,0.182-0.591,0.182h-0.687v-1.371h0.648    c0.557,0,0.834,0.228,0.834,0.676C103.389,35.841,103.318,36.014,103.182,36.131 M104.037,35.632c0-0.38-0.125-0.685-0.374-0.909    c-0.248-0.226-0.582-0.339-1-0.339h-1.39v4.386h0.629v-1.897h0.464c0.417,0,0.731-0.048,0.954-0.136    c0.222-0.09,0.396-0.23,0.523-0.428C103.973,36.113,104.037,35.887,104.037,35.632"/>
	</g>
</g>
<path fill="#FFFFFF" d="M105.09,36.914l0.654-1.585l0.709,1.585H105.09z M105.533,34.365l-1.885,4.406h0.645l0.549-1.299h1.869  l0.583,1.299h0.644l-1.965-4.406H105.533z"/>
<g>
	<g>
		<defs>
			<rect id="SVGID_55_" x="1" width="164.98" height="50"/>
		</defs>
		<clipPath id="SVGID_56_">
			<use xlink:href="#SVGID_55_" overflow="visible"/>
		</clipPath>
		<path clip-path="url(#SVGID_56_)" fill="#FFFFFF" d="M109.977,33.77c0.041-0.043,0.088-0.062,0.142-0.062    c0.097,0,0.245,0.042,0.44,0.125c0.191,0.084,0.348,0.126,0.461,0.126c0.133,0,0.242-0.056,0.328-0.166    c0.115-0.144,0.174-0.341,0.176-0.592h-0.244c-0.014,0.098-0.041,0.167-0.082,0.206c-0.041,0.043-0.09,0.062-0.149,0.062    s-0.161-0.029-0.3-0.084c-0.273-0.109-0.473-0.166-0.594-0.166c-0.135,0-0.243,0.049-0.332,0.148    c-0.09,0.099-0.148,0.296-0.184,0.591h0.264C109.913,33.875,109.938,33.811,109.977,33.77"/>
	</g>
</g>
<polygon fill="#FFFFFF" points="111.96,37.793 109.009,34.391 108.5,34.391 108.5,38.771 109.088,38.771 109.088,35.398   112.018,38.771 112.557,38.771 112.557,34.391 111.96,34.391 "/>
<path fill="#FFFFFF" d="M114.518,36.914l0.654-1.585l0.707,1.585H114.518z M114.958,34.365l-1.883,4.406h0.646l0.547-1.299h1.869  l0.582,1.299h0.643l-1.963-4.406H114.958z"/>
</svg>