<?xml version="1.0" encoding="UTF-8"?>
<!-- Generator: Adobe Illustrator 16.0.0, SVG Export Plug-In . SVG Version: 6.00 Build 0)  -->
<!DOCTYPE svg PUBLIC "-//W3C//DTD SVG 1.1//EN" "http://www.w3.org/Graphics/SVG/1.1/DTD/svg11.dtd">
<svg version="1.1" id="Layer_1" xmlns="http://www.w3.org/2000/svg" xmlns:xlink="http://www.w3.org/1999/xlink" x="0px" y="0px" width="180px" height="60px" viewBox="0 0 180 60" enable-background="new 0 0 180 60" xml:space="preserve">
<g>
	<defs>
		<rect id="SVGID_1_" width="170.824" height="55"/>
	</defs>
	<clipPath id="SVGID_2_">
		<use xlink:href="#SVGID_1_" overflow="visible"/>
	</clipPath>
	<path clip-path="url(#SVGID_2_)" fill="#FFFFFF" d="M6.484,19.927l2.626,9.933h-5.28L6.484,19.927z M4.761,18.614L0,36.399h2.079   l1.314-4.953h6.156l1.313,4.953h2.08L8.181,18.614H4.761z"/>
	<g clip-path="url(#SVGID_2_)">
		<defs>
			<rect id="SVGID_3_" width="170.824" height="55"/>
		</defs>
		<clipPath id="SVGID_4_">
			<use xlink:href="#SVGID_3_" overflow="visible"/>
		</clipPath>
		<path clip-path="url(#SVGID_4_)" fill="#FFFFFF" d="M19.317,36.837c-3.119,0-5.664-2.545-5.664-5.664v-7.306    c0-3.119,2.545-5.664,5.664-5.664s5.664,2.545,5.664,5.664v1.041h-2.08v-1.26c0-1.969-1.642-3.584-3.584-3.584    c-1.943,0-3.584,1.615-3.584,3.584v7.744c0,1.97,1.641,3.585,3.584,3.585c1.258,0,2.463-0.274,3.612-0.766v-4.897h-3.558V27.78    h5.609v7.471C23.367,36.235,21.424,36.837,19.317,36.837"/>
	</g>
	<path clip-path="url(#SVGID_2_)" fill="#FFFFFF" d="M32.504,19.927l-2.653,9.933h5.281L32.504,19.927z M29.414,31.446L28.1,36.399   h-2.08l4.761-17.785h3.421l4.76,17.785h-2.079l-1.313-4.953H29.414z"/>
	<g clip-path="url(#SVGID_2_)">
		<defs>
			<rect id="SVGID_5_" width="170.824" height="55"/>
		</defs>
		<clipPath id="SVGID_6_">
			<use xlink:href="#SVGID_5_" overflow="visible"/>
		</clipPath>
		<path clip-path="url(#SVGID_6_)" fill="#FFFFFF" d="M42.055,34.54h3.337c1.943,0,3.585-1.615,3.585-3.586v-7.196    c0-1.97-1.643-3.584-3.585-3.584h-3.337V34.54z M45.256,18.203c4.022,0,5.801,3.257,5.801,5.664v6.868    c0,3.119-2.544,5.664-5.665,5.664H40.03V18.97C41.589,18.478,43.368,18.203,45.256,18.203"/>
	</g>
	<rect x="53.273" y="18.614" clip-path="url(#SVGID_2_)" fill="#FFFFFF" width="2.025" height="17.785"/>
	<g clip-path="url(#SVGID_2_)">
		<defs>
			<rect id="SVGID_7_" width="170.824" height="55"/>
		</defs>
		<clipPath id="SVGID_8_">
			<use xlink:href="#SVGID_7_" overflow="visible"/>
		</clipPath>
		<path clip-path="url(#SVGID_8_)" fill="#FFFFFF" d="M66.816,24.908v-1.26c0-1.969-1.642-3.583-3.584-3.583    c-1.943,0-3.584,1.615-3.584,3.583v7.745c0,1.97,1.642,3.584,3.584,3.584c1.861,0,3.557-0.493,5.008-1.341v1.997    c-1.505,0.767-3.202,1.204-5.008,1.204c-3.12,0-5.664-2.545-5.664-5.664v-7.306c0-3.119,2.544-5.664,5.664-5.664    c3.119,0,5.664,2.545,5.664,5.664v1.041H66.816z"/>
		<g opacity="0.46" clip-path="url(#SVGID_8_)">
			<g>
				<defs>
					<rect id="SVGID_9_" x="82.238" y="-4.349" width="16.257" height="12.557"/>
				</defs>
				<clipPath id="SVGID_10_">
					<use xlink:href="#SVGID_9_" overflow="visible"/>
				</clipPath>
				<polygon clip-path="url(#SVGID_10_)" fill="#FFFFFF" points="92.884,5.393 93.603,4.854 93.603,0 87.131,4.414 87.131,7.664           "/>
			</g>
		</g>
		<g opacity="0.46" clip-path="url(#SVGID_8_)">
			<g>
				<defs>
					<rect id="SVGID_11_" x="70.917" y="3.74" width="15.717" height="8.938"/>
				</defs>
				<clipPath id="SVGID_12_">
					<use xlink:href="#SVGID_11_" overflow="visible"/>
				</clipPath>
				<polygon clip-path="url(#SVGID_12_)" fill="#FFFFFF" points="81.741,8.089 75.81,12.133 80.201,10.4     "/>
			</g>
		</g>
		<g opacity="0.46" clip-path="url(#SVGID_8_)">
			<g>
				<defs>
					<rect id="SVGID_13_" x="70.917" y="38.52" width="15.717" height="8.937"/>
				</defs>
				<clipPath id="SVGID_14_">
					<use xlink:href="#SVGID_13_" overflow="visible"/>
				</clipPath>
				<polygon clip-path="url(#SVGID_14_)" fill="#FFFFFF" points="75.81,42.868 81.741,46.912 80.201,44.603     "/>
			</g>
		</g>
		<g opacity="0.46" clip-path="url(#SVGID_8_)">
			<g>
				<defs>
					<rect id="SVGID_15_" x="82.238" y="42.988" width="16.257" height="12.556"/>
				</defs>
				<clipPath id="SVGID_16_">
					<use xlink:href="#SVGID_15_" overflow="visible"/>
				</clipPath>
				<polygon clip-path="url(#SVGID_16_)" fill="#FFFFFF" points="87.131,47.337 87.131,50.587 93.603,55 93.603,50.147       92.884,49.608     "/>
			</g>
		</g>
		<g opacity="0.25" clip-path="url(#SVGID_8_)">
			<g>
				<defs>
					<rect id="SVGID_17_" x="95.18" y="-4.349" width="16.255" height="59.893"/>
				</defs>
				<clipPath id="SVGID_18_">
					<use xlink:href="#SVGID_17_" overflow="visible"/>
				</clipPath>
				<polygon clip-path="url(#SVGID_18_)" fill="#FFFFFF" points="106.543,0 100.073,2.554 100.073,52.446 106.543,55     "/>
			</g>
		</g>
		<g opacity="0.59" clip-path="url(#SVGID_8_)">
			<g>
				<defs>
					<rect id="SVGID_19_" x="82.238" y="40.944" width="15.539" height="9.208"/>
				</defs>
				<clipPath id="SVGID_20_">
					<use xlink:href="#SVGID_19_" overflow="visible"/>
				</clipPath>
				<polygon clip-path="url(#SVGID_20_)" fill="#FFFFFF" points="87.131,47.337 92.884,49.608 87.131,45.294     "/>
			</g>
		</g>
		<g opacity="0.59" clip-path="url(#SVGID_8_)">
			<g>
				<defs>
					<rect id="SVGID_21_" x="82.238" y="1.043" width="15.539" height="9.208"/>
				</defs>
				<clipPath id="SVGID_22_">
					<use xlink:href="#SVGID_21_" overflow="visible"/>
				</clipPath>
				<polygon clip-path="url(#SVGID_22_)" fill="#FFFFFF" points="92.884,5.393 87.131,7.664 87.131,9.708     "/>
			</g>
		</g>
		<g opacity="0.6" clip-path="url(#SVGID_8_)">
			<g>
				<defs>
					<rect id="SVGID_23_" x="70.917" y="6.051" width="14.176" height="39.095"/>
				</defs>
				<clipPath id="SVGID_24_">
					<use xlink:href="#SVGID_23_" overflow="visible"/>
				</clipPath>
				<polygon clip-path="url(#SVGID_24_)" fill="#FFFFFF" points="79.045,42.868 79.045,12.133 80.201,10.4 75.81,12.133       75.81,42.868 80.201,44.603     "/>
			</g>
		</g>
		<g opacity="0.32" clip-path="url(#SVGID_8_)">
			<g>
				<defs>
					<rect id="SVGID_25_" x="88.709" y="-4.349" width="16.256" height="10.001"/>
				</defs>
				<clipPath id="SVGID_26_">
					<use xlink:href="#SVGID_25_" overflow="visible"/>
				</clipPath>
				<polygon clip-path="url(#SVGID_26_)" fill="#FFFFFF" points="100.073,2.554 100.073,0 93.603,4.854 93.603,5.109     "/>
			</g>
		</g>
		<g opacity="0.32" clip-path="url(#SVGID_8_)">
			<g>
				<defs>
					<rect id="SVGID_27_" x="88.709" y="45.544" width="16.256" height="10"/>
				</defs>
				<clipPath id="SVGID_28_">
					<use xlink:href="#SVGID_27_" overflow="visible"/>
				</clipPath>
				<polygon clip-path="url(#SVGID_28_)" fill="#FFFFFF" points="93.603,50.147 100.073,55 100.073,52.446 93.603,49.892     "/>
			</g>
		</g>
		<g opacity="0.62" clip-path="url(#SVGID_8_)">
			<g>
				<defs>
					<rect id="SVGID_29_" x="87.991" y="0.504" width="10.504" height="5.432"/>
				</defs>
				<clipPath id="SVGID_30_">
					<use xlink:href="#SVGID_29_" overflow="visible"/>
				</clipPath>
				<polygon clip-path="url(#SVGID_30_)" fill="#FFFFFF" points="93.603,5.109 93.603,4.853 92.884,5.393     "/>
			</g>
		</g>
		<g opacity="0.62" clip-path="url(#SVGID_8_)">
			<g>
				<defs>
					<rect id="SVGID_31_" x="87.991" y="45.259" width="10.504" height="5.432"/>
				</defs>
				<clipPath id="SVGID_32_">
					<use xlink:href="#SVGID_31_" overflow="visible"/>
				</clipPath>
				<polygon clip-path="url(#SVGID_32_)" fill="#FFFFFF" points="92.884,49.608 93.603,50.147 93.603,49.893     "/>
			</g>
		</g>
		<g opacity="0.49" clip-path="url(#SVGID_8_)">
			<g>
				<defs>
					<rect id="SVGID_33_" x="88.709" y="-1.795" width="16.256" height="54.784"/>
				</defs>
				<clipPath id="SVGID_34_">
					<use xlink:href="#SVGID_33_" overflow="visible"/>
				</clipPath>
				<polygon clip-path="url(#SVGID_34_)" fill="#FFFFFF" points="93.603,5.109 93.603,49.893 100.073,52.445 100.073,2.554     "/>
			</g>
		</g>
		<g opacity="0.71" clip-path="url(#SVGID_8_)">
			<g>
				<defs>
					<rect id="SVGID_35_" x="82.238" y="0.76" width="16.257" height="49.677"/>
				</defs>
				<clipPath id="SVGID_36_">
					<use xlink:href="#SVGID_35_" overflow="visible"/>
				</clipPath>
				<polygon clip-path="url(#SVGID_36_)" fill="#FFFFFF" points="87.131,9.708 87.131,45.294 92.884,49.609 93.603,49.892       93.603,5.109 92.884,5.393     "/>
			</g>
		</g>
		<g opacity="0.28" clip-path="url(#SVGID_8_)">
			<g>
				<defs>
					<rect id="SVGID_37_" x="76.849" y="42.563" width="15.175" height="12.98"/>
				</defs>
				<clipPath id="SVGID_38_">
					<use xlink:href="#SVGID_37_" overflow="visible"/>
				</clipPath>
				<polygon clip-path="url(#SVGID_38_)" fill="#FFFFFF" points="87.131,55 87.131,50.587 81.741,46.912     "/>
			</g>
		</g>
		<g opacity="0.28" clip-path="url(#SVGID_8_)">
			<g>
				<defs>
					<rect id="SVGID_39_" x="76.849" y="-4.349" width="15.175" height="12.982"/>
				</defs>
				<clipPath id="SVGID_40_">
					<use xlink:href="#SVGID_39_" overflow="visible"/>
				</clipPath>
				<polygon clip-path="url(#SVGID_40_)" fill="#FFFFFF" points="87.131,0 81.741,8.089 87.131,4.414     "/>
			</g>
		</g>
		<g opacity="0.6" clip-path="url(#SVGID_8_)">
			<g>
				<defs>
					<rect id="SVGID_41_" x="75.308" y="0.064" width="16.716" height="10.879"/>
				</defs>
				<clipPath id="SVGID_42_">
					<use xlink:href="#SVGID_41_" overflow="visible"/>
				</clipPath>
				<polygon clip-path="url(#SVGID_42_)" fill="#FFFFFF" points="87.131,7.664 87.131,4.414 81.741,8.089 80.201,10.4     "/>
			</g>
		</g>
		<g opacity="0.6" clip-path="url(#SVGID_8_)">
			<g>
				<defs>
					<rect id="SVGID_43_" x="75.308" y="40.253" width="16.716" height="10.879"/>
				</defs>
				<clipPath id="SVGID_44_">
					<use xlink:href="#SVGID_43_" overflow="visible"/>
				</clipPath>
				<polygon clip-path="url(#SVGID_44_)" fill="#FFFFFF" points="80.201,44.602 81.741,46.912 87.131,50.587 87.131,47.337     "/>
			</g>
		</g>
		<g opacity="0.7" clip-path="url(#SVGID_8_)">
			<g>
				<defs>
					<rect id="SVGID_45_" x="74.153" y="3.315" width="17.871" height="44.566"/>
				</defs>
				<clipPath id="SVGID_46_">
					<use xlink:href="#SVGID_45_" overflow="visible"/>
				</clipPath>
				<polygon clip-path="url(#SVGID_46_)" fill="#FFFFFF" points="83.898,42.868 83.898,12.133 87.13,9.708 87.13,7.664 80.201,10.4       79.046,12.133 79.046,42.868 80.201,44.603 87.13,47.337 87.13,45.293     "/>
			</g>
		</g>
		<g opacity="0.78" clip-path="url(#SVGID_8_)">
			<g>
				<defs>
					<rect id="SVGID_47_" x="79.005" y="5.359" width="13.019" height="40.478"/>
				</defs>
				<clipPath id="SVGID_48_">
					<use xlink:href="#SVGID_47_" overflow="visible"/>
				</clipPath>
				<polygon clip-path="url(#SVGID_48_)" fill="#FFFFFF" points="83.898,42.868 87.13,45.293 87.13,9.708 83.898,12.133     "/>
			</g>
		</g>
	</g>
	<rect x="113.463" y="29.347" clip-path="url(#SVGID_2_)" fill="#FFFFFF" width="0.584" height="7.049"/>
	<g clip-path="url(#SVGID_2_)">
		<defs>
			<rect id="SVGID_49_" width="170.824" height="55"/>
		</defs>
		<clipPath id="SVGID_50_">
			<use xlink:href="#SVGID_49_" overflow="visible"/>
		</clipPath>
		<path clip-path="url(#SVGID_50_)" fill="#FFFFFF" d="M117.283,36.396v-3.792c0-0.554-0.307-0.821-0.693-0.821    c-0.386,0-0.703,0.268-0.703,0.821v3.792h-0.553v-5.038h0.544v0.405c0.059-0.109,0.197-0.248,0.286-0.307    c0.158-0.109,0.348-0.179,0.574-0.179c0.336,0,0.584,0.13,0.793,0.347c0.197,0.207,0.307,0.484,0.307,0.99v3.781H117.283z"/>
		<path clip-path="url(#SVGID_50_)" fill="#FFFFFF" d="M120.855,32.653c0-0.326-0.078-0.545-0.227-0.693    c-0.129-0.117-0.297-0.188-0.485-0.188c-0.198,0-0.376,0.1-0.485,0.229c-0.227,0.277-0.246,0.801-0.246,1.88    s0.02,1.593,0.246,1.871c0.109,0.128,0.287,0.228,0.485,0.228c0.188,0,0.356-0.059,0.485-0.178    c0.148-0.148,0.227-0.377,0.227-0.703V32.653z M120.867,36.396v-0.406c-0.051,0.109-0.199,0.248-0.278,0.307    c-0.167,0.119-0.347,0.18-0.573,0.18c-0.308,0-0.575-0.12-0.783-0.357c-0.307-0.356-0.376-0.98-0.376-2.237    s0.069-1.891,0.376-2.247c0.189-0.218,0.436-0.356,0.783-0.356c0.227,0,0.406,0.05,0.573,0.158    c0.101,0.06,0.208,0.188,0.267,0.298v-2.387h0.555v7.049H120.867z"/>
		<path clip-path="url(#SVGID_50_)" fill="#FFFFFF" d="M124.539,36.396v-0.406c-0.06,0.109-0.199,0.248-0.288,0.307    c-0.157,0.109-0.347,0.18-0.573,0.18c-0.337,0-0.584-0.12-0.793-0.338c-0.197-0.207-0.307-0.495-0.307-1v-3.78h0.555v3.791    c0,0.554,0.307,0.821,0.693,0.821s0.702-0.268,0.702-0.821v-3.791h0.554v5.038H124.539z"/>
		<path clip-path="url(#SVGID_50_)" fill="#FFFFFF" d="M128.27,36.088c-0.247,0.248-0.573,0.387-0.96,0.387    c-0.386,0-0.692-0.128-0.921-0.356c-0.286-0.297-0.395-0.663-0.395-1.09h0.554c0,0.317,0.069,0.555,0.257,0.743    c0.139,0.138,0.318,0.208,0.505,0.208c0.237,0,0.427-0.08,0.575-0.229c0.147-0.146,0.227-0.365,0.227-0.623    c0-0.208-0.039-0.386-0.139-0.544c-0.109-0.169-0.268-0.308-0.504-0.437l-0.635-0.346c-0.316-0.179-0.543-0.405-0.652-0.594    c-0.1-0.188-0.139-0.387-0.139-0.635c0-0.385,0.158-0.712,0.396-0.949c0.227-0.228,0.545-0.347,0.9-0.347    c0.377,0,0.674,0.108,0.9,0.337c0.248,0.247,0.367,0.604,0.367,1.09h-0.555c0-0.377-0.06-0.564-0.219-0.734    c-0.138-0.147-0.316-0.197-0.494-0.197c-0.217,0-0.396,0.059-0.525,0.188c-0.158,0.148-0.217,0.386-0.217,0.593    c0,0.17,0.029,0.317,0.1,0.436c0.068,0.129,0.236,0.248,0.465,0.377l0.623,0.356c0.326,0.188,0.545,0.366,0.684,0.594    s0.197,0.505,0.197,0.792C128.666,35.504,128.508,35.851,128.27,36.088"/>
		<path clip-path="url(#SVGID_50_)" fill="#FFFFFF" d="M130.141,36.079c-0.248-0.229-0.375-0.564-0.375-1.029v-3.219h-0.615v-0.435    h0.615v-1.515h0.553v1.515h0.861v0.435h-0.861v3.219c0,0.604,0.317,0.85,0.902,0.85v0.496    C130.814,36.396,130.438,36.355,130.141,36.079"/>
		<path clip-path="url(#SVGID_50_)" fill="#FFFFFF" d="M133.546,31.802c-0.594,0-0.979,0.377-0.979,0.98v3.613h-0.556v-5.038h0.545    v0.533c0.05-0.108,0.169-0.247,0.248-0.315c0.227-0.209,0.524-0.298,0.86-0.298v0.524H133.546z"/>
	</g>
	<path clip-path="url(#SVGID_2_)" fill="#FFFFFF" d="M134.437,31.356h0.554v5.039h-0.554V31.356z M134.357,29.486h0.713v0.712   h-0.713V29.486z"/>
	<g clip-path="url(#SVGID_2_)">
		<defs>
			<rect id="SVGID_51_" width="170.824" height="55"/>
		</defs>
		<clipPath id="SVGID_52_">
			<use xlink:href="#SVGID_51_" overflow="visible"/>
		</clipPath>
		<path clip-path="url(#SVGID_52_)" fill="#FFFFFF" d="M137.95,33.96h-0.554c-0.258,0-0.445,0.06-0.614,0.218    c-0.168,0.169-0.267,0.476-0.267,0.812c0,0.604,0.217,0.99,0.703,0.99c0.445,0,0.731-0.386,0.731-0.91V33.96z M137.971,36.396    v-0.456c-0.069,0.14-0.188,0.268-0.277,0.337c-0.158,0.119-0.327,0.199-0.604,0.199c-0.317,0-0.584-0.109-0.803-0.338    c-0.188-0.198-0.326-0.594-0.326-1.139c0-0.475,0.139-0.881,0.426-1.139c0.248-0.228,0.534-0.336,0.99-0.336h0.573v-0.9    c0-0.555-0.228-0.861-0.692-0.861c-0.197,0-0.347,0.08-0.455,0.188c-0.158,0.168-0.229,0.366-0.229,0.703h-0.553    c0-0.375,0.078-0.752,0.365-1.039c0.208-0.207,0.505-0.337,0.871-0.337c0.396,0,0.703,0.108,0.9,0.317    c0.229,0.236,0.346,0.554,0.346,1.049v3.752H137.971z"/>
		<path clip-path="url(#SVGID_52_)" fill="#FFFFFF" d="M141.682,36.088c-0.247,0.248-0.574,0.387-0.959,0.387    c-0.387,0-0.693-0.128-0.922-0.356c-0.287-0.297-0.396-0.663-0.396-1.09h0.556c0,0.317,0.068,0.555,0.257,0.743    c0.138,0.138,0.315,0.208,0.505,0.208c0.236,0,0.426-0.08,0.573-0.229c0.149-0.146,0.228-0.365,0.228-0.623    c0-0.208-0.039-0.386-0.139-0.544c-0.108-0.169-0.267-0.308-0.504-0.437l-0.634-0.346c-0.317-0.179-0.544-0.405-0.653-0.594    c-0.1-0.188-0.139-0.387-0.139-0.635c0-0.385,0.158-0.712,0.396-0.949c0.227-0.228,0.543-0.347,0.9-0.347    c0.377,0,0.673,0.108,0.9,0.337c0.248,0.247,0.366,0.604,0.366,1.09h-0.554c0-0.377-0.06-0.564-0.218-0.734    c-0.14-0.147-0.317-0.197-0.495-0.197c-0.219,0-0.396,0.059-0.523,0.188c-0.16,0.148-0.219,0.386-0.219,0.593    c0,0.17,0.029,0.317,0.099,0.436c0.069,0.129,0.237,0.248,0.465,0.377l0.624,0.356c0.326,0.188,0.544,0.366,0.684,0.594    c0.138,0.228,0.197,0.505,0.197,0.792C142.078,35.504,141.92,35.851,141.682,36.088"/>
		<path clip-path="url(#SVGID_52_)" fill="#FFFFFF" d="M147.344,36.138c-0.236,0.209-0.554,0.337-0.97,0.337    c-0.456,0-0.812-0.159-1.049-0.417c-0.446-0.475-0.495-1.028-0.495-3.187c0-2.157,0.049-2.712,0.495-3.187    c0.237-0.258,0.593-0.416,1.049-0.416c0.444,0,0.772,0.138,1.01,0.376c0.307,0.306,0.446,0.781,0.454,1.316h-0.583    c0-0.356-0.069-0.702-0.276-0.931c-0.139-0.148-0.327-0.238-0.604-0.238c-0.286,0-0.485,0.1-0.623,0.258    c-0.288,0.347-0.337,0.753-0.337,2.821c0,2.069,0.049,2.476,0.337,2.821c0.138,0.158,0.337,0.257,0.623,0.257    c0.277,0,0.466-0.089,0.604-0.237c0.207-0.227,0.276-0.574,0.276-0.931h0.583C147.83,35.347,147.681,35.831,147.344,36.138"/>
		<path clip-path="url(#SVGID_52_)" fill="#FFFFFF" d="M150.759,36.396v-0.406c-0.059,0.109-0.198,0.248-0.286,0.307    c-0.159,0.109-0.347,0.18-0.575,0.18c-0.337,0-0.583-0.12-0.792-0.338c-0.197-0.207-0.307-0.495-0.307-1v-3.78h0.555v3.791    c0,0.554,0.307,0.821,0.693,0.821c0.385,0,0.703-0.268,0.703-0.821v-3.791h0.553v5.038H150.759z"/>
		<path clip-path="url(#SVGID_52_)" fill="#FFFFFF" d="M152.838,36.079c-0.238-0.219-0.377-0.525-0.377-1.029v-5.703h0.555v5.703    c0,0.543,0.268,0.85,0.822,0.85v0.496C153.461,36.396,153.115,36.336,152.838,36.079"/>
		<path clip-path="url(#SVGID_52_)" fill="#FFFFFF" d="M155.144,36.079c-0.247-0.229-0.375-0.564-0.375-1.029v-3.219h-0.615v-0.435    h0.615v-1.515h0.554v1.515h0.861v0.435h-0.861v3.219c0,0.604,0.316,0.85,0.9,0.85v0.496    C155.817,36.396,155.44,36.355,155.144,36.079"/>
		<path clip-path="url(#SVGID_52_)" fill="#FFFFFF" d="M158.954,36.396v-0.406c-0.059,0.109-0.197,0.248-0.286,0.307    c-0.158,0.109-0.347,0.18-0.574,0.18c-0.338,0-0.584-0.12-0.793-0.338c-0.197-0.207-0.306-0.495-0.306-1v-3.78h0.554v3.791    c0,0.554,0.307,0.821,0.693,0.821c0.386,0,0.703-0.268,0.703-0.821v-3.791h0.553v5.038H158.954z"/>
		<path clip-path="url(#SVGID_52_)" fill="#FFFFFF" d="M162.251,31.802c-0.595,0-0.98,0.377-0.98,0.98v3.613h-0.554v-5.038h0.543    v0.533c0.05-0.108,0.17-0.247,0.248-0.315c0.228-0.209,0.525-0.298,0.861-0.298v0.524H162.251z"/>
		<path clip-path="url(#SVGID_52_)" fill="#FFFFFF" d="M164.873,33.96h-0.554c-0.257,0-0.445,0.06-0.613,0.218    c-0.169,0.169-0.268,0.476-0.268,0.812c0,0.604,0.218,0.99,0.703,0.99c0.444,0,0.731-0.386,0.731-0.91V33.96z M164.893,36.396    v-0.456c-0.068,0.14-0.187,0.268-0.276,0.337c-0.158,0.119-0.327,0.199-0.604,0.199c-0.317,0-0.584-0.109-0.802-0.338    c-0.188-0.198-0.326-0.594-0.326-1.139c0-0.475,0.138-0.881,0.425-1.139c0.248-0.228,0.534-0.336,0.99-0.336h0.573v-0.9    c0-0.555-0.227-0.861-0.693-0.861c-0.196,0-0.346,0.08-0.455,0.188c-0.158,0.168-0.228,0.366-0.228,0.703h-0.554    c0-0.375,0.079-0.752,0.366-1.039c0.208-0.207,0.505-0.337,0.87-0.337c0.396,0,0.704,0.108,0.902,0.317    c0.227,0.236,0.346,0.554,0.346,1.049v3.752H164.893z"/>
	</g>
	<path clip-path="url(#SVGID_2_)" fill="#FFFFFF" d="M166.646,31.356h0.553v5.039h-0.553V31.356z M166.566,29.486h0.713v0.712   h-0.713V29.486z"/>
	<g clip-path="url(#SVGID_2_)">
		<defs>
			<rect id="SVGID_53_" width="170.824" height="55"/>
		</defs>
		<clipPath id="SVGID_54_">
			<use xlink:href="#SVGID_53_" overflow="visible"/>
		</clipPath>
		<path clip-path="url(#SVGID_54_)" fill="#FFFFFF" d="M170.427,36.088c-0.248,0.248-0.574,0.387-0.96,0.387    c-0.387,0-0.693-0.128-0.921-0.356c-0.287-0.297-0.396-0.663-0.396-1.09h0.555c0,0.317,0.068,0.555,0.256,0.743    c0.139,0.138,0.316,0.208,0.506,0.208c0.237,0,0.425-0.08,0.574-0.229c0.148-0.146,0.228-0.365,0.228-0.623    c0-0.208-0.04-0.386-0.139-0.544c-0.109-0.169-0.268-0.308-0.505-0.437l-0.634-0.346c-0.317-0.179-0.544-0.405-0.653-0.594    c-0.1-0.188-0.139-0.387-0.139-0.635c0-0.385,0.158-0.712,0.396-0.949c0.228-0.228,0.545-0.347,0.9-0.347    c0.377,0,0.674,0.108,0.901,0.337c0.247,0.247,0.366,0.604,0.366,1.09h-0.555c0-0.377-0.06-0.564-0.218-0.734    c-0.139-0.147-0.316-0.197-0.495-0.197c-0.219,0-0.396,0.059-0.524,0.188c-0.159,0.148-0.218,0.386-0.218,0.593    c0,0.17,0.029,0.317,0.1,0.436c0.068,0.129,0.236,0.248,0.465,0.377l0.624,0.356c0.326,0.188,0.544,0.366,0.683,0.594    s0.198,0.505,0.198,0.792C170.823,35.504,170.665,35.851,170.427,36.088"/>
	</g>
	<path clip-path="url(#SVGID_2_)" fill="#FFFFFF" d="M114.96,19.526l-0.704,3.543h1.416L114.96,19.526z M116.167,25.524l-0.386-1.93   h-1.643l-0.377,1.93h-0.634l1.575-7.048h0.543l1.545,7.048H116.167z"/>
	<polygon clip-path="url(#SVGID_2_)" fill="#FFFFFF" points="119.236,25.524 118.435,23.446 117.622,25.524 117.01,25.524    118.117,22.96 117.068,20.487 117.682,20.487 118.435,22.485 119.177,20.487 119.791,20.487 118.721,22.96 119.85,25.524  "/>
	<g clip-path="url(#SVGID_2_)">
		<defs>
			<rect id="SVGID_55_" width="170.824" height="55"/>
		</defs>
		<clipPath id="SVGID_56_">
			<use xlink:href="#SVGID_55_" overflow="visible"/>
		</clipPath>
		<path clip-path="url(#SVGID_56_)" fill="#FFFFFF" d="M122.344,21.13c-0.109-0.129-0.268-0.228-0.496-0.228    c-0.227,0-0.395,0.099-0.504,0.228c-0.197,0.228-0.237,0.663-0.247,1.515h1.494C122.581,21.793,122.541,21.357,122.344,21.13     M121.097,23.089c0,1.03,0.03,1.535,0.257,1.792c0.109,0.128,0.278,0.227,0.505,0.227c0.198,0,0.376-0.058,0.505-0.197    c0.149-0.159,0.228-0.406,0.228-0.712h0.544c-0.01,0.485-0.107,0.791-0.365,1.058c-0.218,0.228-0.564,0.346-0.911,0.346    c-0.396,0-0.692-0.129-0.91-0.366c-0.336-0.356-0.405-1.02-0.405-2.226c0-1.208,0.069-1.881,0.405-2.237    c0.218-0.238,0.515-0.366,0.899-0.366c0.387,0,0.684,0.128,0.902,0.366c0.355,0.385,0.396,1.099,0.396,2.316H121.097z"/>
		<path clip-path="url(#SVGID_56_)" fill="#FFFFFF" d="M126.194,25.524v-3.792c0-0.554-0.306-0.822-0.693-0.822    c-0.386,0-0.703,0.268-0.703,0.822v3.792h-0.554v-5.038h0.545v0.405c0.059-0.108,0.197-0.247,0.287-0.307    c0.158-0.109,0.347-0.178,0.573-0.178c0.337,0,0.584,0.128,0.793,0.346c0.198,0.208,0.306,0.486,0.306,0.99v3.782H126.194z"/>
		<path clip-path="url(#SVGID_56_)" fill="#FFFFFF" d="M130.045,25.276c-0.219,0.229-0.525,0.326-0.891,0.326    c-0.377,0-0.713-0.128-0.931-0.394c-0.308-0.368-0.376-1.011-0.376-2.198c0-1.188,0.068-1.831,0.376-2.198    c0.218-0.268,0.554-0.405,0.931-0.405c0.386,0,0.672,0.08,0.891,0.306c0.297,0.297,0.346,0.704,0.357,1.109h-0.546    c0-0.247-0.02-0.515-0.197-0.712c-0.13-0.139-0.278-0.208-0.495-0.208c-0.219,0-0.406,0.099-0.516,0.228    c-0.228,0.277-0.247,0.801-0.247,1.88c0,1.079,0.02,1.593,0.247,1.871c0.109,0.128,0.297,0.228,0.516,0.228    c0.197,0,0.355-0.07,0.484-0.198c0.178-0.179,0.208-0.416,0.208-0.713h0.546C130.391,24.673,130.292,25.02,130.045,25.276"/>
	</g>
	<path clip-path="url(#SVGID_2_)" fill="#FFFFFF" d="M131.46,20.486h0.554v5.038h-0.554V20.486z M131.381,18.615h0.713v0.712h-0.713   V18.615z"/>
	<g clip-path="url(#SVGID_2_)">
		<defs>
			<rect id="SVGID_57_" width="170.824" height="55"/>
		</defs>
		<clipPath id="SVGID_58_">
			<use xlink:href="#SVGID_57_" overflow="visible"/>
		</clipPath>
		<path clip-path="url(#SVGID_58_)" fill="#FFFFFF" d="M135.072,23.089h-0.554c-0.258,0-0.446,0.059-0.614,0.217    c-0.168,0.168-0.267,0.476-0.267,0.812c0,0.603,0.218,0.99,0.702,0.99c0.446,0,0.732-0.387,0.732-0.911V23.089z M135.092,25.524    v-0.455c-0.068,0.139-0.188,0.267-0.276,0.337c-0.158,0.118-0.327,0.196-0.604,0.196c-0.317,0-0.584-0.108-0.802-0.336    c-0.188-0.197-0.327-0.594-0.327-1.138c0-0.476,0.14-0.882,0.426-1.139c0.247-0.228,0.535-0.337,0.989-0.337h0.574v-0.899    c0-0.555-0.227-0.862-0.692-0.862c-0.198,0-0.347,0.08-0.454,0.188c-0.16,0.168-0.229,0.367-0.229,0.703h-0.555    c0-0.376,0.08-0.752,0.366-1.039c0.208-0.208,0.505-0.336,0.871-0.336c0.396,0,0.704,0.108,0.901,0.316    c0.228,0.238,0.346,0.555,0.346,1.048v3.752H135.092z"/>
		<path clip-path="url(#SVGID_58_)" fill="#FFFFFF" d="M140.181,25.604c-0.456,0-0.812-0.158-1.05-0.416    c-0.445-0.474-0.494-1.03-0.494-3.188s0.049-2.711,0.494-3.187c0.238-0.257,0.594-0.417,1.05-0.417s0.782,0.149,1.019,0.387    c0.297,0.307,0.446,0.772,0.446,1.307h-0.584c0-0.564-0.169-1.168-0.881-1.168c-0.287,0-0.485,0.1-0.624,0.257    c-0.287,0.347-0.336,0.753-0.336,2.821c0,2.07,0.049,2.475,0.336,2.822c0.139,0.157,0.337,0.257,0.624,0.257    c0.505,0,0.881-0.397,0.881-1.059v-1.733h-0.881v-0.495h1.465v2.229C141.646,25.069,140.963,25.604,140.181,25.604"/>
		<path clip-path="url(#SVGID_58_)" fill="#FFFFFF" d="M144.596,23.089h-0.555c-0.258,0-0.445,0.059-0.614,0.217    c-0.169,0.168-0.267,0.476-0.267,0.812c0,0.603,0.217,0.99,0.703,0.99c0.444,0,0.732-0.387,0.732-0.911V23.089z M144.615,25.524    v-0.455c-0.069,0.139-0.188,0.267-0.277,0.337c-0.158,0.118-0.327,0.196-0.604,0.196c-0.316,0-0.584-0.108-0.802-0.336    c-0.189-0.197-0.327-0.594-0.327-1.138c0-0.476,0.138-0.882,0.426-1.139c0.248-0.228,0.534-0.337,0.99-0.337h0.574v-0.899    c0-0.555-0.229-0.862-0.693-0.862c-0.197,0-0.347,0.08-0.455,0.188c-0.159,0.168-0.229,0.367-0.229,0.703h-0.554    c0-0.376,0.078-0.752,0.366-1.039c0.207-0.208,0.505-0.336,0.871-0.336c0.396,0,0.703,0.108,0.9,0.316    c0.228,0.238,0.347,0.555,0.347,1.048v3.752H144.615z"/>
		<path clip-path="url(#SVGID_58_)" fill="#FFFFFF" d="M146.762,25.208c-0.237-0.219-0.376-0.526-0.376-1.03v-5.702h0.555v5.702    c0,0.543,0.268,0.851,0.822,0.851v0.495C147.387,25.524,147.039,25.465,146.762,25.208"/>
		<path clip-path="url(#SVGID_58_)" fill="#FFFFFF" d="M150.247,21.13c-0.108-0.129-0.268-0.228-0.495-0.228    s-0.396,0.099-0.506,0.228c-0.197,0.228-0.236,0.663-0.246,1.515h1.494C150.484,21.793,150.445,21.357,150.247,21.13 M149,23.089    c0,1.03,0.029,1.535,0.256,1.792c0.11,0.128,0.278,0.227,0.506,0.227c0.199,0,0.377-0.058,0.504-0.197    c0.15-0.159,0.229-0.406,0.229-0.712h0.545c-0.01,0.485-0.109,0.791-0.367,1.058c-0.217,0.228-0.564,0.346-0.91,0.346    c-0.396,0-0.693-0.129-0.91-0.366c-0.337-0.356-0.406-1.02-0.406-2.226c0-1.208,0.069-1.881,0.406-2.237    c0.217-0.238,0.515-0.366,0.9-0.366c0.387,0,0.684,0.128,0.9,0.366c0.356,0.385,0.396,1.099,0.396,2.316H149z"/>
		<path clip-path="url(#SVGID_58_)" fill="#FFFFFF" d="M153.979,21.783c0-0.327-0.079-0.545-0.228-0.693    c-0.129-0.119-0.297-0.188-0.485-0.188c-0.207,0-0.375,0.099-0.484,0.228c-0.229,0.266-0.248,0.792-0.248,1.83    c0,1.04,0.02,1.555,0.248,1.822c0.109,0.129,0.277,0.227,0.484,0.227c0.188,0,0.356-0.058,0.485-0.187    c0.148-0.149,0.228-0.369,0.228-0.693V21.783z M154.156,27.188c-0.207,0.228-0.544,0.366-0.9,0.366    c-0.365,0-0.683-0.109-0.91-0.338c-0.258-0.256-0.347-0.593-0.347-1.059h0.544c0,0.308,0.039,0.545,0.218,0.724    c0.13,0.128,0.298,0.188,0.485,0.188c0.218,0,0.386-0.099,0.495-0.218c0.178-0.197,0.237-0.534,0.237-1.168V25.05    c-0.049,0.109-0.179,0.236-0.268,0.297c-0.158,0.109-0.336,0.147-0.574,0.147c-0.316,0-0.563-0.109-0.771-0.347    c-0.307-0.346-0.387-0.939-0.387-2.197c0-1.257,0.08-1.841,0.387-2.187c0.188-0.208,0.416-0.356,0.771-0.356    c0.229,0,0.416,0.059,0.584,0.178c0.079,0.059,0.219,0.188,0.268,0.297v-0.396h0.545v5.187    C154.533,26.515,154.443,26.881,154.156,27.188"/>
		<path clip-path="url(#SVGID_58_)" fill="#FFFFFF" d="M157.582,23.089h-0.555c-0.258,0-0.445,0.059-0.613,0.217    c-0.169,0.168-0.268,0.476-0.268,0.812c0,0.603,0.218,0.99,0.703,0.99c0.445,0,0.732-0.387,0.732-0.911V23.089z M157.602,25.524    v-0.455c-0.068,0.139-0.188,0.267-0.277,0.337c-0.158,0.118-0.326,0.196-0.604,0.196c-0.317,0-0.584-0.108-0.803-0.336    c-0.188-0.197-0.326-0.594-0.326-1.138c0-0.476,0.139-0.882,0.426-1.139c0.248-0.228,0.535-0.337,0.99-0.337h0.574v-0.899    c0-0.555-0.228-0.862-0.693-0.862c-0.197,0-0.347,0.08-0.455,0.188c-0.158,0.168-0.229,0.367-0.229,0.703h-0.553    c0-0.376,0.078-0.752,0.365-1.039c0.209-0.208,0.506-0.336,0.871-0.336c0.396,0,0.703,0.108,0.9,0.316    c0.229,0.238,0.346,0.555,0.346,1.048v3.752H157.602z"/>
		<path clip-path="url(#SVGID_58_)" fill="#FFFFFF" d="M163.055,21.783c0-0.327-0.078-0.544-0.227-0.693    c-0.129-0.119-0.297-0.188-0.485-0.188c-0.198,0-0.376,0.099-0.485,0.228c-0.228,0.277-0.246,0.801-0.246,1.88    c0,1.079,0.019,1.593,0.246,1.871c0.109,0.128,0.287,0.228,0.485,0.228c0.188,0,0.356-0.059,0.485-0.178    c0.148-0.148,0.227-0.376,0.227-0.704V21.783z M163.065,25.524v-0.406c-0.05,0.109-0.198,0.248-0.278,0.307    c-0.167,0.119-0.346,0.178-0.573,0.178c-0.307,0-0.575-0.118-0.782-0.355c-0.307-0.356-0.376-0.979-0.376-2.237    c0-1.256,0.069-1.891,0.376-2.247c0.188-0.218,0.436-0.356,0.782-0.356c0.228,0,0.406,0.049,0.573,0.158    c0.1,0.059,0.208,0.188,0.268,0.297v-2.386h0.555v7.048H163.065z"/>
		<path clip-path="url(#SVGID_58_)" fill="#FFFFFF" d="M166.598,23.089h-0.553c-0.258,0-0.445,0.059-0.613,0.217    c-0.17,0.168-0.268,0.476-0.268,0.812c0,0.603,0.217,0.99,0.702,0.99c0.445,0,0.731-0.387,0.731-0.911V23.089z M166.619,25.524    v-0.455c-0.07,0.139-0.188,0.267-0.277,0.337c-0.159,0.118-0.328,0.196-0.604,0.196c-0.318,0-0.585-0.108-0.803-0.336    c-0.188-0.197-0.326-0.594-0.326-1.138c0-0.476,0.138-0.882,0.426-1.139c0.246-0.228,0.535-0.337,0.99-0.337h0.572v-0.899    c0-0.555-0.227-0.862-0.691-0.862c-0.198,0-0.347,0.08-0.456,0.188c-0.158,0.168-0.228,0.367-0.228,0.703h-0.553    c0-0.376,0.077-0.752,0.365-1.039c0.207-0.208,0.504-0.336,0.871-0.336c0.395,0,0.703,0.108,0.9,0.316    c0.227,0.238,0.346,0.555,0.346,1.048v3.752H166.619z"/>
		<path clip-path="url(#SVGID_58_)" fill="#FFFFFF" d="M170.43,25.218c-0.248,0.247-0.574,0.385-0.961,0.385    c-0.386,0-0.692-0.13-0.92-0.356c-0.287-0.296-0.396-0.662-0.396-1.09h0.555c0,0.318,0.069,0.557,0.257,0.744    c0.14,0.138,0.317,0.207,0.505,0.207c0.237,0,0.425-0.078,0.575-0.227c0.147-0.149,0.227-0.366,0.227-0.624    c0-0.208-0.039-0.386-0.138-0.544c-0.109-0.167-0.268-0.306-0.506-0.435l-0.633-0.347c-0.316-0.179-0.545-0.406-0.654-0.594    c-0.099-0.188-0.138-0.386-0.138-0.634c0-0.386,0.159-0.713,0.396-0.95c0.228-0.228,0.544-0.347,0.9-0.347    c0.376,0,0.673,0.108,0.9,0.336c0.247,0.248,0.367,0.604,0.367,1.089h-0.556c0-0.376-0.059-0.564-0.217-0.732    c-0.139-0.148-0.316-0.198-0.495-0.198c-0.218,0-0.396,0.06-0.524,0.188c-0.159,0.148-0.218,0.387-0.218,0.594    c0,0.167,0.029,0.316,0.099,0.435c0.069,0.129,0.238,0.248,0.466,0.376l0.623,0.356c0.326,0.188,0.545,0.367,0.683,0.594    c0.14,0.227,0.197,0.505,0.197,0.792C170.824,24.634,170.666,24.979,170.43,25.218"/>
	</g>
</g>
</svg>