<?xml version="1.0" encoding="UTF-8"?>
<!-- Generator: Adobe Illustrator 16.0.0, SVG Export Plug-In . SVG Version: 6.00 Build 0)  -->
<!DOCTYPE svg PUBLIC "-//W3C//DTD SVG 1.1//EN" "http://www.w3.org/Graphics/SVG/1.1/DTD/svg11.dtd">
<svg version="1.1" id="Layer_1" xmlns="http://www.w3.org/2000/svg" xmlns:xlink="http://www.w3.org/1999/xlink" x="0px" y="0px" width="70px" height="55px" viewBox="0 0 70 55" enable-background="new 0 0 70 55" xml:space="preserve">
<g>
	<path fill="#FFFFFF" d="M1.986,1.986h51.026v51.027H1.986V1.986z M0,55h55V0H0V55z"/>
	<g>
		<defs>
			<rect id="SVGID_1_" width="55" height="55"/>
		</defs>
		<clipPath id="SVGID_2_">
			<use xlink:href="#SVGID_1_" overflow="visible"/>
		</clipPath>
		<path clip-path="url(#SVGID_2_)" fill="#FFFFFF" d="M9.609,34.668c0.343,0.284,0.733,0.486,1.164,0.604    c0.432,0.117,0.854,0.176,1.272,0.176c0.487,0,0.944-0.099,1.368-0.296c0.424-0.199,0.793-0.462,1.11-0.79    c0.317-0.33,0.564-0.714,0.744-1.153c0.18-0.439,0.269-0.9,0.269-1.383v-0.966h-2.198v0.769c0,0.307-0.044,0.562-0.129,0.769    c-0.086,0.204-0.198,0.364-0.333,0.482c-0.138,0.117-0.288,0.201-0.453,0.253c-0.165,0.051-0.321,0.076-0.463,0.076    c-0.504,0-0.852-0.153-1.046-0.462c-0.194-0.307-0.291-0.687-0.291-1.141v-7.99c0-0.527,0.089-0.963,0.269-1.308    c0.18-0.343,0.543-0.516,1.089-0.516c0.416,0,0.747,0.162,0.991,0.483c0.245,0.322,0.367,0.702,0.367,1.143v0.744h2.198v-0.877    c0-0.541-0.089-1.042-0.269-1.503c-0.18-0.462-0.427-0.856-0.744-1.187c-0.316-0.33-0.689-0.585-1.121-0.768    c-0.431-0.183-0.897-0.274-1.4-0.274c-0.531,0-1.017,0.091-1.455,0.274c-0.438,0.183-0.815,0.434-1.131,0.757    c-0.316,0.322-0.561,0.702-0.733,1.142c-0.173,0.438-0.259,0.915-0.259,1.427v8.605c0,0.718,0.111,1.311,0.334,1.778    C8.979,34.006,9.264,34.383,9.609,34.668"/>
	</g>
	<rect x="17.39" y="19.685" fill="#FFFFFF" width="2.199" height="15.631"/>
	<g>
		<defs>
			<rect id="SVGID_3_" width="55" height="55"/>
		</defs>
		<clipPath id="SVGID_4_">
			<use xlink:href="#SVGID_3_" overflow="visible"/>
		</clipPath>
		<path clip-path="url(#SVGID_4_)" fill="#FFFFFF" d="M23.921,21.793h1.013c0.646,0,1.092,0.168,1.337,0.504    c0.244,0.337,0.366,0.812,0.366,1.428v7.53c0,0.673-0.128,1.166-0.388,1.481c-0.259,0.314-0.697,0.472-1.315,0.472h-1.013V21.793z     M27.791,34.272c0.696-0.694,1.045-1.773,1.045-3.237v-7.311c0-1.273-0.331-2.265-0.991-2.975    c-0.661-0.709-1.617-1.065-2.866-1.065h-3.257v15.63h3.062C26.091,35.315,27.093,34.968,27.791,34.272"/>
	</g>
	<polygon fill="#FFFFFF" points="37.459,33.076 33.104,33.076 33.104,28.488 36.899,28.488 36.899,26.381 33.104,26.381    33.104,21.793 37.459,21.793 37.459,19.685 30.906,19.685 30.906,35.315 37.459,35.315  "/>
	<path fill="#FFFFFF" d="M42.2,24.185h0.043l1.078,5.664h-2.199L42.2,24.185z M40.735,31.957h2.996l0.646,3.359h2.199l-3.427-15.632   h-1.832L37.89,35.316h2.199L40.735,31.957z"/>
</g>
</svg>