<?xml version="1.0" encoding="UTF-8"?>
<!-- Generator: Adobe Illustrator 16.0.0, SVG Export Plug-In . SVG Version: 6.00 Build 0)  -->
<!DOCTYPE svg PUBLIC "-//W3C//DTD SVG 1.1//EN" "http://www.w3.org/Graphics/SVG/1.1/DTD/svg11.dtd">
<svg version="1.1" id="Layer_1" xmlns="http://www.w3.org/2000/svg" xmlns:xlink="http://www.w3.org/1999/xlink" x="0px" y="0px" width="200px" height="50px" viewBox="0 0 200 50" enable-background="new 0 0 200 50" xml:space="preserve">
<g>
	<path fill="#FFFFFF" d="M0,50h37.504V0H0V50z M25.004,28.431c0,1.52-0.477,2.857-1.428,4.001c-0.952,1.137-2.145,1.854-3.573,2.143   c-0.095,0.471-0.143,0.83-0.143,1.069c-0.193,1.761,0.024,3.428,0.642,5c0.668,1.573,1.621,2.904,2.859,4   c0.047,0,0.071,0.048,0.071,0.144c0,0.143-0.071,0.21-0.214,0.21h-8.93c-0.143,0-0.214-0.067-0.214-0.21   c0-0.095,0.025-0.144,0.071-0.144c1.239-1.096,2.166-2.427,2.786-4c0.667-1.572,0.907-3.238,0.714-5   c0-0.239-0.047-0.598-0.143-1.069c-1.428-0.289-2.619-1.006-3.572-2.143c-0.952-1.145-1.429-2.482-1.429-4.001v-0.215   c0-0.1,0.072-0.146,0.214-0.146h12.073c0.142,0,0.215,0.047,0.215,0.146V28.431z M21.576,15.589v1.881h-1.88v1.883h-1.88V17.47   h-1.883v-1.881h1.883V13.71h1.88v1.879H21.576z M18.752,20.969c1.715,0,3.108,1.389,3.108,3.104c0,1.719-1.393,3.11-3.108,3.11   c-1.716,0-3.108-1.392-3.108-3.11C15.645,22.358,17.037,20.969,18.752,20.969z M13.93,11.642l-0.144-0.786h9.93l-0.139,0.786H13.93   z M26.854,15.592h1.881v-1.879h1.88v1.879h1.883v1.883h-1.883v1.881h-1.88v-1.881h-1.881V15.592z M26.854,26.593h1.881v-1.88h1.88   v1.88h1.883v1.881h-1.883v1.883h-1.88v-1.883h-1.881V26.593z M26.854,37.526h1.881v-1.881h1.88v1.881h1.883v1.88h-1.883v1.88h-1.88   v-1.88h-1.881V37.526z M17.931,3.002h0.501V2.498h0.644v0.504h0.498v0.567h-0.498v0.502h-0.644V3.569h-0.501V3.002z M12.716,5.5   c0.478-0.478,1.046-0.716,1.715-0.716c0.334,0,0.69,0.071,1.072,0.214c0.428-0.427,0.975-0.641,1.643-0.641   c0.62,0,1.165,0.191,1.644,0.567c0.38-0.376,0.904-0.567,1.569-0.567c0.669,0,1.216,0.214,1.646,0.641   c0.332-0.143,0.69-0.214,1.071-0.214c0.665,0,1.238,0.239,1.714,0.716c0.476,0.423,0.713,0.977,0.713,1.641   c0,0.572-0.141,1.023-0.427,1.358l-1.07,1.571h-1.002l1.429-2c0.189-0.379,0.285-0.688,0.285-0.928   c0-0.426-0.166-0.785-0.499-1.069c-0.285-0.335-0.667-0.5-1.143-0.5c-0.239,0-0.432,0.02-0.573,0.067   c0.141,0.385,0.216,0.742,0.216,1.076c0,0.476-0.096,0.877-0.285,1.211l-1.216,2.144h-0.928l1.427-2.499   c0.146-0.289,0.217-0.573,0.217-0.856c0-0.431-0.167-0.792-0.501-1.076c-0.286-0.332-0.644-0.498-1.072-0.498   c-0.522,0-0.927,0.191-1.214,0.571v4.356h-0.786V5.714c-0.285-0.38-0.691-0.571-1.212-0.571c-0.429,0-0.812,0.166-1.144,0.498   c-0.287,0.284-0.429,0.645-0.429,1.076c0,0.283,0.073,0.567,0.215,0.856l1.427,2.499h-0.928l-1.213-2.144   c-0.191-0.333-0.286-0.735-0.286-1.211c0-0.334,0.07-0.691,0.215-1.076c-0.096-0.047-0.287-0.067-0.573-0.067   c-0.478,0-0.882,0.165-1.212,0.5c-0.288,0.284-0.433,0.643-0.433,1.069c0,0.24,0.097,0.549,0.289,0.928l1.427,2h-0.997L12.43,8.5   C12.144,8.165,12,7.714,12,7.142C12,6.478,12.239,5.924,12.716,5.5z M4.997,15.592h1.882v-1.879H8.76v1.879h1.88v1.883H8.76v1.881   H6.879v-1.881H4.997V15.592z M4.997,26.593h1.882v-1.88H8.76v1.88h1.88v1.881H8.76v1.883H6.879v-1.883H4.997V26.593z M4.997,37.526   h1.882v-1.881H8.76v1.881h1.88v1.88H8.76v1.88H6.879v-1.88H4.997V37.526z"/>
	<path fill="#FFFFFF" d="M97.807,6.463v8.828c0,0.795-0.043,1.583-0.139,2.373c-0.156,0.848-0.351,1.524-0.643,2.331h3.78   c-0.288-0.806-0.483-1.479-0.641-2.322c-0.094-0.791-0.138-1.585-0.138-2.382V6.463h1.646c0.606,0,1.144,0.024,1.614,0.072   c0.691,0.062,1.333,0.315,1.967,0.587V4.357H92.581v2.765c0.634-0.272,1.273-0.524,1.965-0.587c0.47-0.047,1.007-0.072,1.614-0.072   H97.807z"/>
	<path fill="#FFFFFF" d="M77.541,17.667c-0.16,0.846-0.355,1.522-0.644,2.331h3.783c-0.29-0.809-0.485-1.481-0.642-2.324   c-0.097-0.792-0.143-1.585-0.143-2.382V8.325l7.084,9.732c0.43,0.591,0.895,1.279,1.216,1.937h2.558   c-0.2-0.529-0.304-0.893-0.361-1.463c-0.047-0.51-0.072-0.928-0.072-1.256v-8.21c0-0.796,0.046-1.586,0.144-2.377   c0.152-0.846,0.348-1.517,0.639-2.331h-3.78c0.288,0.81,0.484,1.482,0.644,2.327c0.093,0.791,0.137,1.585,0.137,2.382v6.797   L81.165,6.3c-0.43-0.601-0.894-1.277-1.216-1.944h-2.703c0.202,0.528,0.307,0.896,0.364,1.468c0.045,0.512,0.07,0.93,0.07,1.256   v8.211C77.68,16.088,77.636,16.876,77.541,17.667z"/>
	<path fill="#FFFFFF" d="M72.151,6.681c0.097,0.79,0.141,1.584,0.141,2.382v1.447v3.927c0,1.979-1.605,3.589-3.587,3.589   c-1.98,0-3.589-1.609-3.589-3.589v-3.932V9.063c0-0.795,0.045-1.584,0.14-2.374c0.158-0.849,0.352-1.523,0.644-2.333h-3.783   c0.292,0.809,0.486,1.481,0.643,2.324c0.095,0.79,0.139,1.584,0.139,2.382l0.001,1.442v3.932c0,3.205,2.599,5.802,5.806,5.802   c3.204,0,5.805-2.597,5.805-5.802l0.001-3.932V9.063c0-0.795,0.042-1.584,0.136-2.374c0.161-0.849,0.355-1.523,0.644-2.333H71.51   C71.8,5.166,71.994,5.838,72.151,6.681z"/>
	<path fill="#FFFFFF" d="M47.03,19.998l3.605-0.002c0.334-1.369,0.792-2.166,1.537-3.348l1.985-2.814c0,0,2.624,4.209,2.658,4.283   c0.446,0.702,0.428,1.135,0.337,1.88h4.228c0,0-0.919-0.927-1.685-1.965l-4.184-6.17c0.754-1.159,3.583-5.519,3.583-5.519   c0.444-0.703,0.938-1.348,1.471-1.983h-3.442c-0.065,0.428-0.133,0.876-0.292,1.28c-0.102,0.258-0.299,0.616-0.609,1.083   l-2.064,3.226c-0.453-0.643-1.771-2.51-2.241-3.225c-0.518-0.82-0.656-1.138-0.77-1.483c-0.079-0.292-0.146-0.587-0.218-0.882   h-3.728c0,0,1.326,1.417,2.536,3.187l3.102,4.397l-2.532,3.766C49.333,17.218,48.272,18.695,47.03,19.998z"/>
	<path fill="#FFFFFF" d="M107.836,15.914v-2.595h7.12l-0.006,3.952c0,0.333-0.017,0.745-0.071,1.259   c-0.052,0.568-0.157,0.939-0.359,1.467h3.082l-0.057-0.149c-0.169-0.452-0.262-0.835-0.309-1.318   c-0.048-0.515-0.066-0.927-0.066-1.259V4.489c-0.804-0.115-1.609-0.221-2.42-0.294c-0.595-0.065-1.052-0.081-1.628-0.081   c-2.354,0-4.177,0.726-5.534,2.087c-1.314,1.358-1.966,3.105-1.966,5.225v1.78v0.524v1.557c0,0.798-0.042,1.587-0.136,2.377   c-0.16,0.848-0.355,1.525-0.647,2.334h3.212c-0.112-0.899-0.189-1.786-0.214-2.696V15.914z M109.398,7.61   c1.042-0.908,2.284-1.361,3.905-1.357c0.635,0.004,1.275,0.105,1.652,0.225v4.738h-7.116C107.877,9.583,108.451,8.433,109.398,7.61   z"/>
	<path fill="#FFFFFF" d="M159.835,39.824c-0.058,0.566-0.162,0.934-0.362,1.471h3.083l-0.06-0.155   c-0.166-0.451-0.258-0.833-0.307-1.315c-0.047-0.517-0.068-0.934-0.068-1.26V25.786c-0.803-0.119-1.609-0.229-2.421-0.304   c-0.593-0.061-1.049-0.077-1.626-0.077c-2.354,0-4.179,0.729-5.535,2.087c-1.315,1.362-1.967,3.107-1.967,5.223v1.781v0.524v1.562   c0,0.79-0.042,1.581-0.136,2.374c-0.159,0.846-0.355,1.521-0.646,2.339l3.217-0.004c-0.116-0.905-0.191-1.788-0.221-2.696v-1.392   v-2.595h7.12v3.957C159.907,38.89,159.881,39.307,159.835,39.824z M152.791,32.506c0.037-1.63,0.617-2.778,1.559-3.602   c1.045-0.91,2.284-1.362,3.907-1.36c0.633,0.005,1.27,0.109,1.65,0.224v4.738H152.791z"/>
	<path fill="#FFFFFF" d="M147.117,27.981c0.16-0.847,0.352-1.522,0.644-2.332h-3.781c0.29,0.806,0.482,1.483,0.643,2.324   c0.095,0.795,0.139,1.586,0.139,2.385v6.224c0,0.792-0.044,1.583-0.139,2.374c-0.157,0.848-0.353,1.521-0.643,2.335h3.781   c-0.292-0.812-0.484-1.483-0.642-2.325c-0.097-0.792-0.143-1.587-0.143-2.384v-6.224C146.977,29.563,147.023,28.774,147.117,27.981   z"/>
	<path fill="#FFFFFF" d="M124.881,27.981c0.158-0.847,0.354-1.522,0.642-2.333h-3.779c0.288,0.808,0.485,1.485,0.641,2.322   c0.098,0.799,0.139,1.59,0.139,2.389v6.224c0,0.792-0.041,1.581-0.136,2.374c-0.159,0.848-0.356,1.521-0.644,2.335h3.779   c-0.288-0.812-0.483-1.483-0.642-2.327c-0.097-0.795-0.139-1.585-0.139-2.382v-6.224C124.742,29.563,124.784,28.771,124.881,27.981   z"/>
	<path fill="#FFFFFF" d="M115.294,39.09h-1.643v-8.738c0-0.792,0.043-1.583,0.137-2.374c0.158-0.846,0.35-1.523,0.642-2.335h-3.779   c0.285,0.811,0.482,1.485,0.641,2.328c0.093,0.795,0.139,1.587,0.139,2.38v6.23c0,0.792-0.042,1.583-0.136,2.374   c-0.162,0.85-0.356,1.521-0.644,2.334h9.346l0.005-2.981c-0.809,0.291-1.483,0.483-2.329,0.642   C116.881,39.046,116.086,39.09,115.294,39.09z"/>
	<path fill="#FFFFFF" d="M107.617,39.824c-0.047-0.517-0.068-0.934-0.068-1.26V25.786c-0.802-0.119-1.608-0.229-2.418-0.304   c-0.597-0.061-1.05-0.077-1.63-0.077c-2.354,0-4.176,0.729-5.536,2.087c-1.309,1.362-1.961,3.107-1.961,5.223v1.781v0.524v1.562   c0,0.792-0.044,1.581-0.141,2.374c-0.158,0.846-0.352,1.52-0.644,2.334h3.22c-0.119-0.905-0.197-1.786-0.222-2.696v-1.392v-2.595   h7.116v3.957c0,0.326-0.025,0.743-0.071,1.26c-0.054,0.566-0.164,0.934-0.363,1.466h3.081l-0.057-0.149   C107.756,40.691,107.665,40.307,107.617,39.824z M105.333,32.507h-7.116c0.042-1.629,0.616-2.779,1.562-3.604   c1.044-0.91,2.284-1.362,3.904-1.355c0.635,0,1.273,0.104,1.65,0.219V32.507z"/>
	<path fill="#FFFFFF" d="M89.767,32.507c-0.906-0.026-1.793-0.101-2.695-0.217l0.003,2.979c0.634-0.273,1.268-0.527,1.967-0.59   c0.465-0.047,1.003-0.068,1.61-0.068h0.427h0.329c-0.248,2.893-2.333,4.637-5.084,4.637c-3.123,0-5.671-2.567-5.718-5.784   c0.047-3.201,2.596-5.769,5.718-5.769c2.265,0,3.896,1.208,5.042,3.06l1.242-2.585c-1.335-1.476-2.99-2.407-4.973-2.685   c-4.921-0.69-9.175,3.135-9.236,7.995c0.058,4.408,3.583,7.963,7.925,8.053c3.752,0,7.347-2.675,7.347-7.76v-1.267l-2.511,0.001   H89.767z"/>
	<path fill="#FFFFFF" d="M62.017,27.972c0.092,0.794,0.139,1.587,0.139,2.38v6.232c0,0.792-0.046,1.581-0.139,2.376   c-0.16,0.845-0.354,1.517-0.644,2.329h10.335v-2.868c-0.634,0.272-1.272,0.526-1.964,0.588c-0.43,0.043-0.921,0.067-1.472,0.071   h-3.905v-4.465h2.904c0.308,0.004,0.679,0.029,1.125,0.066c0.572,0.057,0.941,0.164,1.472,0.362v-2.972   c0,0-0.674,0.295-1.472,0.364c-0.509,0.045-0.929,0.072-1.255,0.072h-2.774V27.86h3.766c0.608,0,1.144,0.022,1.611,0.071   c0.692,0.063,1.33,0.318,1.964,0.587v-2.873H61.373C61.663,26.455,61.855,27.132,62.017,27.972z"/>
	<path fill="#FFFFFF" d="M52.036,25.649h-4.831c0.287,0.806,0.482,1.483,0.641,2.32c0.094,0.797,0.14,1.589,0.14,2.383v6.23   c0,0.79-0.045,1.581-0.139,2.374c-0.159,0.843-0.354,1.519-0.642,2.329h4.704l0.158,0.003c4.134,0,7.468-3.506,7.468-7.816   C59.536,29.16,56.201,25.654,52.036,25.649z M52.034,39.076h-1.836V27.853l1.869,0.001c2.896,0,5.269,2.504,5.269,5.619   C57.334,36.583,54.964,39.085,52.034,39.076z"/>
	<path fill="#FFFFFF" d="M135.357,27.69c2.262,0,3.89,1.214,5.034,3.065l1.244-2.586c-1.336-1.472-2.99-2.41-4.973-2.684   c-4.917-0.691-9.177,3.134-9.234,7.995c0.057,4.84,4.316,8.664,9.234,7.975c1.983-0.279,3.637-1.211,4.973-2.689l-1.244-2.578   c-1.145,1.854-2.772,3.057-5.034,3.057c-3.127,0-5.673-2.564-5.719-5.782C129.685,30.26,132.23,27.69,135.357,27.69z"/>
</g>
</svg>