<?xml version="1.0" encoding="UTF-8"?>
<!-- Generator: Adobe Illustrator 16.0.0, SVG Export Plug-In . SVG Version: 6.00 Build 0)  -->
<!DOCTYPE svg PUBLIC "-//W3C//DTD SVG 1.1//EN" "http://www.w3.org/Graphics/SVG/1.1/DTD/svg11.dtd">
<svg version="1.1" id="Layer_1" xmlns="http://www.w3.org/2000/svg" xmlns:xlink="http://www.w3.org/1999/xlink" x="0px" y="0px" width="220px" height="45px" viewBox="0 0 220 45" enable-background="new 0 0 220 45" xml:space="preserve">
<g>
	<defs>
		<rect id="SVGID_1_" width="167.146" height="45"/>
	</defs>
	<clipPath id="SVGID_2_">
		<use xlink:href="#SVGID_1_" overflow="visible"/>
	</clipPath>
	<path clip-path="url(#SVGID_2_)" fill="#FFFFFF" d="M155.981,41.004c0-1.821,0.074-2.748,1.758-2.748s1.758,0.927,1.758,2.748   v0.448c0,1.821-0.074,2.749-1.758,2.749s-1.758-0.927-1.758-2.749V41.004z M155.066,40.973v0.512c0,2.173,0.36,3.504,2.673,3.504   c2.312,0,2.674-1.331,2.674-3.504v-0.512c0-2.173-0.362-3.505-2.674-3.505C155.427,37.468,155.066,38.8,155.066,40.973    M153.468,37.585h-0.896v7.287h0.896V37.585z M145.381,37.585h-4.153v7.287h4.166v-0.788h-3.273v-2.557h2.92v-0.788h-2.92v-2.366   h3.26V37.585z M121.136,37.585l-0.288,7.287h0.884l0.202-5.593l1.653,4.452h0.905l1.651-4.452l0.203,5.593h0.894l-0.288-7.287   h-0.969l-1.939,5.091l-1.94-5.091H121.136z M119.123,37.585h-0.895v7.287h0.895V37.585z M101.587,37.585h-1.033v7.287h0.875v-5.848   l3.271,5.848h1.033v-7.287h-0.875v5.913L101.587,37.585z M94.566,41.004c0-1.821,0.076-2.748,1.759-2.748   c1.682,0,1.759,0.927,1.759,2.748v0.448c0,1.821-0.077,2.749-1.759,2.749c-1.683,0-1.759-0.927-1.759-2.749V41.004z M93.65,40.973   v0.512c0,2.173,0.364,3.504,2.675,3.504c2.311,0,2.675-1.331,2.675-3.504v-0.512c0-2.173-0.364-3.505-2.675-3.505   C94.014,37.468,93.65,38.8,93.65,40.973 M95.655,37.116l1.906-0.862l-0.042-0.819l-2.014,1.064L95.655,37.116z M92.054,37.585   H91.16v7.287h0.895V37.585z M80.134,42.113l1.192-3.687l1.214,3.687H80.134z M80.836,37.585l-2.503,7.287h0.905l0.66-2.034h2.878   l0.681,2.034h0.948l-2.525-7.287H80.836z M69.727,8.969h-3.269V29.86h3.269V8.969z M55.536,41.004c0-1.821,0.074-2.748,1.758-2.748   c1.683,0,1.757,0.927,1.757,2.748v0.448c0,1.821-0.075,2.749-1.757,2.749c-1.684,0-1.758-0.927-1.758-2.749V41.004z M54.619,40.973   v0.512c0,2.173,0.362,3.504,2.675,3.504s2.674-1.331,2.674-3.504v-0.512c0-2.173-0.361-3.505-2.674-3.505   S54.619,38.8,54.619,40.973 M51.019,38.373c0.799,0,1.075,0.213,1.075,1.438c0,1.098-0.222,1.439-1.096,1.439h-1.705v-2.877H51.019   z M51.116,37.585h-2.717v7.287h0.894v-2.835h1.567l1.735,2.835h1.013l-1.779-2.91c0.938-0.222,1.173-0.945,1.173-2.151   C53.001,38.49,52.734,37.585,51.116,37.585 M0,24.277c0,3.43,2.433,5.821,6.062,5.821c2.232,0,3.788-0.597,6.138-1.831v-3.152   l-1.354,0.718c-1.477,0.757-2.871,1.237-4.504,1.237c-1.954,0-3.071-1.077-3.071-2.871c0-1.674,0.877-3.35,4.425-3.35h4.504v-2.831   H7.455C3.23,18.018,0,20.092,0,24.277 M14.67,29.86h3.151V16.343c0-4.822-3.151-7.772-8.532-7.772   c-5.103,0-8.771,2.671-8.771,7.255v0.198h3.149c0-3.068,2.073-4.584,5.662-4.584c3.387,0,5.34,1.675,5.34,5.103V29.86z    M27.588,21.289l-6.179,8.571h3.827l4.186-6.059L27.588,21.289z M40.625,29.86L33.05,19.253l7.374-10.284h-3.747l-5.582,7.974   l-5.622-7.974h-3.866l15.19,20.891H40.625z M51.786,27.308c-3.349,0-5.859-1.672-5.859-5.263V10.524   c-1.955,1.473-3.11,3.826-3.11,6.737v5.062c0,4.944,3.827,7.855,8.969,7.855c5.303,0,8.691-2.791,8.691-6.658v-0.16h-3.069   C57.408,26.111,55.216,27.308,51.786,27.308 M48.399,20.73h12.159v-3.469c0-5.224-3.668-8.611-8.809-8.611   c-1.198,0-2.355,0.2-3.35,0.557v3.15c0.876-0.517,2.031-0.795,3.35-0.795c3.625,0,5.739,2.072,5.739,5.7v0.678h-9.089V20.73z    M63.898,38.373h2.109v-0.788h-5.092v0.788h2.099v6.499h0.884V38.373z M70.007,2.55V1.794c0-1.078-0.8-1.794-1.915-1.794   c-1.156,0-1.953,0.716-1.953,1.794V2.55c0,1.078,0.797,1.794,1.953,1.794C69.207,4.344,70.007,3.627,70.007,2.55 M72.175,42.454   v-4.869H71.28v4.955c0,1.086-0.479,1.662-1.672,1.662c-1.193,0-1.674-0.575-1.674-1.662v-4.955H67.04v4.869   c0,1.374,0.597,2.535,2.568,2.535C71.578,44.989,72.175,43.828,72.175,42.454 M74.71,37.585h-0.893v7.287h3.94v-0.788H74.71V37.585   z M83.202,11.84h3.907V8.969h-3.907V11.84z M84.956,29.86h2.312v-2.99h-2.233c-2.87,0-4.307-1.078-4.307-4.268V3.269h-3.188v5.7   h-3.549v2.871H77.5v10.924C77.5,27.467,80.49,29.86,84.956,29.86 M86.237,41.421v-0.395c0-2.088,0.16-2.771,1.799-2.771   c0.459,0,1.205,0.096,1.684,0.224l0.064-0.81c-0.479-0.117-1.183-0.203-1.8-0.203c-2.323,0-2.664,1.247-2.664,3.505v0.512   c0,2.173,0.202,3.504,2.739,3.504c0.605,0,1.32-0.094,1.725-0.202l-0.064-0.799c-0.479,0.128-1.183,0.213-1.64,0.213   C86.366,44.201,86.237,43.573,86.237,41.421 M108.716,21.687v-4.425c0-5.224-3.868-8.611-9.13-8.611   c-5.262,0-9.13,3.388-9.13,8.611v4.425c0,5.222,3.868,8.611,9.13,8.611c1.236,0,2.432-0.238,3.509-0.559V26.43   c-0.956,0.6-2.152,0.918-3.509,0.918c-3.547,0-5.979-2.194-5.979-5.981V17.58c0-3.828,2.432-5.98,5.979-5.98   c3.548,0,5.98,2.153,5.98,5.98v10.845C107.52,26.95,108.716,24.596,108.716,21.687 M114.158,37.585h-4.154v7.287h4.166v-0.788   h-3.271v-2.557h2.918v-0.788h-2.918v-2.366h3.259V37.585z M116.808,23.28H113.5v0.162c0,3.866,3.229,6.697,8.61,6.697   c1.078,0,2.034-0.119,2.951-0.279v-2.952c-0.797,0.24-1.714,0.359-2.83,0.359C118.802,27.267,116.808,26.032,116.808,23.28    M117.127,14.789c0-1.874,1.674-3.228,5.023-3.228c3.31,0,5.183,1.234,5.183,3.985h3.229v-0.16c0-3.865-2.91-6.698-8.293-6.698   c-5.26,0-8.251,2.474-8.251,6.221c0,8.612,13.515,3.987,13.515,9.168v4.905c1.994-1.075,3.11-2.831,3.11-5.062   C130.643,15.468,117.127,20.61,117.127,14.789 M132.63,39.877c0,1.033-0.095,1.522-1.215,1.522h-1.597v-3.026h1.597   C132.375,38.373,132.63,38.629,132.63,39.877 M133.536,39.866c0-1.493-0.267-2.281-2.003-2.281h-2.61v7.287h0.895v-2.685h1.736   C133.237,42.187,133.536,41.411,133.536,39.866 M137.476,38.373c0.801,0,1.076,0.213,1.076,1.438c0,1.098-0.223,1.439-1.096,1.439   h-1.704v-2.877H137.476z M137.574,37.585h-2.717v7.287h0.896v-2.835h1.564l1.736,2.835h1.014l-1.781-2.91   c0.94-0.222,1.173-0.945,1.173-2.151C139.459,38.49,139.194,37.585,137.574,37.585 M141.5,28.267   c-0.259,0.193-0.518,0.356-0.775,0.489c-0.253,0.131-0.539,0.193-0.86,0.193c-0.398,0-0.771-0.124-1.116-0.371   c-0.348-0.253-0.622-0.57-0.828-0.954c-0.208-0.386-0.31-0.777-0.31-1.17c0-0.685,0.386-1.261,1.162-1.726L141.5,28.267z    M139.926,23.215c-0.577-0.791-0.867-1.486-0.867-2.093c0-0.258,0.095-0.489,0.279-0.696c0.186-0.211,0.442-0.316,0.768-0.316   c0.227,0,0.423,0.059,0.587,0.177c0.166,0.115,0.288,0.264,0.367,0.45c0.082,0.187,0.123,0.384,0.123,0.597   c0,0.429-0.116,0.778-0.348,1.052C140.606,22.656,140.305,22.932,139.926,23.215 M144.08,28.5   c-0.331-0.294-0.621-0.622-0.868-0.983c0.279-0.311,0.56-0.689,0.844-1.138l0.334-0.543c0.319-0.505,0.547-0.846,0.681-1.024   c0.14-0.18,0.294-0.325,0.466-0.44c0.176-0.114,0.405-0.202,0.689-0.265v-0.712h-3.184v0.712c0.335,0,0.552,0.085,0.65,0.255   c0.104,0.171,0.155,0.312,0.155,0.427c0,0.346-0.11,0.703-0.333,1.068c-0.217,0.369-0.471,0.732-0.76,1.093l-2.393-3.131   c0.614-0.319,1.082-0.696,1.403-1.129c0.319-0.439,0.481-0.882,0.481-1.324c-0.002-0.336-0.09-0.66-0.266-0.97   c-0.176-0.307-0.431-0.562-0.765-0.759c-0.333-0.202-0.723-0.303-1.172-0.303c-0.304,0-0.606,0.052-0.907,0.157   c-0.299,0.101-0.566,0.251-0.806,0.449c-0.231,0.191-0.422,0.445-0.572,0.759c-0.15,0.314-0.223,0.669-0.223,1.062   c0,0.406,0.065,0.788,0.2,1.138c0.14,0.352,0.34,0.753,0.604,1.208c-0.687,0.373-1.21,0.781-1.571,1.224   c-0.357,0.439-0.584,0.83-0.683,1.171c-0.095,0.335-0.14,0.649-0.14,0.936c0,0.492,0.12,0.952,0.364,1.381   c0.243,0.427,0.586,0.774,1.031,1.039c0.449,0.263,0.954,0.393,1.511,0.393c0.485,0,0.993-0.117,1.527-0.354   c0.536-0.24,1.063-0.604,1.58-1.093c0.403,0.402,0.741,0.706,1.016,0.907c0.274,0.197,0.526,0.332,0.758,0.41   c0.238,0.077,0.479,0.115,0.721,0.115c0.492,0,0.896-0.128,1.217-0.387c0.325-0.262,0.568-0.588,0.729-0.977   c0.159-0.386,0.254-0.786,0.277-1.192h-0.72c-0.037,0.299-0.103,0.548-0.201,0.741c-0.099,0.192-0.212,0.327-0.341,0.404   c-0.129,0.072-0.263,0.11-0.402,0.11C144.721,28.935,144.41,28.79,144.08,28.5 M148.993,37.468c-1.906,0-2.364,0.852-2.364,2.162   c0,1.247,0.649,1.556,1.852,1.863c1.259,0.333,1.695,0.449,1.695,1.516c0,0.874-0.427,1.192-1.502,1.192   c-0.651,0-1.396-0.137-1.949-0.331l-0.096,0.842c0.586,0.171,1.342,0.287,2.034,0.287c1.897,0,2.429-0.799,2.429-2.087   c0-1.363-0.5-1.695-1.885-2.079c-1.235-0.339-1.661-0.436-1.661-1.414c0-0.802,0.308-1.163,1.459-1.163   c0.628,0,1.299,0.117,1.811,0.267l0.074-0.842C150.367,37.565,149.633,37.468,148.993,37.468 M157.128,29.935h0.729v-3.968h-0.744   c-0.107,0.512-0.326,1.028-0.65,1.55c-0.325,0.516-0.745,0.945-1.256,1.286c-0.507,0.339-1.076,0.512-1.712,0.512   c-0.29,0-0.6-0.057-0.931-0.173c-0.331-0.117-0.661-0.339-0.991-0.665c-0.325-0.326-0.599-0.806-0.821-1.442   c-0.222-0.64-0.333-1.438-0.333-2.402c0-0.986,0.132-1.81,0.396-2.469c0.268-0.662,0.638-1.154,1.108-1.473   c0.471-0.327,1-0.489,1.589-0.489c0.526,0,1.03,0.137,1.511,0.411c0.485,0.269,0.904,0.658,1.256,1.169   c0.35,0.512,0.592,1.096,0.729,1.751h0.743l-0.124-3.866h-0.697c-0.11,0.424-0.22,0.746-0.334,0.97   c-0.857-0.86-1.942-1.289-3.253-1.289c-0.796,0-1.528,0.146-2.201,0.434c-0.667,0.291-1.242,0.688-1.729,1.193   c-0.48,0.506-0.852,1.094-1.116,1.761c-0.258,0.665-0.387,1.364-0.387,2.099c0,1.032,0.241,1.961,0.721,2.788   c0.479,0.823,1.124,1.463,1.929,1.921c0.811,0.46,1.688,0.689,2.634,0.689c0.861,0,1.547-0.148,2.054-0.443   c0.505-0.292,0.955-0.644,1.348-1.053C156.84,29.092,157.019,29.489,157.128,29.935 M157.067,37.116l1.907-0.862l-0.042-0.819   l-2.013,1.064L157.067,37.116z M165.008,26.802c-0.001,0.512-0.036,0.97-0.109,1.375c-0.066,0.397-0.225,0.731-0.473,1.005   c-0.241,0.269-0.6,0.404-1.068,0.404c-0.714,0-1.175-0.245-1.387-0.739c-0.213-0.489-0.318-1.133-0.318-1.925   c0-0.646,0.047-1.173,0.14-1.577c0.099-0.406,0.266-0.708,0.504-0.898c0.243-0.195,0.578-0.294,1.007-0.294   c0.671,0,1.123,0.223,1.355,0.667C164.89,25.265,165.008,25.924,165.008,26.802 M166.637,28.686c0.339-0.521,0.51-1.131,0.51-1.836   c0-0.611-0.148-1.174-0.443-1.697c-0.289-0.521-0.718-0.936-1.285-1.246c-0.568-0.312-1.245-0.465-2.03-0.465   c-1.054,0-1.962,0.29-2.728,0.875c-0.765,0.577-1.146,1.428-1.146,2.547c0,0.75,0.183,1.381,0.55,1.898   c0.371,0.518,0.846,0.902,1.424,1.156c0.585,0.254,1.203,0.379,1.854,0.379c0.692,0,1.328-0.137,1.906-0.411   C165.83,29.608,166.294,29.207,166.637,28.686 M167.146,44.872v-7.287h-0.873v5.913l-3.271-5.913h-1.033v7.287h0.873v-5.848   l3.271,5.848H167.146z"/>
</g>
</svg>