<?xml version="1.0" encoding="UTF-8"?>
<!-- Generator: Adobe Illustrator 16.0.0, SVG Export Plug-In . SVG Version: 6.00 Build 0)  -->
<!DOCTYPE svg PUBLIC "-//W3C//DTD SVG 1.1//EN" "http://www.w3.org/Graphics/SVG/1.1/DTD/svg11.dtd">
<svg version="1.1" id="Layer_1" xmlns="http://www.w3.org/2000/svg" xmlns:xlink="http://www.w3.org/1999/xlink" x="0px" y="0px" width="130.5px" height="75.167px" viewBox="0 0 130.5 75.167" enable-background="new 0 0 130.5 75.167" xml:space="preserve">
<g>
	<g>
		<path fill="#FFFFFF" d="M4.726,51.078H3.484L0,59.857h1.151l0.796-2h4.234l0.817,2h1.258L4.726,51.078z M2.363,56.819l1.689-4.453    h0.022l1.705,4.453H2.363z"/>
		<path fill="#FFFFFF" d="M11.74,59.001c-0.984,0-1.424-0.485-1.636-1.099l-1.062,0.4c0.258,0.879,1.1,1.676,2.674,1.676    c1.463,0,2.424-0.676,2.424-1.895c0-1.203-0.961-1.598-2.014-1.787c-0.902-0.175-1.742-0.259-1.742-0.902    c0-0.53,0.529-0.78,1.158-0.78c1.076,0,1.28,0.705,1.379,1.159l1.076-0.379c-0.197-0.895-0.917-1.758-2.439-1.758    c-1.272,0-2.34,0.598-2.34,1.766c0,1.061,0.894,1.537,2.082,1.757c0.933,0.183,1.674,0.28,1.674,0.978    C12.974,58.66,12.55,59.001,11.74,59.001z"/>
		<path fill="#FFFFFF" d="M21.784,56.819c0-1.923-1.491-3.181-3.265-3.181c-1.787,0-3.271,1.258-3.271,3.181    c0,1.938,1.484,3.159,3.271,3.159C20.292,59.979,21.784,58.758,21.784,56.819z M18.519,58.939c-1.197,0-2.1-0.832-2.1-2.12    c0-1.196,0.819-2.144,2.1-2.144c1.182,0,2.09,0.848,2.09,2.144C20.61,58.061,19.761,58.939,18.519,58.939z"/>
		<path fill="#FFFFFF" d="M26.116,59.979c1.196,0,2.257-0.592,2.833-1.676l-1.105-0.386c-0.289,0.621-0.887,1.022-1.728,1.022    c-1.183,0-2.052-0.84-2.052-2.105c0-1.195,0.787-2.158,2.052-2.158c0.901,0,1.386,0.5,1.628,1.105l1.1-0.4    c-0.562-1.205-1.522-1.742-2.728-1.742c-1.833,0-3.228,1.324-3.228,3.181C22.888,58.682,24.283,59.979,26.116,59.979z"/>
		<rect x="30.237" y="53.76" fill="#FFFFFF" width="1.167" height="6.098"/>
		<path fill="#FFFFFF" d="M30.813,52.783c0.394,0,0.712-0.318,0.712-0.689c0-0.394-0.318-0.711-0.712-0.711    c-0.38,0-0.705,0.317-0.705,0.711C30.108,52.465,30.433,52.783,30.813,52.783z"/>
		<path fill="#FFFFFF" d="M35.544,54.646c0.984,0,1.416,0.492,1.416,1.195c0.002,0.197-0.111,0.319-0.406,0.319    c-2.092,0-3.705,0.341-3.705,2c0,1.317,1.022,1.817,2.152,1.817c0.719,0,1.536-0.219,1.998-0.916h0.023l0.121,0.795h0.984v-3.659    c0-1.954-1.242-2.56-2.599-2.56c-1.438,0-2.416,0.795-2.683,1.758l1.084,0.371C34.107,55.122,34.583,54.646,35.544,54.646z     M35.16,59.001c-0.675,0-1.145-0.235-1.145-0.864c0-0.832,0.766-1.09,2.076-1.09c0.317,0,0.695-0.008,0.869-0.107v0.576h0.002    C36.962,58.561,36.101,59.001,35.16,59.001z"/>
		<path fill="#FFFFFF" d="M45.523,58.303l-1.107-0.386c-0.287,0.621-0.885,1.022-1.727,1.022c-1.182,0-2.053-0.84-2.053-2.105    c0-1.195,0.787-2.158,2.053-2.158c0.9,0,1.379,0.5,1.629,1.105l1.098-0.4c-0.56-1.205-1.516-1.742-2.727-1.742    c-1.833,0-3.227,1.324-3.227,3.181c0,1.862,1.394,3.159,3.227,3.159C43.886,59.979,44.946,59.387,45.523,58.303z"/>
		<path fill="#FFFFFF" d="M47.384,51.381c-0.377,0-0.696,0.318-0.696,0.711c0,0.373,0.319,0.69,0.696,0.69    c0.395,0,0.713-0.317,0.713-0.69C48.097,51.699,47.779,51.381,47.384,51.381z"/>
		<rect x="46.81" y="53.76" fill="#FFFFFF" width="1.166" height="6.098"/>
		<path fill="#FFFFFF" d="M52.679,53.639c-1.779,0-3.264,1.258-3.264,3.181c0,1.938,1.483,3.159,3.264,3.159    c1.781,0,3.266-1.221,3.266-3.159C55.945,54.896,54.46,53.639,52.679,53.639z M52.679,58.939c-1.188,0-2.09-0.824-2.09-2.12    c0-1.196,0.811-2.144,2.09-2.144c1.182,0,2.099,0.848,2.099,2.144C54.778,58.061,53.921,58.939,52.679,58.939z"/>
		<polygon fill="#FFFFFF" points="54.21,51.078 52.914,51.078 51.906,52.783 52.853,52.783   "/>
		<path fill="#FFFFFF" d="M62.806,59.855v-3.778c0-1.658-0.932-2.438-2.166-2.438c-0.834,0-1.553,0.289-2.12,1.205h-0.023    l-0.12-1.084h-0.984v6.098h1.164v-3.477c0-0.826,0.729-1.705,1.82-1.705c0.87,0,1.264,0.598,1.264,1.408v3.771H62.806z"/>
		<path fill="#FFFFFF" d="M75.228,58.039v-2.863h-4.029v1.03h2.863v1.554c-0.445,0.666-1.35,1.182-2.477,1.182    c-1.984,0-3.281-1.438-3.281-3.477c0-1.984,1.221-3.47,3.228-3.47c1.335,0,2.22,0.742,2.599,1.604l1.074-0.424    c-0.582-1.303-1.938-2.219-3.673-2.219c-2.522,0-4.392,1.78-4.392,4.506c0,2.697,1.846,4.516,4.445,4.516    C73.16,59.979,74.441,59.281,75.228,58.039z"/>
		<path fill="#FFFFFF" d="M80.712,59.061h0.022l0.127,0.797h0.983v-3.659c0-1.954-1.246-2.56-2.596-2.56    c-1.447,0-2.416,0.795-2.689,1.758l1.082,0.371c0.176-0.646,0.652-1.121,1.615-1.121c0.984,0,1.414,0.492,1.414,1.195    c0,0.197-0.111,0.318-0.408,0.318c-2.09,0-3.703,0.341-3.703,2c0,1.318,1.023,1.818,2.158,1.818    C79.431,59.979,80.259,59.758,80.712,59.061z M77.736,58.137c0-0.832,0.758-1.09,2.066-1.09c0.317,0,0.699-0.008,0.871-0.107    v0.576c0,1.045-0.863,1.485-1.795,1.485C78.196,59.001,77.736,58.766,77.736,58.137z"/>
		<rect x="83.513" y="51.078" fill="#FFFFFF" width="1.168" height="8.779"/>
		<path fill="#FFFFFF" d="M89.287,59.979c1.211,0,2.34-0.562,2.895-1.676l-1.07-0.4c-0.331,0.773-1.061,1.099-1.831,1.099    c-0.88,0-1.88-0.44-1.964-1.849h4.934c0.022-0.168,0.027-0.318,0.027-0.553c0-1.955-1.338-2.961-2.997-2.961    c-1.75,0-3.159,1.098-3.159,3.144C86.12,58.924,87.573,59.979,89.287,59.979z M89.287,54.615c0.887,0,1.747,0.531,1.811,1.682    h-3.773C87.4,55.139,88.4,54.615,89.287,54.615z"/>
		<path fill="#FFFFFF" d="M98.685,54.842h-0.022c-0.444-0.742-1.233-1.203-2.302-1.203c-1.667,0-2.969,1.227-2.969,3.181    c0,1.917,1.281,3.159,2.969,3.159c0.969,0,1.711-0.395,2.242-1.151h0.023v0.909c0,1.461-0.965,1.923-1.97,1.923    c-0.631,0-1.396-0.196-1.881-0.583l-0.72,0.811c0.75,0.592,1.72,0.772,2.601,0.772c1.505,0,3.142-0.599,3.142-2.961V53.76h-0.992    L98.685,54.842z M96.571,58.939c-1.287,0-2.006-0.9-2.006-2.135c0-1.183,0.719-2.129,2.006-2.129c1.229,0,2.056,0.863,2.056,2.129    C98.626,58.047,97.8,58.939,96.571,58.939z"/>
		<path fill="#FFFFFF" d="M103.927,53.639c-1.447,0-2.416,0.795-2.689,1.758l1.084,0.371c0.174-0.646,0.658-1.121,1.613-1.121    c0.992,0,1.418,0.492,1.418,1.195c0,0.197-0.107,0.318-0.404,0.318c-2.096,0-3.711,0.341-3.711,2c0,1.318,1.023,1.818,2.159,1.818    c0.714,0,1.538-0.221,1.991-0.918h0.023l0.129,0.797h0.983v-3.659C106.525,54.244,105.282,53.639,103.927,53.639z M103.556,59.001    c-0.676,0-1.145-0.235-1.145-0.864c0-0.832,0.758-1.09,2.067-1.09c0.317,0,0.706-0.008,0.872-0.107v0.576h0.002    C105.353,58.561,104.496,59.001,103.556,59.001z"/>
		<path fill="#FFFFFF" d="M5.567,69.021H5.545c-0.53-0.758-1.265-1.159-2.242-1.159c-1.689,0-2.969,1.257-2.969,3.182    c0,1.938,1.302,3.158,2.969,3.158c1.083,0,1.856-0.446,2.303-1.205h0.022l0.121,1.083h0.984v-8.777H5.567V69.021z M3.522,73.164    c-1.295,0-2.022-0.939-2.022-2.12c0-1.228,0.727-2.144,2.022-2.144c1.219,0,2.045,0.902,2.045,2.144    C5.567,72.309,4.741,73.164,3.522,73.164z"/>
		<path fill="#FFFFFF" d="M11.331,67.863c-1.741,0-3.149,1.098-3.149,3.143c0,2.152,1.453,3.197,3.166,3.197    c1.205,0,2.34-0.561,2.894-1.674l-1.067-0.402c-0.334,0.773-1.062,1.098-1.842,1.098c-0.871,0-1.871-0.438-1.953-1.854H14.3    c0.031-0.159,0.039-0.312,0.039-0.545C14.337,68.877,12.998,67.863,11.331,67.863z M9.384,70.521    c0.076-1.16,1.076-1.682,1.961-1.682c0.887,0,1.75,0.537,1.811,1.682H9.384z"/>
		<path fill="#FFFFFF" d="M21.843,65.303H18.89v8.778h2.953c2.416,0,4.295-1.778,4.295-4.394    C26.138,67.082,24.259,65.303,21.843,65.303z M21.843,73.043h-1.787V66.34h1.787c1.75,0,3.129,1.363,3.129,3.348    C24.972,71.741,23.593,73.043,21.843,73.043z"/>
		<path fill="#FFFFFF" d="M30.517,67.863c-1.75,0-3.151,1.098-3.151,3.143c0,2.152,1.455,3.197,3.167,3.197    c1.204,0,2.34-0.561,2.895-1.674l-1.076-0.402c-0.334,0.773-1.061,1.098-1.834,1.098c-0.877,0-1.869-0.438-1.953-1.854h4.924    c0.021-0.159,0.037-0.312,0.037-0.545C33.524,68.877,32.183,67.863,30.517,67.863z M28.571,70.521    c0.076-1.16,1.067-1.682,1.962-1.682c0.887,0,1.749,0.537,1.811,1.682H28.571z"/>
		<path fill="#FFFFFF" d="M37.728,70.521c-0.9-0.174-1.742-0.258-1.742-0.902c0-0.521,0.538-0.779,1.159-0.779    c1.075,0,1.28,0.704,1.378,1.158l1.076-0.379c-0.197-0.895-0.91-1.757-2.439-1.757c-1.271,0-2.34,0.598-2.34,1.765    c0,1.061,0.9,1.538,2.083,1.758c0.933,0.182,1.675,0.28,1.675,0.977c0,0.521-0.418,0.863-1.234,0.863    c-0.985,0-1.433-0.484-1.639-1.099l-1.06,0.402c0.266,0.879,1.099,1.674,2.675,1.674c1.469,0,2.423-0.674,2.423-1.894    C39.742,71.104,38.788,70.719,37.728,70.521z"/>
		<path fill="#FFFFFF" d="M44.007,67.863c-1.75,0-3.151,1.098-3.151,3.143c0,2.152,1.456,3.197,3.167,3.197    c1.203,0,2.34-0.561,2.893-1.674l-1.074-0.402c-0.326,0.773-1.053,1.098-1.834,1.098c-0.871,0-1.871-0.438-1.953-1.854h4.922    c0.023-0.159,0.039-0.312,0.039-0.545C47.015,68.877,45.673,67.863,44.007,67.863z M42.062,70.521    c0.074-1.16,1.074-1.682,1.961-1.682c0.885,0,1.75,0.537,1.811,1.682H42.062z"/>
		<path fill="#FFFFFF" d="M51.71,67.863c-0.843,0-1.554,0.295-2.121,1.203h-0.022l-0.121-1.082h-0.983v6.097h1.164v-3.478    c0-0.824,0.728-1.703,1.812-1.703c0.878,0,1.271,0.598,1.271,1.416v3.765h1.166v-3.778C53.876,68.643,52.937,67.863,51.71,67.863z    "/>
		<path fill="#FFFFFF" d="M50.414,66.159c0.493,0,0.766,0.849,1.713,0.849c0.924,0,1.182-0.72,1.182-1.402h-0.734    c0,0.395-0.137,0.615-0.447,0.615c-0.47,0-0.863-0.856-1.658-0.856c-0.834,0-1.219,0.644-1.219,1.401h0.734    C49.984,66.439,50.081,66.159,50.414,66.159z"/>
		<path fill="#FFFFFF" d="M57.89,67.863c-1.438,0-2.408,0.787-2.68,1.757l1.082,0.379c0.176-0.644,0.651-1.121,1.612-1.121    c0.985,0,1.416,0.484,1.416,1.188c0,0.197-0.104,0.318-0.399,0.318c-2.101,0-3.711,0.34-3.711,2c0,1.318,1.021,1.818,2.157,1.818    c0.711,0,1.537-0.221,1.991-0.916h0.023l0.129,0.794h0.983v-3.657C60.496,68.469,59.246,67.863,57.89,67.863z M59.321,71.741    c0,1.046-0.86,1.483-1.794,1.483c-0.684,0-1.15-0.227-1.15-0.862c0-0.825,0.764-1.083,2.067-1.083    c0.325,0,0.703-0.016,0.877-0.113V71.741z"/>
		<path fill="#FFFFFF" d="M67.063,69.021h-0.03c-0.523-0.758-1.266-1.159-2.242-1.159c-1.681,0-2.969,1.257-2.969,3.182    c0,1.938,1.311,3.158,2.969,3.158c1.092,0,1.865-0.446,2.311-1.205h0.023l0.121,1.083h0.984v-8.777h-1.167V69.021z M65.017,73.164    c-1.295,0-2.021-0.939-2.021-2.12c0-1.228,0.729-2.144,2.021-2.144c1.221,0,2.046,0.902,2.046,2.144    C67.063,72.309,66.238,73.164,65.017,73.164z"/>
		<path fill="#FFFFFF" d="M72.941,67.863c-1.787,0-3.266,1.257-3.266,3.182c0,1.938,1.479,3.158,3.266,3.158    c1.771,0,3.264-1.221,3.264-3.158C76.204,69.12,74.712,67.863,72.941,67.863z M72.941,73.164c-1.197,0-2.098-0.824-2.098-2.12    c0-1.196,0.811-2.144,2.098-2.144c1.182,0,2.091,0.855,2.091,2.144C75.031,72.286,74.183,73.164,72.941,73.164z"/>
		<path fill="#FFFFFF" d="M78.772,68.961h-0.013l-0.131-0.977h-0.984v6.097h1.175v-3.478c0-0.801,0.591-1.664,1.575-1.664    c0.183,0,0.365,0.007,0.592,0.098l0.119-1.038C80.91,67.916,80.636,67.9,80.53,67.9C79.751,67.9,79.251,68.241,78.772,68.961z"/>
		<path fill="#FFFFFF" d="M84.56,67.863c-1.75,0-3.152,1.098-3.152,3.143c0,2.152,1.447,3.197,3.161,3.197    c1.211,0,2.339-0.561,2.894-1.674l-1.07-0.402c-0.33,0.773-1.061,1.098-1.83,1.098c-0.881,0-1.872-0.438-1.965-1.854h4.934    c0.023-0.159,0.027-0.312,0.027-0.545C87.558,68.877,86.22,67.863,84.56,67.863z M82.613,70.521    c0.076-1.16,1.068-1.682,1.956-1.682c0.886,0,1.747,0.537,1.808,1.682H82.613z"/>
		<path fill="#FFFFFF" d="M91.763,70.521c-0.896-0.174-1.733-0.258-1.733-0.902c0-0.521,0.528-0.779,1.159-0.779    c1.066,0,1.277,0.704,1.377,1.158l1.068-0.379c-0.19-0.895-0.91-1.757-2.44-1.757c-1.263,0-2.333,0.598-2.333,1.765    c0,1.061,0.896,1.538,2.078,1.758c0.938,0.182,1.672,0.28,1.672,0.977c0,0.521-0.417,0.863-1.227,0.863    c-0.984,0-1.434-0.484-1.637-1.099l-1.06,0.402c0.258,0.879,1.099,1.674,2.672,1.674c1.463,0,2.424-0.674,2.424-1.894    C93.784,71.104,92.823,70.719,91.763,70.521z"/>
	</g>
	<g>
		<path fill="#FFFFFF" d="M66.381,5.673V0.538H37.599v5.136l8.627,1.083L33.229,39.462h7.044l3-7.787h16.936l3.061,7.787h7.642    L57.808,6.756L66.381,5.673z M45.68,25.465l6.007-16.709h0.106l6.015,16.709H45.68z"/>
		<path fill="#FFFFFF" d="M13.543,0.538H0v38.925h13.543c10.93,0,19.723-7.082,19.723-19.458C33.266,7.62,24.473,0.538,13.543,0.538    z M13.543,33.244H7.097V6.756h6.446c6.885,0,12.619,4.598,12.619,13.248C26.162,29.139,20.375,33.244,13.543,33.244z"/>
		<path fill="#FFFFFF" d="M88.43,24.594h10.922v5.84c-2.022,2.113-5.294,3.355-9.005,3.355c-8.469,0-13.112-5.945-13.112-13.785    c0-7.839,4.425-13.785,12.725-13.785c4.696,0,8.249,2.484,9.998,6.324l6.499-2.651C103.503,3.568,97.277,0,89.96,0    C78.326,0,70.13,7.733,70.13,20.004C70.13,32.275,78.546,40,90.347,40c6.93,0,12.672-2.916,16.11-7.779V18.383H88.43V24.594z"/>
	</g>
</g>
</svg>