<?xml version="1.0" encoding="UTF-8"?>
<!-- Generator: Adobe Illustrator 16.0.0, SVG Export Plug-In . SVG Version: 6.00 Build 0)  -->
<!DOCTYPE svg PUBLIC "-//W3C//DTD SVG 1.1//EN" "http://www.w3.org/Graphics/SVG/1.1/DTD/svg11.dtd">
<svg version="1.1" id="Layer_1" xmlns="http://www.w3.org/2000/svg" xmlns:xlink="http://www.w3.org/1999/xlink" x="0px" y="0px" width="140px" height="65px" viewBox="0 0 140 65" enable-background="new 0 0 140 65" xml:space="preserve">
<g>
	<g>
		<g>
			<defs>
				<rect id="SVGID_1_" width="127.67" height="65"/>
			</defs>
			<clipPath id="SVGID_2_">
				<use xlink:href="#SVGID_1_" overflow="visible"/>
			</clipPath>
			<path clip-path="url(#SVGID_2_)" fill="#FFFFFF" d="M9.528,29.845c-0.732-0.29-0.837-0.214-1.066-0.366     c-0.231-0.154-0.887-0.443-1.054-0.459c-0.17-0.015-0.814-0.105-1.04,0.185c-0.23,0.29-0.275,0.444,0,0.643     c0.274,0.198,0.61,0.244,1.131,0.335c0.521,0.091,0.947,0.092,1.116,0.136c0.167,0.047,0.428,0.06,0.611,0.2     c0.184,0.137,0.491,0.258,0.781,0C10.072,30.454,10.264,30.133,9.528,29.845"/>
		</g>
		<g>
			<defs>
				<rect id="SVGID_3_" width="127.67" height="65"/>
			</defs>
			<clipPath id="SVGID_4_">
				<use xlink:href="#SVGID_3_" overflow="visible"/>
			</clipPath>
			<path clip-path="url(#SVGID_4_)" fill="#FFFFFF" d="M32.767,38.046c-0.091-0.267-0.375-0.496-0.891-0.746     c-0.517-0.247-1.138-0.354-1.421-0.389c-0.285-0.034-0.303-0.034-0.376-0.195c-0.067-0.159-0.371-0.231-0.515-0.354     c-0.14-0.125-0.656-0.338-0.835-0.371c-0.178-0.036-0.374-0.02-0.569-0.18c-0.197-0.158-0.161,0.019-0.337-0.176     c-0.179-0.197-0.322-0.144-0.89-0.232c-0.568-0.086-0.677-0.336-0.925-0.371c-0.249-0.034-0.41-0.143-0.516-0.231     c-0.108-0.088-0.392-0.141-0.623-0.267c-0.23-0.124-0.266,0.02-0.498-0.23c-0.231-0.248-0.711-0.213-1.068-0.48     c-0.354-0.266-0.585-0.104-0.908-0.264c-0.317-0.162-0.673-0.355-1.172-0.41c-0.498-0.051-0.712-0.282-1.121-0.389     c-0.408-0.106-0.836-0.16-1.101-0.336c-0.269-0.177-0.502-0.16-0.946-0.16c-0.444,0-0.444-0.142-0.71-0.302     c-0.267-0.158-0.426-0.158-0.783-0.177c-0.354-0.017-0.48-0.124-0.694-0.229c-0.212-0.106-0.371-0.195-0.853-0.195     c-0.479,0-0.711-0.23-0.924-0.355c-0.215-0.124-0.339-0.175-0.712-0.159c-0.374,0.018-0.444,0.035-0.87-0.196     c-0.429-0.231-0.482-0.07-0.855-0.231c-0.375-0.159-0.704,0.046-0.766,0.269c-0.054,0.195-0.07,0.197,0.143,0.425     c0.215,0.233,0.481,0.267,0.943,0.337c0.463,0.074,0.551,0.055,0.872,0.214c0.32,0.16,0.534,0.266,0.994,0.266     c0.463,0,0.518-0.036,0.908,0.266c0.393,0.304,0.463,0.196,0.837,0.267c0.374,0.07,0.551,0.247,1.209,0.533     c0.658,0.283,1.066,0.355,1.476,0.391c0.409,0.033,0.447,0.088,0.889,0.336c0.444,0.248,0.749,0.266,1.227,0.371     c0.48,0.107,0.943,0.463,1.53,0.713c0.587,0.248,1.815,0.512,2.331,0.582c0.631,0.09,1.031,0.391,1.598,0.553     c0.571,0.158,0.854,0.443,1.443,0.602c0.586,0.159,0.673,0.355,1.137,0.461c0.463,0.107,0.251,0.268,0.515,0.248     c0.268-0.016,0.411,0.02,0.483,0.178c0.069,0.161,0.587,0.336,1.209,0.551c0.623,0.211,0.765,0.479,1.46,0.654     C32.783,38.812,32.854,38.316,32.767,38.046"/>
		</g>
		<g>
			<defs>
				<rect id="SVGID_5_" width="127.67" height="65"/>
			</defs>
			<clipPath id="SVGID_6_">
				<use xlink:href="#SVGID_5_" overflow="visible"/>
			</clipPath>
			<path clip-path="url(#SVGID_6_)" fill="#FFFFFF" d="M28.305,39.008c0.425-0.188,0.49-0.721,0.424-0.974     c-0.068-0.255-0.188-0.468-0.441-0.654c-0.254-0.187-0.918-0.132-1.266-0.051c-0.345,0.079-0.37,0.399-0.398,0.759     c-0.066,0.786,0.172,0.812,0.506,0.975C27.465,39.223,27.876,39.191,28.305,39.008"/>
		</g>
		<g>
			<defs>
				<rect id="SVGID_7_" width="127.67" height="65"/>
			</defs>
			<clipPath id="SVGID_8_">
				<use xlink:href="#SVGID_7_" overflow="visible"/>
			</clipPath>
			<path clip-path="url(#SVGID_8_)" fill="#FFFFFF" d="M52.401,43.65c0.479,0.072,1.046-0.09,1.118-0.551     c0.07-0.463,0.48-0.606,0.818-0.623c0.339-0.02,0.499-0.162,0.533-0.482c0.035-0.32,0.356-0.441,0.551-0.768     c0.303-0.496,0.567-1.99,0.548-2.826c-0.019-0.836-0.534-0.939-0.534-1.297c0-0.355-0.089-0.515-0.161-0.729     c-0.071-0.213-0.213-0.5-0.055-0.659c0.159-0.157,0.126-0.247,0.018-0.479c-0.106-0.229-0.373-0.391-0.605-1.082     c-0.231-0.694-0.409-0.605-1.12-1.155c-0.711-0.548-0.588-0.907-0.445-1.047c0.143-0.146,0.16-0.323,0.16-0.606     c0-0.286,0.035-0.463,0.159-0.588c0.124-0.123,0.142-0.213-0.072-0.462c-0.213-0.249-0.337-0.533-0.496-0.959     c-0.162-0.428-1.107-1.173-1.409-1.476c-0.302-0.301-0.656,0.037-0.765-0.319c-0.102-0.337,0.286,0.196,0.232-0.569     c-0.036-0.535-0.961-1.047-1.298-1.527c-0.336-0.479,0.176-0.586,0.533-0.818c0.356-0.231,0.267-0.445,0.105-0.729     c-0.16-0.284-0.214-0.248-0.568-0.248c-0.355,0-0.463-0.089-0.57-0.321c-0.106-0.23-0.623-0.143-1.299-0.141     c-0.673,0-0.673-0.284-0.693-0.569c-0.017-0.283,0.908-0.268,1.422-0.321c0.517-0.055,0.444-0.533,0.41-0.872     c-0.04-0.337-0.376-0.3-0.679-0.3c-0.299,0-0.746-0.195-1.012-0.355s-0.534-0.106-1.051-0.301     c-0.514-0.195-1.1-0.587-1.654-0.942c-0.551-0.354-0.425-0.514,0.017-0.71c0.446-0.197,1.174-0.571,1.53-0.66     c0.355-0.087,0.303,0.391,0.251,0.873c-0.054,0.479-0.444,0.746,0.088,1.138c0.534,0.391,1.751-0.45,2.365-0.749     c0.211-0.104,1-1.132,1.101-1.656c0.083-0.437,0.39-0.675-0.088-1.726c-0.482-1.047-1.479-1.454-2.1-1.597     c-0.622-0.142-1.845,0.654-2.223,0.838c-1.599,0.784-1.759,2.064-1.759,2.064s-1.013-0.16-1.456-0.284     c-0.447-0.125-0.958,0.196-1.175,0.054c-0.212-0.143-0.889,0.108-1.012-0.373c-0.065-0.246,0.905-0.338,1.137-0.373     c0.231-0.035,0.552-0.25,0.426-0.534c-0.123-0.285-0.533-0.25-0.925-0.158c-0.391,0.089-1.172,0.354-1.813,0.178     c-0.639-0.177-0.516-0.605-0.23-0.639c0.283-0.037,0.408,0.017,0.89-0.108c0.477-0.125,0.443-0.055,0.674-0.161     c0.232-0.105,0.551-0.162,0.462-0.41c-0.145-0.406-0.89-0.266-1.298-0.213c-0.41,0.055-0.923,0.002-1.244-0.069     c-0.32-0.07-1.033-0.301-1.389-0.39c-0.355-0.087-0.233-0.248-0.533-0.267c-0.301-0.018-0.639-0.018-0.837-0.25     c-0.197-0.229-0.656-0.245-0.888-0.405c-0.231-0.162,0.372-0.037,0.746-0.304c0.374-0.267-0.178-0.534-0.356-0.534     c-0.179,0.002-0.266-0.018-0.212-0.301c0.089-0.55-0.287-0.676-0.66-0.748c-0.375-0.071-1.155,0.002-1.653,0.287     c-0.496,0.284-0.64,0.249-0.943,0.09c-0.301-0.16-1.156-0.658-1.708-0.709c-0.548-0.053,0.214-0.836,0.873-1.354     c0.656-0.515,0.442-0.747,0.068-0.747c-0.371,0-1.188,0.643-1.208-0.106c-0.037-1.476-0.693-0.105-0.552-1.065     c0.045-0.295,0.126-0.836,0.02-1.424c-0.108-0.586-0.554-0.336-0.693,0.056c-0.145,0.392-0.356,0.604-0.587,0.622     c-0.231,0.017-0.552,0.037-0.871,0.5c-0.322,0.463-0.642,0-0.979,0.249c-0.336,0.25-1.422-0.533-1.814-0.78     c-0.391-0.25-0.285-1.104-0.054-1.532c0.231-0.425,0.16-0.691,0.338-1.047c0.178-0.355,0.069-0.729-0.303-0.587     c-0.374,0.144-0.912,1.397-1.195,1.965c-0.285,0.569-0.652,0.703-0.99,0.366c-0.339-0.339-0.571-0.107-0.8,0.089     c-0.231,0.195-0.499,0.038-0.57-0.142c-0.07-0.178,0-1.156,0-1.156s0.231-0.482-0.02-0.676c-0.248-0.194-0.619,0.019-0.783,0.233     c-0.159,0.213-0.478,0.336-0.655,0.124c-0.18-0.213-0.412-0.249-0.713-0.017c-0.302,0.231-0.604,0.231-0.604,0.231     s-0.108-0.586-0.428-0.586c-0.321,0.002-0.624-0.62-0.906-1.03c-0.286-0.408-0.126-0.711-0.518-0.766     c-0.392-0.049-0.532,0.323-0.64,0.838c-0.105,0.516-0.639,0.517-1.03,0.481c-0.392-0.036-0.267,0.195-0.497,0.195     c-0.232,0-0.604,0.268-0.996,0.375c-0.391,0.106-1.352,0.766-1.564,1.3c-0.213,0.533,0.232,1.012,0.66,1.26     c0.428,0.251,0.872,0.676,1.227,0.997c0.356,0.318-0.446,0.354-0.427,0.659c0.01,0.142,0.535,0.317,1.475,0.017     c0.943-0.305,1.478,0.194,2.155,0.795c0.676,0.604,0.958,0.554,1.812,0.356c0.852-0.196,1.175,0.195,1.565,0.532     c0.392,0.337,0.609,0.862,0.837,0.996c0.227,0.133,0.301-0.055,0.781,0.035c0.48,0.087,0.98,0.39,1.742,0.46     c0.766,0.072,0.677,0.463,1.265,0.836c0.588,0.372,0.89,0.498,1.104,0.835c0.211,0.337,0.409,0.478,0.796,0.249     c0.393-0.233,0.803-0.215,1.069-0.021c0.269,0.196,0.355,0.41,0.872,0.552c0.515,0.142,0.696,0.461,0.696,0.461     s0.015,0.606,0.123,0.997c0.108,0.391,0.696,0.053,1.123-0.09c0.424-0.142,0.497-0.07,0.746,0.019     c0.25,0.089,0.462,0.105,0.783,0.23c0.32,0.125-0.181,0.48-0.447,0.729c-0.264,0.249-0.051,0.801,0.447,0.801     s0.82-0.429,0.978-0.749c0.338,0.195,0.535,0.961,0.765,1.208c0.232,0.249,0.872,0.426,1.478,0.461     c0.605,0.035,0.534,0.25,1.103,0.55c0.568,0.303,0.622,0.624,0.854,0.729c0.516,0.238,0.516,0.446,1.335,0.833     c0.816,0.393,1.246,0.782,1.583,1.582c0.337,0.8,1.316,0.587,1.762,1.19c0.445,0.606,0.16,0.924,0.496,1.297     c0.338,0.374,0.892-0.053,1.246,0.143c0.356,0.194,0.69,0.84,1.033,1.137c1.031,0.889,3.187,3.269,3.594,3.766     c0.411,0.5,0.925,1.227,1.176,1.92c0.292,0.812,0.657,0.925,1.051,1.174c0.389,0.247,0.763,1.029,0.818,1.546     c0.053,0.514,0.195,0.854,0.391,1.082c0.2,0.232,0.425,0.428,0.429,0.73c0,0.301,0.301,1.014,0.41,1.334     c0.107,0.317,0.374,0.869,0.427,1.189c0.055,0.318-0.035,0.586,0.019,1.137c0.053,0.551-0.035,0.782-0.212,0.997     c-0.179,0.214-0.213,0.25-0.213,0.479c0,0.23-0.019,0.32-0.354,0.679c-0.339,0.354-0.479,0.087-0.552,0.248     c-0.07,0.161-0.248,0.302-0.833,0.479c-0.586,0.178-1.23,0.289-1.567,0.289c-0.337,0-0.835,0.193-1.155,0.213     c-0.32,0.019-0.444-0.178-0.995-0.25c-0.553-0.068-1.103-0.318-1.851-0.316c-0.747,0-0.872-0.161-1.154-0.268     c-0.285-0.107-0.749-0.408-1.317-0.496c-0.57-0.088-0.676-0.088-1.192-0.266c-0.514-0.18-1.153-0.658-1.548-0.658     c-0.389,0-0.534,0.071-0.747-0.142c-0.212-0.212-1.635-0.745-1.866-0.745s-0.765-0.232-1.015-0.373     c-0.248-0.141-0.393-0.322-0.746-0.393c-0.356-0.07-0.466-0.229-0.711-0.336c-0.25-0.104-0.677,0.037-0.712,0.215     c0,0-0.088,0-0.016,0.392c0.07,0.39,0.549,0.444,0.853,0.675c0.304,0.232,1.157,0.354,1.726,0.586     c0.566,0.229,0.96,0.834,1.778,0.853c0.817,0.017,0.765,0.301,1.174,0.709c0.408,0.407,0.443,0.301,1.386,0.301     c0.944,0,0.569,0.304,0.96,0.39c0.391,0.09,0.198,0.287,0.767,0.444c0.569,0.158,0.463-0.106,1.138-0.054     c0.676,0.052,1.013,0.301,1.513,0.727c0.496,0.426,1.279,0.57,1.564,0.426c0.285-0.144,0.586-0.25,1.351-0.268     c0.763-0.021,1.548,0.443,2.149,0.764c0.609,0.319,1.336,0.123,1.656-0.338C51.935,43.82,51.919,43.578,52.401,43.65"/>
		</g>
		<g>
			<defs>
				<rect id="SVGID_9_" width="127.67" height="65"/>
			</defs>
			<clipPath id="SVGID_10_">
				<use xlink:href="#SVGID_9_" overflow="visible"/>
			</clipPath>
			<path clip-path="url(#SVGID_10_)" fill="#FFFFFF" d="M4.483,5.806c0.014-0.32,0.322-0.348,0.537-0.213     c0.211,0.134,0.397,0.239,0.758,0.693C6.14,6.74,7.084,6.616,7.605,6.473C8.126,6.324,9.167,6.151,9.94,5.921     c0.773-0.226,1.479-1.534,1.465-2.266c-0.016-0.733-0.694-1.013-0.72-1.361c-0.027-0.347-0.2-0.532-0.346-0.692     C10.19,1.44,9.551,0.868,9.283,0.628c-0.269-0.24-0.76-0.598-1.468-0.627c-0.66-0.023-0.827,0.163-0.88,0.589     C6.881,1.016,6.788,0.95,6.149,1.23C5.508,1.51,5.521,1.725,5.096,2.218C4.671,2.71,4.124,2.792,3.749,2.994     C3.376,3.193,3.071,3.901,3.083,4.141c0.014,0.239,0.089,0.32-0.28,0.387c-0.652,0.12-0.888,0.891-0.958,1.174     c-0.159,0.641-0.133,0.586-0.426,1.16C1.026,7.636,1.911,8.009,2.034,8.263C2.239,8.691,2.1,8.917,2.592,8.957     C3.089,8.995,3.127,8.781,3.26,8.421c0.131-0.36,0.199-0.746,0.773-1.214C4.607,6.74,4.471,6.127,4.483,5.806"/>
		</g>
		<g>
			<defs>
				<rect id="SVGID_11_" width="127.67" height="65"/>
			</defs>
			<clipPath id="SVGID_12_">
				<use xlink:href="#SVGID_11_" overflow="visible"/>
			</clipPath>
			<path clip-path="url(#SVGID_12_)" fill="#FFFFFF" d="M0.82,9.356C0.446,9.372,0.408,9.438,0.195,9.625     c-0.216,0.187-0.24,0.652-0.134,0.961c0.105,0.305,0.241,0.613,0.935,0.636c0.693,0.03,0.88-0.106,1.132-0.492     c0.254-0.388-0.094-0.988-0.268-1.201C1.686,9.314,1.261,9.342,0.82,9.356"/>
		</g>
		<g>
			<defs>
				<rect id="SVGID_13_" width="127.67" height="65"/>
			</defs>
			<clipPath id="SVGID_14_">
				<use xlink:href="#SVGID_13_" overflow="visible"/>
			</clipPath>
			<path clip-path="url(#SVGID_14_)" fill="#FFFFFF" d="M5.305,12.099c-0.11-0.265-0.32-0.373-0.692-0.306     c-0.376,0.068-0.497,0.269-0.656,0.534c-0.161,0.267,0.015,0.694,0.308,0.694c0.253,0,0.038,0.041,0.253,0.093     c0.213,0.053,0.628-0.201,0.759-0.307C5.413,12.701,5.41,12.367,5.305,12.099"/>
		</g>
		<g>
			<defs>
				<rect id="SVGID_15_" width="127.67" height="65"/>
			</defs>
			<clipPath id="SVGID_16_">
				<use xlink:href="#SVGID_15_" overflow="visible"/>
			</clipPath>
			<path clip-path="url(#SVGID_16_)" fill="#FFFFFF" d="M5.651,13.794c-0.279,0-0.504,0.227-0.504,0.507     c0,0.28,0.227,0.506,0.507,0.506c0.278,0,0.505-0.229,0.505-0.508C6.159,14.02,5.931,13.794,5.651,13.794"/>
		</g>
		<g>
			<defs>
				<rect id="SVGID_17_" width="127.67" height="65"/>
			</defs>
			<clipPath id="SVGID_18_">
				<use xlink:href="#SVGID_17_" overflow="visible"/>
			</clipPath>
			<path clip-path="url(#SVGID_18_)" fill="#FFFFFF" d="M7.695,17.5c0.494-0.068,0.228,0.186,0.507,0.279     c0.28,0.092,0.413,0.025,0.533-0.188c0.12-0.213-0.026-0.467-0.174-0.493c-0.148-0.028-0.123-0.013-0.108-0.293     c0.029-0.507-0.171-0.681-0.44-0.907c-0.265-0.226-0.453-0.068-0.691-0.386c-0.239-0.319-0.508-0.332-0.642-0.213     c0,0-0.173,0.081-0.04,0.228c0.134,0.146,0.202,0.292-0.133,0.492c-0.332,0.2-0.398,0.495-0.292,0.987     C6.323,17.5,7.2,17.568,7.695,17.5"/>
		</g>
		<g>
			<defs>
				<rect id="SVGID_19_" width="127.67" height="65"/>
			</defs>
			<clipPath id="SVGID_20_">
				<use xlink:href="#SVGID_19_" overflow="visible"/>
			</clipPath>
			<path clip-path="url(#SVGID_20_)" fill="#FFFFFF" d="M10.842,18.032c-0.119-0.292-0.58-0.401-0.8-0.329     c-0.348,0.115-0.373,0.713,0.148,0.864C10.71,18.718,10.964,18.324,10.842,18.032"/>
		</g>
		<g>
			<defs>
				<rect id="SVGID_21_" width="127.67" height="65"/>
			</defs>
			<clipPath id="SVGID_22_">
				<use xlink:href="#SVGID_21_" overflow="visible"/>
			</clipPath>
			<path clip-path="url(#SVGID_22_)" fill="#FFFFFF" d="M17.826,28.826c0.441,0.094,0.415-0.307,0.415-0.746     c0-0.44-0.042-0.521-0.215-0.842c-0.174-0.319-0.549-0.215-0.827-0.064c-0.32,0.173-0.479,0.693-0.131,0.96     C17.414,28.401,17.386,28.733,17.826,28.826"/>
		</g>
		<g>
			<defs>
				<rect id="SVGID_23_" width="127.67" height="65"/>
			</defs>
			<clipPath id="SVGID_24_">
				<use xlink:href="#SVGID_23_" overflow="visible"/>
			</clipPath>
			<path clip-path="url(#SVGID_24_)" fill="#FFFFFF" d="M16.023,25.401c-0.173-0.093-0.638-0.159-1,0.042     c-0.358,0.2-0.333,0.746,0.161,1.267c0.496,0.517,0.721,0.304,1.268,0.012c0.545-0.294,0.558-0.759,0.465-0.949     C16.705,25.335,16.307,25.553,16.023,25.401"/>
		</g>
		<g>
			<defs>
				<rect id="SVGID_25_" width="127.67" height="65"/>
			</defs>
			<clipPath id="SVGID_26_">
				<use xlink:href="#SVGID_25_" overflow="visible"/>
			</clipPath>
			<path clip-path="url(#SVGID_26_)" fill="#FFFFFF" d="M18.86,21.215l1.619-3.524h0.049l1.508,3.521L18.86,21.215z M32.416,25.285     c1.225,0,2.26,0.592,2.448,1.425l4.966-0.003c-0.755-2.693-3.465-4.275-7.747-4.271c-1.352,0-2.792,0.229-4.088,0.715     l-4.976-9.291l-5.06,0.004L11.78,25.308l5.199-0.004l0.754-1.635l5.341-0.004l0.706,1.633h1.111     c-0.673,0.863-1.085,1.935-1.085,3.247c0.004,3.254,3.064,5.878,8.028,5.875c1.836-0.002,3.625-0.436,4.778-1.447l0.165,1.169     l3.27-0.002l-0.004-6.293l-6.871,0.004l0.001,2.451l2.284-0.002c-0.258,0.85-1.482,1.269-2.682,1.269     c-3.152,0.003-3.79-1.871-3.792-2.945C28.983,27.836,28.863,25.288,32.416,25.285"/>
		</g>
	</g>
	<path fill="#FFFFFF" d="M14.638,55.193l0.643-1.811h0.015l0.622,1.811H14.638z M16.574,57.102h1.125l-1.844-4.935h-1.113   l-1.865,4.935h1.092l0.386-1.098h1.846L16.574,57.102z"/>
	<g>
		<g>
			<defs>
				<rect id="SVGID_27_" width="127.67" height="65"/>
			</defs>
			<clipPath id="SVGID_28_">
				<use xlink:href="#SVGID_27_" overflow="visible"/>
			</clipPath>
			<path clip-path="url(#SVGID_28_)" fill="#FFFFFF" d="M21.695,56.542l0.11,0.56h0.691v-2.666h-2.074v0.809h1.092     c-0.033,0.345-0.146,0.609-0.343,0.791c-0.195,0.182-0.473,0.273-0.832,0.273c-0.245,0-0.451-0.047-0.623-0.143     c-0.17-0.094-0.308-0.221-0.414-0.377c-0.106-0.156-0.183-0.333-0.232-0.527c-0.047-0.195-0.072-0.398-0.072-0.605     c0-0.215,0.024-0.426,0.072-0.629c0.05-0.202,0.126-0.383,0.232-0.541c0.106-0.158,0.244-0.286,0.414-0.381     c0.171-0.094,0.378-0.141,0.623-0.141c0.263,0,0.486,0.068,0.67,0.207c0.185,0.139,0.309,0.346,0.373,0.622h1.037     c-0.027-0.28-0.104-0.53-0.228-0.747c-0.125-0.216-0.282-0.398-0.473-0.545c-0.192-0.148-0.406-0.259-0.644-0.335     c-0.238-0.076-0.482-0.114-0.736-0.114c-0.378,0-0.718,0.066-1.019,0.2c-0.302,0.136-0.557,0.319-0.764,0.554     c-0.207,0.235-0.366,0.51-0.477,0.826c-0.11,0.314-0.165,0.657-0.165,1.025c0,0.359,0.055,0.695,0.165,1.006     c0.111,0.311,0.27,0.582,0.477,0.812c0.208,0.229,0.462,0.41,0.764,0.541c0.301,0.131,0.641,0.196,1.019,0.196     c0.24,0,0.477-0.049,0.711-0.147C21.283,56.967,21.501,56.791,21.695,56.542"/>
		</g>
	</g>
	<polygon fill="#FFFFFF" points="23.374,57.102 27.119,57.102 27.119,56.189 24.459,56.189 24.459,54.98 26.85,54.98 26.85,54.139    24.459,54.139 24.459,53.08 27.064,53.08 27.064,52.167 23.374,52.167  "/>
	<polygon fill="#FFFFFF" points="31.003,55.479 30.989,55.479 28.93,52.167 27.852,52.167 27.852,57.102 28.868,57.102    28.868,53.798 28.881,53.798 30.934,57.102 32.019,57.102 32.019,52.167 31.003,52.167  "/>
	<g>
		<g>
			<defs>
				<rect id="SVGID_29_" width="127.67" height="65"/>
			</defs>
			<clipPath id="SVGID_30_">
				<use xlink:href="#SVGID_29_" overflow="visible"/>
			</clipPath>
			<path clip-path="url(#SVGID_30_)" fill="#FFFFFF" d="M34.148,53.484c0.105-0.159,0.243-0.285,0.414-0.379     c0.171-0.096,0.378-0.143,0.622-0.143c0.134,0,0.262,0.021,0.384,0.064c0.123,0.045,0.232,0.104,0.329,0.184     c0.096,0.079,0.177,0.169,0.242,0.273c0.064,0.104,0.105,0.219,0.125,0.343h1.051c-0.033-0.286-0.111-0.54-0.235-0.761     c-0.125-0.221-0.283-0.406-0.474-0.557c-0.192-0.148-0.409-0.263-0.65-0.342c-0.241-0.078-0.499-0.117-0.771-0.117     c-0.378,0-0.717,0.066-1.019,0.201c-0.301,0.133-0.556,0.318-0.763,0.553c-0.208,0.234-0.367,0.51-0.478,0.825     c-0.11,0.313-0.166,0.657-0.166,1.024c0,0.361,0.055,0.695,0.166,1.007c0.111,0.312,0.27,0.582,0.478,0.812     c0.207,0.23,0.462,0.41,0.763,0.543c0.302,0.131,0.641,0.196,1.019,0.196c0.304,0,0.583-0.045,0.837-0.138     c0.253-0.092,0.473-0.225,0.662-0.401c0.189-0.174,0.341-0.387,0.457-0.635c0.115-0.25,0.187-0.528,0.215-0.837h-1.051     c-0.042,0.333-0.155,0.6-0.342,0.803s-0.446,0.305-0.778,0.305c-0.244,0-0.451-0.049-0.622-0.143     c-0.17-0.096-0.308-0.219-0.414-0.376c-0.107-0.157-0.184-0.333-0.232-0.528s-0.072-0.396-0.072-0.605     c0-0.215,0.024-0.426,0.072-0.627C33.964,53.824,34.041,53.643,34.148,53.484"/>
		</g>
	</g>
	<rect x="38.093" y="52.167" fill="#FFFFFF" width="1.085" height="4.935"/>
	<path fill="#FFFFFF" d="M41.375,55.193l0.644-1.811h0.014l0.622,1.811H41.375z M41.48,52.167l-1.866,4.935h1.092l0.387-1.098h1.845   l0.374,1.098h1.126l-1.846-4.935H41.48z"/>
	<g>
		<g>
			<defs>
				<rect id="SVGID_31_" width="127.67" height="65"/>
			</defs>
			<clipPath id="SVGID_32_">
				<use xlink:href="#SVGID_31_" overflow="visible"/>
			</clipPath>
			<path clip-path="url(#SVGID_32_)" fill="#FFFFFF" d="M49.082,55.244h1.092c-0.032,0.345-0.146,0.609-0.343,0.791     c-0.195,0.182-0.473,0.273-0.832,0.273c-0.244,0-0.451-0.049-0.622-0.143s-0.308-0.219-0.416-0.377     c-0.105-0.156-0.182-0.333-0.231-0.527c-0.048-0.197-0.072-0.398-0.072-0.605c0-0.217,0.024-0.426,0.072-0.629     c0.049-0.202,0.126-0.383,0.231-0.541c0.107-0.16,0.245-0.286,0.416-0.381c0.171-0.094,0.378-0.142,0.622-0.142     c0.263,0,0.486,0.067,0.67,0.207s0.31,0.347,0.374,0.623h1.037c-0.028-0.282-0.104-0.53-0.229-0.747     c-0.125-0.216-0.282-0.398-0.474-0.545c-0.191-0.148-0.404-0.26-0.642-0.336c-0.238-0.075-0.482-0.113-0.736-0.113     c-0.377,0-0.717,0.066-1.019,0.201c-0.302,0.133-0.557,0.318-0.764,0.553c-0.207,0.235-0.366,0.51-0.477,0.825     c-0.111,0.315-0.166,0.657-0.166,1.026c0,0.359,0.055,0.695,0.166,1.006c0.111,0.311,0.27,0.581,0.477,0.812     c0.208,0.229,0.462,0.41,0.764,0.541c0.302,0.131,0.642,0.198,1.019,0.198c0.238,0,0.477-0.05,0.711-0.149     c0.235-0.098,0.449-0.272,0.644-0.521l0.11,0.56h0.692v-2.666h-2.074V55.244z"/>
		</g>
		<g>
			<defs>
				<rect id="SVGID_33_" width="127.67" height="65"/>
			</defs>
			<clipPath id="SVGID_34_">
				<use xlink:href="#SVGID_33_" overflow="visible"/>
			</clipPath>
			<path clip-path="url(#SVGID_34_)" fill="#FFFFFF" d="M54.867,54.234c-0.126,0.109-0.312,0.166-0.561,0.166h-1.188v-1.389h1.188     c0.249,0,0.435,0.053,0.561,0.161c0.124,0.108,0.185,0.282,0.185,0.522C55.052,53.943,54.99,54.124,54.867,54.234 M56.113,56.536     c-0.011-0.111-0.02-0.22-0.024-0.326c-0.005-0.104-0.009-0.196-0.014-0.276c-0.009-0.125-0.027-0.248-0.052-0.373     c-0.024-0.125-0.066-0.238-0.121-0.342c-0.055-0.105-0.127-0.193-0.214-0.27s-0.198-0.133-0.332-0.17v-0.014     c0.276-0.111,0.476-0.271,0.598-0.484c0.122-0.211,0.183-0.461,0.183-0.754c0-0.188-0.033-0.364-0.1-0.526     c-0.067-0.165-0.164-0.308-0.29-0.433c-0.127-0.125-0.28-0.223-0.457-0.295c-0.178-0.069-0.376-0.106-0.598-0.106h-2.661v4.935     h1.085v-1.928h1.085c0.272,0,0.468,0.061,0.588,0.18c0.119,0.121,0.198,0.31,0.233,0.568c0.028,0.197,0.05,0.404,0.062,0.621     c0.014,0.216,0.051,0.402,0.111,0.561h1.085c-0.051-0.069-0.089-0.153-0.114-0.252C56.143,56.75,56.125,56.646,56.113,56.536"/>
		</g>
	</g>
	<path fill="#FFFFFF" d="M58.266,55.193l0.643-1.811h0.015l0.622,1.811H58.266z M58.369,52.167l-1.866,4.935h1.093l0.386-1.098   h1.846l0.373,1.098h1.126l-1.845-4.935H58.369z"/>
	<polygon fill="#FFFFFF" points="60.138,50.745 59.054,50.745 58.391,51.727 59.074,51.727  "/>
	<polygon fill="#FFFFFF" points="61.756,57.102 62.84,57.102 62.84,55.062 64.907,55.062 64.907,54.221 62.84,54.221 62.84,53.08    65.225,53.08 65.225,52.167 61.756,52.167  "/>
	<rect x="65.853" y="52.167" fill="#FFFFFF" width="1.085" height="4.935"/>
	<g>
		<g>
			<defs>
				<rect id="SVGID_35_" width="127.67" height="65"/>
			</defs>
			<clipPath id="SVGID_36_">
				<use xlink:href="#SVGID_35_" overflow="visible"/>
			</clipPath>
			<path clip-path="url(#SVGID_36_)" fill="#FFFFFF" d="M70.882,56.004c-0.187,0.203-0.447,0.305-0.778,0.305     c-0.244,0-0.451-0.049-0.622-0.143c-0.17-0.094-0.309-0.219-0.415-0.377c-0.106-0.156-0.183-0.333-0.232-0.527     c-0.047-0.197-0.073-0.398-0.073-0.605c0-0.217,0.025-0.426,0.073-0.629c0.049-0.202,0.126-0.383,0.232-0.541     c0.105-0.16,0.244-0.286,0.415-0.381c0.171-0.094,0.378-0.142,0.622-0.142c0.133,0,0.261,0.021,0.383,0.065     c0.123,0.043,0.232,0.105,0.329,0.183c0.096,0.079,0.177,0.169,0.242,0.274c0.064,0.104,0.106,0.217,0.125,0.342h1.05     c-0.033-0.286-0.11-0.54-0.235-0.76c-0.124-0.221-0.282-0.407-0.473-0.557c-0.191-0.15-0.407-0.264-0.65-0.343     c-0.242-0.077-0.498-0.116-0.77-0.116c-0.377,0-0.717,0.065-1.02,0.2c-0.301,0.134-0.556,0.317-0.763,0.554     c-0.207,0.234-0.367,0.508-0.477,0.824c-0.11,0.314-0.166,0.657-0.166,1.025c0,0.361,0.056,0.695,0.166,1.007     c0.11,0.312,0.27,0.581,0.477,0.812c0.207,0.23,0.462,0.41,0.763,0.543c0.303,0.131,0.643,0.197,1.02,0.197     c0.304,0,0.582-0.046,0.836-0.139c0.254-0.092,0.475-0.225,0.664-0.401c0.188-0.174,0.341-0.387,0.457-0.635     c0.114-0.25,0.187-0.528,0.214-0.837h-1.051C71.182,55.534,71.068,55.801,70.882,56.004"/>
		</g>
	</g>
	<path fill="#FFFFFF" d="M74.256,55.193l0.644-1.811h0.013l0.622,1.811H74.256z M74.361,52.167l-1.866,4.935h1.092l0.387-1.098   h1.845l0.374,1.098h1.127l-1.846-4.935H74.361z"/>
	<g>
		<g>
			<defs>
				<rect id="SVGID_37_" width="127.67" height="65"/>
			</defs>
			<clipPath id="SVGID_38_">
				<use xlink:href="#SVGID_37_" overflow="visible"/>
			</clipPath>
			<path clip-path="url(#SVGID_38_)" fill="#FFFFFF" d="M81.962,55.244h1.093c-0.033,0.345-0.146,0.609-0.343,0.791     c-0.194,0.182-0.474,0.273-0.833,0.273c-0.244,0-0.451-0.049-0.622-0.143s-0.308-0.219-0.415-0.377     c-0.105-0.156-0.183-0.333-0.232-0.527c-0.047-0.197-0.071-0.398-0.071-0.605c0-0.217,0.024-0.426,0.071-0.629     c0.05-0.202,0.127-0.383,0.232-0.541c0.106-0.16,0.244-0.286,0.415-0.381c0.171-0.094,0.378-0.142,0.622-0.142     c0.264,0,0.486,0.067,0.67,0.207c0.186,0.14,0.309,0.347,0.374,0.623h1.037c-0.026-0.282-0.104-0.53-0.229-0.747     c-0.125-0.216-0.281-0.398-0.474-0.545c-0.19-0.148-0.405-0.26-0.642-0.336c-0.238-0.075-0.482-0.113-0.736-0.113     c-0.377,0-0.717,0.066-1.02,0.201c-0.303,0.133-0.556,0.318-0.764,0.553c-0.207,0.235-0.366,0.51-0.477,0.825     c-0.111,0.315-0.166,0.657-0.166,1.026c0,0.359,0.055,0.695,0.166,1.006c0.111,0.311,0.27,0.581,0.477,0.812     c0.208,0.229,0.461,0.41,0.764,0.541c0.302,0.131,0.642,0.198,1.02,0.198c0.239,0,0.477-0.05,0.711-0.149     c0.235-0.098,0.449-0.272,0.645-0.521l0.109,0.56h0.691v-2.666h-2.074L81.962,55.244L81.962,55.244z"/>
		</g>
	</g>
	<path fill="#FFFFFF" d="M86.157,55.193l0.643-1.811h0.015l0.623,1.811H86.157z M86.262,52.167l-1.865,4.935h1.092l0.386-1.098   h1.847l0.372,1.098h1.126l-1.845-4.935H86.262z"/>
	<polygon fill="#FFFFFF" points="90.732,52.167 89.648,52.167 89.648,57.102 93.139,57.102 93.139,56.189 90.732,56.189  "/>
	<polygon fill="#FFFFFF" points="94.83,52.167 93.746,52.167 93.746,57.102 97.234,57.102 97.234,56.189 94.83,56.189  "/>
	<polygon fill="#FFFFFF" points="98.93,54.98 101.32,54.98 101.32,54.139 98.93,54.139 98.93,53.08 101.533,53.08 101.533,52.167    97.844,52.167 97.844,57.102 101.589,57.102 101.589,56.189 98.93,56.189  "/>
	<g>
		<g>
			<defs>
				<rect id="SVGID_39_" width="127.67" height="65"/>
			</defs>
			<clipPath id="SVGID_40_">
				<use xlink:href="#SVGID_39_" overflow="visible"/>
			</clipPath>
			<path clip-path="url(#SVGID_40_)" fill="#FFFFFF" d="M104.616,55.244h1.093c-0.033,0.345-0.146,0.609-0.343,0.791     s-0.474,0.273-0.833,0.273c-0.246,0-0.452-0.049-0.623-0.143c-0.17-0.094-0.309-0.219-0.415-0.377     c-0.106-0.156-0.183-0.333-0.231-0.527c-0.048-0.197-0.072-0.398-0.072-0.605c0-0.217,0.024-0.426,0.072-0.629     c0.049-0.202,0.125-0.383,0.231-0.541c0.106-0.16,0.245-0.286,0.415-0.381c0.171-0.094,0.377-0.142,0.623-0.142     c0.262,0,0.486,0.067,0.67,0.207s0.309,0.347,0.372,0.623h1.038c-0.028-0.282-0.104-0.53-0.229-0.747     c-0.125-0.216-0.282-0.398-0.473-0.545c-0.19-0.148-0.406-0.26-0.644-0.336c-0.236-0.075-0.481-0.113-0.734-0.113     c-0.377,0-0.719,0.066-1.02,0.201c-0.302,0.133-0.557,0.318-0.764,0.553c-0.208,0.235-0.367,0.51-0.479,0.825     c-0.109,0.315-0.166,0.657-0.166,1.026c0,0.359,0.056,0.695,0.166,1.006c0.111,0.311,0.27,0.581,0.479,0.812     c0.207,0.229,0.461,0.41,0.764,0.541c0.301,0.131,0.643,0.198,1.02,0.198c0.238,0,0.476-0.05,0.712-0.149     c0.235-0.098,0.448-0.272,0.642-0.521l0.11,0.56h0.692v-2.666h-2.074L104.616,55.244L104.616,55.244z"/>
		</g>
	</g>
	<path fill="#FFFFFF" d="M108.811,55.193l0.644-1.811h0.013l0.622,1.811H108.811z M108.915,52.167l-1.866,4.935h1.092l0.387-1.098   h1.846l0.373,1.098h1.126l-1.847-4.935H108.915z"/>
	<g>
		<g>
			<defs>
				<rect id="SVGID_41_" width="127.67" height="65"/>
			</defs>
			<clipPath id="SVGID_42_">
				<use xlink:href="#SVGID_41_" overflow="visible"/>
			</clipPath>
			<path clip-path="url(#SVGID_42_)" fill="#FFFFFF" d="M112.246,57.102h0.497c0.005,0.073-0.005,0.146-0.027,0.219     c-0.022,0.07-0.058,0.135-0.104,0.191c-0.047,0.059-0.1,0.109-0.162,0.15c-0.062,0.042-0.129,0.068-0.197,0.083v0.497     c0.146-0.021,0.287-0.064,0.419-0.127c0.131-0.062,0.245-0.143,0.343-0.238c0.096-0.096,0.172-0.21,0.229-0.343     c0.058-0.132,0.087-0.274,0.087-0.433v-1.062h-1.085L112.246,57.102L112.246,57.102z"/>
		</g>
		<g>
			<defs>
				<rect id="SVGID_43_" width="127.67" height="65"/>
			</defs>
			<clipPath id="SVGID_44_">
				<use xlink:href="#SVGID_43_" overflow="visible"/>
			</clipPath>
			<path clip-path="url(#SVGID_44_)" fill="#FFFFFF" d="M119.391,54.531c-0.16-0.106-0.322-0.184-0.486-0.232     c-0.164-0.047-0.293-0.082-0.383-0.099c-0.311-0.079-0.56-0.144-0.752-0.194c-0.189-0.051-0.34-0.102-0.449-0.152     c-0.106-0.049-0.18-0.105-0.217-0.164c-0.037-0.062-0.056-0.139-0.056-0.235c0-0.106,0.022-0.194,0.07-0.263     c0.045-0.069,0.104-0.127,0.175-0.174c0.072-0.045,0.152-0.078,0.238-0.096c0.089-0.02,0.175-0.027,0.263-0.027     c0.134,0,0.257,0.012,0.371,0.033c0.112,0.023,0.212,0.062,0.3,0.118c0.087,0.056,0.157,0.132,0.21,0.229     c0.054,0.097,0.084,0.218,0.095,0.365h1.049c0-0.285-0.053-0.527-0.161-0.729c-0.108-0.2-0.255-0.364-0.438-0.493     c-0.186-0.129-0.396-0.222-0.633-0.28c-0.238-0.059-0.484-0.086-0.744-0.086c-0.221,0-0.441,0.029-0.664,0.09     c-0.221,0.059-0.419,0.151-0.594,0.276c-0.175,0.124-0.316,0.28-0.425,0.468c-0.108,0.184-0.162,0.405-0.162,0.659     c0,0.226,0.042,0.417,0.127,0.577c0.086,0.158,0.196,0.291,0.335,0.396c0.139,0.106,0.295,0.192,0.471,0.26     c0.176,0.066,0.354,0.123,0.538,0.168c0.181,0.052,0.357,0.097,0.533,0.14c0.176,0.041,0.332,0.089,0.472,0.146     c0.137,0.055,0.248,0.123,0.334,0.207c0.084,0.082,0.127,0.191,0.127,0.326c0,0.125-0.033,0.225-0.097,0.307     c-0.065,0.08-0.146,0.144-0.241,0.189c-0.099,0.047-0.201,0.077-0.313,0.094c-0.11,0.017-0.214,0.023-0.31,0.023     c-0.144,0-0.283-0.016-0.416-0.051c-0.133-0.034-0.25-0.086-0.349-0.159c-0.099-0.071-0.179-0.165-0.237-0.278     c-0.061-0.115-0.092-0.257-0.092-0.422h-1.05c-0.005,0.303,0.051,0.565,0.167,0.787c0.115,0.221,0.27,0.402,0.466,0.547     c0.196,0.141,0.421,0.247,0.677,0.314c0.256,0.064,0.521,0.098,0.793,0.098c0.336,0,0.631-0.037,0.887-0.117     c0.257-0.078,0.471-0.187,0.643-0.328c0.173-0.141,0.305-0.307,0.391-0.5c0.088-0.193,0.131-0.404,0.131-0.629     c0-0.277-0.059-0.504-0.174-0.682C119.691,54.779,119.553,54.637,119.391,54.531"/>
		</g>
	</g>
	<rect x="120.566" y="56.038" fill="#FFFFFF" width="1.084" height="1.063"/>
	<polygon fill="#FFFFFF" points="123.635,52.167 122.55,52.167 122.55,57.102 126.039,57.102 126.039,56.189 123.635,56.189  "/>
	<rect x="126.585" y="56.038" fill="#FFFFFF" width="1.085" height="1.063"/>
	<rect x="13.326" y="60.771" fill="#FFFFFF" width="0.93" height="4.229"/>
	<polygon fill="#FFFFFF" points="18.32,60.771 17.385,63.678 17.372,63.678 16.383,60.771 15.074,60.771 15.074,65 15.945,65    15.945,62.031 15.957,62.031 16.993,65 17.71,65 18.746,62.002 18.758,62.002 18.758,65 19.629,65 19.629,60.771  "/>
	<g>
		<g>
			<defs>
				<rect id="SVGID_45_" width="127.67" height="65"/>
			</defs>
			<clipPath id="SVGID_46_">
				<use xlink:href="#SVGID_45_" overflow="visible"/>
			</clipPath>
			<path clip-path="url(#SVGID_46_)" fill="#FFFFFF" d="M22.849,62.453c-0.046,0.083-0.106,0.146-0.181,0.193     c-0.075,0.043-0.162,0.074-0.261,0.09c-0.099,0.017-0.202,0.025-0.309,0.025h-0.722v-1.269h0.722     c0.107,0,0.209,0.007,0.309,0.022c0.099,0.016,0.186,0.047,0.261,0.092s0.135,0.109,0.181,0.193     c0.045,0.083,0.067,0.189,0.067,0.325C22.917,62.262,22.894,62.371,22.849,62.453 M23.482,61.191     c-0.116-0.127-0.267-0.229-0.453-0.307c-0.185-0.076-0.411-0.113-0.675-0.113h-1.908V65h0.93v-1.516h0.978     c0.264,0,0.49-0.039,0.675-0.116c0.186-0.077,0.337-0.179,0.453-0.306c0.117-0.127,0.202-0.271,0.254-0.436     c0.054-0.165,0.081-0.331,0.081-0.501c0-0.174-0.026-0.341-0.081-0.503C23.684,61.462,23.599,61.318,23.482,61.191"/>
		</g>
		<g>
			<defs>
				<rect id="SVGID_47_" width="127.67" height="65"/>
			</defs>
			<clipPath id="SVGID_48_">
				<use xlink:href="#SVGID_47_" overflow="visible"/>
			</clipPath>
			<path clip-path="url(#SVGID_48_)" fill="#FFFFFF" d="M26.827,62.542c-0.107,0.095-0.268,0.142-0.48,0.142h-1.02v-1.189h1.02     c0.212,0,0.373,0.045,0.48,0.138c0.106,0.095,0.159,0.243,0.159,0.448C26.985,62.293,26.933,62.447,26.827,62.542 M27.896,64.514     c-0.01-0.094-0.017-0.188-0.021-0.277c-0.003-0.092-0.008-0.17-0.012-0.237c-0.007-0.106-0.023-0.212-0.044-0.319     s-0.056-0.205-0.104-0.293c-0.046-0.089-0.109-0.166-0.183-0.23c-0.076-0.065-0.17-0.114-0.285-0.146v-0.011     c0.237-0.095,0.409-0.233,0.514-0.416c0.104-0.181,0.156-0.396,0.156-0.646c0-0.162-0.028-0.312-0.086-0.453     c-0.057-0.141-0.14-0.264-0.249-0.371c-0.108-0.105-0.239-0.189-0.39-0.252c-0.152-0.059-0.323-0.09-0.513-0.09h-2.281V65h0.931     v-1.652h0.931c0.232,0,0.4,0.051,0.502,0.154c0.103,0.104,0.171,0.266,0.202,0.484c0.023,0.17,0.041,0.349,0.053,0.533     c0.012,0.188,0.044,0.348,0.095,0.48h0.93c-0.042-0.059-0.076-0.132-0.098-0.216C27.921,64.7,27.905,64.607,27.896,64.514"/>
		</g>
	</g>
	<polygon fill="#FFFFFF" points="28.674,60.771 28.674,65 31.884,65 31.884,64.219 29.604,64.219 29.604,63.182 31.654,63.182    31.654,62.459 29.604,62.459 29.604,61.553 31.837,61.553 31.837,60.771  "/>
	<polygon fill="#FFFFFF" points="35.213,60.771 35.213,63.607 35.202,63.607 33.437,60.771 32.513,60.771 32.513,65 33.384,65    33.384,62.168 33.395,62.168 35.155,65 36.084,65 36.084,60.771  "/>
	<polygon fill="#FFFFFF" points="36.57,60.771 36.57,61.553 37.837,61.553 37.837,65 38.768,65 38.768,61.553 40.035,61.553    40.035,60.771  "/>
	<path fill="#FFFFFF" d="M41.594,61.812h0.011l0.534,1.551h-1.096L41.594,61.812z M41.131,60.771L39.532,65h0.936l0.331-0.941h1.583   L42.701,65h0.966l-1.582-4.229H41.131z"/>
</g>
</svg>