<?xml version="1.0" encoding="UTF-8"?>
<!-- Generator: Adobe Illustrator 16.0.0, SVG Export Plug-In . SVG Version: 6.00 Build 0)  -->
<!DOCTYPE svg PUBLIC "-//W3C//DTD SVG 1.1//EN" "http://www.w3.org/Graphics/SVG/1.1/DTD/svg11.dtd">
<svg version="1.1" id="Layer_1" xmlns="http://www.w3.org/2000/svg" xmlns:xlink="http://www.w3.org/1999/xlink" x="0px" y="0px" width="100px" height="100px" viewBox="0 0 100 100" enable-background="new 0 0 100 100" xml:space="preserve">
<g>
	<g>
		<defs>
			<rect id="SVGID_1_" width="71.284" height="100"/>
		</defs>
		<clipPath id="SVGID_2_">
			<use xlink:href="#SVGID_1_" overflow="visible"/>
		</clipPath>
		<path clip-path="url(#SVGID_2_)" fill="#FFFFFF" d="M12.911,61.202c0.054,0.022,0.11,0.033,0.166,0.033    c0.112,0,0.221-0.043,0.303-0.125l9.86-9.761c0.083-0.082,0.128-0.192,0.128-0.307L23.267,0.43c0-0.174-0.105-0.331-0.266-0.397    c-0.161-0.065-0.346-0.03-0.469,0.094l-9.759,9.761c-0.081,0.08-0.126,0.189-0.126,0.304v50.613    C12.646,60.979,12.751,61.135,12.911,61.202"/>
		<path clip-path="url(#SVGID_2_)" fill="#FFFFFF" d="M14.713,62.188c0.065,0.162,0.223,0.267,0.397,0.267l35.99-0.001    c0.114,0,0.224-0.046,0.304-0.127l9.761-9.761c0.123-0.122,0.161-0.308,0.093-0.469c-0.067-0.161-0.224-0.266-0.397-0.266H24.912    c-0.114,0-0.223,0.045-0.304,0.126l-9.801,9.763C14.683,61.842,14.646,62.028,14.713,62.188"/>
	</g>
	<polygon fill="#FFFFFF" points="0,89.28 0.164,89.373 0.997,87.818 0.832,87.732  "/>
	<polygon fill="#FFFFFF" points="1.803,89.28 1.965,89.373 2.798,87.818 2.634,87.732  "/>
	<polygon fill="#FFFFFF" points="3.604,89.28 3.768,89.373 4.601,87.818 4.437,87.732  "/>
	<polygon fill="#FFFFFF" points="5.407,89.28 5.571,89.373 6.404,87.818 6.238,87.732  "/>
	<polygon fill="#FFFFFF" points="7.209,89.28 7.373,89.373 8.206,87.818 8.041,87.732  "/>
	<polygon fill="#FFFFFF" points="10.008,87.818 9.843,87.732 9.011,89.28 9.175,89.373  "/>
	<polygon fill="#FFFFFF" points="10.813,89.28 10.977,89.373 11.809,87.818 11.646,87.732  "/>
	<polygon fill="#FFFFFF" points="13.448,87.732 12.615,89.28 12.779,89.373 13.612,87.819  "/>
	<polygon fill="#FFFFFF" points="15.25,87.732 14.418,89.28 14.582,89.373 15.415,87.819  "/>
	<polygon fill="#FFFFFF" points="17.053,87.732 16.221,89.28 16.384,89.373 17.217,87.819  "/>
	<polygon fill="#FFFFFF" points="18.186,89.373 19.019,87.819 18.855,87.732 18.022,89.28  "/>
	<polygon fill="#FFFFFF" points="19.825,89.28 19.988,89.373 20.821,87.818 20.657,87.732  "/>
	<polygon fill="#FFFFFF" points="21.791,89.373 22.624,87.819 22.459,87.732 21.626,89.28  "/>
	<polygon fill="#FFFFFF" points="23.593,89.373 24.426,87.819 24.261,87.732 23.429,89.28  "/>
	<polygon fill="#FFFFFF" points="26.228,87.818 26.064,87.732 25.232,89.28 25.395,89.373  "/>
	<polygon fill="#FFFFFF" points="27.198,89.373 28.03,87.819 27.866,87.732 27.034,89.28  "/>
	<polygon fill="#FFFFFF" points="29.832,87.818 29.668,87.732 28.836,89.28 29,89.373  "/>
	<polygon fill="#FFFFFF" points="30.802,89.373 31.635,87.819 31.471,87.732 30.638,89.28  "/>
	<polygon fill="#FFFFFF" points="33.272,87.732 32.44,89.28 32.604,89.373 33.438,87.819  "/>
	<polygon fill="#FFFFFF" points="34.244,89.28 34.406,89.373 35.239,87.818 35.075,87.732  "/>
	<polygon fill="#FFFFFF" points="37.042,87.818 36.876,87.732 36.045,89.28 36.208,89.373  "/>
	<polygon fill="#FFFFFF" points="37.848,89.28 38.01,89.373 38.843,87.818 38.679,87.732  "/>
	<polygon fill="#FFFFFF" points="39.812,89.373 40.645,87.819 40.482,87.732 39.649,89.28  "/>
	<polygon fill="#FFFFFF" points="41.614,89.373 42.449,87.819 42.283,87.732 41.451,89.28  "/>
	<polygon fill="#FFFFFF" points="44.085,87.732 43.253,89.28 43.416,89.373 44.25,87.819  "/>
	<polygon fill="#FFFFFF" points="45.221,89.373 46.052,87.819 45.888,87.732 45.055,89.28  "/>
	<polygon fill="#FFFFFF" points="47.689,87.732 46.857,89.28 47.022,89.373 47.854,87.819  "/>
	<polygon fill="#FFFFFF" points="49.492,87.732 48.661,89.28 48.823,89.373 49.657,87.819  "/>
	<polygon fill="#FFFFFF" points="50.461,89.28 50.625,89.373 51.459,87.818 51.294,87.732  "/>
	<polygon fill="#FFFFFF" points="52.264,89.28 52.427,89.373 53.261,87.818 53.097,87.732  "/>
	<polygon fill="#FFFFFF" points="55.064,87.818 54.899,87.732 54.066,89.28 54.231,89.373  "/>
	<polygon fill="#FFFFFF" points="56.701,87.732 55.868,89.28 56.033,89.373 56.866,87.819  "/>
	<polygon fill="#FFFFFF" points="58.503,87.732 57.672,89.28 57.834,89.373 58.668,87.819  "/>
	<polygon fill="#FFFFFF" points="59.637,89.373 60.471,87.819 60.305,87.732 59.473,89.28  "/>
	<polygon fill="#FFFFFF" points="61.276,89.28 61.438,89.373 62.272,87.818 62.107,87.732  "/>
	<polygon fill="#FFFFFF" points="63.077,89.28 63.243,89.373 64.075,87.818 63.91,87.732  "/>
	<polygon fill="#FFFFFF" points="64.88,89.28 65.043,89.373 65.876,87.818 65.712,87.732  "/>
	<polygon fill="#FFFFFF" points="66.683,89.28 66.845,89.373 67.679,87.818 67.514,87.732  "/>
	<polygon fill="#FFFFFF" points="68.485,89.28 68.648,89.373 69.482,87.818 69.316,87.732  "/>
	<polygon fill="#FFFFFF" points="70.287,89.28 70.452,89.373 71.284,87.819 71.284,87.818 71.118,87.732  "/>
	<polygon fill="#FFFFFF" points="9.083,95.558 9.083,99.744 11.394,99.744 11.394,99.15 9.714,99.15 9.714,97.751 11.344,97.751    11.344,97.157 9.714,97.157 9.714,96.15 11.394,96.15 11.394,95.558  "/>
	<polygon fill="#FFFFFF" points="12.224,99.744 12.856,99.744 12.856,96.813 15.91,100 15.91,95.558 15.278,95.558 15.278,98.466    12.224,95.272  "/>
	<g>
		<defs>
			<rect id="SVGID_3_" width="71.284" height="100"/>
		</defs>
		<clipPath id="SVGID_4_">
			<use xlink:href="#SVGID_3_" overflow="visible"/>
		</clipPath>
		<path clip-path="url(#SVGID_4_)" fill="#FFFFFF" d="M17.266,96.244c-0.352,0.417-0.528,0.893-0.528,1.426    c0,0.595,0.211,1.102,0.632,1.524c0.423,0.418,0.934,0.627,1.532,0.627c0.399,0,0.778-0.104,1.14-0.309v-0.764    c-0.103,0.087-0.201,0.163-0.294,0.223c-0.093,0.062-0.183,0.108-0.27,0.147c-0.156,0.072-0.344,0.107-0.566,0.107    c-0.431,0-0.796-0.151-1.091-0.452c-0.297-0.301-0.444-0.672-0.444-1.111c0-0.447,0.147-0.822,0.444-1.129    c0.294-0.309,0.657-0.465,1.087-0.465c0.391,0,0.769,0.153,1.134,0.459v-0.748c-0.35-0.204-0.714-0.306-1.09-0.306    C18.263,95.475,17.702,95.731,17.266,96.244"/>
		<path clip-path="url(#SVGID_4_)" fill="#FFFFFF" d="M23.307,98.078c0,0.364-0.058,0.625-0.176,0.788    c-0.174,0.241-0.423,0.362-0.743,0.362c-0.317,0-0.564-0.121-0.74-0.362c-0.118-0.166-0.177-0.43-0.177-0.788v-2.521h-0.632v2.695    c0,0.443,0.137,0.807,0.412,1.093c0.308,0.317,0.686,0.477,1.137,0.477c0.45,0,0.83-0.16,1.14-0.477    c0.274-0.286,0.412-0.65,0.412-1.093v-2.695h-0.633V98.078z"/>
	</g>
	<path fill="#FFFFFF" d="M26.347,96.708l0.621,1.425h-1.272L26.347,96.708z M24.285,99.744h0.681l0.467-1.017h1.792l0.44,1.017   h0.692l-1.999-4.449L24.285,99.744z"/>
	<g>
		<defs>
			<rect id="SVGID_5_" width="71.284" height="100"/>
		</defs>
		<clipPath id="SVGID_6_">
			<use xlink:href="#SVGID_5_" overflow="visible"/>
		</clipPath>
		<path clip-path="url(#SVGID_6_)" fill="#FFFFFF" d="M31.015,98.761c-0.152,0.137-0.322,0.236-0.51,0.3    c-0.188,0.059-0.424,0.089-0.708,0.089h-0.286v-3h0.286c0.538,0,0.947,0.127,1.222,0.383c0.308,0.285,0.461,0.657,0.461,1.116    C31.48,98.106,31.326,98.477,31.015,98.761 M30.757,95.683c-0.243-0.085-0.576-0.126-0.999-0.126H28.88v4.187h0.869    c0.425,0,0.752-0.038,0.983-0.117c0.248-0.077,0.485-0.215,0.711-0.414c0.449-0.396,0.676-0.917,0.676-1.562    c0-0.642-0.217-1.16-0.647-1.553C31.257,95.901,31.019,95.764,30.757,95.683"/>
	</g>
	<polygon fill="#FFFFFF" points="32.913,95.558 32.913,99.744 35.225,99.744 35.225,99.15 33.546,99.15 33.546,97.751    35.175,97.751 35.175,97.157 33.546,97.157 33.546,96.15 35.225,96.15 35.225,95.558  "/>
	<g>
		<defs>
			<rect id="SVGID_7_" width="71.284" height="100"/>
		</defs>
		<clipPath id="SVGID_8_">
			<use xlink:href="#SVGID_7_" overflow="visible"/>
		</clipPath>
		<path clip-path="url(#SVGID_8_)" fill="#FFFFFF" d="M36.686,97.479v-1.328h0.226c0.581,0,0.874,0.213,0.874,0.643    c0,0.458-0.299,0.685-0.898,0.685H36.686z M38.146,97.551c0.169-0.214,0.253-0.468,0.253-0.765c0-0.38-0.135-0.685-0.405-0.917    c-0.247-0.209-0.647-0.313-1.199-0.313h-0.741v4.187h0.631V98.03H36.8l1.196,1.713h0.773l-1.296-1.784    C37.75,97.9,37.975,97.764,38.146,97.551"/>
	</g>
	<polygon fill="#FFFFFF" points="39.399,99.744 40.03,99.744 40.03,96.813 43.084,100 43.084,95.558 42.452,95.558 42.452,98.466    39.399,95.272  "/>
	<path fill="#FFFFFF" d="M45.697,96.708l0.62,1.425h-1.271L45.697,96.708z M43.634,99.744h0.683l0.466-1.017h1.792l0.44,1.017h0.692   l-1.998-4.449L43.634,99.744z"/>
	<g>
		<defs>
			<rect id="SVGID_9_" width="71.284" height="100"/>
		</defs>
		<clipPath id="SVGID_10_">
			<use xlink:href="#SVGID_9_" overflow="visible"/>
		</clipPath>
		<path clip-path="url(#SVGID_10_)" fill="#FFFFFF" d="M48.362,96.244c-0.354,0.417-0.53,0.893-0.53,1.426    c0,0.595,0.21,1.102,0.632,1.524c0.423,0.418,0.934,0.627,1.533,0.627c0.399,0,0.777-0.104,1.139-0.309v-0.764    c-0.102,0.087-0.201,0.163-0.294,0.223c-0.092,0.062-0.182,0.108-0.268,0.147c-0.158,0.072-0.346,0.107-0.569,0.107    c-0.43,0-0.792-0.151-1.091-0.452c-0.295-0.301-0.444-0.672-0.444-1.111c0-0.447,0.149-0.822,0.444-1.129    c0.296-0.309,0.658-0.465,1.088-0.465c0.391,0,0.768,0.153,1.134,0.459v-0.748c-0.351-0.204-0.713-0.306-1.09-0.306    C49.357,95.475,48.795,95.731,48.362,96.244"/>
	</g>
	<rect x="51.935" y="95.558" fill="#FFFFFF" width="0.631" height="4.186"/>
	<polygon fill="#FFFFFF" points="55.108,94.927 55.409,95.18 56.515,94.432 55.979,94.055  "/>
	<g>
		<defs>
			<rect id="SVGID_11_" width="71.284" height="100"/>
		</defs>
		<clipPath id="SVGID_12_">
			<use xlink:href="#SVGID_11_" overflow="visible"/>
		</clipPath>
		<path clip-path="url(#SVGID_12_)" fill="#FFFFFF" d="M56.65,98.772c-0.301,0.303-0.672,0.456-1.111,0.456    c-0.406,0-0.762-0.151-1.071-0.448c-0.312-0.298-0.467-0.678-0.467-1.142c0-0.44,0.15-0.81,0.45-1.111    c0.301-0.301,0.667-0.454,1.104-0.454c0.437,0,0.805,0.152,1.102,0.454c0.299,0.303,0.447,0.677,0.447,1.123    C57.103,98.09,56.952,98.463,56.65,98.772 M55.562,95.478c-0.604,0-1.119,0.213-1.551,0.635c-0.432,0.423-0.647,0.931-0.647,1.52    c0,0.671,0.236,1.213,0.71,1.627c0.431,0.375,0.915,0.562,1.456,0.562c0.612,0,1.133-0.211,1.566-0.631    c0.431-0.422,0.646-0.931,0.646-1.534c0-0.599-0.214-1.111-0.643-1.539C56.671,95.691,56.161,95.478,55.562,95.478"/>
	</g>
	<polygon fill="#FFFFFF" points="58.538,99.744 59.167,99.744 59.167,96.813 62.222,100 62.222,95.558 61.589,95.558 61.589,98.466    58.538,95.272  "/>
	<rect x="9.075" y="68.316" fill="#FFFFFF" width="1.552" height="11.64"/>
	<g>
		<defs>
			<rect id="SVGID_13_" width="71.284" height="100"/>
		</defs>
		<clipPath id="SVGID_14_">
			<use xlink:href="#SVGID_13_" overflow="visible"/>
		</clipPath>
		<path clip-path="url(#SVGID_14_)" fill="#FFFFFF" d="M13.836,75.18c0.097-0.151,0.211-0.281,0.349-0.39    c0.134-0.108,0.286-0.188,0.45-0.247c0.166-0.059,0.343-0.088,0.531-0.088c0.828,0,1.349,0.415,1.564,1.242h-3.114    C13.667,75.505,13.74,75.332,13.836,75.18 M17.745,79.084c0.224-0.244,0.439-0.54,0.641-0.885l-1.31-0.731    c-0.317,0.498-0.599,0.836-0.847,1.021c-0.254,0.183-0.573,0.275-0.959,0.275c-0.495,0-0.902-0.161-1.22-0.482    c-0.316-0.326-0.497-0.765-0.537-1.315h4.811l0.007-0.366c0-1.109-0.287-1.974-0.856-2.599c-0.573-0.63-1.355-0.946-2.342-0.946    c-0.979,0-1.765,0.324-2.359,0.972c-0.588,0.657-0.881,1.519-0.881,2.579c0,1.07,0.303,1.931,0.91,2.576    c0.608,0.645,1.411,0.967,2.412,0.967c0.35,0,0.675-0.038,0.974-0.111c0.298-0.073,0.577-0.188,0.832-0.348    C17.278,79.533,17.52,79.331,17.745,79.084"/>
		<path clip-path="url(#SVGID_14_)" fill="#FFFFFF" d="M24.167,78.118c-0.345,0.431-0.814,0.648-1.406,0.648    c-0.593,0-1.058-0.214-1.393-0.643c-0.307-0.388-0.462-0.889-0.462-1.499c0-0.62,0.155-1.122,0.462-1.514    c0.341-0.435,0.805-0.654,1.393-0.654c0.552,0,1.003,0.2,1.357,0.6c0.349,0.39,0.523,0.909,0.523,1.562    C24.641,77.228,24.484,77.728,24.167,78.118 M26.013,81.273c0.037-0.185,0.065-0.396,0.086-0.636    c0.021-0.242,0.03-0.52,0.03-0.838v-6.554h-1.55v0.758c-0.561-0.63-1.264-0.946-2.109-0.946c-0.963,0-1.74,0.364-2.329,1.091    c-0.548,0.683-0.821,1.515-0.821,2.494c0,1.005,0.294,1.845,0.883,2.516c0.583,0.661,1.332,0.992,2.248,0.992    c0.804,0,1.513-0.314,2.129-0.945v0.938c0,1.388-0.568,2.081-1.702,2.081c-0.617,0-1.085-0.209-1.407-0.627    c-0.138-0.179-0.237-0.433-0.296-0.765h-1.557c0.09,0.878,0.436,1.565,1.034,2.064c0.578,0.485,1.316,0.727,2.211,0.727    c1.061,0,1.896-0.35,2.501-1.047C25.688,82.213,25.903,81.779,26.013,81.273"/>
		<path clip-path="url(#SVGID_14_)" fill="#FFFFFF" d="M32.235,78.173c-0.354,0.394-0.817,0.591-1.393,0.591    c-0.538,0-0.981-0.203-1.338-0.614c-0.342-0.403-0.516-0.927-0.516-1.571c0-0.601,0.177-1.108,0.531-1.516    c0.359-0.406,0.806-0.607,1.338-0.607c0.565,0,1.025,0.2,1.378,0.602c0.354,0.409,0.531,0.926,0.531,1.556    S32.589,77.762,32.235,78.173 M34.227,79.956v-6.713h-1.559v0.78c-0.62-0.643-1.319-0.966-2.101-0.966    c-0.906,0-1.659,0.335-2.262,1.008c-0.602,0.67-0.902,1.508-0.902,2.515c0,1.024,0.3,1.88,0.902,2.565    c0.606,0.671,1.374,1.005,2.301,1.005c0.736,0,1.423-0.299,2.061-0.896v0.702H34.227z"/>
	</g>
	<polygon fill="#FFFFFF" points="37.417,79.956 37.417,74.691 38.623,74.691 38.623,73.245 37.417,73.245 37.417,70.783    35.867,70.783 35.867,73.245 35.204,73.245 35.204,74.691 35.867,74.691 35.867,79.956  "/>
	<g>
		<defs>
			<rect id="SVGID_15_" width="71.284" height="100"/>
		</defs>
		<clipPath id="SVGID_16_">
			<use xlink:href="#SVGID_15_" overflow="visible"/>
		</clipPath>
		<path clip-path="url(#SVGID_16_)" fill="#FFFFFF" d="M41.215,75.05c0.367-0.396,0.847-0.594,1.44-0.594    c0.602,0,1.086,0.198,1.454,0.594c0.362,0.392,0.545,0.911,0.545,1.563c0,0.653-0.183,1.175-0.545,1.565    c-0.363,0.391-0.847,0.585-1.454,0.585c-0.602,0-1.087-0.197-1.455-0.591c-0.357-0.392-0.538-0.923-0.538-1.594    C40.663,75.955,40.847,75.445,41.215,75.05 M42.627,80.15c1.015,0,1.872-0.339,2.57-1.013c0.693-0.68,1.04-1.524,1.04-2.53    c0-0.996-0.343-1.838-1.033-2.522c-0.698-0.685-1.546-1.028-2.549-1.028c-0.998,0-1.843,0.341-2.539,1.021    c-0.693,0.68-1.039,1.505-1.039,2.475c0,1.028,0.339,1.884,1.02,2.564C40.779,79.806,41.621,80.15,42.627,80.15"/>
		<path clip-path="url(#SVGID_16_)" fill="#FFFFFF" d="M49.805,73.23c-0.218,0.11-0.472,0.314-0.756,0.615v-0.6h-1.55v6.711h1.55    v-3.48c0-1.278,0.423-1.917,1.269-1.917c0.279,0,0.566,0.106,0.862,0.317l0.708-1.418c-0.444-0.266-0.873-0.401-1.281-0.401    C50.299,73.057,50.032,73.115,49.805,73.23"/>
	</g>
	<rect x="52.608" y="73.245" fill="#FFFFFF" width="1.551" height="6.711"/>
	<g>
		<defs>
			<rect id="SVGID_17_" width="71.284" height="100"/>
		</defs>
		<clipPath id="SVGID_18_">
			<use xlink:href="#SVGID_17_" overflow="visible"/>
		</clipPath>
		<path clip-path="url(#SVGID_18_)" fill="#FFFFFF" d="M53.386,71.473c0.281,0,0.518-0.1,0.711-0.296    c0.197-0.198,0.296-0.438,0.296-0.718c0-0.281-0.099-0.519-0.296-0.71c-0.199-0.198-0.438-0.297-0.717-0.297    c-0.276,0-0.514,0.099-0.71,0.297c-0.198,0.197-0.296,0.434-0.296,0.702c0,0.284,0.098,0.527,0.296,0.726    C52.867,71.373,53.106,71.473,53.386,71.473"/>
		<path clip-path="url(#SVGID_18_)" fill="#FFFFFF" d="M60.258,78.173c-0.354,0.394-0.818,0.591-1.392,0.591    c-0.538,0-0.985-0.203-1.338-0.614c-0.345-0.403-0.516-0.927-0.516-1.571c0-0.601,0.175-1.108,0.528-1.516    c0.36-0.406,0.805-0.607,1.338-0.607c0.563,0,1.025,0.2,1.379,0.602c0.352,0.409,0.53,0.926,0.53,1.556    S60.609,77.762,60.258,78.173 M62.249,79.956v-6.713h-1.557v0.78c-0.621-0.643-1.322-0.966-2.102-0.966    c-0.906,0-1.66,0.335-2.261,1.008c-0.602,0.67-0.903,1.508-0.903,2.515c0,1.024,0.301,1.88,0.903,2.565    c0.607,0.671,1.373,1.005,2.302,1.005c0.736,0,1.422-0.299,2.061-0.896v0.702H62.249z"/>
	</g>
</g>
</svg>