<?xml version="1.0" encoding="utf-8"?>
<svg version="1.1" id="Capa_1" xmlns="http://www.w3.org/2000/svg" xmlns:xlink="http://www.w3.org/1999/xlink" x="0px" y="0px"
	 width="300px" height="155px" viewBox="0 0 300 155" enable-background="new 0 0 300 155" xml:space="preserve">
<path fill="#1B2540" d="M300,50.762v-39.2C300,5.176,294.776,0,288.333,0h-50.196c-0.346,0.264-0.774,0.427-1.246,0.427
	S235.991,0.264,235.645,0H11.667C5.224,0,0,5.176,0,11.562v39.22c15.193,0.246,27.439,12.508,27.439,27.624
	c0,15.116-12.246,27.379-27.439,27.623v37.409C0,149.824,5.224,155,11.667,155h276.666c6.443,0,11.668-5.176,11.668-11.562V106.05
	c-15.389-0.021-27.855-12.39-27.855-27.644C272.145,63.152,284.612,50.785,300,50.762z M238.948,147.895
	c0,1.126-0.922,2.039-2.058,2.039s-2.058-0.913-2.058-2.039v-1.335c0-1.125,0.922-2.039,2.058-2.039s2.058,0.914,2.058,2.039
	V147.895z M238.948,137.216c0,1.124-0.922,2.038-2.058,2.038s-2.058-0.914-2.058-2.038v-1.336c0-1.125,0.922-2.039,2.058-2.039
	s2.058,0.914,2.058,2.039V137.216z M238.948,126.537c0,1.126-0.922,2.04-2.058,2.04s-2.058-0.914-2.058-2.04v-1.336
	c0-1.126,0.922-2.04,2.058-2.04s2.058,0.914,2.058,2.04V126.537z M238.948,115.858c0,1.125-0.922,2.039-2.058,2.039
	s-2.058-0.914-2.058-2.039v-1.336c0-1.127,0.922-2.04,2.058-2.04s2.058,0.913,2.058,2.04V115.858z M238.948,105.179
	c0,1.126-0.922,2.039-2.058,2.039s-2.058-0.913-2.058-2.039v-1.335c0-1.127,0.922-2.04,2.058-2.04s2.058,0.913,2.058,2.04V105.179z
	 M238.948,94.499c0,1.126-0.922,2.04-2.058,2.04s-2.058-0.914-2.058-2.04v-1.334c0-1.127,0.922-2.04,2.058-2.04
	s2.058,0.913,2.058,2.04V94.499z M238.948,83.819c0,1.127-0.922,2.041-2.058,2.041s-2.058-0.914-2.058-2.041v-1.334
	c0-1.127,0.922-2.039,2.058-2.039s2.058,0.912,2.058,2.039V83.819z M238.948,73.141c0,1.126-0.922,2.039-2.058,2.039
	s-2.058-0.913-2.058-2.039v-1.334c0-1.127,0.922-2.04,2.058-2.04s2.058,0.913,2.058,2.04V73.141z M238.948,62.462
	c0,1.126-0.922,2.039-2.058,2.039s-2.058-0.913-2.058-2.039v-1.335c0-1.126,0.922-2.04,2.058-2.04s2.058,0.913,2.058,2.04V62.462z
	 M238.948,51.783c0,1.126-0.922,2.039-2.058,2.039s-2.058-0.913-2.058-2.039v-1.335c0-1.127,0.922-2.04,2.058-2.04
	s2.058,0.913,2.058,2.04V51.783z M238.948,41.103c0,1.127-0.922,2.04-2.058,2.04s-2.058-0.913-2.058-2.04v-1.334
	c0-1.126,0.922-2.04,2.058-2.04s2.058,0.913,2.058,2.04V41.103z M238.948,30.425c0,1.126-0.922,2.039-2.058,2.039
	s-2.058-0.913-2.058-2.039V29.09c0-1.127,0.922-2.04,2.058-2.04s2.058,0.913,2.058,2.04V30.425z M238.948,19.745
	c0,1.127-0.922,2.04-2.058,2.04s-2.058-0.913-2.058-2.04v-1.334c0-1.126,0.922-2.04,2.058-2.04s2.058,0.913,2.058,2.04V19.745z
	 M238.948,9.067c0,1.126-0.922,2.039-2.058,2.039s-2.058-0.913-2.058-2.039V7.732c0-1.127,0.922-2.04,2.058-2.04
	s2.058,0.913,2.058,2.04V9.067z"/>
</svg>
